<svg width="112" height="108" viewBox="0 0 112 108" fill="none" xmlns="http://www.w3.org/2000/svg">
<mask id="path-1-outside-1_652_2" maskUnits="userSpaceOnUse" x="0" y="0" width="95" height="108" fill="black">
<rect fill="white" width="95" height="108"/>
<path fill-rule="evenodd" clip-rule="evenodd" d="M75.2599 20.317C66.9142 16.2667 58.0268 14.2416 48.5978 14.2416C39.1058 14.2416 30.193 16.3264 21.8595 20.4961C13.5718 24.642 6.73283 30.503 1.34251 38.0789C1.2831 38.1624 1.22883 38.2501 1.18907 38.3445C1.03958 38.6997 0.978734 39.0843 1.00654 39.4983C1.03804 39.9663 1.26029 40.2987 1.67329 40.4955C2.06442 40.7132 2.46035 40.773 2.8611 40.6746C3.26185 40.5762 3.66829 40.2654 4.08042 39.742C9.22629 32.6285 15.7 27.1389 23.5015 23.273C31.303 19.4072 39.6684 17.4742 48.5978 17.4742C57.5053 17.4953 65.9206 19.4221 73.8437 23.2546C80.4175 26.4347 86.0194 30.7528 90.6496 36.2089C91.3798 37.0694 92.7515 36.9932 93.3404 36.0305V36.0305C93.6982 35.4458 93.6487 34.6971 93.2043 34.1751C88.221 28.3236 82.2395 23.7042 75.2599 20.317ZM85.7904 48.3712C86.1137 47.8429 86.1154 47.1761 85.7771 46.6572C83.9775 43.8969 81.7843 41.306 79.1974 38.8844C70.6977 30.9287 60.4978 26.9509 48.5978 26.9509C36.9393 26.9509 26.8383 31.0104 18.2948 39.1294C9.75129 47.2493 5.47954 56.9947 5.47954 68.3657C5.47954 72.0252 5.80767 75.5999 6.46392 79.0899C7.12017 82.5799 7.98554 85.899 9.06004 89.0474C9.27704 89.6121 9.61873 89.9489 10.0851 90.0578C10.5524 90.1667 11.003 90.1227 11.437 89.926C11.7826 89.7293 12.0482 89.4843 12.2337 89.191C12.4192 88.8985 12.4139 88.4801 12.2179 87.9356C10.7479 83.9477 9.77229 80.2895 9.29104 76.9611C8.80979 73.6318 8.56917 70.7772 8.56917 68.3973C8.56917 57.6999 12.494 48.7225 20.3436 41.465C28.1924 34.2075 37.5999 30.5788 48.5663 30.5788C59.5327 30.5788 68.9507 34.1864 76.8205 41.4018C79.1838 43.5683 81.1923 45.8909 82.846 48.3695C83.546 49.4187 85.1322 49.4472 85.7904 48.3712V48.3712ZM69.154 77.5558C69.6653 77.919 70 78.4929 70 79.1201V79.1201C70 80.4009 68.6914 81.2489 67.6204 80.5467C66.8523 80.0431 66.1172 79.4653 65.4149 78.8132C62.3314 75.9503 60.7896 72.4678 60.7896 68.3657C60.7896 65.0241 59.59 62.2222 57.1907 59.96C54.7906 57.6977 51.9263 56.5666 48.5978 56.5666C45.2894 56.5666 42.4137 57.6977 39.9707 59.96C37.5277 62.2222 36.3062 65.0241 36.3062 68.3657C36.3062 77.4569 39.01 85.0595 44.4175 91.1735C49.825 97.2876 56.7668 101.521 65.2429 103.875C65.8309 104.03 66.2063 104.275 66.369 104.613C66.5318 104.95 66.5694 105.325 66.4819 105.739C66.3734 106.241 66.1617 106.601 65.8467 106.819C65.5317 107.037 65.0824 107.058 64.4987 106.882C55.1931 104.641 47.6309 100.092 41.8122 93.2351C35.9934 86.3781 33.084 78.0883 33.084 68.3657C33.084 64.1538 34.6039 60.6006 37.6437 57.7061C40.6834 54.8124 44.3348 53.3655 48.5978 53.3655C52.8608 53.3655 56.517 54.7966 59.5664 57.6586C62.6166 60.5216 64.1417 64.0484 64.1417 68.2392C64.1417 71.5132 65.3803 74.2707 67.8574 76.5119C68.2773 76.8921 68.7095 77.2401 69.154 77.5558ZM77.2872 61.1497C77.3886 61.5399 77.3157 61.9535 77.0983 62.2929V62.2929C76.3282 63.4952 74.3376 63.0444 73.9628 61.6667C72.8202 57.4668 70.5177 53.7697 67.0555 50.5755C61.8869 45.8086 55.7343 43.4251 48.5978 43.4251C41.4604 43.4251 35.3464 45.8297 30.2556 50.6387C25.164 55.4478 22.6182 61.3567 22.6182 68.3657C22.6182 75.725 23.862 82.034 26.3496 87.2927C28.8364 92.5514 32.6067 97.8048 37.6607 103.053C38.0737 103.467 38.2636 103.865 38.2304 104.246C38.1971 104.627 38.0387 104.97 37.7552 105.275C37.5172 105.556 37.1388 105.747 36.6199 105.847C36.1002 105.947 35.6342 105.746 35.2221 105.244C30.1471 99.9955 26.224 94.4369 23.4529 88.5679C20.6827 82.698 19.2975 75.9639 19.2975 68.3657C19.2975 60.4864 22.1579 53.8262 27.8787 48.3848C33.5994 42.9443 40.5058 40.2241 48.5978 40.2241C56.6688 40.2241 63.6137 42.9285 69.4324 48.3374C73.4106 52.0359 76.0289 56.3067 77.2872 61.1497ZM65.3952 3.09188C59.9054 1.69729 54.3063 1 48.5978 1C43.0223 1 37.4687 1.69729 31.9369 3.09188C26.406 4.48647 21.1364 6.57615 16.1279 9.36093C15.7814 9.55765 15.5976 9.88961 15.5766 10.3568C15.5591 10.7466 15.6173 11.0495 15.7513 11.2657C15.8028 11.3487 15.8651 11.4247 15.9237 11.5028C16.1227 11.7677 16.3544 11.9622 16.6187 12.0864C16.9206 12.2287 17.3428 12.1804 17.8853 11.9415C22.6103 9.39475 27.554 7.48992 32.7165 6.22707C37.879 4.96421 43.1728 4.33278 48.5978 4.33278C54.0018 4.33278 59.3235 5.00812 64.563 6.3588C69.8025 7.70948 74.818 9.57039 79.6095 11.9415C80.11 12.1804 80.5502 12.1962 80.9299 11.989C81.3088 11.7817 81.6067 11.5147 81.8237 11.188C82.0197 10.8622 82.0854 10.4815 82.0206 10.0459C81.9559 9.61035 81.6627 9.28365 81.1412 9.06586C76.1336 6.47779 70.8849 4.48647 65.3952 3.09188ZM49.6859 66.997C49.4146 66.6703 49.0187 66.507 48.498 66.507C47.9765 66.507 47.5802 66.6703 47.3089 66.997C47.0385 67.3228 46.9034 67.7474 46.9034 68.2708C46.9034 76.4232 49.7615 83.0471 55.4779 88.1424C61.1952 93.2377 67.9979 95.7854 75.886 95.7854C76.2745 95.7854 77.0699 95.7582 78.2721 95.7037C79.4735 95.6493 80.8201 95.4025 82.312 94.9634C82.7705 94.8545 83.0864 94.6525 83.2596 94.3574C83.432 94.0624 83.4849 93.6975 83.4184 93.2628C83.3729 92.9361 83.1927 92.6366 82.8777 92.3644C82.5635 92.0921 82.1562 91.9894 81.6557 92.0561C80.5602 92.1905 79.5102 92.3121 78.5057 92.421C77.5012 92.529 76.628 92.583 75.886 92.583C69.019 92.583 63.0034 90.3462 57.8391 85.8727C52.6749 81.3982 50.0927 75.531 50.0927 68.2708C50.0927 67.7474 49.9571 67.3228 49.6859 66.997Z"/>
</mask>
<path fill-rule="evenodd" clip-rule="evenodd" d="M75.2599 20.317C66.9142 16.2667 58.0268 14.2416 48.5978 14.2416C39.1058 14.2416 30.193 16.3264 21.8595 20.4961C13.5718 24.642 6.73283 30.503 1.34251 38.0789C1.2831 38.1624 1.22883 38.2501 1.18907 38.3445C1.03958 38.6997 0.978734 39.0843 1.00654 39.4983C1.03804 39.9663 1.26029 40.2987 1.67329 40.4955C2.06442 40.7132 2.46035 40.773 2.8611 40.6746C3.26185 40.5762 3.66829 40.2654 4.08042 39.742C9.22629 32.6285 15.7 27.1389 23.5015 23.273C31.303 19.4072 39.6684 17.4742 48.5978 17.4742C57.5053 17.4953 65.9206 19.4221 73.8437 23.2546C80.4175 26.4347 86.0194 30.7528 90.6496 36.2089C91.3798 37.0694 92.7515 36.9932 93.3404 36.0305V36.0305C93.6982 35.4458 93.6487 34.6971 93.2043 34.1751C88.221 28.3236 82.2395 23.7042 75.2599 20.317ZM85.7904 48.3712C86.1137 47.8429 86.1154 47.1761 85.7771 46.6572C83.9775 43.8969 81.7843 41.306 79.1974 38.8844C70.6977 30.9287 60.4978 26.9509 48.5978 26.9509C36.9393 26.9509 26.8383 31.0104 18.2948 39.1294C9.75129 47.2493 5.47954 56.9947 5.47954 68.3657C5.47954 72.0252 5.80767 75.5999 6.46392 79.0899C7.12017 82.5799 7.98554 85.899 9.06004 89.0474C9.27704 89.6121 9.61873 89.9489 10.0851 90.0578C10.5524 90.1667 11.003 90.1227 11.437 89.926C11.7826 89.7293 12.0482 89.4843 12.2337 89.191C12.4192 88.8985 12.4139 88.4801 12.2179 87.9356C10.7479 83.9477 9.77229 80.2895 9.29104 76.9611C8.80979 73.6318 8.56917 70.7772 8.56917 68.3973C8.56917 57.6999 12.494 48.7225 20.3436 41.465C28.1924 34.2075 37.5999 30.5788 48.5663 30.5788C59.5327 30.5788 68.9507 34.1864 76.8205 41.4018C79.1838 43.5683 81.1923 45.8909 82.846 48.3695C83.546 49.4187 85.1322 49.4472 85.7904 48.3712V48.3712ZM69.154 77.5558C69.6653 77.919 70 78.4929 70 79.1201V79.1201C70 80.4009 68.6914 81.2489 67.6204 80.5467C66.8523 80.0431 66.1172 79.4653 65.4149 78.8132C62.3314 75.9503 60.7896 72.4678 60.7896 68.3657C60.7896 65.0241 59.59 62.2222 57.1907 59.96C54.7906 57.6977 51.9263 56.5666 48.5978 56.5666C45.2894 56.5666 42.4137 57.6977 39.9707 59.96C37.5277 62.2222 36.3062 65.0241 36.3062 68.3657C36.3062 77.4569 39.01 85.0595 44.4175 91.1735C49.825 97.2876 56.7668 101.521 65.2429 103.875C65.8309 104.03 66.2063 104.275 66.369 104.613C66.5318 104.95 66.5694 105.325 66.4819 105.739C66.3734 106.241 66.1617 106.601 65.8467 106.819C65.5317 107.037 65.0824 107.058 64.4987 106.882C55.1931 104.641 47.6309 100.092 41.8122 93.2351C35.9934 86.3781 33.084 78.0883 33.084 68.3657C33.084 64.1538 34.6039 60.6006 37.6437 57.7061C40.6834 54.8124 44.3348 53.3655 48.5978 53.3655C52.8608 53.3655 56.517 54.7966 59.5664 57.6586C62.6166 60.5216 64.1417 64.0484 64.1417 68.2392C64.1417 71.5132 65.3803 74.2707 67.8574 76.5119C68.2773 76.8921 68.7095 77.2401 69.154 77.5558ZM77.2872 61.1497C77.3886 61.5399 77.3157 61.9535 77.0983 62.2929V62.2929C76.3282 63.4952 74.3376 63.0444 73.9628 61.6667C72.8202 57.4668 70.5177 53.7697 67.0555 50.5755C61.8869 45.8086 55.7343 43.4251 48.5978 43.4251C41.4604 43.4251 35.3464 45.8297 30.2556 50.6387C25.164 55.4478 22.6182 61.3567 22.6182 68.3657C22.6182 75.725 23.862 82.034 26.3496 87.2927C28.8364 92.5514 32.6067 97.8048 37.6607 103.053C38.0737 103.467 38.2636 103.865 38.2304 104.246C38.1971 104.627 38.0387 104.97 37.7552 105.275C37.5172 105.556 37.1388 105.747 36.6199 105.847C36.1002 105.947 35.6342 105.746 35.2221 105.244C30.1471 99.9955 26.224 94.4369 23.4529 88.5679C20.6827 82.698 19.2975 75.9639 19.2975 68.3657C19.2975 60.4864 22.1579 53.8262 27.8787 48.3848C33.5994 42.9443 40.5058 40.2241 48.5978 40.2241C56.6688 40.2241 63.6137 42.9285 69.4324 48.3374C73.4106 52.0359 76.0289 56.3067 77.2872 61.1497ZM65.3952 3.09188C59.9054 1.69729 54.3063 1 48.5978 1C43.0223 1 37.4687 1.69729 31.9369 3.09188C26.406 4.48647 21.1364 6.57615 16.1279 9.36093C15.7814 9.55765 15.5976 9.88961 15.5766 10.3568C15.5591 10.7466 15.6173 11.0495 15.7513 11.2657C15.8028 11.3487 15.8651 11.4247 15.9237 11.5028C16.1227 11.7677 16.3544 11.9622 16.6187 12.0864C16.9206 12.2287 17.3428 12.1804 17.8853 11.9415C22.6103 9.39475 27.554 7.48992 32.7165 6.22707C37.879 4.96421 43.1728 4.33278 48.5978 4.33278C54.0018 4.33278 59.3235 5.00812 64.563 6.3588C69.8025 7.70948 74.818 9.57039 79.6095 11.9415C80.11 12.1804 80.5502 12.1962 80.9299 11.989C81.3088 11.7817 81.6067 11.5147 81.8237 11.188C82.0197 10.8622 82.0854 10.4815 82.0206 10.0459C81.9559 9.61035 81.6627 9.28365 81.1412 9.06586C76.1336 6.47779 70.8849 4.48647 65.3952 3.09188ZM49.6859 66.997C49.4146 66.6703 49.0187 66.507 48.498 66.507C47.9765 66.507 47.5802 66.6703 47.3089 66.997C47.0385 67.3228 46.9034 67.7474 46.9034 68.2708C46.9034 76.4232 49.7615 83.0471 55.4779 88.1424C61.1952 93.2377 67.9979 95.7854 75.886 95.7854C76.2745 95.7854 77.0699 95.7582 78.2721 95.7037C79.4735 95.6493 80.8201 95.4025 82.312 94.9634C82.7705 94.8545 83.0864 94.6525 83.2596 94.3574C83.432 94.0624 83.4849 93.6975 83.4184 93.2628C83.3729 92.9361 83.1927 92.6366 82.8777 92.3644C82.5635 92.0921 82.1562 91.9894 81.6557 92.0561C80.5602 92.1905 79.5102 92.3121 78.5057 92.421C77.5012 92.529 76.628 92.583 75.886 92.583C69.019 92.583 63.0034 90.3462 57.8391 85.8727C52.6749 81.3982 50.0927 75.531 50.0927 68.2708C50.0927 67.7474 49.9571 67.3228 49.6859 66.997Z" fill="white"/>
<path d="M75.2599 20.317L75.6965 19.4173L75.6965 19.4173L75.2599 20.317ZM21.8595 20.4961L22.3069 21.3905L22.307 21.3904L21.8595 20.4961ZM1.00654 39.4983L0.00879052 39.5653L0.00879898 39.5654L1.00654 39.4983ZM1.67329 40.4955L2.15979 39.6218L2.13202 39.6063L2.10331 39.5926L1.67329 40.4955ZM2.8611 40.6746L2.62274 39.7034L2.62273 39.7034L2.8611 40.6746ZM4.08042 39.742L4.8661 40.3606L4.8787 40.3446L4.89064 40.3281L4.08042 39.742ZM23.5015 23.273L23.9455 24.169L23.9455 24.169L23.5015 23.273ZM48.5978 17.4742L48.6002 16.4742H48.5978V17.4742ZM73.8437 23.2546L74.2792 22.3544L74.2792 22.3543L73.8437 23.2546ZM79.1974 38.8844L79.8808 38.1543L79.8808 38.1543L79.1974 38.8844ZM18.2948 39.1294L17.6059 38.4045L17.6059 38.4046L18.2948 39.1294ZM9.06004 89.0474L8.11364 89.3704L8.11978 89.3884L8.12659 89.4061L9.06004 89.0474ZM10.0851 90.0578L9.85771 91.0316L9.85813 91.0317L10.0851 90.0578ZM11.437 89.926L11.8498 90.8368L11.8917 90.8179L11.9316 90.7951L11.437 89.926ZM12.2337 89.191L11.3892 88.6553L11.3885 88.6565L12.2337 89.191ZM12.2179 87.9356L13.1588 87.5969L13.1562 87.5897L12.2179 87.9356ZM9.29104 76.9611L8.30133 77.1042L8.30133 77.1042L9.29104 76.9611ZM20.3436 41.465L21.0225 42.1993L21.0225 42.1992L20.3436 41.465ZM76.8205 41.4018L76.1447 42.1389L76.1447 42.1389L76.8205 41.4018ZM65.4149 78.8132L66.0953 78.0804L66.0953 78.0804L65.4149 78.8132ZM57.1907 59.96L57.8768 59.2324L57.8766 59.2323L57.1907 59.96ZM39.9707 59.96L40.6502 60.6937L40.6502 60.6937L39.9707 59.96ZM44.4175 91.1735L45.1665 90.511L45.1665 90.511L44.4175 91.1735ZM65.2429 103.875L64.9753 104.839L64.9887 104.842L65.2429 103.875ZM66.369 104.613L65.4684 105.047L65.4684 105.047L66.369 104.613ZM66.4819 105.739L67.4594 105.95L67.4603 105.946L66.4819 105.739ZM64.4987 106.882L64.7869 105.925L64.7601 105.917L64.7329 105.91L64.4987 106.882ZM41.8122 93.2351L41.0497 93.8821L41.0497 93.8821L41.8122 93.2351ZM37.6437 57.7061L36.9542 56.9818L36.9541 56.9819L37.6437 57.7061ZM59.5664 57.6586L60.2507 56.9295L60.2507 56.9295L59.5664 57.6586ZM67.8574 76.5119L68.5286 75.7706L68.5283 75.7704L67.8574 76.5119ZM67.0555 50.5755L67.7336 49.8405L67.7334 49.8404L67.0555 50.5755ZM30.2556 50.6387L30.9423 51.3657L30.9423 51.3656L30.2556 50.6387ZM26.3496 87.2927L27.2536 86.8652L27.2536 86.8651L26.3496 87.2927ZM37.6607 103.053L36.9404 103.747L36.9463 103.753L36.9523 103.759L37.6607 103.053ZM38.2304 104.246L39.2266 104.334L39.2266 104.333L38.2304 104.246ZM37.7552 105.275L37.0221 104.595L37.0067 104.612L36.9921 104.629L37.7552 105.275ZM36.6199 105.847L36.8091 106.829L36.8094 106.829L36.6199 105.847ZM35.2221 105.244L35.9952 104.609L35.9693 104.578L35.941 104.549L35.2221 105.244ZM23.4529 88.5679L22.5486 88.9947L22.5486 88.9948L23.4529 88.5679ZM27.8787 48.3848L27.1895 47.6602L27.1895 47.6602L27.8787 48.3848ZM69.4324 48.3374L70.1133 47.605L70.1132 47.6049L69.4324 48.3374ZM65.3952 3.09188L65.6414 2.12267L65.6414 2.12267L65.3952 3.09188ZM31.9369 3.09188L31.6925 2.12222L31.6924 2.12223L31.9369 3.09188ZM16.1279 9.36093L15.6419 8.48691L15.6341 8.49131L16.1279 9.36093ZM15.5766 10.3568L16.5756 10.4018L16.5756 10.4017L15.5766 10.3568ZM16.6187 12.0864L17.045 11.1819L17.044 11.1814L16.6187 12.0864ZM17.8853 11.9415L18.2883 12.8567L18.3247 12.8407L18.3598 12.8218L17.8853 11.9415ZM32.7165 6.22707L32.9542 7.19843L32.9542 7.19843L32.7165 6.22707ZM64.563 6.3588L64.3134 7.32714L64.3134 7.32714L64.563 6.3588ZM79.6095 11.9415L79.166 12.8378L79.1724 12.841L79.1788 12.844L79.6095 11.9415ZM80.9299 11.989L81.409 12.8667L81.4098 12.8663L80.9299 11.989ZM81.8237 11.188L82.6567 11.7413L82.6691 11.7227L82.6806 11.7035L81.8237 11.188ZM82.0206 10.0459L83.0097 9.8989L83.0097 9.8989L82.0206 10.0459ZM81.1412 9.06586L80.6821 9.95423L80.7183 9.97293L80.7559 9.98862L81.1412 9.06586ZM49.6859 66.997L48.9165 67.6358L48.9173 67.6368L49.6859 66.997ZM47.3089 66.997L46.5395 66.3582L46.5394 66.3584L47.3089 66.997ZM55.4779 88.1424L54.8125 88.8889L54.8126 88.8889L55.4779 88.1424ZM78.2721 95.7037L78.3174 96.7027L78.3174 96.7027L78.2721 95.7037ZM82.312 94.9634L82.0809 93.9905L82.0551 93.9966L82.0296 94.0041L82.312 94.9634ZM83.2596 94.3574L84.122 94.8638L84.1231 94.8619L83.2596 94.3574ZM83.4184 93.2628L82.4279 93.4007L82.4299 93.414L83.4184 93.2628ZM82.8777 92.3644L82.2227 93.12L82.2238 93.121L82.8777 92.3644ZM81.6557 92.0561L81.7775 93.0487L81.7879 93.0473L81.6557 92.0561ZM78.5057 92.421L78.6126 93.4153L78.6135 93.4152L78.5057 92.421ZM57.8391 85.8727L57.1843 86.6285L57.1844 86.6285L57.8391 85.8727ZM69.154 77.5558L68.5748 78.371L69.154 77.5558ZM77.2872 61.1497L78.2551 60.8982L77.2872 61.1497ZM15.7513 11.2657L14.9015 11.7927L15.7513 11.2657ZM15.9237 11.5028L15.1242 12.1035L15.9237 11.5028ZM73.9628 61.6667L74.9277 61.4041L73.9628 61.6667ZM82.846 48.3695L82.0141 48.9245L82.846 48.3695ZM1.34251 38.0789L2.15732 38.6587L1.34251 38.0789ZM1.18907 38.3445L0.267397 37.9566L1.18907 38.3445ZM85.7771 46.6572L86.6148 46.111L85.7771 46.6572ZM93.2043 34.1751L92.4429 34.8235L93.2043 34.1751ZM90.6496 36.2089L89.8871 36.8559L90.6496 36.2089ZM48.5978 15.2416C57.8781 15.2416 66.6159 17.2335 74.8233 21.2166L75.6965 19.4173C67.2124 15.2999 58.1755 13.2416 48.5978 13.2416V15.2416ZM22.307 21.3904C30.4989 17.2916 39.2581 15.2416 48.5978 15.2416V13.2416C38.9535 13.2416 29.8872 15.3613 21.4121 19.6018L22.307 21.3904ZM2.15732 38.6587C7.45308 31.2156 14.1661 25.4629 22.3069 21.3905L21.4122 19.6018C12.9776 23.8212 6.01257 29.7904 0.527708 37.4992L2.15732 38.6587ZM2.00429 39.4312C1.98611 39.1605 2.0263 38.9331 2.11074 38.7325L0.267397 37.9566C0.0528551 38.4662 -0.0286436 39.008 0.00879053 39.5653L2.00429 39.4312ZM2.10331 39.5926C2.06748 39.5756 2.0482 39.5615 2.03931 39.5541C2.03102 39.5472 2.02868 39.5436 2.02815 39.5428C2.02756 39.5419 2.02384 39.5364 2.01918 39.5217C2.01428 39.5062 2.00741 39.4775 2.00429 39.4311L0.00879898 39.5654C0.0342503 39.9436 0.141448 40.3193 0.365555 40.6544C0.590488 40.9909 0.898058 41.2338 1.24327 41.3983L2.10331 39.5926ZM2.62273 39.7034C2.48906 39.7362 2.35071 39.7281 2.15979 39.6218L1.18679 41.3691C1.77813 41.6984 2.43165 41.8097 3.09947 41.6458L2.62273 39.7034ZM3.29474 39.1233C2.94202 39.5713 2.70935 39.6822 2.62274 39.7034L3.09947 41.6458C3.81436 41.4703 4.39457 40.9594 4.8661 40.3606L3.29474 39.1233ZM23.0575 22.377C15.1093 26.3155 8.51036 31.912 3.27019 39.1558L4.89064 40.3281C9.94223 33.345 16.2907 27.9622 23.9455 24.169L23.0575 22.377ZM48.5978 16.4742C39.5185 16.4742 31.0006 18.441 23.0575 22.377L23.9455 24.169C31.6054 20.3734 39.8184 18.4742 48.5978 18.4742V16.4742ZM74.2792 22.3543C66.2193 18.4557 57.6558 16.4957 48.6002 16.4742L48.5954 18.4742C57.3548 18.4949 65.6219 20.3884 73.4083 24.1548L74.2792 22.3543ZM91.412 35.5619C86.6898 29.9973 80.9757 25.5939 74.2792 22.3544L73.4083 24.1548C79.8592 27.2755 85.349 31.5083 89.8871 36.8559L91.412 35.5619ZM74.8233 21.2166C81.6796 24.5441 87.5502 29.0783 92.4429 34.8235L93.9656 33.5268C88.8917 27.5689 82.7994 22.8644 75.6965 19.4173L74.8233 21.2166ZM78.514 39.6144C81.0467 41.9852 83.1869 44.5152 84.9394 47.2033L86.6148 46.111C84.7682 43.2786 82.522 40.6267 79.8808 38.1543L78.514 39.6144ZM48.5978 27.9509C60.2502 27.9509 70.2041 31.8365 78.5141 39.6145L79.8808 38.1543C71.1912 30.021 60.7453 25.9509 48.5978 25.9509V27.9509ZM18.9837 39.8543C27.3436 31.9098 37.1988 27.9509 48.5978 27.9509V25.9509C36.6798 25.9509 26.333 30.1111 17.6059 38.4045L18.9837 39.8543ZM6.47954 68.3657C6.47954 57.2798 10.6307 47.7931 18.9837 39.8543L17.6059 38.4046C8.87192 46.7055 4.47954 56.7096 4.47954 68.3657H6.47954ZM7.44669 78.9051C6.80225 75.4779 6.47954 71.9651 6.47954 68.3657H4.47954C4.47954 72.0853 4.81309 75.7219 5.48114 79.2747L7.44669 78.9051ZM10.0064 88.7244C8.94834 85.6241 8.09472 82.3513 7.44669 78.9051L5.48114 79.2747C6.14562 82.8084 7.02274 86.174 8.11364 89.3704L10.0064 88.7244ZM10.3125 89.084C10.254 89.0703 10.1268 89.0356 9.99349 88.6887L8.12659 89.4061C8.42726 90.1885 8.9835 90.8274 9.85771 91.0316L10.3125 89.084ZM11.0241 89.0152C10.7921 89.1204 10.5665 89.1432 10.3121 89.0839L9.85813 91.0317C10.5382 91.1902 11.2138 91.1251 11.8498 90.8368L11.0241 89.0152ZM11.3885 88.6565C11.3027 88.7922 11.1664 88.9294 10.9423 89.0569L11.9316 90.7951C12.3988 90.5292 12.7937 90.1764 13.0788 89.7255L11.3885 88.6565ZM11.277 88.2743C11.3507 88.4789 11.3681 88.6059 11.3689 88.6703C11.3696 88.7265 11.3582 88.7043 11.3892 88.6553L13.0781 89.7266C13.5141 89.0393 13.3904 88.2402 13.1588 87.5969L11.277 88.2743ZM8.30133 77.1042C8.7948 80.5171 9.79146 84.2442 11.2796 88.2814L13.1562 87.5897C11.7044 83.6511 10.7498 80.0619 10.2808 76.818L8.30133 77.1042ZM7.56917 68.3973C7.56917 70.8402 7.81579 73.7452 8.30133 77.1042L10.2808 76.818C9.8038 73.5185 9.56917 70.7143 9.56917 68.3973H7.56917ZM19.6647 40.7307C11.6102 48.1776 7.56917 57.4213 7.56917 68.3973H9.56917C9.56917 57.9785 13.3777 49.2673 21.0225 42.1993L19.6647 40.7307ZM48.5663 29.5788C37.3554 29.5788 27.7035 33.2976 19.6647 40.7308L21.0225 42.1992C28.6812 35.1174 37.8444 31.5788 48.5663 31.5788V29.5788ZM77.4963 40.6647C69.4366 33.2753 59.7754 29.5788 48.5663 29.5788V31.5788C59.2899 31.5788 68.4648 35.0976 76.1447 42.1389L77.4963 40.6647ZM83.6778 47.8145C81.9764 45.2643 79.9142 42.8813 77.4962 40.6646L76.1447 42.1389C78.4533 44.2553 80.4082 46.5175 82.0141 48.9245L83.6778 47.8145ZM68.1687 79.7104C67.4495 79.2389 66.7583 78.696 66.0953 78.0804L64.7344 79.5461C65.476 80.2346 66.2552 80.8474 67.0721 81.383L68.1687 79.7104ZM66.0953 78.0804C63.2096 75.4012 61.7896 72.1817 61.7896 68.3657H59.7896C59.7896 72.7539 61.4531 76.4994 64.7344 79.5461L66.0953 78.0804ZM61.7896 68.3657C61.7896 64.7529 60.4794 61.6864 57.8768 59.2324L56.5047 60.6875C58.7006 62.758 59.7896 65.2954 59.7896 68.3657H61.7896ZM57.8766 59.2323C55.2891 56.7933 52.1787 55.5666 48.5978 55.5666V57.5666C51.6739 57.5666 54.2922 58.6021 56.5048 60.6877L57.8766 59.2323ZM48.5978 55.5666C45.0357 55.5666 41.9178 56.794 39.2913 59.2262L40.6502 60.6937C42.9096 58.6014 45.5431 57.5666 48.5978 57.5666V55.5666ZM39.2913 59.2262C36.6431 61.6785 35.3062 64.7467 35.3062 68.3657H37.3062C37.3062 65.3015 38.4124 62.7659 40.6502 60.6937L39.2913 59.2262ZM35.3062 68.3657C35.3062 77.6711 38.0805 85.518 43.6684 91.836L45.1665 90.511C39.9395 84.601 37.3062 77.2427 37.3062 68.3657H35.3062ZM43.6684 91.836C49.214 98.1062 56.3281 102.437 64.9754 104.839L65.5105 102.911C57.2054 100.605 50.436 96.469 45.1665 90.511L43.6684 91.836ZM64.9887 104.842C65.2128 104.901 65.3457 104.965 65.4175 105.012C65.4836 105.055 65.4803 105.072 65.4684 105.047L67.2696 104.178C66.9184 103.45 66.1951 103.091 65.4971 102.908L64.9887 104.842ZM65.4684 105.047C65.5227 105.16 65.5515 105.306 65.5036 105.532L67.4603 105.946C67.5874 105.345 67.5409 104.74 67.2696 104.178L65.4684 105.047ZM65.5045 105.528C65.4309 105.869 65.321 105.967 65.278 105.997L66.4154 107.642C67.0024 107.236 67.316 106.614 67.4594 105.95L65.5045 105.528ZM65.278 105.997C65.2996 105.982 65.2973 105.996 65.2266 105.999C65.1474 106.003 65.0061 105.991 64.7869 105.925L64.2106 107.84C64.9131 108.051 65.7323 108.114 66.4154 107.642L65.278 105.997ZM64.7329 105.91C55.6193 103.715 48.2471 99.2727 42.5746 92.5881L41.0497 93.8821C47.0147 100.912 54.7669 105.567 64.2646 107.855L64.7329 105.91ZM42.5746 92.5881C36.9221 85.927 34.084 77.872 34.084 68.3657H32.084C32.084 78.3046 35.0647 86.8292 41.0497 93.8821L42.5746 92.5881ZM34.084 68.3657C34.084 64.4265 35.4925 61.1353 38.3333 58.4302L36.9541 56.9819C33.7153 60.0659 32.084 63.8812 32.084 68.3657H34.084ZM38.3332 58.4303C41.1837 55.7167 44.587 54.3655 48.5978 54.3655V52.3655C44.0826 52.3655 40.1831 53.908 36.9542 56.9818L38.3332 58.4303ZM48.5978 54.3655C52.612 54.3655 56.022 55.7034 58.882 58.3878L60.2507 56.9295C57.012 53.8897 53.1096 52.3655 48.5978 52.3655V54.3655ZM58.882 58.3878C61.7304 61.0613 63.1417 64.3241 63.1417 68.2392H65.1417C65.1417 63.7728 63.5028 59.9818 60.2507 56.9295L58.882 58.3878ZM63.1417 68.2392C63.1417 71.8022 64.5047 74.8271 67.1865 77.2534L68.5283 75.7704C66.2559 73.7144 65.1417 71.2241 65.1417 68.2392H63.1417ZM67.1862 77.2532C67.6342 77.6588 68.097 78.0316 68.5748 78.371L69.7331 76.7406C69.322 76.4485 68.9204 76.1254 68.5286 75.7706L67.1862 77.2532ZM74.9277 61.4041C73.7317 57.0081 71.3221 53.1513 67.7336 49.8405L66.3774 51.3105C69.7133 54.3882 71.9086 57.9256 72.9979 61.9292L74.9277 61.4041ZM67.7334 49.8404C62.3771 44.9003 55.9814 42.4251 48.5978 42.4251V44.4251C55.4872 44.4251 61.3966 46.7168 66.3775 51.3106L67.7334 49.8404ZM48.5978 42.4251C41.2105 42.4251 34.8492 44.9237 29.5689 49.9118L30.9423 51.3656C35.8435 46.7357 41.7103 44.4251 48.5978 44.4251V42.4251ZM29.569 49.9117C24.2772 54.9098 21.6182 61.0819 21.6182 68.3657H23.6182C23.6182 61.6316 26.0508 55.9857 30.9423 51.3657L29.569 49.9117ZM21.6182 68.3657C21.6182 75.8349 22.8803 82.2974 25.4456 87.7204L27.2536 86.8651C24.8436 81.7707 23.6182 75.6152 23.6182 68.3657H21.6182ZM25.4456 87.7202C27.9887 93.0982 31.8293 98.4392 36.9404 103.747L38.381 102.359C33.3841 97.1705 29.684 92.0046 27.2536 86.8652L25.4456 87.7202ZM36.9523 103.759C37.2683 104.076 37.2307 104.199 37.2341 104.16L39.2266 104.333C39.2965 103.531 38.8792 102.859 38.3691 102.347L36.9523 103.759ZM37.2342 104.159C37.2221 104.297 37.1692 104.437 37.0221 104.595L38.4884 105.955C38.9082 105.503 39.1721 104.956 39.2266 104.334L37.2342 104.159ZM36.9921 104.629C36.9538 104.674 36.8204 104.79 36.4305 104.865L36.8094 106.829C37.4571 106.704 38.0807 106.438 38.5183 105.922L36.9921 104.629ZM36.4308 104.865C36.3591 104.879 36.2375 104.905 35.9952 104.609L34.449 105.878C35.031 106.587 35.8413 107.015 36.8091 106.829L36.4308 104.865ZM35.941 104.549C30.9326 99.3693 27.0762 93.8995 24.3572 88.1409L22.5486 88.9948C25.3719 94.9743 29.3616 100.622 34.5032 105.939L35.941 104.549ZM24.3573 88.1411C21.6599 82.4256 20.2975 75.8413 20.2975 68.3657H18.2975C18.2975 76.0865 19.7055 82.9704 22.5486 88.9947L24.3573 88.1411ZM20.2975 68.3657C20.2975 60.761 23.0451 54.3624 28.5679 49.1094L27.1895 47.6602C21.2707 53.2899 18.2975 60.2119 18.2975 68.3657H20.2975ZM28.5678 49.1094C34.0976 43.8506 40.7552 41.2241 48.5978 41.2241V39.2241C40.2564 39.2241 33.1013 42.0381 27.1895 47.6602L28.5678 49.1094ZM48.5978 41.2241C56.4207 41.2241 63.1211 43.8359 68.7516 49.0698L70.1132 47.6049C64.1062 42.0211 56.9169 39.2241 48.5978 39.2241V41.2241ZM68.7515 49.0698C72.6026 52.6502 75.113 56.7583 76.3194 61.4012L78.2551 60.8982C76.9448 55.8551 74.2186 51.4217 70.1133 47.605L68.7515 49.0698ZM48.5978 2C54.2239 2 59.7403 2.68711 65.149 4.0611L65.6414 2.12267C60.0705 0.707474 54.3887 0 48.5978 0V2ZM32.1814 4.06154C37.6351 2.68663 43.1066 2 48.5978 2V0C42.938 0 37.3023 0.707955 31.6925 2.12222L32.1814 4.06154ZM16.6138 10.2349C21.5467 7.49219 26.7352 5.43476 32.1814 4.06153L31.6924 2.12223C26.0769 3.53817 20.726 5.66011 15.6419 8.48695L16.6138 10.2349ZM16.5756 10.4017C16.5807 10.287 16.6032 10.245 16.6051 10.2417C16.6061 10.2398 16.6057 10.2409 16.6046 10.242C16.6037 10.2429 16.6076 10.2385 16.6216 10.2306L15.6341 8.49131C14.9325 8.88964 14.6109 9.57104 14.5776 10.3119L16.5756 10.4017ZM16.6012 10.7386C16.6106 10.7538 16.6 10.744 16.5891 10.6876C16.5781 10.6302 16.5695 10.5379 16.5756 10.4018L14.5776 10.3118C14.5555 10.8027 14.6184 11.3362 14.9015 11.7927L16.6012 10.7386ZM17.044 11.1814C16.9462 11.1354 16.8375 11.0542 16.7232 10.9022L15.1242 12.1035C15.4079 12.4811 15.7626 12.789 16.1934 12.9915L17.044 11.1814ZM17.4823 11.0263C17.2696 11.12 17.1287 11.1542 17.0481 11.1634C16.9719 11.1721 16.9875 11.1547 17.045 11.1819L16.1924 12.991C16.9004 13.3247 17.6739 13.1273 18.2883 12.8567L17.4823 11.0263ZM32.4789 5.25571C27.2331 6.53895 22.2098 8.47458 17.4108 11.0613L18.3598 12.8218C23.0107 10.3149 27.875 8.4409 32.9542 7.19843L32.4789 5.25571ZM48.5978 3.33278C43.0944 3.33278 37.7208 3.97343 32.4789 5.25571L32.9542 7.19843C38.0373 5.95499 43.2512 5.33278 48.5978 5.33278V3.33278ZM64.8127 5.39046C59.4917 4.01878 54.0861 3.33278 48.5978 3.33278V5.33278C53.9175 5.33278 59.1554 5.99746 64.3134 7.32714L64.8127 5.39046ZM80.0531 11.0453C75.1989 8.64309 70.1183 6.75818 64.8127 5.39046L64.3134 7.32714C69.4868 8.66077 74.4372 10.4977 79.166 12.8378L80.0531 11.0453ZM80.4508 11.1112C80.4305 11.1223 80.3415 11.1828 80.0403 11.0391L79.1788 12.844C79.8786 13.178 80.6698 13.2702 81.409 12.8667L80.4508 11.1112ZM80.9907 10.6347C80.8722 10.8131 80.7013 10.9742 80.45 11.1116L81.4098 12.8663C81.9163 12.5892 82.3412 12.2163 82.6567 11.7413L80.9907 10.6347ZM81.0315 10.193C81.0678 10.4373 81.0247 10.5763 80.9668 10.6726L82.6806 11.7035C83.0147 11.1481 83.1029 10.5258 83.0097 9.8989L81.0315 10.193ZM80.7559 9.98862C80.9175 10.0561 80.9848 10.1163 81.0079 10.1421C81.0231 10.159 81.0278 10.1683 81.0315 10.193L83.0097 9.8989C82.8787 9.01759 82.2665 8.45211 81.5266 8.1431L80.7559 9.98862ZM65.149 4.0611C70.5652 5.43702 75.7425 7.4013 80.6821 9.95423L81.6004 8.17749C76.5247 5.55428 71.2046 3.53592 65.6414 2.12267L65.149 4.0611ZM48.498 67.507C48.795 67.507 48.8778 67.5892 48.9165 67.6358L50.4552 66.3582C49.9514 65.7515 49.2424 65.507 48.498 65.507V67.507ZM48.0783 67.6358C48.1167 67.5896 48.1996 67.507 48.498 67.507V65.507C47.7535 65.507 47.0437 65.7511 46.5395 66.3582L48.0783 67.6358ZM47.9034 68.2708C47.9034 67.9238 47.9897 67.7426 48.0785 67.6356L46.5394 66.3584C46.0874 66.9031 45.9034 67.5711 45.9034 68.2708H47.9034ZM56.1433 87.3959C50.6549 82.5037 47.9034 76.1589 47.9034 68.2708H45.9034C45.9034 76.6875 48.8682 83.5904 54.8125 88.8889L56.1433 87.3959ZM75.886 94.7854C68.2351 94.7854 61.6714 92.3226 56.1433 87.3959L54.8126 88.8889C60.719 94.1528 67.7606 96.7854 75.886 96.7854V94.7854ZM78.2269 94.7048C77.0203 94.7594 76.2479 94.7854 75.886 94.7854V96.7854C76.3011 96.7854 77.1194 96.757 78.3174 96.7027L78.2269 94.7048ZM82.0296 94.0041C80.5937 94.4267 79.3284 94.6548 78.2268 94.7048L78.3174 96.7027C79.6185 96.6437 81.0465 96.3783 82.5943 95.9227L82.0296 94.0041ZM82.3972 93.8511C82.3964 93.8526 82.3947 93.8553 82.3901 93.8599C82.3853 93.8648 82.3746 93.8746 82.354 93.8878C82.3113 93.9151 82.2278 93.9556 82.0809 93.9905L82.543 95.9363C83.1639 95.7889 83.765 95.4717 84.122 94.8637L82.3972 93.8511ZM82.4299 93.414C82.4719 93.6882 82.4233 93.8065 82.3961 93.853L84.1231 94.8619C84.4406 94.3182 84.498 93.7068 84.4069 93.1115L82.4299 93.414ZM82.2238 93.121C82.405 93.2776 82.424 93.3721 82.428 93.4007L84.4089 93.1248C84.3218 92.5 83.9803 91.9956 83.5315 91.6078L82.2238 93.121ZM81.7879 93.0473C82.0707 93.0096 82.171 93.0752 82.2227 93.12L83.5326 91.6087C82.9561 91.109 82.2417 90.9691 81.5235 91.0649L81.7879 93.0473ZM78.6135 93.4152C79.6231 93.3057 80.6777 93.1836 81.7775 93.0487L81.534 91.0635C80.4427 91.1974 79.3974 91.3185 78.398 91.4268L78.6135 93.4152ZM75.886 93.583C76.6738 93.583 77.5844 93.5258 78.6126 93.4153L78.3988 91.4267C77.4181 91.5322 76.5821 91.583 75.886 91.583V93.583ZM57.1844 86.6285C62.5314 91.2604 68.7798 93.583 75.886 93.583V91.583C69.2582 91.583 63.4753 89.4321 58.4939 85.1168L57.1844 86.6285ZM49.0927 68.2708C49.0927 75.8004 51.7857 81.951 57.1843 86.6285L58.4939 85.1169C53.564 80.8455 51.0927 75.2615 51.0927 68.2708H49.0927ZM48.9173 67.6368C49.0064 67.7438 49.0927 67.9246 49.0927 68.2708H51.0927C51.0927 67.5703 50.9078 66.9019 50.4544 66.3572L48.9173 67.6368ZM71 79.1201C71 78.1282 70.4733 77.2664 69.7331 76.7406L68.5748 78.371C68.8573 78.5717 69 78.8576 69 79.1201H71ZM77.9404 62.8322C78.301 62.2693 78.4298 61.5704 78.2551 60.8982L76.3194 61.4012C76.3475 61.5093 76.3304 61.6377 76.2562 61.7535L77.9404 62.8322ZM69 79.1201C69 79.4106 68.8552 79.6221 68.6869 79.7259C68.5335 79.8205 68.358 79.8345 68.1687 79.7104L67.0721 81.383C67.9539 81.9611 68.9681 81.9022 69.7368 81.4282C70.4905 80.9633 71 80.1104 71 79.1201H69ZM14.9015 11.7927C14.9843 11.9263 15.099 12.07 15.1242 12.1035L16.7232 10.9022C16.6311 10.7795 16.6213 10.7711 16.6012 10.7386L14.9015 11.7927ZM76.2562 61.7535C76.1456 61.9262 75.9219 62.0388 75.588 61.9686C75.2458 61.8968 74.9994 61.6675 74.9277 61.4041L72.9979 61.9292C73.3011 63.0436 74.2373 63.7285 75.1767 63.9259C76.1243 64.125 77.2809 63.8619 77.9404 62.8322L76.2562 61.7535ZM82.0141 48.9245C83.0829 50.5264 85.5704 50.6471 86.6435 48.8931L84.9374 47.8494C84.694 48.2473 84.0091 48.3109 83.6778 47.8145L82.0141 48.9245ZM0.527708 37.4992C0.445586 37.6146 0.346393 37.7689 0.267397 37.9566L2.11074 38.7325C2.11051 38.7331 2.11287 38.7274 2.12046 38.7145C2.12816 38.7014 2.13974 38.6834 2.15732 38.6587L0.527708 37.4992ZM84.9394 47.2033C85.0589 47.3865 85.0672 47.6373 84.9374 47.8494L86.6435 48.8931C87.1602 48.0484 87.1719 46.9656 86.6148 46.111L84.9394 47.2033ZM94.1934 36.5524C94.7708 35.6087 94.6979 34.3867 93.9656 33.5268L92.4429 34.8235C92.5995 35.0074 92.6256 35.2828 92.4874 35.5086L94.1934 36.5524ZM89.8871 36.8559C91.0361 38.2099 93.2317 38.1244 94.1934 36.5524L92.4874 35.5086C92.2712 35.862 91.7234 35.9288 91.412 35.5619L89.8871 36.8559Z" fill="white" mask="url(#path-1-outside-1_652_2)"/>
<path d="M87.9366 88.2935L89.8659 75.1971L89.8702 75.1685H89.8412H80.0486L97.8657 50.2044H102.073L100.143 65.1763L100.139 65.2045H100.168H111.946L92.1214 88.2935H87.9366Z" fill="white" stroke="white" stroke-width="0.05"/>
</svg>
