<svg width="172" height="40" viewBox="0 0 172 40" fill="none" xmlns="http://www.w3.org/2000/svg">
<path d="M165.403 31.2236C165.87 30.5002 166.138 29.7069 166.208 28.8436C166.278 27.9802 166.313 27.1286 166.313 26.2886C165.637 27.1519 164.808 27.7586 163.828 28.1086C162.848 28.4586 161.787 28.6336 160.643 28.6336C159.313 28.6336 158.158 28.4352 157.178 28.0386C156.222 27.6419 155.463 27.0352 154.903 26.2186C154.343 25.4719 153.958 24.5969 153.748 23.5936C153.538 22.5669 153.433 21.4586 153.433 20.2686V9.90857H158.368V19.6736C158.368 20.3036 158.415 20.9219 158.508 21.5286C158.625 22.1119 158.858 22.6019 159.208 22.9986C159.768 23.8386 160.783 24.2586 162.253 24.2586C162.953 24.2586 163.607 24.1186 164.213 23.8386C164.82 23.5352 165.298 23.0686 165.648 22.4386C165.952 21.9019 166.138 21.3419 166.208 20.7586C166.278 20.1519 166.313 19.4986 166.313 18.7986V9.90857H171.283V25.0636C171.283 25.9036 171.272 26.7669 171.248 27.6536C171.248 28.5169 171.178 29.3686 171.038 30.2086C170.922 31.0486 170.7 31.8652 170.373 32.6586C170.047 33.4519 169.592 34.1869 169.008 34.8636C168.192 35.7969 167.118 36.5436 165.788 37.1036C164.482 37.6636 162.907 37.9319 161.063 37.9086C159.71 37.9319 158.368 37.7452 157.038 37.3486C155.708 36.9752 154.483 36.4269 153.363 35.7036L154.938 31.5036C155.545 31.9469 156.35 32.3552 157.353 32.7286C158.38 33.1019 159.582 33.2886 160.958 33.2886C162.078 33.2886 162.988 33.1019 163.688 32.7286C164.412 32.3786 164.983 31.8769 165.403 31.2236Z" fill="#0B0A33"/>
<path d="M142.641 24.2587C143.574 24.2587 144.309 24.037 144.846 23.5937C145.406 23.1504 145.744 22.6487 145.861 22.0887H151.041C150.877 23.2787 150.539 24.282 150.026 25.0987C149.512 25.9154 148.871 26.592 148.101 27.1287C147.354 27.6654 146.502 28.0504 145.546 28.2837C144.589 28.517 143.597 28.6337 142.571 28.6337C141.031 28.6337 139.689 28.4237 138.546 28.0037C137.426 27.5604 136.492 26.9304 135.746 26.1137C134.999 25.2737 134.427 24.2704 134.031 23.1037C133.657 21.9137 133.471 20.5837 133.471 19.1137C133.471 17.6904 133.681 16.3837 134.101 15.1937C134.521 14.0037 135.116 12.9887 135.886 12.1487C136.679 11.3087 137.647 10.667 138.791 10.2237C139.934 9.75702 141.241 9.52368 142.711 9.52368C143.784 9.52368 144.787 9.65202 145.721 9.90868C146.677 10.1653 147.517 10.562 148.241 11.0987C148.987 11.6353 149.594 12.3237 150.061 13.1637C150.551 13.9803 150.877 14.9604 151.041 16.1037H145.861C145.744 15.5437 145.394 15.042 144.811 14.5987C144.251 14.1553 143.516 13.9337 142.606 13.9337C141.836 13.9337 141.171 14.0737 140.611 14.3537C140.051 14.6337 139.607 15.0187 139.281 15.5087C138.954 15.9987 138.721 16.5587 138.581 17.1887C138.441 17.8187 138.371 18.4837 138.371 19.1837C138.371 19.9304 138.452 20.6187 138.616 21.2487C138.779 21.8554 139.024 22.392 139.351 22.8587C139.677 23.302 140.109 23.652 140.646 23.9087C141.206 24.142 141.871 24.2587 142.641 24.2587Z" fill="#0B0A33"/>
<path d="M118.443 12.2537C119.936 10.457 121.779 9.54703 123.973 9.52369C125.163 9.50036 126.213 9.69869 127.123 10.1187C128.033 10.5154 128.768 11.0637 129.328 11.7637C130.004 12.5804 130.471 13.537 130.728 14.6337C130.984 15.707 131.113 16.9087 131.113 18.2387V28.3537H126.143V18.6237C126.143 17.9704 126.073 17.352 125.933 16.7687C125.816 16.162 125.606 15.6487 125.303 15.2287C124.999 14.7854 124.591 14.4587 124.078 14.2487C123.588 14.0387 123.028 13.9337 122.398 13.9337C121.604 13.957 120.928 14.132 120.368 14.4587C119.831 14.7854 119.423 15.2054 119.143 15.7187C118.863 16.2087 118.664 16.7687 118.548 17.3987C118.454 18.0054 118.408 18.6237 118.408 19.2537V28.3537H113.473V9.90869H118.198L118.443 12.2537Z" fill="#0B0A33"/>
<path d="M102.373 24.6087C103.073 24.6087 103.668 24.5037 104.158 24.2937C104.672 24.0604 105.092 23.687 105.418 23.1737H110.598C110.342 24.1304 109.945 24.9587 109.408 25.6587C108.895 26.3587 108.265 26.9304 107.518 27.3737C106.795 27.817 105.99 28.1437 105.103 28.3537C104.217 28.5404 103.283 28.6337 102.303 28.6337C99.3166 28.6337 97.0533 27.7937 95.5133 26.1137C93.9966 24.4337 93.2383 22.077 93.2383 19.0437C93.2383 17.667 93.4366 16.3953 93.8333 15.2287C94.2533 14.062 94.8366 13.0587 95.5833 12.2187C96.33 11.3553 97.2516 10.6903 98.3483 10.2237C99.4683 9.75702 100.74 9.52368 102.163 9.52368C103.82 9.52368 105.255 9.81535 106.468 10.3987C107.682 10.982 108.638 11.787 109.338 12.8137C110.062 13.817 110.54 14.9953 110.773 16.3487C111.03 17.702 111.03 19.1487 110.773 20.6887H98.1733C98.2666 21.7854 98.6516 22.7187 99.3283 23.4887C100.005 24.2354 101.02 24.6087 102.373 24.6087ZM106.188 17.2937C106.188 16.7103 106.083 16.197 105.873 15.7537C105.663 15.287 105.383 14.9137 105.033 14.6337C104.683 14.3303 104.263 14.1087 103.773 13.9687C103.307 13.8287 102.817 13.7587 102.303 13.7587C101.067 13.782 100.098 14.1204 99.3983 14.7737C98.7216 15.4037 98.325 16.2437 98.2083 17.2937H106.188Z" fill="#0B0A33"/>
<path d="M85.7958 26.4637C85.0958 27.257 84.2558 27.817 83.2758 28.1437C82.2958 28.4704 81.2341 28.6337 80.0908 28.6337C78.9474 28.6337 77.8274 28.4587 76.7308 28.1087C75.6574 27.7354 74.7241 27.1404 73.9308 26.3237C73.0441 25.3904 72.4258 24.317 72.0758 23.1037C71.7258 21.8904 71.5508 20.642 71.5508 19.3587C71.5508 16.3254 72.3908 13.8987 74.0708 12.0787C74.7941 11.2854 75.7274 10.667 76.8708 10.2237C78.0374 9.78035 79.2858 9.57035 80.6158 9.59368C81.4791 9.54702 82.4124 9.69868 83.4158 10.0487C84.4191 10.3987 85.2824 10.982 86.0058 11.7987L86.5308 9.90869H90.8008V27.1987C90.8008 27.9454 90.7541 28.6804 90.6608 29.4037C90.5908 30.1504 90.4624 30.862 90.2758 31.5387C90.0891 32.2387 89.8091 32.9037 89.4358 33.5337C89.0158 34.3037 88.5024 34.957 87.8958 35.4937C87.3124 36.0304 86.6591 36.4737 85.9358 36.8237C85.2124 37.197 84.4424 37.4654 83.6258 37.6287C82.8091 37.792 81.9808 37.8737 81.1408 37.8737C80.0674 37.8737 79.0408 37.7454 78.0608 37.4887C77.0808 37.2554 76.1824 36.8587 75.3658 36.2987C74.5724 35.762 73.9074 35.0737 73.3708 34.2337C72.8574 33.3937 72.5191 32.3904 72.3558 31.2237H77.6058C77.6991 31.7837 78.0724 32.2854 78.7258 32.7287C79.3791 33.172 80.1724 33.3937 81.1058 33.3937C82.1091 33.3937 82.9258 33.1954 83.5558 32.7987C84.2091 32.402 84.6991 31.877 85.0258 31.2237C85.3524 30.5704 85.5624 29.8237 85.6558 28.9837C85.7491 28.1437 85.7958 27.3037 85.7958 26.4637ZM81.2108 24.2587C81.9808 24.2587 82.6574 24.1187 83.2408 23.8387C83.8474 23.5587 84.3374 23.1854 84.7108 22.7187C85.0841 22.2287 85.3641 21.6687 85.5508 21.0387C85.7374 20.3854 85.8308 19.697 85.8308 18.9737C85.8308 17.527 85.4224 16.337 84.6058 15.4037C83.8124 14.447 82.6691 13.957 81.1758 13.9337C80.4058 13.9337 79.7174 14.0737 79.1108 14.3537C78.5274 14.6337 78.0374 15.007 77.6408 15.4737C77.2674 15.9404 76.9874 16.4887 76.8008 17.1187C76.6141 17.7487 76.5208 18.4254 76.5208 19.1487C76.5208 19.9187 76.6141 20.6187 76.8008 21.2487C77.0108 21.8554 77.3141 22.392 77.7108 22.8587C78.1074 23.302 78.5974 23.652 79.1808 23.9087C79.7641 24.142 80.4408 24.2587 81.2108 24.2587Z" fill="#0B0A33"/>
<path d="M64.5078 26.0787C63.8078 27.012 62.9561 27.677 61.9528 28.0737C60.9495 28.4703 59.7828 28.657 58.4528 28.6337C56.7495 28.587 55.3261 28.1087 54.1828 27.1987C53.5761 26.6853 53.0978 26.0787 52.7478 25.3787C52.4211 24.6553 52.2578 23.8037 52.2578 22.8237C52.2811 21.8203 52.5028 20.9337 52.9228 20.1637C53.3661 19.3703 54.0311 18.717 54.9178 18.2037C55.6645 17.807 56.5045 17.527 57.4378 17.3637C58.3945 17.2003 59.4328 17.1187 60.5528 17.1187H64.3328C64.4028 15.9754 64.1345 15.1237 63.5278 14.5637C62.9445 13.9803 62.1161 13.677 61.0428 13.6537C60.6928 13.6537 60.3311 13.677 59.9578 13.7237C59.5845 13.7703 59.2345 13.8637 58.9078 14.0037C58.6045 14.1437 58.3361 14.342 58.1028 14.5987C57.8928 14.832 57.7528 15.1237 57.6828 15.4737H52.6078C52.7245 14.3537 53.0278 13.4203 53.5178 12.6737C54.0311 11.9037 54.6728 11.2853 55.4428 10.8187C56.2128 10.352 57.0645 10.0253 57.9978 9.83868C58.9545 9.62868 59.9345 9.52368 60.9378 9.52368C61.4978 9.52368 62.0695 9.55868 62.6528 9.62868C63.2361 9.67535 63.8078 9.79201 64.3678 9.97868C64.9278 10.142 65.4528 10.3753 65.9428 10.6787C66.4561 10.9587 66.9345 11.332 67.3778 11.7987C68.1711 12.7087 68.6611 13.7587 68.8478 14.9487C69.0578 16.1153 69.1511 17.2587 69.1278 18.3787V28.3537H64.6128L64.5078 26.0787ZM64.3328 20.1987H60.7278C60.3778 20.1987 59.9811 20.2337 59.5378 20.3037C59.0945 20.3737 58.7095 20.502 58.3828 20.6887C58.0561 20.8753 57.7761 21.1203 57.5428 21.4237C57.3328 21.727 57.2278 22.1003 57.2278 22.5437C57.2278 22.917 57.2978 23.2437 57.4378 23.5237C57.6011 23.8037 57.7995 24.037 58.0328 24.2237C58.2895 24.4103 58.5928 24.562 58.9428 24.6787C59.2928 24.772 59.6428 24.8187 59.9928 24.8187C60.6695 24.842 61.2995 24.7253 61.8828 24.4687C62.4895 24.212 63.0145 23.8503 63.4578 23.3837C63.7378 23.0103 63.9478 22.5903 64.0878 22.1237C64.2511 21.6337 64.3328 20.992 64.3328 20.1987Z" fill="#0B0A33"/>
<path fill-rule="evenodd" clip-rule="evenodd" d="M38.8571 20.5556C38.6594 24.011 37.5422 27.3584 35.6119 30.2473C33.4753 33.4449 30.4385 35.9372 26.8855 37.4089C23.3325 38.8806 19.4229 39.2656 15.651 38.5154C11.8792 37.7651 8.41451 35.9132 5.69516 33.1938C2.9758 30.4745 1.1239 27.0098 0.373628 23.238C-0.37664 19.4661 0.00842497 15.5565 1.48013 12.0035C2.95183 8.45047 5.44408 5.41366 8.6417 3.27708C11.5306 1.34678 14.878 0.229595 18.3334 0.0318604V9.78601C16.8037 9.96197 15.3321 10.4995 14.0431 11.3608C12.4443 12.4291 11.1981 13.9475 10.4623 15.724C9.72644 17.5005 9.53391 19.4553 9.90904 21.3413C10.2842 23.2272 11.2101 24.9595 12.5698 26.3192C13.9295 27.6789 15.6618 28.6048 17.5477 28.98C19.4337 29.3551 21.3885 29.1626 23.165 28.4267C24.9415 27.6909 26.4599 26.4447 27.5282 24.8459C28.3895 23.5569 28.927 22.0853 29.103 20.5556H38.8571Z" fill="#2388FF"/>
<path fill-rule="evenodd" clip-rule="evenodd" d="M29.1614 0H21.207V9.7222H29.1614L29.1614 17.6764H38.8836V9.7222H38.8838V0H37.1051H29.1614Z" fill="#2388FF"/>
</svg>
