<svg width="223" height="50" viewBox="0 0 223 50" fill="none" xmlns="http://www.w3.org/2000/svg">
<path d="M207.631 18.613H211.625L211.781 20.7034C212.301 19.913 212.945 19.3098 213.715 18.8938C214.505 18.457 215.379 18.2386 216.336 18.2386C220.225 18.2386 222.16 20.6202 222.139 25.3835V26.2259H222.17V34.2132H217.958V26.2259H217.927C217.927 24.7283 217.667 23.6883 217.147 23.1058C216.648 22.5026 215.92 22.201 214.963 22.201C213.944 22.201 213.164 22.5338 212.623 23.1994C212.103 23.8443 211.843 24.7803 211.843 26.0075V34.2132H207.631V18.613Z" fill="#0B0A33"/>
<path d="M196.835 34.5876C195.254 34.5876 193.839 34.2444 192.591 33.558C191.343 32.8508 190.366 31.8836 189.659 30.6563C188.972 29.4083 188.629 27.9939 188.629 26.4131C188.629 24.8323 188.972 23.4283 189.659 22.201C190.366 20.953 191.333 19.9858 192.56 19.2994C193.787 18.5922 195.191 18.2386 196.772 18.2386C198.353 18.2386 199.757 18.5922 200.984 19.2994C202.232 19.9858 203.199 20.953 203.886 22.201C204.593 23.4283 204.947 24.8323 204.947 26.4131C204.947 27.9939 204.604 29.4083 203.917 30.6563C203.231 31.8836 202.263 32.8508 201.015 33.558C199.788 34.2444 198.395 34.5876 196.835 34.5876ZM192.966 26.4131C192.966 27.6819 193.319 28.7219 194.027 29.5331C194.755 30.3235 195.691 30.7187 196.835 30.7187C197.958 30.7187 198.873 30.3235 199.58 29.5331C200.287 28.7219 200.641 27.6819 200.641 26.4131C200.641 25.1443 200.277 24.1147 199.549 23.3243C198.842 22.513 197.916 22.1074 196.772 22.1074C195.67 22.1074 194.755 22.513 194.027 23.3243C193.319 24.1147 192.966 25.1443 192.966 26.4131Z" fill="#0B0A33"/>
<path d="M181.496 18.6131H185.708V34.2133H181.496V18.6131ZM183.617 16.1483C182.952 16.1483 182.38 15.9091 181.901 15.4306C181.423 14.9522 181.184 14.3906 181.184 13.7458C181.184 13.0802 181.423 12.5082 181.901 12.0298C182.4 11.5514 182.972 11.3122 183.617 11.3122C184.262 11.3122 184.824 11.5514 185.302 12.0298C185.78 12.5082 186.02 13.0802 186.02 13.7458C186.02 14.3906 185.78 14.9522 185.302 15.4306C184.844 15.9091 184.283 16.1483 183.617 16.1483Z" fill="#0B0A33"/>
<path d="M175.12 34.5877C173.394 34.5877 172.073 34.1613 171.158 33.3084C170.264 32.4556 169.816 31.2284 169.816 29.6268V22.1699H167.32V18.6131H169.816V13.7458H174.028V18.6131H177.897V22.1699H174.028V28.6908C174.028 29.3772 174.164 29.8868 174.434 30.2196C174.725 30.5316 175.162 30.6876 175.744 30.6876C176.16 30.6876 176.628 30.5004 177.148 30.126L178.646 33.2772C178.126 33.6724 177.554 33.9845 176.93 34.2133C176.306 34.4629 175.703 34.5877 175.12 34.5877Z" fill="#0B0A33"/>
<path d="M161.324 32.4348C160.45 33.87 159.015 34.5876 157.018 34.5876C155.146 34.5876 153.69 34.1716 152.65 33.3396C151.631 32.5076 151.121 31.3324 151.121 29.8139C151.121 28.1707 151.672 26.9227 152.775 26.0699C153.877 25.2171 155.437 24.7907 157.455 24.7907H161.168C160.876 22.8562 159.93 21.889 158.328 21.889C156.956 21.889 155.916 22.4714 155.208 23.6363L151.496 22.357C151.995 21.1922 152.806 20.2146 153.929 19.4242C155.073 18.6338 156.54 18.2386 158.328 18.2386C160.658 18.2386 162.426 18.8938 163.632 20.2042C164.839 21.4938 165.421 23.2827 165.38 25.5707L165.317 34.2132H161.386L161.324 32.4348ZM155.427 29.6891C155.427 30.1259 155.635 30.4795 156.051 30.7499C156.467 30.9996 157.039 31.1244 157.767 31.1244C158.412 31.1244 158.994 30.9684 159.514 30.6563C160.055 30.3443 160.481 29.9387 160.793 29.4395C161.105 28.9403 161.261 28.4203 161.261 27.8795H158.952C157.684 27.8795 156.779 28.0355 156.238 28.3475C155.697 28.6387 155.427 29.0859 155.427 29.6891Z" fill="#0B0A33"/>
<path d="M142.483 34.5876C140.86 34.5876 139.415 34.2444 138.146 33.558C136.877 32.8508 135.879 31.8836 135.151 30.6563C134.443 29.4083 134.09 27.9939 134.09 26.4131C134.09 24.8323 134.443 23.4283 135.151 22.201C135.858 20.953 136.846 19.9858 138.115 19.2994C139.384 18.5922 140.819 18.2386 142.42 18.2386C144.022 18.2386 145.457 18.6338 146.726 19.4242C148.016 20.2146 148.952 21.3274 149.534 22.7626L145.572 24.1667C145.28 23.5635 144.833 23.085 144.23 22.7314C143.627 22.3778 142.961 22.201 142.233 22.201C141.11 22.201 140.195 22.5962 139.488 23.3867C138.78 24.1563 138.427 25.1651 138.427 26.4131C138.427 27.6403 138.78 28.6491 139.488 29.4395C140.216 30.2299 141.152 30.6251 142.296 30.6251C143.024 30.6251 143.689 30.4379 144.292 30.0635C144.896 29.6683 145.343 29.1483 145.634 28.5035L149.628 29.9075C149.024 31.3844 148.088 32.5388 146.82 33.3708C145.551 34.182 144.105 34.5876 142.483 34.5876Z" fill="#0B0A33"/>
<path d="M126.957 18.6131H131.169V34.2133H126.957V18.6131ZM129.078 16.1483C128.413 16.1483 127.841 15.9091 127.362 15.4306C126.884 14.9522 126.645 14.3906 126.645 13.7458C126.645 13.0802 126.884 12.5082 127.362 12.0298C127.861 11.5514 128.433 11.3122 129.078 11.3122C129.723 11.3122 130.285 11.5514 130.763 12.0298C131.241 12.5082 131.481 13.0802 131.481 13.7458C131.481 14.3906 131.241 14.9522 130.763 15.4306C130.305 15.9091 129.744 16.1483 129.078 16.1483Z" fill="#0B0A33"/>
<path d="M118.967 11.749H123.179V34.2133H118.967V11.749Z" fill="#0B0A33"/>
<path d="M100.383 18.613H104.376L104.532 20.7658C105.052 19.9546 105.708 19.3306 106.498 18.8938C107.309 18.457 108.235 18.2386 109.275 18.2386C110.689 18.2386 111.927 18.5714 112.988 19.237C114.069 19.9026 114.891 20.849 115.453 22.0762C116.035 23.3035 116.326 24.7491 116.326 26.4131C116.326 28.0563 116.035 29.5019 115.453 30.7499C114.891 31.9772 114.069 32.9236 112.988 33.5892C111.927 34.2548 110.689 34.5876 109.275 34.5876C108.256 34.5876 107.351 34.3796 106.56 33.9636C105.77 33.5268 105.115 32.9132 104.595 32.1228V40.4533H100.383V18.613ZM104.595 26.4131C104.595 27.6819 104.928 28.7219 105.593 29.5331C106.28 30.3235 107.153 30.7187 108.214 30.7187C109.296 30.7187 110.19 30.3131 110.897 29.5019C111.605 28.6907 111.958 27.6611 111.958 26.4131C111.958 25.1651 111.605 24.1459 110.897 23.3555C110.211 22.5442 109.327 22.1386 108.245 22.1386C107.164 22.1386 106.28 22.5338 105.593 23.3243C104.928 24.1147 104.595 25.1443 104.595 26.4131Z" fill="#0B0A33"/>
<path d="M81.6445 18.613H85.6382L85.7942 20.7658C86.3142 19.9546 86.9694 19.3306 87.7598 18.8938C88.571 18.457 89.4966 18.2386 90.5366 18.2386C91.9511 18.2386 93.1887 18.5714 94.2495 19.237C95.3311 19.9026 96.1527 20.849 96.7143 22.0762C97.2967 23.3035 97.5879 24.7491 97.5879 26.4131C97.5879 28.0563 97.2967 29.5019 96.7143 30.7499C96.1527 31.9772 95.3311 32.9236 94.2495 33.5892C93.1887 34.2548 91.9511 34.5876 90.5366 34.5876C89.5174 34.5876 88.6126 34.3796 87.8222 33.9636C87.0318 33.5268 86.3766 32.9132 85.8566 32.1228V40.4533H81.6445V18.613ZM85.8566 26.4131C85.8566 27.6819 86.1894 28.7219 86.855 29.5331C87.5414 30.3235 88.415 30.7187 89.4758 30.7187C90.5574 30.7187 91.4519 30.3131 92.1591 29.5019C92.8663 28.6907 93.2199 27.6611 93.2199 26.4131C93.2199 25.1651 92.8663 24.1459 92.1591 23.3555C91.4727 22.5442 90.5886 22.1386 89.507 22.1386C88.4254 22.1386 87.5414 22.5338 86.855 23.3243C86.1894 24.1147 85.8566 25.1443 85.8566 26.4131Z" fill="#0B0A33"/>
<path d="M74.183 32.4348C73.3094 33.87 71.8742 34.5876 69.8773 34.5876C68.0053 34.5876 66.5493 34.1716 65.5093 33.3396C64.4901 32.5076 63.9805 31.3324 63.9805 29.8139C63.9805 28.1707 64.5317 26.9227 65.6341 26.0699C66.7365 25.2171 68.2965 24.7907 70.3142 24.7907H74.027C73.7358 22.8562 72.7894 21.889 71.1878 21.889C69.8149 21.889 68.7749 22.4714 68.0677 23.6363L64.3549 22.357C64.8541 21.1922 65.6653 20.2146 66.7885 19.4242C67.9325 18.6338 69.3989 18.2386 71.1878 18.2386C73.5174 18.2386 75.2854 18.8938 76.4918 20.2042C77.6982 21.4938 78.2807 23.2827 78.2391 25.5707L78.1767 34.2132H74.2454L74.183 32.4348ZM68.2861 29.6891C68.2861 30.1259 68.4941 30.4795 68.9101 30.7499C69.3261 30.9996 69.8981 31.1244 70.6262 31.1244C71.271 31.1244 71.8534 30.9684 72.3734 30.6563C72.9142 30.3443 73.3406 29.9387 73.6526 29.4395C73.9646 28.9403 74.1206 28.4203 74.1206 27.8795H71.8118C70.543 27.8795 69.6381 28.0355 69.0973 28.3475C68.5565 28.6387 68.2861 29.0859 68.2861 29.6891Z" fill="#0B0A33"/>
<path fill-rule="evenodd" clip-rule="evenodd" d="M21.1957 39.9036H11.1172C5.18336 39.9036 0.373047 35.0933 0.373047 29.1595C0.373047 23.9265 4.36111 19.6251 9.46369 19.1287C9.82344 13.8893 14.1876 9.75073 19.5183 9.75073H19.8511C22.7186 9.75073 25.3153 10.91 27.1982 12.7854C29.7226 10.8804 32.8651 9.75073 36.2713 9.75073H37.0283C44.9367 9.75073 51.3477 16.1618 51.3477 24.0702C51.3477 32.8147 44.2589 39.9036 35.5143 39.9036L21.1957 39.9036Z" fill="#596AFF"/>
</svg>
