<svg width="193" height="42" viewBox="0 0 193 42" fill="none" xmlns="http://www.w3.org/2000/svg">
<path d="M180.205 15.2864H183.671L183.807 17.1006C184.258 16.4146 184.817 15.8911 185.485 15.5301C186.171 15.151 186.93 14.9614 187.76 14.9614C191.136 14.9614 192.815 17.0284 192.797 21.1624V21.8936H192.824V28.8257H189.168V21.8936H189.141C189.141 20.5938 188.915 19.6912 188.464 19.1857C188.031 18.6622 187.399 18.4004 186.569 18.4004C185.684 18.4004 185.007 18.6893 184.538 19.2669C184.086 19.8266 183.861 20.6389 183.861 21.704V28.8257H180.205V15.2864Z" fill="#B1B3CB"/>
<path d="M170.835 29.1507C169.463 29.1507 168.235 28.8528 167.152 28.2571C166.069 27.6433 165.22 26.8038 164.606 25.7387C164.011 24.6556 163.713 23.428 163.713 22.056C163.713 20.6841 164.011 19.4655 164.606 18.4004C165.22 17.3173 166.06 16.4778 167.125 15.8821C168.19 15.2683 169.408 14.9614 170.78 14.9614C172.152 14.9614 173.371 15.2683 174.436 15.8821C175.519 16.4778 176.359 17.3173 176.954 18.4004C177.568 19.4655 177.875 20.6841 177.875 22.056C177.875 23.428 177.577 24.6556 176.981 25.7387C176.386 26.8038 175.546 27.6433 174.463 28.2571C173.398 28.8528 172.189 29.1507 170.835 29.1507ZM167.477 22.056C167.477 23.1572 167.784 24.0599 168.398 24.7639C169.029 25.4499 169.842 25.7929 170.835 25.7929C171.809 25.7929 172.604 25.4499 173.218 24.7639C173.831 24.0599 174.138 23.1572 174.138 22.056C174.138 20.9548 173.822 20.0612 173.19 19.3753C172.577 18.6712 171.773 18.3192 170.78 18.3192C169.824 18.3192 169.029 18.6712 168.398 19.3753C167.784 20.0612 167.477 20.9548 167.477 22.056Z" fill="#B1B3CB"/>
<path d="M157.523 15.2864H161.178V28.8257H157.523V15.2864ZM159.364 13.1471C158.786 13.1471 158.29 12.9395 157.875 12.5243C157.46 12.1091 157.252 11.6217 157.252 11.0621C157.252 10.4844 157.46 9.98797 157.875 9.57276C158.308 9.15755 158.804 8.94995 159.364 8.94995C159.924 8.94995 160.411 9.15755 160.826 9.57276C161.242 9.98797 161.449 10.4844 161.449 11.0621C161.449 11.6217 161.242 12.1091 160.826 12.5243C160.429 12.9395 159.942 13.1471 159.364 13.1471Z" fill="#B1B3CB"/>
<path d="M151.99 29.1506C150.492 29.1506 149.346 28.7805 148.551 28.0404C147.775 27.3002 147.387 26.2351 147.387 24.8451V18.3733H145.221V15.2863H147.387V11.062H151.043V15.2863H154.4V18.3733H151.043V24.0327C151.043 24.6284 151.16 25.0707 151.395 25.3596C151.647 25.6303 152.026 25.7657 152.532 25.7657C152.893 25.7657 153.299 25.6033 153.75 25.2783L155.05 28.0133C154.599 28.3563 154.103 28.6271 153.561 28.8256C153.019 29.0423 152.496 29.1506 151.99 29.1506Z" fill="#B1B3CB"/>
<path d="M140.015 27.2822C139.257 28.5279 138.011 29.1507 136.278 29.1507C134.653 29.1507 133.39 28.7896 132.487 28.0675C131.602 27.3454 131.16 26.3255 131.16 25.0076C131.16 23.5815 131.639 22.4983 132.595 21.7582C133.552 21.018 134.906 20.648 136.657 20.648H139.879C139.627 18.9691 138.805 18.1296 137.415 18.1296C136.224 18.1296 135.321 18.6351 134.707 19.646L131.485 18.5358C131.918 17.5249 132.622 16.6764 133.597 15.9904C134.59 15.3044 135.863 14.9614 137.415 14.9614C139.437 14.9614 140.972 15.5301 142.019 16.6674C143.066 17.7866 143.571 19.3391 143.535 21.3249L143.481 28.8257H140.069L140.015 27.2822ZM134.897 24.8993C134.897 25.2784 135.078 25.5853 135.439 25.82C135.8 26.0366 136.296 26.1449 136.928 26.1449C137.488 26.1449 137.993 26.0095 138.444 25.7387C138.914 25.468 139.284 25.1159 139.555 24.6827C139.825 24.2494 139.961 23.7981 139.961 23.3287H137.957C136.856 23.3287 136.07 23.4641 135.601 23.7349C135.132 23.9877 134.897 24.3758 134.897 24.8993Z" fill="#B1B3CB"/>
<path d="M123.663 29.1507C122.255 29.1507 121 28.8528 119.899 28.2571C118.798 27.6433 117.931 26.8038 117.3 25.7387C116.686 24.6556 116.379 23.428 116.379 22.056C116.379 20.6841 116.686 19.4655 117.3 18.4004C117.913 17.3173 118.771 16.4778 119.872 15.8821C120.973 15.2683 122.219 14.9614 123.609 14.9614C124.999 14.9614 126.245 15.3044 127.346 15.9904C128.465 16.6764 129.277 17.6422 129.783 18.8878L126.344 20.1064C126.091 19.5829 125.703 19.1676 125.179 18.8608C124.656 18.5539 124.078 18.4004 123.446 18.4004C122.472 18.4004 121.677 18.7434 121.064 19.4294C120.45 20.0974 120.143 20.9729 120.143 22.056C120.143 23.1211 120.45 23.9967 121.064 24.6827C121.695 25.3687 122.508 25.7117 123.501 25.7117C124.132 25.7117 124.71 25.5492 125.234 25.2243C125.757 24.8813 126.145 24.4299 126.398 23.8703L129.864 25.0889C129.341 26.3706 128.528 27.3725 127.427 28.0946C126.326 28.7986 125.071 29.1507 123.663 29.1507Z" fill="#B1B3CB"/>
<path d="M110.187 15.2864H113.842V28.8257H110.187V15.2864ZM112.028 13.1471C111.45 13.1471 110.954 12.9395 110.539 12.5243C110.124 12.1091 109.916 11.6217 109.916 11.0621C109.916 10.4844 110.124 9.98797 110.539 9.57276C110.972 9.15755 111.469 8.94995 112.028 8.94995C112.588 8.94995 113.075 9.15755 113.49 9.57276C113.906 9.98797 114.113 10.4844 114.113 11.0621C114.113 11.6217 113.906 12.1091 113.49 12.5243C113.093 12.9395 112.606 13.1471 112.028 13.1471Z" fill="#B1B3CB"/>
<path d="M103.254 9.3291H106.91V28.8258H103.254V9.3291Z" fill="#B1B3CB"/>
<path d="M87.125 15.2864H90.5911L90.7265 17.1548C91.1778 16.4508 91.7464 15.9092 92.4324 15.5301C93.1365 15.151 93.9398 14.9614 94.8424 14.9614C96.07 14.9614 97.1441 15.2503 98.0648 15.8279C99.0035 16.4056 99.7166 17.227 100.204 18.2921C100.709 19.3572 100.962 20.6118 100.962 22.056C100.962 23.4822 100.709 24.7368 100.204 25.82C99.7166 26.8851 99.0035 27.7065 98.0648 28.2841C97.1441 28.8618 96.07 29.1507 94.8424 29.1507C93.9579 29.1507 93.1726 28.9701 92.4866 28.6091C91.8006 28.23 91.2319 27.6974 90.7806 27.0114V34.2415H87.125V15.2864ZM90.7806 22.056C90.7806 23.1572 91.0695 24.0599 91.6471 24.7639C92.2429 25.4499 93.0011 25.7929 93.9218 25.7929C94.8605 25.7929 95.6367 25.4409 96.2505 24.7368C96.8643 24.0328 97.1712 23.1392 97.1712 22.056C97.1712 20.9729 96.8643 20.0883 96.2505 19.4023C95.6548 18.6983 94.8876 18.3463 93.9488 18.3463C93.0101 18.3463 92.2429 18.6893 91.6471 19.3753C91.0695 20.0612 90.7806 20.9548 90.7806 22.056Z" fill="#B1B3CB"/>
<path d="M70.8613 15.2864H74.3274L74.4628 17.1548C74.9141 16.4508 75.4828 15.9092 76.1688 15.5301C76.8728 15.151 77.6761 14.9614 78.5788 14.9614C79.8063 14.9614 80.8804 15.2503 81.8011 15.8279C82.7398 16.4056 83.4529 17.227 83.9403 18.2921C84.4458 19.3572 84.6985 20.6118 84.6985 22.056C84.6985 23.4822 84.4458 24.7368 83.9403 25.82C83.4529 26.8851 82.7398 27.7065 81.8011 28.2841C80.8804 28.8618 79.8063 29.1507 78.5788 29.1507C77.6942 29.1507 76.9089 28.9701 76.2229 28.6091C75.5369 28.23 74.9683 27.6974 74.517 27.0114V34.2415H70.8613V15.2864ZM74.517 22.056C74.517 23.1572 74.8058 24.0599 75.3835 24.7639C75.9792 25.4499 76.7374 25.7929 77.6581 25.7929C78.5968 25.7929 79.3731 25.4409 79.9868 24.7368C80.6006 24.0328 80.9075 23.1392 80.9075 22.056C80.9075 20.9729 80.6006 20.0883 79.9868 19.4023C79.3911 18.6983 78.6239 18.3463 77.6852 18.3463C76.7464 18.3463 75.9792 18.6893 75.3835 19.3753C74.8058 20.0612 74.517 20.9548 74.517 22.056Z" fill="#B1B3CB"/>
<path d="M64.386 27.2822C63.6278 28.5279 62.3822 29.1507 60.6491 29.1507C59.0244 29.1507 57.7607 28.7896 56.8581 28.0675C55.9735 27.3454 55.5312 26.3255 55.5312 25.0076C55.5312 23.5815 56.0096 22.4983 56.9664 21.7582C57.9232 21.018 59.2771 20.648 61.0282 20.648H64.2506C63.9979 18.9691 63.1765 18.1296 61.7864 18.1296C60.595 18.1296 59.6923 18.6351 59.0786 19.646L55.8562 18.5358C56.2895 17.5249 56.9935 16.6764 57.9683 15.9904C58.9612 15.3044 60.2339 14.9614 61.7864 14.9614C63.8083 14.9614 65.3428 15.5301 66.3898 16.6674C67.4369 17.7866 67.9423 19.3391 67.9062 21.3249L67.8521 28.8257H64.4401L64.386 27.2822ZM59.2681 24.8993C59.2681 25.2784 59.4486 25.5853 59.8097 25.82C60.1707 26.0366 60.6672 26.1449 61.299 26.1449C61.8586 26.1449 62.3641 26.0095 62.8154 25.7387C63.2848 25.468 63.6549 25.1159 63.9256 24.6827C64.1964 24.2494 64.3318 23.7981 64.3318 23.3287H62.328C61.2268 23.3287 60.4415 23.4641 59.9722 23.7349C59.5028 23.9877 59.2681 24.3758 59.2681 24.8993Z" fill="#B1B3CB"/>
<path fill-rule="evenodd" clip-rule="evenodd" d="M18.0653 33.9346H9.31893C4.16899 33.9346 -0.00585938 29.7598 -0.00585938 24.6098C-0.00585938 20.0682 3.45537 16.335 7.88387 15.9042C8.19613 11.357 11.9837 7.76514 16.6102 7.76514H16.899C19.3877 7.76514 21.6414 8.77125 23.2756 10.3989C25.4665 8.74553 28.1938 7.76514 31.1501 7.76514H31.8071C38.6707 7.76514 44.2348 13.3292 44.2348 20.1929C44.2348 27.7823 38.0825 33.9347 30.4931 33.9347H18.0653V33.9346Z" fill="#B1B3CB"/>
</svg>
