<svg width="165" height="34" viewBox="0 0 165 34" fill="none" xmlns="http://www.w3.org/2000/svg">
<path d="M162.569 16.1935L158.691 16.4321C158.625 16.1007 158.482 15.8024 158.264 15.5373C158.045 15.2655 157.757 15.05 157.399 14.8909C157.047 14.7252 156.626 14.6424 156.136 14.6424C155.48 14.6424 154.926 14.7816 154.475 15.06C154.025 15.3318 153.799 15.6963 153.799 16.1537C153.799 16.5183 153.945 16.8266 154.237 17.0784C154.528 17.3303 155.029 17.5325 155.738 17.685L158.502 18.2418C159.987 18.5467 161.094 19.0373 161.823 19.7134C162.553 20.3895 162.917 21.2778 162.917 22.3782C162.917 23.3791 162.622 24.2574 162.032 25.0131C161.449 25.7688 160.647 26.3588 159.626 26.783C158.612 27.2006 157.442 27.4094 156.116 27.4094C154.094 27.4094 152.483 26.9885 151.284 26.1466C150.09 25.2981 149.391 24.1447 149.186 22.6864L153.352 22.4677C153.478 23.0841 153.783 23.5548 154.267 23.8796C154.75 24.1978 155.37 24.3569 156.126 24.3569C156.868 24.3569 157.465 24.2143 157.916 23.9293C158.373 23.6376 158.605 23.2631 158.612 22.8057C158.605 22.4213 158.443 22.1064 158.124 21.8611C157.806 21.6092 157.316 21.417 156.653 21.2844L154.008 20.7574C152.517 20.4591 151.406 19.9421 150.677 19.2063C149.954 18.4705 149.593 17.5325 149.593 16.3924C149.593 15.4113 149.858 14.5661 150.389 13.8569C150.926 13.1476 151.678 12.6007 152.646 12.2162C153.62 11.8318 154.76 11.6395 156.066 11.6395C157.995 11.6395 159.513 12.0472 160.62 12.8625C161.734 13.6779 162.383 14.7882 162.569 16.1935Z" fill="#B1B3CB"/>
<path d="M146.846 16.1935L142.969 16.4321C142.902 16.1007 142.76 15.8024 142.541 15.5373C142.322 15.2655 142.034 15.05 141.676 14.8909C141.325 14.7252 140.904 14.6424 140.413 14.6424C139.757 14.6424 139.203 14.7816 138.753 15.06C138.302 15.3318 138.077 15.6963 138.077 16.1537C138.077 16.5183 138.222 16.8266 138.514 17.0784C138.806 17.3303 139.306 17.5325 140.015 17.685L142.78 18.2418C144.265 18.5467 145.372 19.0373 146.101 19.7134C146.83 20.3895 147.194 21.2778 147.194 22.3782C147.194 23.3791 146.899 24.2574 146.309 25.0131C145.726 25.7688 144.924 26.3588 143.903 26.783C142.889 27.2006 141.719 27.4094 140.393 27.4094C138.372 27.4094 136.761 26.9885 135.561 26.1466C134.368 25.2981 133.668 24.1447 133.463 22.6864L137.629 22.4677C137.755 23.0841 138.06 23.5548 138.544 23.8796C139.028 24.1978 139.648 24.3569 140.403 24.3569C141.146 24.3569 141.742 24.2143 142.193 23.9293C142.65 23.6376 142.882 23.2631 142.889 22.8057C142.882 22.4213 142.72 22.1064 142.402 21.8611C142.084 21.6092 141.593 21.417 140.93 21.2844L138.285 20.7574C136.794 20.4591 135.684 19.9421 134.954 19.2063C134.232 18.4705 133.871 17.5325 133.871 16.3924C133.871 15.4113 134.136 14.5661 134.666 13.8569C135.203 13.1476 135.955 12.6007 136.923 12.2162C137.898 11.8318 139.038 11.6395 140.344 11.6395C142.273 11.6395 143.791 12.0472 144.898 12.8625C146.011 13.6779 146.661 14.7882 146.846 16.1935Z" fill="#B1B3CB"/>
<path d="M124.366 27.4094C122.795 27.4094 121.442 27.0912 120.309 26.4549C119.182 25.8119 118.314 24.9037 117.704 23.7304C117.094 22.5505 116.789 21.1552 116.789 19.5444C116.789 17.9733 117.094 16.5945 117.704 15.408C118.314 14.2214 119.172 13.2967 120.279 12.6338C121.393 11.971 122.699 11.6395 124.197 11.6395C125.204 11.6395 126.142 11.8019 127.011 12.1267C127.886 12.4449 128.648 12.9255 129.298 13.5685C129.954 14.2115 130.464 15.0202 130.829 15.9946C131.193 16.9624 131.376 18.096 131.376 19.3952V20.5586H118.479V17.9336H127.388C127.388 17.3237 127.256 16.7835 126.991 16.3128C126.726 15.8422 126.358 15.4743 125.887 15.2091C125.423 14.9373 124.883 14.8015 124.266 14.8015C123.623 14.8015 123.053 14.9506 122.556 15.2489C122.066 15.5406 121.681 15.935 121.403 16.4321C121.124 16.9227 120.982 17.4695 120.975 18.0728V20.5685C120.975 21.3242 121.114 21.9771 121.393 22.5273C121.678 23.0775 122.079 23.5017 122.596 23.8C123.113 24.0983 123.726 24.2475 124.435 24.2475C124.906 24.2475 125.337 24.1812 125.728 24.0486C126.119 23.916 126.454 23.7172 126.732 23.452C127.011 23.1869 127.223 22.8621 127.369 22.4776L131.286 22.7361C131.087 23.6774 130.68 24.4994 130.063 25.202C129.453 25.8981 128.665 26.4416 127.697 26.8327C126.736 27.2172 125.625 27.4094 124.366 27.4094Z" fill="#B1B3CB"/>
<path d="M104.222 18.2816V27.1111H99.9863V11.8384H104.023V14.533H104.202C104.54 13.6447 105.107 12.9421 105.903 12.425C106.698 11.9014 107.662 11.6395 108.796 11.6395C109.857 11.6395 110.781 11.8715 111.57 12.3355C112.359 12.7996 112.972 13.4624 113.41 14.3242C113.847 15.1793 114.066 16.2001 114.066 17.3867V27.1111H109.83V18.1424C109.837 17.2077 109.598 16.4785 109.114 15.9549C108.63 15.4246 107.964 15.1594 107.116 15.1594C106.546 15.1594 106.042 15.282 105.604 15.5273C105.173 15.7726 104.835 16.1305 104.59 16.6012C104.351 17.0652 104.229 17.6253 104.222 18.2816Z" fill="#B1B3CB"/>
<path d="M92.3583 27.1111V11.8384H96.5941V27.1111H92.3583ZM94.4861 9.86962C93.8564 9.86962 93.3162 9.66081 92.8654 9.2432C92.4213 8.81896 92.1992 8.31185 92.1992 7.72189C92.1992 7.13856 92.4213 6.63808 92.8654 6.22047C93.3162 5.79623 93.8564 5.58411 94.4861 5.58411C95.1159 5.58411 95.6528 5.79623 96.0969 6.22047C96.5477 6.63808 96.7731 7.13856 96.7731 7.72189C96.7731 8.31185 96.5477 8.81896 96.0969 9.2432C95.6528 9.66081 95.1159 9.86962 94.4861 9.86962Z" fill="#B1B3CB"/>
<path d="M89.3425 16.1935L85.4647 16.4321C85.3984 16.1007 85.2559 15.8024 85.0371 15.5373C84.8184 15.2655 84.53 15.05 84.1721 14.8909C83.8207 14.7252 83.3998 14.6424 82.9093 14.6424C82.253 14.6424 81.6995 14.7816 81.2488 15.06C80.798 15.3318 80.5726 15.6963 80.5726 16.1537C80.5726 16.5183 80.7185 16.8266 81.0101 17.0784C81.3018 17.3303 81.8023 17.5325 82.5115 17.685L85.2757 18.2418C86.7606 18.5467 87.8676 19.0373 88.5968 19.7134C89.3259 20.3895 89.6905 21.2778 89.6905 22.3782C89.6905 23.3791 89.3955 24.2574 88.8056 25.0131C88.2222 25.7688 87.4202 26.3588 86.3993 26.783C85.3851 27.2006 84.2151 27.4094 82.8894 27.4094C80.8676 27.4094 79.2568 26.9885 78.057 26.1466C76.8638 25.2981 76.1645 24.1447 75.959 22.6864L80.1252 22.4677C80.2511 23.0841 80.556 23.5548 81.04 23.8796C81.5239 24.1978 82.1436 24.3569 82.8993 24.3569C83.6418 24.3569 84.2383 24.2143 84.6891 23.9293C85.1465 23.6376 85.3785 23.2631 85.3851 22.8057C85.3785 22.4213 85.2161 22.1064 84.8979 21.8611C84.5797 21.6092 84.0892 21.417 83.4263 21.2844L80.7814 20.7574C79.29 20.4591 78.1796 19.9421 77.4505 19.2063C76.7279 18.4705 76.3667 17.5325 76.3667 16.3924C76.3667 15.4113 76.6318 14.5661 77.1621 13.8569C77.699 13.1476 78.4514 12.6007 79.4192 12.2162C80.3936 11.8318 81.5338 11.6395 82.8397 11.6395C84.7686 11.6395 86.2866 12.0472 87.3936 12.8625C88.5073 13.6779 89.1569 14.7882 89.3425 16.1935Z" fill="#B1B3CB"/>
<path d="M69.0108 20.6083V11.8384H73.2466V27.1111H69.1799V24.337H69.0208C68.6761 25.2318 68.1027 25.9511 67.3006 26.4946C66.5051 27.0382 65.534 27.31 64.3873 27.31C63.3664 27.31 62.4682 27.078 61.6927 26.6139C60.9171 26.1499 60.3105 25.4904 59.873 24.6353C59.4422 23.7801 59.2234 22.756 59.2168 21.5628V11.8384H63.4526V20.8071C63.4592 21.7086 63.7012 22.4212 64.1784 22.9449C64.6557 23.4686 65.2954 23.7304 66.0975 23.7304C66.6079 23.7304 67.0852 23.6144 67.5293 23.3824C67.9734 23.1438 68.3314 22.7925 68.6032 22.3284C68.8816 21.8644 69.0175 21.291 69.0108 20.6083Z" fill="#B1B3CB"/>
<path d="M41.4961 27.1111V6.74744H45.7319V14.4037H45.8612C46.0468 13.9927 46.3152 13.5751 46.6666 13.1508C47.0245 12.72 47.4885 12.362 48.0586 12.077C48.6353 11.7853 49.3512 11.6395 50.2063 11.6395C51.32 11.6395 52.3474 11.9312 53.2887 12.5145C54.23 13.0912 54.9824 13.9629 55.5458 15.1295C56.1093 16.2896 56.391 17.7446 56.391 19.4946C56.391 21.1982 56.1159 22.6366 55.5657 23.8099C55.0221 24.9766 54.2797 25.8616 53.3384 26.4648C52.4038 27.0614 51.3564 27.3597 50.1964 27.3597C49.3744 27.3597 48.6751 27.2238 48.0984 26.952C47.5283 26.6802 47.061 26.3388 46.6964 25.9278C46.3318 25.5102 46.0534 25.0893 45.8612 24.6651H45.6722V27.1111H41.4961ZM45.6424 19.4747C45.6424 20.3829 45.7683 21.175 46.0202 21.8511C46.2721 22.5273 46.6367 23.0543 47.114 23.4321C47.5913 23.8033 48.1713 23.9889 48.8541 23.9889C49.5434 23.9889 50.1268 23.8 50.6041 23.4222C51.0813 23.0377 51.4426 22.5074 51.6879 21.8312C51.9398 21.1485 52.0657 20.363 52.0657 19.4747C52.0657 18.5931 51.9431 17.8175 51.6978 17.148C51.4525 16.4785 51.0913 15.9548 50.614 15.577C50.1367 15.1991 49.5501 15.0102 48.8541 15.0102C48.1647 15.0102 47.5813 15.1925 47.104 15.5571C46.6334 15.9217 46.2721 16.4387 46.0202 17.1082C45.7683 17.7777 45.6424 18.5666 45.6424 19.4747Z" fill="#B1B3CB"/>
<path fill-rule="evenodd" clip-rule="evenodd" d="M17.3084 12.4165L21.8904 16.9985L17.5276 21.3612L12.9456 16.7793L17.3084 12.4165ZM12.6106 7.7187L9.73786 4.84598C9.57399 4.68212 9.57399 4.41644 9.73786 4.25258L13.8423 0.148166C14.0061 -0.0156973 14.2718 -0.0156974 14.4357 0.148166L28.4673 14.1798C30.024 15.7365 30.024 18.2604 28.4673 19.8172L22.2254 26.059L25.0981 28.9318C25.262 29.0956 25.262 29.3613 25.0981 29.5252L20.9937 33.6296C20.8299 33.7934 20.5642 33.7934 20.4003 33.6296L6.36871 19.5979C4.81199 18.0412 4.81199 15.5173 6.36871 13.9606L12.6106 7.7187Z" fill="#B1B3CB"/>
</svg>
