<svg width="174" height="35" viewBox="0 0 174 35" fill="none" xmlns="http://www.w3.org/2000/svg">
<path d="M167.732 11.1667H171.81L166.431 25.9445C164.894 30.2005 162.382 32.0625 158.629 31.8556V28.309C160.727 28.3385 161.791 27.4519 162.5 25.4716L156.441 11.1667H160.609L164.451 21.0974L167.732 11.1667Z" fill="#B1B3CB"/>
<path d="M149.572 10.7529C152.705 10.7529 155.158 12.94 155.158 16.8709V25.9445H151.345V17.3438C151.345 15.334 150.133 14.2996 148.419 14.2996C146.557 14.2996 145.168 15.3932 145.168 17.9645V25.9445H141.355V11.1667H145.168V12.8218C146.055 11.4918 147.592 10.7529 149.572 10.7529Z" fill="#B1B3CB"/>
<path d="M134.085 11.1667H137.898V25.9445H134.085V24.2007C133.021 25.5307 131.425 26.3583 129.268 26.3583C125.337 26.3583 122.086 22.9594 122.086 18.5556C122.086 14.1518 125.337 10.7529 129.268 10.7529C131.425 10.7529 133.021 11.5805 134.085 12.9105V11.1667ZM129.977 22.7229C132.342 22.7229 134.085 21.0383 134.085 18.5556C134.085 16.0729 132.342 14.3883 129.977 14.3883C127.642 14.3883 125.899 16.0729 125.899 18.5556C125.899 21.0383 127.642 22.7229 129.977 22.7229Z" fill="#B1B3CB"/>
<path d="M112.954 10.7529C116.915 10.7529 120.166 14.1518 120.166 18.5556C120.166 22.9594 116.915 26.3583 112.954 26.3583C110.797 26.3583 109.23 25.5603 108.166 24.2007V31.8556H104.354V11.1667H108.166V12.9105C109.23 11.5509 110.797 10.7529 112.954 10.7529ZM112.245 22.7229C114.609 22.7229 116.353 21.0383 116.353 18.5556C116.353 16.0729 114.609 14.3883 112.245 14.3883C109.91 14.3883 108.166 16.0729 108.166 18.5556C108.166 21.0383 109.91 22.7229 112.245 22.7229Z" fill="#B1B3CB"/>
<path d="M95.5298 10.7529C98.8991 10.7529 101.116 13.1469 101.116 16.8414V25.9445H97.3031V17.1074C97.3031 15.3636 96.4164 14.2996 94.8204 14.2996C93.1358 14.2996 92.0718 15.4227 92.0718 17.6394V25.9445H88.2591V17.1074C88.2591 15.3636 87.3724 14.2996 85.7764 14.2996C84.1509 14.2996 82.9982 15.4227 82.9982 17.6394V25.9445H79.1855V11.1667H82.9982V12.7332C83.8258 11.4918 85.2149 10.7529 87.1064 10.7529C88.9389 10.7529 90.2984 11.5214 91.126 12.8809C92.0422 11.5509 93.52 10.7529 95.5298 10.7529Z" fill="#B1B3CB"/>
<path d="M68.6718 26.3583C64.3271 26.3583 60.8691 22.9594 60.8691 18.5556C60.8691 14.1518 64.3271 10.7529 68.6718 10.7529C73.0165 10.7529 76.504 14.1518 76.504 18.5556C76.504 22.9594 73.0165 26.3583 68.6718 26.3583ZM68.6718 22.6343C70.9476 22.6343 72.6914 20.9496 72.6914 18.5556C72.6914 16.1616 70.9476 14.4769 68.6718 14.4769C66.4256 14.4769 64.6818 16.1616 64.6818 18.5556C64.6818 20.9496 66.4256 22.6343 68.6718 22.6343Z" fill="#B1B3CB"/>
<path d="M53.1718 26.3583C48.6794 26.3583 45.3691 22.9594 45.3691 18.5556C45.3691 14.1518 48.6794 10.7529 53.1718 10.7529C56.0683 10.7529 58.5805 12.2898 59.7923 14.5656L56.5116 16.4867C55.9205 15.2749 54.6496 14.5065 53.1423 14.5065C50.8665 14.5065 49.1818 16.1912 49.1818 18.5556C49.1818 20.8905 50.8665 22.5752 53.1423 22.5752C54.6791 22.5752 55.95 21.8363 56.5411 20.6245L59.8514 22.516C58.5805 24.8214 56.0683 26.3583 53.1718 26.3583Z" fill="#B1B3CB"/>
<path fill-rule="evenodd" clip-rule="evenodd" d="M12.83 3.20325C11.5548 3.20325 10.5211 4.237 10.5211 5.51221V12.724H3.17616C1.90095 12.724 0.867188 13.7578 0.867188 15.033V32.057C0.867188 33.3323 1.90095 34.366 3.17615 34.366H19.998C21.2732 34.366 22.3069 33.3323 22.3069 32.0571V24.8453H29.6518C30.927 24.8453 31.9608 23.8115 31.9608 22.5363V5.51222C31.9608 4.23701 30.927 3.20325 29.6518 3.20325H12.83ZM22.3069 24.8453V15.033C22.3069 13.7578 21.2732 12.724 19.998 12.724H10.5211V22.5363C10.5211 23.8115 11.5548 24.8453 12.83 24.8453H22.3069Z" fill="#B1B3CB"/>
</svg>
