<svg width="635" height="185" viewBox="0 0 635 185" fill="none" xmlns="http://www.w3.org/2000/svg">
<mask id="path-1-outside-1_623_4" maskUnits="userSpaceOnUse" x="139" y="18" width="491" height="142" fill="black">
<rect fill="white" x="139" y="18" width="491" height="142"/>
<path d="M178.284 130.534C170.409 130.534 163.608 128.898 157.881 125.625C152.188 122.318 147.807 117.648 144.739 111.614C141.67 105.545 140.136 98.4034 140.136 90.1875C140.136 82.108 141.67 75.017 144.739 68.9148C147.841 62.7784 152.17 58.0057 157.727 54.5966C163.284 51.1534 169.812 49.4318 177.312 49.4318C182.153 49.4318 186.722 50.2159 191.017 51.7841C195.347 53.3182 199.165 55.7045 202.472 58.9432C205.813 62.1818 208.438 66.3068 210.347 71.3182C212.256 76.2955 213.21 82.2273 213.21 89.1136V94.7898H148.83V82.3125H195.466C195.432 78.767 194.665 75.6136 193.165 72.8523C191.665 70.0568 189.568 67.858 186.875 66.2557C184.216 64.6534 181.114 63.8523 177.568 63.8523C173.784 63.8523 170.46 64.7727 167.597 66.6136C164.733 68.4205 162.5 70.8068 160.898 73.7727C159.33 76.7045 158.528 79.9261 158.494 83.4375V94.3295C158.494 98.8977 159.33 102.818 161 106.091C162.67 109.33 165.006 111.818 168.006 113.557C171.006 115.261 174.517 116.114 178.54 116.114C181.233 116.114 183.67 115.739 185.852 114.989C188.034 114.205 189.926 113.062 191.528 111.562C193.131 110.062 194.341 108.205 195.159 105.989L212.443 107.932C211.352 112.5 209.273 116.489 206.205 119.898C203.17 123.273 199.284 125.898 194.545 127.773C189.807 129.614 184.386 130.534 178.284 130.534ZM244.646 82.9773V129H226.135V50.4545H243.828V63.8011H244.748C246.555 59.4034 249.436 55.9091 253.39 53.3182C257.379 50.7273 262.305 49.4318 268.169 49.4318C273.589 49.4318 278.311 50.5909 282.334 52.9091C286.39 55.2273 289.527 58.5852 291.743 62.983C293.993 67.3807 295.101 72.7159 295.067 78.9886V129H276.555V81.8523C276.555 76.6023 275.192 72.4943 272.464 69.5284C269.771 66.5625 266.038 65.0795 261.265 65.0795C258.027 65.0795 255.146 65.7955 252.623 67.2273C250.135 68.625 248.175 70.6534 246.743 73.3125C245.345 75.9716 244.646 79.1932 244.646 82.9773ZM345.921 130.534C338.046 130.534 331.245 128.898 325.518 125.625C319.825 122.318 315.444 117.648 312.376 111.614C309.308 105.545 307.774 98.4034 307.774 90.1875C307.774 82.108 309.308 75.017 312.376 68.9148C315.478 62.7784 319.808 58.0057 325.365 54.5966C330.921 51.1534 337.45 49.4318 344.95 49.4318C349.791 49.4318 354.359 50.2159 358.654 51.7841C362.984 53.3182 366.802 55.7045 370.109 58.9432C373.45 62.1818 376.075 66.3068 377.984 71.3182C379.893 76.2955 380.848 82.2273 380.848 89.1136V94.7898H316.467V82.3125H363.103C363.069 78.767 362.302 75.6136 360.802 72.8523C359.302 70.0568 357.206 67.858 354.512 66.2557C351.853 64.6534 348.751 63.8523 345.206 63.8523C341.421 63.8523 338.098 64.7727 335.234 66.6136C332.37 68.4205 330.137 70.8068 328.535 73.7727C326.967 76.7045 326.166 79.9261 326.132 83.4375V94.3295C326.132 98.8977 326.967 102.818 328.637 106.091C330.308 109.33 332.643 111.818 335.643 113.557C338.643 115.261 342.154 116.114 346.177 116.114C348.87 116.114 351.308 115.739 353.49 114.989C355.671 114.205 357.564 113.062 359.166 111.562C360.768 110.062 361.978 108.205 362.796 105.989L380.081 107.932C378.99 112.5 376.91 116.489 373.842 119.898C370.808 123.273 366.921 125.898 362.183 127.773C357.444 129.614 352.024 130.534 345.921 130.534ZM393.772 129V50.4545H411.721V63.5455H412.539C413.971 59.0114 416.426 55.517 419.903 53.0625C423.414 50.5739 427.42 49.3295 431.92 49.3295C432.943 49.3295 434.085 49.3807 435.346 49.4829C436.641 49.5511 437.715 49.6705 438.568 49.8409V66.8693C437.783 66.5966 436.539 66.358 434.835 66.1534C433.164 65.9148 431.545 65.7955 429.977 65.7955C426.602 65.7955 423.568 66.5284 420.874 67.9943C418.215 69.4261 416.119 71.4205 414.585 73.9773C413.051 76.5341 412.283 79.483 412.283 82.8239V129H393.772ZM448.13 50.4545H466.641V133.5C466.641 139.159 465.567 143.83 463.42 147.511C461.272 151.193 458.17 153.938 454.113 155.744C450.056 157.551 445.13 158.455 439.334 158.455C438.653 158.455 438.022 158.438 437.442 158.403C436.863 158.403 436.232 158.386 435.55 158.352V143.267C436.062 143.301 436.522 143.318 436.931 143.318C437.34 143.352 437.766 143.369 438.209 143.369C441.755 143.369 444.295 142.5 445.829 140.761C447.363 139.057 448.13 136.551 448.13 133.244V50.4545ZM457.334 39.3068C454.369 39.3068 451.829 38.3352 449.715 36.392C447.636 34.4148 446.596 32.0454 446.596 29.2841C446.596 26.4886 447.636 24.1193 449.715 22.1761C451.829 20.1989 454.369 19.2102 457.334 19.2102C460.266 19.2102 462.772 20.1989 464.851 22.1761C466.965 24.1193 468.022 26.4886 468.022 29.2841C468.022 32.0454 466.965 34.4148 464.851 36.392C462.772 38.3352 460.266 39.3068 457.334 39.3068ZM494.344 130.125C491.242 130.125 488.583 129.034 486.367 126.852C484.151 124.67 483.06 122.011 483.094 118.875C483.06 115.807 484.151 113.182 486.367 111C488.583 108.818 491.242 107.727 494.344 107.727C497.344 107.727 499.952 108.818 502.168 111C504.418 113.182 505.56 115.807 505.594 118.875C505.56 120.955 505.015 122.847 503.958 124.551C502.935 126.256 501.571 127.619 499.867 128.642C498.196 129.631 496.356 130.125 494.344 130.125ZM521.97 129V50.4545H540.482V129H521.97ZM531.277 39.3068C528.345 39.3068 525.823 38.3352 523.709 36.392C521.595 34.4148 520.539 32.0454 520.539 29.2841C520.539 26.4886 521.595 24.1193 523.709 22.1761C525.823 20.1989 528.345 19.2102 531.277 19.2102C534.243 19.2102 536.766 20.1989 538.845 22.1761C540.959 24.1193 542.016 26.4886 542.016 29.2841C542.016 32.0454 540.959 34.4148 538.845 36.392C536.766 38.3352 534.243 39.3068 531.277 39.3068ZM591.043 130.534C583.372 130.534 576.724 128.847 571.099 125.472C565.474 122.097 561.111 117.375 558.009 111.307C554.94 105.239 553.406 98.1477 553.406 90.0341C553.406 81.9205 554.94 74.8125 558.009 68.7102C561.111 62.608 565.474 57.8693 571.099 54.4943C576.724 51.1193 583.372 49.4318 591.043 49.4318C598.713 49.4318 605.361 51.1193 610.986 54.4943C616.611 57.8693 620.957 62.608 624.026 68.7102C627.128 74.8125 628.679 81.9205 628.679 90.0341C628.679 98.1477 627.128 105.239 624.026 111.307C620.957 117.375 616.611 122.097 610.986 125.472C605.361 128.847 598.713 130.534 591.043 130.534ZM591.145 115.705C595.304 115.705 598.781 114.562 601.577 112.278C604.372 109.96 606.452 106.858 607.815 102.972C609.213 99.0852 609.912 94.7557 609.912 89.983C609.912 85.1761 609.213 80.8295 607.815 76.9432C606.452 73.0227 604.372 69.9034 601.577 67.5852C598.781 65.267 595.304 64.108 591.145 64.108C586.884 64.108 583.338 65.267 580.509 67.5852C577.713 69.9034 575.616 73.0227 574.219 76.9432C572.855 80.8295 572.173 85.1761 572.173 89.983C572.173 94.7557 572.855 99.0852 574.219 102.972C575.616 106.858 577.713 109.96 580.509 112.278C583.338 114.562 586.884 115.705 591.145 115.705Z"/>
</mask>
<path d="M178.284 130.534C170.409 130.534 163.608 128.898 157.881 125.625C152.188 122.318 147.807 117.648 144.739 111.614C141.67 105.545 140.136 98.4034 140.136 90.1875C140.136 82.108 141.67 75.017 144.739 68.9148C147.841 62.7784 152.17 58.0057 157.727 54.5966C163.284 51.1534 169.812 49.4318 177.312 49.4318C182.153 49.4318 186.722 50.2159 191.017 51.7841C195.347 53.3182 199.165 55.7045 202.472 58.9432C205.813 62.1818 208.438 66.3068 210.347 71.3182C212.256 76.2955 213.21 82.2273 213.21 89.1136V94.7898H148.83V82.3125H195.466C195.432 78.767 194.665 75.6136 193.165 72.8523C191.665 70.0568 189.568 67.858 186.875 66.2557C184.216 64.6534 181.114 63.8523 177.568 63.8523C173.784 63.8523 170.46 64.7727 167.597 66.6136C164.733 68.4205 162.5 70.8068 160.898 73.7727C159.33 76.7045 158.528 79.9261 158.494 83.4375V94.3295C158.494 98.8977 159.33 102.818 161 106.091C162.67 109.33 165.006 111.818 168.006 113.557C171.006 115.261 174.517 116.114 178.54 116.114C181.233 116.114 183.67 115.739 185.852 114.989C188.034 114.205 189.926 113.062 191.528 111.562C193.131 110.062 194.341 108.205 195.159 105.989L212.443 107.932C211.352 112.5 209.273 116.489 206.205 119.898C203.17 123.273 199.284 125.898 194.545 127.773C189.807 129.614 184.386 130.534 178.284 130.534ZM244.646 82.9773V129H226.135V50.4545H243.828V63.8011H244.748C246.555 59.4034 249.436 55.9091 253.39 53.3182C257.379 50.7273 262.305 49.4318 268.169 49.4318C273.589 49.4318 278.311 50.5909 282.334 52.9091C286.39 55.2273 289.527 58.5852 291.743 62.983C293.993 67.3807 295.101 72.7159 295.067 78.9886V129H276.555V81.8523C276.555 76.6023 275.192 72.4943 272.464 69.5284C269.771 66.5625 266.038 65.0795 261.265 65.0795C258.027 65.0795 255.146 65.7955 252.623 67.2273C250.135 68.625 248.175 70.6534 246.743 73.3125C245.345 75.9716 244.646 79.1932 244.646 82.9773ZM345.921 130.534C338.046 130.534 331.245 128.898 325.518 125.625C319.825 122.318 315.444 117.648 312.376 111.614C309.308 105.545 307.774 98.4034 307.774 90.1875C307.774 82.108 309.308 75.017 312.376 68.9148C315.478 62.7784 319.808 58.0057 325.365 54.5966C330.921 51.1534 337.45 49.4318 344.95 49.4318C349.791 49.4318 354.359 50.2159 358.654 51.7841C362.984 53.3182 366.802 55.7045 370.109 58.9432C373.45 62.1818 376.075 66.3068 377.984 71.3182C379.893 76.2955 380.848 82.2273 380.848 89.1136V94.7898H316.467V82.3125H363.103C363.069 78.767 362.302 75.6136 360.802 72.8523C359.302 70.0568 357.206 67.858 354.512 66.2557C351.853 64.6534 348.751 63.8523 345.206 63.8523C341.421 63.8523 338.098 64.7727 335.234 66.6136C332.37 68.4205 330.137 70.8068 328.535 73.7727C326.967 76.7045 326.166 79.9261 326.132 83.4375V94.3295C326.132 98.8977 326.967 102.818 328.637 106.091C330.308 109.33 332.643 111.818 335.643 113.557C338.643 115.261 342.154 116.114 346.177 116.114C348.87 116.114 351.308 115.739 353.49 114.989C355.671 114.205 357.564 113.062 359.166 111.562C360.768 110.062 361.978 108.205 362.796 105.989L380.081 107.932C378.99 112.5 376.91 116.489 373.842 119.898C370.808 123.273 366.921 125.898 362.183 127.773C357.444 129.614 352.024 130.534 345.921 130.534ZM393.772 129V50.4545H411.721V63.5455H412.539C413.971 59.0114 416.426 55.517 419.903 53.0625C423.414 50.5739 427.42 49.3295 431.92 49.3295C432.943 49.3295 434.085 49.3807 435.346 49.4829C436.641 49.5511 437.715 49.6705 438.568 49.8409V66.8693C437.783 66.5966 436.539 66.358 434.835 66.1534C433.164 65.9148 431.545 65.7955 429.977 65.7955C426.602 65.7955 423.568 66.5284 420.874 67.9943C418.215 69.4261 416.119 71.4205 414.585 73.9773C413.051 76.5341 412.283 79.483 412.283 82.8239V129H393.772ZM448.13 50.4545H466.641V133.5C466.641 139.159 465.567 143.83 463.42 147.511C461.272 151.193 458.17 153.938 454.113 155.744C450.056 157.551 445.13 158.455 439.334 158.455C438.653 158.455 438.022 158.438 437.442 158.403C436.863 158.403 436.232 158.386 435.55 158.352V143.267C436.062 143.301 436.522 143.318 436.931 143.318C437.34 143.352 437.766 143.369 438.209 143.369C441.755 143.369 444.295 142.5 445.829 140.761C447.363 139.057 448.13 136.551 448.13 133.244V50.4545ZM457.334 39.3068C454.369 39.3068 451.829 38.3352 449.715 36.392C447.636 34.4148 446.596 32.0454 446.596 29.2841C446.596 26.4886 447.636 24.1193 449.715 22.1761C451.829 20.1989 454.369 19.2102 457.334 19.2102C460.266 19.2102 462.772 20.1989 464.851 22.1761C466.965 24.1193 468.022 26.4886 468.022 29.2841C468.022 32.0454 466.965 34.4148 464.851 36.392C462.772 38.3352 460.266 39.3068 457.334 39.3068ZM494.344 130.125C491.242 130.125 488.583 129.034 486.367 126.852C484.151 124.67 483.06 122.011 483.094 118.875C483.06 115.807 484.151 113.182 486.367 111C488.583 108.818 491.242 107.727 494.344 107.727C497.344 107.727 499.952 108.818 502.168 111C504.418 113.182 505.56 115.807 505.594 118.875C505.56 120.955 505.015 122.847 503.958 124.551C502.935 126.256 501.571 127.619 499.867 128.642C498.196 129.631 496.356 130.125 494.344 130.125ZM521.97 129V50.4545H540.482V129H521.97ZM531.277 39.3068C528.345 39.3068 525.823 38.3352 523.709 36.392C521.595 34.4148 520.539 32.0454 520.539 29.2841C520.539 26.4886 521.595 24.1193 523.709 22.1761C525.823 20.1989 528.345 19.2102 531.277 19.2102C534.243 19.2102 536.766 20.1989 538.845 22.1761C540.959 24.1193 542.016 26.4886 542.016 29.2841C542.016 32.0454 540.959 34.4148 538.845 36.392C536.766 38.3352 534.243 39.3068 531.277 39.3068ZM591.043 130.534C583.372 130.534 576.724 128.847 571.099 125.472C565.474 122.097 561.111 117.375 558.009 111.307C554.94 105.239 553.406 98.1477 553.406 90.0341C553.406 81.9205 554.94 74.8125 558.009 68.7102C561.111 62.608 565.474 57.8693 571.099 54.4943C576.724 51.1193 583.372 49.4318 591.043 49.4318C598.713 49.4318 605.361 51.1193 610.986 54.4943C616.611 57.8693 620.957 62.608 624.026 68.7102C627.128 74.8125 628.679 81.9205 628.679 90.0341C628.679 98.1477 627.128 105.239 624.026 111.307C620.957 117.375 616.611 122.097 610.986 125.472C605.361 128.847 598.713 130.534 591.043 130.534ZM591.145 115.705C595.304 115.705 598.781 114.562 601.577 112.278C604.372 109.96 606.452 106.858 607.815 102.972C609.213 99.0852 609.912 94.7557 609.912 89.983C609.912 85.1761 609.213 80.8295 607.815 76.9432C606.452 73.0227 604.372 69.9034 601.577 67.5852C598.781 65.267 595.304 64.108 591.145 64.108C586.884 64.108 583.338 65.267 580.509 67.5852C577.713 69.9034 575.616 73.0227 574.219 76.9432C572.855 80.8295 572.173 85.1761 572.173 89.983C572.173 94.7557 572.855 99.0852 574.219 102.972C575.616 106.858 577.713 109.96 580.509 112.278C583.338 114.562 586.884 115.705 591.145 115.705Z" fill="#04AA6D"/>
<path d="M157.881 125.625L157.378 126.49L157.385 126.493L157.881 125.625ZM144.739 111.614L143.846 112.065L143.847 112.067L144.739 111.614ZM144.739 68.9148L143.846 68.4636L143.845 68.4656L144.739 68.9148ZM157.727 54.5966L158.25 55.449L158.254 55.4466L157.727 54.5966ZM191.017 51.7841L190.674 52.7235L190.683 52.7267L191.017 51.7841ZM202.472 58.9432L201.772 59.6576L201.776 59.6612L202.472 58.9432ZM210.347 71.3182L209.412 71.6742L209.413 71.6763L210.347 71.3182ZM213.21 94.7898V95.7898H214.21V94.7898H213.21ZM148.83 94.7898H147.83V95.7898H148.83V94.7898ZM148.83 82.3125V81.3125H147.83V82.3125H148.83ZM195.466 82.3125V83.3125H196.476L196.466 82.3029L195.466 82.3125ZM193.165 72.8523L192.284 73.3251L192.286 73.3296L193.165 72.8523ZM186.875 66.2557L186.359 67.1122L186.364 67.1151L186.875 66.2557ZM167.597 66.6136L168.13 67.4594L168.137 67.4548L167.597 66.6136ZM160.898 73.7727L160.018 73.2974L160.016 73.3011L160.898 73.7727ZM158.494 83.4375L157.494 83.4278V83.4375H158.494ZM161 106.091L160.109 106.546L160.111 106.549L161 106.091ZM168.006 113.557L167.504 114.422L167.512 114.426L168.006 113.557ZM185.852 114.989L186.177 115.934L186.19 115.93L185.852 114.989ZM195.159 105.989L195.271 104.995L194.492 104.907L194.221 105.642L195.159 105.989ZM212.443 107.932L213.416 108.164L213.678 107.064L212.555 106.938L212.443 107.932ZM206.205 119.898L205.461 119.229L205.461 119.229L206.205 119.898ZM194.545 127.773L194.908 128.705L194.913 128.703L194.545 127.773ZM178.284 129.534C170.549 129.534 163.926 127.928 158.377 124.757L157.385 126.493C163.29 129.868 170.269 131.534 178.284 131.534V129.534ZM158.383 124.76C152.861 121.553 148.613 117.028 145.63 111.16L143.847 112.067C147 118.268 151.514 123.083 157.378 126.49L158.383 124.76ZM145.631 111.162C142.647 105.26 141.136 98.2789 141.136 90.1875H139.136C139.136 98.5279 140.694 105.831 143.846 112.065L145.631 111.162ZM141.136 90.1875C141.136 82.2356 142.646 75.3036 145.632 69.364L143.845 68.4656C140.695 74.7305 139.136 81.9803 139.136 90.1875H141.136ZM145.631 69.3659C148.655 63.3855 152.86 58.7557 158.25 55.449L157.204 53.7442C151.481 57.2556 147.027 62.1713 143.846 68.4636L145.631 69.3659ZM158.254 55.4466C163.63 52.1152 169.971 50.4318 177.312 50.4318V48.4318C169.654 48.4318 162.938 50.1916 157.201 53.7465L158.254 55.4466ZM177.312 50.4318C182.043 50.4318 186.495 51.1977 190.674 52.7234L191.36 50.8447C186.948 49.2341 182.263 48.4318 177.312 48.4318V50.4318ZM190.683 52.7267C194.874 54.2118 198.568 56.5199 201.772 59.6576L203.171 58.2287C199.761 54.8892 195.819 52.4245 191.351 50.8415L190.683 52.7267ZM201.776 59.6612C204.997 62.7836 207.547 66.7787 209.412 71.6742L211.281 70.9622C209.328 65.835 206.628 61.58 203.168 58.2252L201.776 59.6612ZM209.413 71.6763C211.267 76.5113 212.21 82.3157 212.21 89.1136H214.21C214.21 82.1388 213.244 76.0796 211.28 70.9601L209.413 71.6763ZM212.21 89.1136V94.7898H214.21V89.1136H212.21ZM213.21 93.7898H148.83V95.7898H213.21V93.7898ZM149.83 94.7898V82.3125H147.83V94.7898H149.83ZM148.83 83.3125H195.466V81.3125H148.83V83.3125ZM196.466 82.3029C196.43 78.6152 195.631 75.2975 194.043 72.3749L192.286 73.3296C193.698 75.9297 194.433 78.9189 194.466 82.3221L196.466 82.3029ZM194.046 72.3795C192.461 69.426 190.238 67.0926 187.386 65.3963L186.364 67.1151C188.899 68.6233 190.868 70.6876 192.284 73.3251L194.046 72.3795ZM187.391 65.3992C184.555 63.6903 181.269 62.8523 177.568 62.8523V64.8523C180.958 64.8523 183.877 65.6165 186.359 67.1122L187.391 65.3992ZM177.568 62.8523C173.614 62.8523 170.098 63.8165 167.056 65.7725L168.137 67.4548C170.822 65.7289 173.954 64.8523 177.568 64.8523V62.8523ZM167.063 65.7679C164.055 67.666 161.702 70.1796 160.018 73.2974L161.778 74.248C163.298 71.434 165.411 69.1749 168.13 67.4594L167.063 65.7679ZM160.016 73.3011C158.367 76.3831 157.53 79.7645 157.494 83.4278L159.494 83.4472C159.527 80.0878 160.292 77.026 161.78 74.2444L160.016 73.3011ZM157.494 83.4375V94.3295H159.494V83.4375H157.494ZM157.494 94.3295C157.494 99.0181 158.352 103.102 160.109 106.546L161.891 105.636C160.307 102.534 159.494 98.7774 159.494 94.3295H157.494ZM160.111 106.549C161.865 109.949 164.33 112.583 167.504 114.422L168.507 112.692C165.681 111.054 163.476 108.71 161.889 105.633L160.111 106.549ZM167.512 114.426C170.686 116.23 174.373 117.114 178.54 117.114V115.114C174.661 115.114 171.326 114.293 168.5 112.687L167.512 114.426ZM178.54 117.114C181.325 117.114 183.875 116.726 186.177 115.934L185.527 114.043C183.466 114.752 181.14 115.114 178.54 115.114V117.114ZM186.19 115.93C188.493 115.102 190.505 113.891 192.212 112.293L190.845 110.832C189.348 112.234 187.575 113.307 185.514 114.048L186.19 115.93ZM192.212 112.293C193.936 110.678 195.229 108.686 196.097 106.335L194.221 105.642C193.453 107.724 192.325 109.447 190.845 110.832L192.212 112.293ZM195.047 106.982L212.331 108.926L212.555 106.938L195.271 104.995L195.047 106.982ZM211.471 107.7C210.417 112.109 208.415 115.947 205.461 119.229L206.948 120.567C210.131 117.03 212.287 112.891 213.416 108.164L211.471 107.7ZM205.461 119.229C202.542 122.476 198.79 125.018 194.178 126.843L194.913 128.703C199.778 126.778 203.799 124.07 206.948 120.566L205.461 119.229ZM194.183 126.841C189.581 128.629 184.287 129.534 178.284 129.534V131.534C184.486 131.534 190.033 130.599 194.908 128.705L194.183 126.841ZM244.646 129V130H245.646V129H244.646ZM226.135 129H225.135V130H226.135V129ZM226.135 50.4545V49.4545H225.135V50.4545H226.135ZM243.828 50.4545H244.828V49.4545H243.828V50.4545ZM243.828 63.8011H242.828V64.8011H243.828V63.8011ZM244.748 63.8011V64.8011H245.419L245.673 64.1812L244.748 63.8011ZM253.39 53.3182L252.846 52.4796L252.842 52.4817L253.39 53.3182ZM282.334 52.9091L281.834 53.7755L281.837 53.7773L282.334 52.9091ZM291.743 62.983L290.85 63.4329L290.852 63.4384L291.743 62.983ZM295.067 78.9886L294.067 78.9832V78.9886H295.067ZM295.067 129V130H296.067V129H295.067ZM276.555 129H275.555V130H276.555V129ZM272.464 69.5284L271.724 70.2007L271.728 70.2053L272.464 69.5284ZM252.623 67.2273L253.113 68.0992L253.117 68.097L252.623 67.2273ZM246.743 73.3125L245.862 72.8384L245.858 72.8472L246.743 73.3125ZM243.646 82.9773V129H245.646V82.9773H243.646ZM244.646 128H226.135V130H244.646V128ZM227.135 129V50.4545H225.135V129H227.135ZM226.135 51.4545H243.828V49.4545H226.135V51.4545ZM242.828 50.4545V63.8011H244.828V50.4545H242.828ZM243.828 64.8011H244.748V62.8011H243.828V64.8011ZM245.673 64.1812C247.404 59.969 250.154 56.6343 253.938 54.1546L252.842 52.4817C248.718 55.1839 245.706 58.8378 243.823 63.4211L245.673 64.1812ZM253.935 54.1568C257.728 51.6934 262.453 50.4318 268.169 50.4318V48.4318C262.157 48.4318 257.031 49.7612 252.846 52.4796L253.935 54.1568ZM268.169 50.4318C273.444 50.4318 277.987 51.5585 281.834 53.7755L282.833 52.0427C278.635 49.6233 273.735 48.4318 268.169 48.4318V50.4318ZM281.837 53.7773C285.714 55.9927 288.717 59.2006 290.85 63.4329L292.636 62.533C290.336 57.9698 287.066 54.4618 282.83 52.0408L281.837 53.7773ZM290.852 63.4384C293.012 67.6602 294.1 72.8286 294.067 78.9832L296.067 78.9941C296.101 72.6033 294.973 67.1011 292.633 62.5275L290.852 63.4384ZM294.067 78.9886V129H296.067V78.9886H294.067ZM295.067 128H276.555V130H295.067V128ZM277.555 129V81.8523H275.555V129H277.555ZM277.555 81.8523C277.555 76.4297 276.144 72.0524 273.2 68.8515L271.728 70.2053C274.239 72.9362 275.555 76.7749 275.555 81.8523H277.555ZM273.205 68.8562C270.286 65.6416 266.261 64.0795 261.265 64.0795V66.0795C265.815 66.0795 269.257 67.4834 271.724 70.2007L273.205 68.8562ZM261.265 64.0795C257.874 64.0795 254.82 64.8307 252.13 66.3576L253.117 68.097C255.472 66.7602 258.179 66.0795 261.265 66.0795V64.0795ZM252.134 66.3554C249.47 67.8515 247.378 70.0225 245.862 72.8384L247.623 73.7866C248.971 71.2843 250.8 69.3985 253.113 68.0992L252.134 66.3554ZM245.858 72.8472C244.367 75.6823 243.646 79.0722 243.646 82.9773H245.646C245.646 79.3141 246.323 76.2609 247.628 73.7778L245.858 72.8472ZM325.518 125.625L325.016 126.49L325.022 126.493L325.518 125.625ZM312.376 111.614L311.484 112.065L311.485 112.067L312.376 111.614ZM312.376 68.9148L311.484 68.4636L311.483 68.4656L312.376 68.9148ZM325.365 54.5966L325.888 55.449L325.891 55.4466L325.365 54.5966ZM358.654 51.7841L358.311 52.7235L358.32 52.7267L358.654 51.7841ZM370.109 58.9432L369.409 59.6576L369.413 59.6612L370.109 58.9432ZM377.984 71.3182L377.049 71.6742L377.05 71.6763L377.984 71.3182ZM380.848 94.7898V95.7898H381.848V94.7898H380.848ZM316.467 94.7898H315.467V95.7898H316.467V94.7898ZM316.467 82.3125V81.3125H315.467V82.3125H316.467ZM363.103 82.3125V83.3125H364.113L364.103 82.3029L363.103 82.3125ZM360.802 72.8523L359.921 73.3251L359.923 73.3296L360.802 72.8523ZM354.512 66.2557L353.996 67.1122L354.001 67.1151L354.512 66.2557ZM335.234 66.6136L335.768 67.4594L335.775 67.4548L335.234 66.6136ZM328.535 73.7727L327.655 73.2974L327.653 73.3011L328.535 73.7727ZM326.132 83.4375L325.132 83.4278V83.4375H326.132ZM328.637 106.091L327.747 106.546L327.749 106.549L328.637 106.091ZM335.643 113.557L335.142 114.422L335.149 114.426L335.643 113.557ZM353.49 114.989L353.815 115.934L353.828 115.93L353.49 114.989ZM362.796 105.989L362.908 104.995L362.13 104.907L361.858 105.642L362.796 105.989ZM380.081 107.932L381.053 108.164L381.316 107.064L380.192 106.938L380.081 107.932ZM373.842 119.898L373.099 119.229L373.098 119.229L373.842 119.898ZM362.183 127.773L362.545 128.705L362.551 128.703L362.183 127.773ZM345.921 129.534C338.187 129.534 331.564 127.928 326.014 124.757L325.022 126.493C330.927 129.868 337.906 131.534 345.921 131.534V129.534ZM326.02 124.76C320.499 121.553 316.251 117.028 313.267 111.16L311.485 112.067C314.638 118.268 319.151 123.083 325.016 126.49L326.02 124.76ZM313.268 111.162C310.284 105.26 308.774 98.2789 308.774 90.1875H306.774C306.774 98.5279 308.331 105.831 311.484 112.065L313.268 111.162ZM308.774 90.1875C308.774 82.2356 310.283 75.3036 313.269 69.364L311.483 68.4656C308.333 74.7305 306.774 81.9803 306.774 90.1875H308.774ZM313.268 69.3659C316.292 63.3855 320.498 58.7557 325.888 55.449L324.842 53.7442C319.118 57.2556 314.665 62.1713 311.484 68.4636L313.268 69.3659ZM325.891 55.4466C331.268 52.1152 337.608 50.4318 344.95 50.4318V48.4318C337.292 48.4318 330.575 50.1916 324.838 53.7465L325.891 55.4466ZM344.95 50.4318C349.681 50.4318 354.132 51.1977 358.311 52.7234L358.997 50.8447C354.586 49.2341 349.901 48.4318 344.95 48.4318V50.4318ZM358.32 52.7267C362.512 54.2118 366.205 56.5199 369.409 59.6576L370.809 58.2287C367.399 54.8892 363.456 52.4245 358.988 50.8415L358.32 52.7267ZM369.413 59.6612C372.634 62.7836 375.185 66.7787 377.049 71.6742L378.918 70.9622C376.965 65.835 374.266 61.58 370.805 58.2252L369.413 59.6612ZM377.05 71.6763C378.905 76.5113 379.848 82.3157 379.848 89.1136H381.848C381.848 82.1388 380.881 76.0796 378.918 70.9601L377.05 71.6763ZM379.848 89.1136V94.7898H381.848V89.1136H379.848ZM380.848 93.7898H316.467V95.7898H380.848V93.7898ZM317.467 94.7898V82.3125H315.467V94.7898H317.467ZM316.467 83.3125H363.103V81.3125H316.467V83.3125ZM364.103 82.3029C364.068 78.6152 363.268 75.2975 361.681 72.3749L359.923 73.3296C361.336 75.9297 362.071 78.9189 362.103 82.3221L364.103 82.3029ZM361.683 72.3795C360.099 69.426 357.875 67.0926 355.024 65.3963L354.001 67.1151C356.536 68.6233 358.506 70.6876 359.921 73.3251L361.683 72.3795ZM355.028 65.3992C352.192 63.6903 348.907 62.8523 345.206 62.8523V64.8523C348.595 64.8523 351.514 65.6165 353.996 67.1122L355.028 65.3992ZM345.206 62.8523C341.252 62.8523 337.736 63.8165 334.693 65.7725L335.775 67.4548C338.459 65.7289 341.591 64.8523 345.206 64.8523V62.8523ZM334.7 65.7679C331.692 67.666 329.34 70.1796 327.655 73.2974L329.415 74.248C330.935 71.434 333.049 69.1749 335.768 67.4594L334.7 65.7679ZM327.653 73.3011C326.005 76.3831 325.167 79.7645 325.132 83.4278L327.132 83.4472C327.164 80.0878 327.929 77.026 329.417 74.2444L327.653 73.3011ZM325.132 83.4375V94.3295H327.132V83.4375H325.132ZM325.132 94.3295C325.132 99.0181 325.989 103.102 327.747 106.546L329.528 105.636C327.945 102.534 327.132 98.7774 327.132 94.3295H325.132ZM327.749 106.549C329.502 109.949 331.968 112.583 335.142 114.422L336.144 112.692C333.318 111.054 331.114 108.71 329.526 105.633L327.749 106.549ZM335.149 114.426C338.323 116.23 342.01 117.114 346.177 117.114V115.114C342.299 115.114 338.963 114.293 336.137 112.687L335.149 114.426ZM346.177 117.114C348.963 117.114 351.512 116.726 353.815 115.934L353.165 114.043C351.103 114.752 348.778 115.114 346.177 115.114V117.114ZM353.828 115.93C356.131 115.102 358.142 113.891 359.849 112.293L358.482 110.832C356.985 112.234 355.212 113.307 353.151 114.048L353.828 115.93ZM359.849 112.293C361.574 110.678 362.867 108.686 363.735 106.335L361.858 105.642C361.09 107.724 359.963 109.447 358.482 110.832L359.849 112.293ZM362.685 106.982L379.969 108.926L380.192 106.938L362.908 104.995L362.685 106.982ZM379.108 107.7C378.055 112.109 376.052 115.947 373.099 119.229L374.585 120.567C377.768 117.03 379.924 112.891 381.053 108.164L379.108 107.7ZM373.098 119.229C370.18 122.476 366.428 125.018 361.815 126.843L362.551 128.703C367.415 126.778 371.436 124.07 374.586 120.566L373.098 119.229ZM361.821 126.841C357.218 128.629 351.924 129.534 345.921 129.534V131.534C352.123 131.534 357.67 130.599 362.545 128.705L361.821 126.841ZM393.772 129H392.772V130H393.772V129ZM393.772 50.4545V49.4545H392.772V50.4545H393.772ZM411.721 50.4545H412.721V49.4545H411.721V50.4545ZM411.721 63.5455H410.721V64.5455H411.721V63.5455ZM412.539 63.5455V64.5455H413.272L413.493 63.8466L412.539 63.5455ZM419.903 53.0625L420.479 53.8795L420.481 53.8784L419.903 53.0625ZM435.346 49.4829L435.265 50.4797L435.279 50.4808L435.293 50.4816L435.346 49.4829ZM438.568 49.8409H439.568V49.0211L438.764 48.8603L438.568 49.8409ZM438.568 66.8693L438.239 67.8138L439.568 68.2759V66.8693H438.568ZM434.835 66.1534L434.693 67.1434L434.704 67.1449L434.715 67.1463L434.835 66.1534ZM420.874 67.9943L421.348 68.8748L421.352 68.8726L420.874 67.9943ZM412.283 129V130H413.283V129H412.283ZM394.772 129V50.4545H392.772V129H394.772ZM393.772 51.4545H411.721V49.4545H393.772V51.4545ZM410.721 50.4545V63.5455H412.721V50.4545H410.721ZM411.721 64.5455H412.539V62.5455H411.721V64.5455ZM413.493 63.8466C414.867 59.4953 417.202 56.1932 420.479 53.8795L419.326 52.2455C415.649 54.8409 413.075 58.5274 411.586 63.2443L413.493 63.8466ZM420.481 53.8784C423.815 51.5152 427.617 50.3295 431.92 50.3295V48.3295C427.223 48.3295 423.013 49.6325 419.325 52.2466L420.481 53.8784ZM431.92 50.3295C432.91 50.3295 434.025 50.3791 435.265 50.4797L435.427 48.4862C434.145 48.3823 432.975 48.3295 431.92 48.3295V50.3295ZM435.293 50.4816C436.562 50.5483 437.583 50.6639 438.371 50.8215L438.764 48.8603C437.847 48.677 436.721 48.5539 435.399 48.4843L435.293 50.4816ZM437.568 49.8409V66.8693H439.568V49.8409H437.568ZM438.896 65.9248C438.005 65.6148 436.671 65.3666 434.954 65.1605L434.715 67.1463C436.407 67.3493 437.562 67.5784 438.239 67.8138L438.896 65.9248ZM434.976 65.1635C433.262 64.9186 431.596 64.7955 429.977 64.7955V66.7955C431.494 66.7955 433.066 66.9109 434.693 67.1434L434.976 65.1635ZM429.977 64.7955C426.452 64.7955 423.251 65.5624 420.396 67.116L421.352 68.8726C423.885 67.4944 426.751 66.7955 429.977 66.7955V64.7955ZM420.4 67.1138C417.585 68.6298 415.355 70.7496 413.727 73.4628L415.442 74.4918C416.882 72.0913 418.846 70.2225 421.348 68.8748L420.4 67.1138ZM413.727 73.4628C412.089 76.1931 411.283 79.3241 411.283 82.8239H413.283C413.283 79.6418 414.012 76.875 415.442 74.4918L413.727 73.4628ZM411.283 82.8239V129H413.283V82.8239H411.283ZM412.283 128H393.772V130H412.283V128ZM448.13 50.4545V49.4545H447.13V50.4545H448.13ZM466.641 50.4545H467.641V49.4545H466.641V50.4545ZM463.42 147.511L464.283 148.015L464.283 148.015L463.42 147.511ZM454.113 155.744L453.706 154.831L453.706 154.831L454.113 155.744ZM437.442 158.403L437.501 157.405L437.472 157.403H437.442V158.403ZM435.55 158.352H434.55V159.304L435.5 159.351L435.55 158.352ZM435.55 143.267L435.617 142.269L434.55 142.198V143.267H435.55ZM436.931 143.318L437.014 142.322L436.973 142.318H436.931V143.318ZM445.829 140.761L445.085 140.092L445.079 140.1L445.829 140.761ZM449.715 36.392L449.026 37.1167L449.032 37.1225L449.038 37.1282L449.715 36.392ZM449.715 22.1761L450.398 22.9068L450.398 22.9064L449.715 22.1761ZM464.851 22.1761L464.162 22.9008L464.168 22.9066L464.175 22.9123L464.851 22.1761ZM464.851 36.392L465.534 37.1227L465.535 37.1223L464.851 36.392ZM448.13 51.4545H466.641V49.4545H448.13V51.4545ZM465.641 50.4545V133.5H467.641V50.4545H465.641ZM465.641 133.5C465.641 139.038 464.59 143.521 462.556 147.007L464.283 148.015C466.545 144.138 467.641 139.28 467.641 133.5H465.641ZM462.556 147.007C460.518 150.5 457.58 153.105 453.706 154.831L454.52 156.658C458.759 154.77 462.025 151.886 464.283 148.015L462.556 147.007ZM453.706 154.831C449.81 156.566 445.031 157.455 439.334 157.455V159.455C445.229 159.455 450.302 158.536 454.52 156.658L453.706 154.831ZM439.334 157.455C438.669 157.455 438.058 157.438 437.501 157.405L437.384 159.402C437.986 159.437 438.636 159.455 439.334 159.455V157.455ZM437.442 157.403C436.882 157.403 436.268 157.387 435.6 157.354L435.5 159.351C436.196 159.386 436.844 159.403 437.442 159.403V157.403ZM436.55 158.352V143.267H434.55V158.352H436.55ZM435.484 144.265C436.012 144.3 436.495 144.318 436.931 144.318V142.318C436.549 142.318 436.111 142.302 435.617 142.269L435.484 144.265ZM436.848 144.315C437.287 144.351 437.741 144.369 438.209 144.369V142.369C437.792 142.369 437.393 142.353 437.014 142.322L436.848 144.315ZM438.209 144.369C441.89 144.369 444.773 143.469 446.579 141.423L445.079 140.1C443.816 141.531 441.62 142.369 438.209 142.369V144.369ZM446.572 141.43C448.332 139.475 449.13 136.69 449.13 133.244H447.13C447.13 136.412 446.394 138.638 445.085 140.092L446.572 141.43ZM449.13 133.244V50.4545H447.13V133.244H449.13ZM457.334 38.3068C454.61 38.3068 452.314 37.4233 450.392 35.6559L449.038 37.1282C451.343 39.2471 454.127 40.3068 457.334 40.3068V38.3068ZM450.404 35.6673C448.514 33.8705 447.596 31.7596 447.596 29.2841H445.596C445.596 32.3313 446.757 34.959 449.026 37.1167L450.404 35.6673ZM447.596 29.2841C447.596 26.7713 448.517 24.6648 450.398 22.9068L449.032 21.4455C446.755 23.5739 445.596 26.206 445.596 29.2841H447.596ZM450.398 22.9064C452.322 21.1071 454.615 20.2102 457.334 20.2102V18.2102C454.122 18.2102 451.336 19.2906 449.032 21.4459L450.398 22.9064ZM457.334 20.2102C460.016 20.2102 462.273 21.1045 464.162 22.9008L465.541 21.4514C463.271 19.2932 460.517 18.2102 457.334 18.2102V20.2102ZM464.175 22.9123C466.089 24.6719 467.022 26.7769 467.022 29.2841H469.022C469.022 26.2004 467.842 23.5667 465.528 21.44L464.175 22.9123ZM467.022 29.2841C467.022 31.754 466.091 33.8633 464.168 35.6618L465.535 37.1223C467.839 34.9662 469.022 32.3369 469.022 29.2841H467.022ZM464.169 35.6614C462.28 37.4258 460.021 38.3068 457.334 38.3068V40.3068C460.511 40.3068 463.263 39.2446 465.534 37.1227L464.169 35.6614ZM486.367 126.852L485.665 127.565L485.665 127.565L486.367 126.852ZM483.094 118.875L484.094 118.886L484.094 118.875L484.094 118.864L483.094 118.875ZM486.367 111L487.068 111.713L487.068 111.713L486.367 111ZM502.168 111L501.466 111.713L501.472 111.718L502.168 111ZM505.594 118.875L506.594 118.891L506.594 118.878L506.594 118.864L505.594 118.875ZM503.958 124.551L503.108 124.024L503.104 124.03L503.1 124.037L503.958 124.551ZM499.867 128.642L500.376 129.503L500.381 129.5L499.867 128.642ZM494.344 129.125C491.505 129.125 489.098 128.138 487.068 126.14L485.665 127.565C488.068 129.93 490.979 131.125 494.344 131.125V129.125ZM487.068 126.14C485.048 124.15 484.063 121.753 484.094 118.886L482.094 118.864C482.057 122.27 483.254 125.191 485.665 127.565L487.068 126.14ZM484.094 118.864C484.063 116.072 485.043 113.707 487.068 111.713L485.665 110.287C483.259 112.657 482.057 115.542 482.094 118.886L484.094 118.864ZM487.068 111.713C489.098 109.714 491.505 108.727 494.344 108.727V106.727C490.979 106.727 488.068 107.922 485.665 110.287L487.068 111.713ZM494.344 108.727C497.071 108.727 499.43 109.707 501.466 111.713L502.87 110.287C500.474 107.929 497.617 106.727 494.344 106.727V108.727ZM501.472 111.718C503.535 113.719 504.563 116.091 504.594 118.886L506.594 118.864C506.557 115.523 505.301 112.645 502.864 110.282L501.472 111.718ZM504.594 118.859C504.563 120.765 504.066 122.479 503.108 124.024L504.808 125.078C505.963 123.214 506.557 121.145 506.594 118.891L504.594 118.859ZM503.1 124.037C502.162 125.6 500.916 126.846 499.352 127.785L500.381 129.5C502.227 128.392 503.708 126.911 504.815 125.066L503.1 124.037ZM499.358 127.781C497.847 128.675 496.183 129.125 494.344 129.125V131.125C496.528 131.125 498.546 130.586 500.376 129.503L499.358 127.781ZM521.97 129H520.97V130H521.97V129ZM521.97 50.4545V49.4545H520.97V50.4545H521.97ZM540.482 50.4545H541.482V49.4545H540.482V50.4545ZM540.482 129V130H541.482V129H540.482ZM523.709 36.392L523.026 37.1223L523.032 37.1282L523.709 36.392ZM523.709 22.1761L524.386 22.9123L524.392 22.9064L523.709 22.1761ZM538.845 22.1761L538.156 22.9008L538.162 22.9066L538.169 22.9123L538.845 22.1761ZM538.845 36.392L539.528 37.1227L539.529 37.1223L538.845 36.392ZM522.97 129V50.4545H520.97V129H522.97ZM521.97 51.4545H540.482V49.4545H521.97V51.4545ZM539.482 50.4545V129H541.482V50.4545H539.482ZM540.482 128H521.97V130H540.482V128ZM531.277 38.3068C528.59 38.3068 526.311 37.4255 524.386 35.6559L523.032 37.1282C525.335 39.245 528.101 40.3068 531.277 40.3068V38.3068ZM524.392 35.6618C522.47 33.8633 521.539 31.754 521.539 29.2841H519.539C519.539 32.3369 520.721 34.9662 523.026 37.1223L524.392 35.6618ZM521.539 29.2841C521.539 26.7769 522.472 24.6719 524.386 22.9123L523.032 21.44C520.719 23.5667 519.539 26.2004 519.539 29.2841H521.539ZM524.392 22.9064C526.318 21.1049 528.595 20.2102 531.277 20.2102V18.2102C528.095 18.2102 525.327 19.2928 523.026 21.4459L524.392 22.9064ZM531.277 20.2102C533.996 20.2102 536.269 21.1068 538.156 22.9008L539.534 21.4514C537.262 19.2909 534.49 18.2102 531.277 18.2102V20.2102ZM538.169 22.9123C540.083 24.6719 541.016 26.7769 541.016 29.2841H543.016C543.016 26.2004 541.835 23.5667 539.522 21.44L538.169 22.9123ZM541.016 29.2841C541.016 31.754 540.085 33.8633 538.162 35.6618L539.529 37.1223C541.833 34.9662 543.016 32.3369 543.016 29.2841H541.016ZM538.163 35.6614C536.277 37.4236 534.001 38.3068 531.277 38.3068V40.3068C534.485 40.3068 537.255 39.2468 539.528 37.1227L538.163 35.6614ZM571.099 125.472L570.585 126.329L570.585 126.329L571.099 125.472ZM558.009 111.307L557.116 111.758L557.118 111.762L558.009 111.307ZM558.009 68.7102L557.117 68.257L557.115 68.261L558.009 68.7102ZM571.099 54.4943L571.614 55.3518L571.614 55.3518L571.099 54.4943ZM610.986 54.4943L610.471 55.3518L610.471 55.3518L610.986 54.4943ZM624.026 68.7102L623.132 69.1594L623.134 69.1634L624.026 68.7102ZM624.026 111.307L623.135 110.852L623.133 110.856L624.026 111.307ZM610.986 125.472L610.471 124.614L610.471 124.614L610.986 125.472ZM601.577 112.278L602.209 113.053L602.215 113.048L601.577 112.278ZM607.815 102.972L606.874 102.633L606.872 102.641L607.815 102.972ZM607.815 76.9432L606.871 77.2717L606.874 77.2816L607.815 76.9432ZM601.577 67.5852L602.215 66.8155L602.215 66.8155L601.577 67.5852ZM580.509 67.5852L579.875 66.8117L579.87 66.8155L580.509 67.5852ZM574.219 76.9432L573.277 76.6074L573.275 76.6121L574.219 76.9432ZM574.219 102.972L573.275 103.303L573.278 103.31L574.219 102.972ZM580.509 112.278L579.87 113.048L579.88 113.057L580.509 112.278ZM591.043 129.534C583.522 129.534 577.059 127.881 571.614 124.614L570.585 126.329C576.39 129.812 583.222 131.534 591.043 131.534V129.534ZM571.614 124.614C566.156 121.339 561.919 116.76 558.899 110.852L557.118 111.762C560.302 117.99 564.793 122.854 570.585 126.329L571.614 124.614ZM558.901 110.856C555.916 104.952 554.406 98.021 554.406 90.0341H552.406C552.406 98.2744 553.965 105.525 557.116 111.758L558.901 110.856ZM554.406 90.0341C554.406 82.0473 555.916 75.0985 558.902 69.1594L557.115 68.261C553.965 74.5265 552.406 81.7936 552.406 90.0341H554.406ZM558.9 69.1634C561.921 63.221 566.157 58.6258 571.614 55.3518L570.585 53.6368C564.792 57.1128 560.301 61.9949 557.117 68.257L558.9 69.1634ZM571.614 55.3518C577.059 52.0848 583.522 50.4318 591.043 50.4318V48.4318C583.222 48.4318 576.39 50.1538 570.585 53.6368L571.614 55.3518ZM591.043 50.4318C598.563 50.4318 605.026 52.0848 610.471 55.3518L611.5 53.6368C605.695 50.1538 598.863 48.4318 591.043 48.4318V50.4318ZM610.471 55.3518C615.927 58.6252 620.145 63.2191 623.132 69.1594L624.919 68.261C621.769 61.9968 617.295 57.1134 611.5 53.6368L610.471 55.3518ZM623.134 69.1634C626.153 75.1015 627.679 82.0489 627.679 90.0341H629.679C629.679 81.792 628.103 74.5235 624.917 68.257L623.134 69.1634ZM627.679 90.0341C627.679 98.0194 626.153 104.949 623.135 110.852L624.916 111.762C628.103 105.528 629.679 98.276 629.679 90.0341H627.679ZM623.133 110.856C620.147 116.762 615.928 121.34 610.471 124.614L611.5 126.329C617.293 122.853 621.768 117.988 624.918 111.758L623.133 110.856ZM610.471 124.614C605.026 127.881 598.563 129.534 591.043 129.534V131.534C598.863 131.534 605.695 129.812 611.5 126.329L610.471 124.614ZM591.145 116.705C595.498 116.705 599.209 115.505 602.209 113.053L600.944 111.504C598.354 113.62 595.11 114.705 591.145 114.705V116.705ZM602.215 113.048C605.168 110.599 607.343 107.337 608.759 103.303L606.872 102.641C605.56 106.379 603.576 109.321 600.938 111.509L602.215 113.048ZM608.756 103.31C610.199 99.2996 610.912 94.8534 610.912 89.983H608.912C608.912 94.658 608.227 98.8708 606.874 102.633L608.756 103.31ZM610.912 89.983C610.912 85.0793 610.199 80.6159 608.756 76.6048L606.874 77.2816C608.227 81.0432 608.912 85.273 608.912 89.983H610.912ZM608.76 76.6147C607.345 72.5471 605.17 69.2659 602.215 66.8155L600.938 68.355C603.574 70.5409 605.558 73.4984 606.871 77.2717L608.76 76.6147ZM602.215 66.8155C599.214 64.3271 595.501 63.108 591.145 63.108V65.108C595.107 65.108 598.348 66.2069 600.938 68.355L602.215 66.8155ZM591.145 63.108C586.692 63.108 582.912 64.3236 579.875 66.8117L581.142 68.3588C583.764 66.2105 587.075 65.108 591.145 65.108V63.108ZM579.87 66.8155C576.917 69.2643 574.726 72.5428 573.277 76.6074L575.161 77.279C576.507 73.5027 578.509 70.5425 581.147 68.355L579.87 66.8155ZM573.275 76.6121C571.869 80.621 571.173 85.0818 571.173 89.983H573.173C573.173 85.2704 573.842 81.0381 575.162 77.2743L573.275 76.6121ZM571.173 89.983C571.173 94.8509 571.869 99.2945 573.275 103.303L575.162 102.641C573.841 98.8759 573.173 94.6605 573.173 89.983H571.173ZM573.278 103.31C574.728 107.341 576.919 110.601 579.87 113.048L581.147 111.509C578.507 109.32 576.505 106.375 575.16 102.633L573.278 103.31ZM579.88 113.057C582.917 115.508 586.696 116.705 591.145 116.705V114.705C587.071 114.705 583.759 113.617 581.137 111.5L579.88 113.057Z" fill="#04AA6D" mask="url(#path-1-outside-1_623_4)"/>
<mask id="path-3-outside-2_623_4" maskUnits="userSpaceOnUse" x="0" y="27" width="95" height="108" fill="black">
<rect fill="white" y="27" width="95" height="108"/>
<path fill-rule="evenodd" clip-rule="evenodd" d="M75.2599 47.317C66.9142 43.2667 58.0268 41.2416 48.5978 41.2416C39.1058 41.2416 30.193 43.3264 21.8595 47.4961C13.5718 51.642 6.73283 57.503 1.34251 65.0789C1.2831 65.1624 1.22883 65.2501 1.18907 65.3445C1.03958 65.6997 0.978734 66.0843 1.00654 66.4983C1.03804 66.9663 1.26029 67.2987 1.67329 67.4955C2.06442 67.7132 2.46035 67.773 2.8611 67.6746C3.26185 67.5762 3.66829 67.2654 4.08042 66.742C9.22629 59.6285 15.7 54.1389 23.5015 50.273C31.303 46.4072 39.6684 44.4742 48.5978 44.4742C57.5053 44.4953 65.9206 46.4221 73.8437 50.2546C80.4175 53.4347 86.0194 57.7528 90.6496 63.2089C91.3798 64.0694 92.7515 63.9932 93.3404 63.0305C93.6982 62.4458 93.6487 61.6971 93.2043 61.1751C88.221 55.3236 82.2395 50.7042 75.2599 47.317ZM85.7904 75.3712C86.1137 74.8428 86.1154 74.1761 85.7771 73.6572C83.9775 70.8969 81.7843 68.306 79.1974 65.8844C70.6977 57.9287 60.4978 53.9509 48.5978 53.9509C36.9393 53.9509 26.8383 58.0104 18.2948 66.1294C9.75129 74.2493 5.47954 83.9947 5.47954 95.3657C5.47954 99.0252 5.80767 102.6 6.46392 106.09C7.12017 109.58 7.98554 112.899 9.06004 116.047C9.27704 116.612 9.61873 116.949 10.0851 117.058C10.5524 117.167 11.003 117.123 11.437 116.926C11.7826 116.729 12.0482 116.484 12.2337 116.191C12.4192 115.899 12.4139 115.48 12.2179 114.936C10.7479 110.948 9.77229 107.29 9.29104 103.961C8.80979 100.632 8.56917 97.7772 8.56917 95.3973C8.56917 84.6999 12.494 75.7225 20.3436 68.465C28.1924 61.2075 37.5999 57.5788 48.5663 57.5788C59.5327 57.5788 68.9507 61.1864 76.8205 68.4018C79.1838 70.5683 81.1923 72.8909 82.846 75.3695C83.546 76.4187 85.1322 76.4472 85.7904 75.3712ZM69.154 104.556C69.6653 104.919 70 105.493 70 106.12C70 107.401 68.6914 108.249 67.6204 107.547C66.8523 107.043 66.1172 106.465 65.4149 105.813C62.3313 102.95 60.7896 99.4678 60.7896 95.3657C60.7896 92.0241 59.59 89.2222 57.1907 86.96C54.7906 84.6977 51.9263 83.5666 48.5978 83.5666C45.2894 83.5666 42.4137 84.6977 39.9707 86.96C37.5277 89.2222 36.3062 92.0241 36.3062 95.3657C36.3062 104.457 39.01 112.059 44.4175 118.174C49.825 124.288 56.7668 128.521 65.2429 130.875C65.8309 131.03 66.2063 131.275 66.369 131.613C66.5318 131.95 66.5694 132.325 66.4819 132.739C66.3734 133.241 66.1617 133.601 65.8467 133.819C65.5317 134.037 65.0824 134.058 64.4987 133.882C55.1931 131.641 47.6309 127.092 41.8122 120.235C35.9934 113.378 33.084 105.088 33.084 95.3657C33.084 91.1538 34.6039 87.6006 37.6437 84.7061C40.6834 81.8124 44.3348 80.3655 48.5978 80.3655C52.8608 80.3655 56.517 81.7966 59.5663 84.6586C62.6166 87.5216 64.1417 91.0484 64.1417 95.2392C64.1417 98.5132 65.3803 101.271 67.8574 103.512C68.2773 103.892 68.7095 104.24 69.154 104.556ZM77.2872 88.1497C77.3886 88.5399 77.3157 88.9535 77.0983 89.2929C76.3282 90.4952 74.3376 90.0444 73.9628 88.6667C72.8202 84.4668 70.5177 80.7697 67.0555 77.5755C61.8868 72.8086 55.7343 70.4251 48.5978 70.4251C41.4604 70.4251 35.3464 72.8297 30.2556 77.6387C25.164 82.4478 22.6182 88.3567 22.6182 95.3657C22.6182 102.725 23.862 109.034 26.3496 114.293C28.8364 119.551 32.6067 124.805 37.6607 130.053C38.0737 130.467 38.2636 130.865 38.2304 131.246C38.1971 131.627 38.0387 131.97 37.7552 132.275C37.5172 132.556 37.1388 132.747 36.6199 132.847C36.1002 132.947 35.6342 132.746 35.2221 132.244C30.1471 126.996 26.224 121.437 23.4529 115.568C20.6827 109.698 19.2975 102.964 19.2975 95.3657C19.2975 87.4864 22.1579 80.8262 27.8787 75.3848C33.5994 69.9443 40.5058 67.2241 48.5978 67.2241C56.6688 67.2241 63.6137 69.9285 69.4324 75.3374C73.4106 79.0359 76.0289 83.3067 77.2872 88.1497ZM65.3952 30.0919C59.9054 28.6973 54.3063 28 48.5978 28C43.0223 28 37.4687 28.6973 31.9369 30.0919C26.406 31.4865 21.1364 33.5762 16.1279 36.3609C15.7814 36.5577 15.5976 36.8896 15.5766 37.3568C15.5591 37.7466 15.6173 38.0495 15.7513 38.2657C15.8028 38.3487 15.8651 38.4247 15.9237 38.5028C16.1227 38.7677 16.3544 38.9622 16.6187 39.0864C16.9206 39.2287 17.3428 39.1804 17.8853 38.9415C22.6103 36.3947 27.554 34.4899 32.7165 33.2271C37.879 31.9642 43.1728 31.3328 48.5978 31.3328C54.0018 31.3328 59.3235 32.0081 64.563 33.3588C69.8025 34.7095 74.818 36.5704 79.6095 38.9415C80.11 39.1804 80.5502 39.1962 80.9299 38.989C81.3088 38.7817 81.6067 38.5147 81.8237 38.188C82.0197 37.8622 82.0854 37.4815 82.0206 37.0459C81.9559 36.6103 81.6627 36.2837 81.1412 36.0659C76.1336 33.4778 70.8849 31.4865 65.3952 30.0919ZM49.6859 93.997C49.4146 93.6703 49.0187 93.507 48.498 93.507C47.9765 93.507 47.5802 93.6703 47.3089 93.997C47.0385 94.3228 46.9034 94.7474 46.9034 95.2708C46.9034 103.423 49.7615 110.047 55.4779 115.142C61.1952 120.238 67.9979 122.785 75.886 122.785C76.2745 122.785 77.0699 122.758 78.2721 122.704C79.4735 122.649 80.8201 122.403 82.312 121.963C82.7705 121.855 83.0864 121.653 83.2596 121.357C83.432 121.062 83.4849 120.697 83.4184 120.263C83.3729 119.936 83.1927 119.637 82.8777 119.364C82.5635 119.092 82.1562 118.989 81.6557 119.056C80.5602 119.19 79.5102 119.312 78.5057 119.421C77.5012 119.529 76.628 119.583 75.886 119.583C69.019 119.583 63.0034 117.346 57.8391 112.873C52.6749 108.398 50.0927 102.531 50.0927 95.2708C50.0927 94.7474 49.9571 94.3228 49.6859 93.997Z"/>
</mask>
<path fill-rule="evenodd" clip-rule="evenodd" d="M75.2599 47.317C66.9142 43.2667 58.0268 41.2416 48.5978 41.2416C39.1058 41.2416 30.193 43.3264 21.8595 47.4961C13.5718 51.642 6.73283 57.503 1.34251 65.0789C1.2831 65.1624 1.22883 65.2501 1.18907 65.3445C1.03958 65.6997 0.978734 66.0843 1.00654 66.4983C1.03804 66.9663 1.26029 67.2987 1.67329 67.4955C2.06442 67.7132 2.46035 67.773 2.8611 67.6746C3.26185 67.5762 3.66829 67.2654 4.08042 66.742C9.22629 59.6285 15.7 54.1389 23.5015 50.273C31.303 46.4072 39.6684 44.4742 48.5978 44.4742C57.5053 44.4953 65.9206 46.4221 73.8437 50.2546C80.4175 53.4347 86.0194 57.7528 90.6496 63.2089C91.3798 64.0694 92.7515 63.9932 93.3404 63.0305C93.6982 62.4458 93.6487 61.6971 93.2043 61.1751C88.221 55.3236 82.2395 50.7042 75.2599 47.317ZM85.7904 75.3712C86.1137 74.8428 86.1154 74.1761 85.7771 73.6572C83.9775 70.8969 81.7843 68.306 79.1974 65.8844C70.6977 57.9287 60.4978 53.9509 48.5978 53.9509C36.9393 53.9509 26.8383 58.0104 18.2948 66.1294C9.75129 74.2493 5.47954 83.9947 5.47954 95.3657C5.47954 99.0252 5.80767 102.6 6.46392 106.09C7.12017 109.58 7.98554 112.899 9.06004 116.047C9.27704 116.612 9.61873 116.949 10.0851 117.058C10.5524 117.167 11.003 117.123 11.437 116.926C11.7826 116.729 12.0482 116.484 12.2337 116.191C12.4192 115.899 12.4139 115.48 12.2179 114.936C10.7479 110.948 9.77229 107.29 9.29104 103.961C8.80979 100.632 8.56917 97.7772 8.56917 95.3973C8.56917 84.6999 12.494 75.7225 20.3436 68.465C28.1924 61.2075 37.5999 57.5788 48.5663 57.5788C59.5327 57.5788 68.9507 61.1864 76.8205 68.4018C79.1838 70.5683 81.1923 72.8909 82.846 75.3695C83.546 76.4187 85.1322 76.4472 85.7904 75.3712ZM69.154 104.556C69.6653 104.919 70 105.493 70 106.12C70 107.401 68.6914 108.249 67.6204 107.547C66.8523 107.043 66.1172 106.465 65.4149 105.813C62.3313 102.95 60.7896 99.4678 60.7896 95.3657C60.7896 92.0241 59.59 89.2222 57.1907 86.96C54.7906 84.6977 51.9263 83.5666 48.5978 83.5666C45.2894 83.5666 42.4137 84.6977 39.9707 86.96C37.5277 89.2222 36.3062 92.0241 36.3062 95.3657C36.3062 104.457 39.01 112.059 44.4175 118.174C49.825 124.288 56.7668 128.521 65.2429 130.875C65.8309 131.03 66.2063 131.275 66.369 131.613C66.5318 131.95 66.5694 132.325 66.4819 132.739C66.3734 133.241 66.1617 133.601 65.8467 133.819C65.5317 134.037 65.0824 134.058 64.4987 133.882C55.1931 131.641 47.6309 127.092 41.8122 120.235C35.9934 113.378 33.084 105.088 33.084 95.3657C33.084 91.1538 34.6039 87.6006 37.6437 84.7061C40.6834 81.8124 44.3348 80.3655 48.5978 80.3655C52.8608 80.3655 56.517 81.7966 59.5663 84.6586C62.6166 87.5216 64.1417 91.0484 64.1417 95.2392C64.1417 98.5132 65.3803 101.271 67.8574 103.512C68.2773 103.892 68.7095 104.24 69.154 104.556ZM77.2872 88.1497C77.3886 88.5399 77.3157 88.9535 77.0983 89.2929C76.3282 90.4952 74.3376 90.0444 73.9628 88.6667C72.8202 84.4668 70.5177 80.7697 67.0555 77.5755C61.8868 72.8086 55.7343 70.4251 48.5978 70.4251C41.4604 70.4251 35.3464 72.8297 30.2556 77.6387C25.164 82.4478 22.6182 88.3567 22.6182 95.3657C22.6182 102.725 23.862 109.034 26.3496 114.293C28.8364 119.551 32.6067 124.805 37.6607 130.053C38.0737 130.467 38.2636 130.865 38.2304 131.246C38.1971 131.627 38.0387 131.97 37.7552 132.275C37.5172 132.556 37.1388 132.747 36.6199 132.847C36.1002 132.947 35.6342 132.746 35.2221 132.244C30.1471 126.996 26.224 121.437 23.4529 115.568C20.6827 109.698 19.2975 102.964 19.2975 95.3657C19.2975 87.4864 22.1579 80.8262 27.8787 75.3848C33.5994 69.9443 40.5058 67.2241 48.5978 67.2241C56.6688 67.2241 63.6137 69.9285 69.4324 75.3374C73.4106 79.0359 76.0289 83.3067 77.2872 88.1497ZM65.3952 30.0919C59.9054 28.6973 54.3063 28 48.5978 28C43.0223 28 37.4687 28.6973 31.9369 30.0919C26.406 31.4865 21.1364 33.5762 16.1279 36.3609C15.7814 36.5577 15.5976 36.8896 15.5766 37.3568C15.5591 37.7466 15.6173 38.0495 15.7513 38.2657C15.8028 38.3487 15.8651 38.4247 15.9237 38.5028C16.1227 38.7677 16.3544 38.9622 16.6187 39.0864C16.9206 39.2287 17.3428 39.1804 17.8853 38.9415C22.6103 36.3947 27.554 34.4899 32.7165 33.2271C37.879 31.9642 43.1728 31.3328 48.5978 31.3328C54.0018 31.3328 59.3235 32.0081 64.563 33.3588C69.8025 34.7095 74.818 36.5704 79.6095 38.9415C80.11 39.1804 80.5502 39.1962 80.9299 38.989C81.3088 38.7817 81.6067 38.5147 81.8237 38.188C82.0197 37.8622 82.0854 37.4815 82.0206 37.0459C81.9559 36.6103 81.6627 36.2837 81.1412 36.0659C76.1336 33.4778 70.8849 31.4865 65.3952 30.0919ZM49.6859 93.997C49.4146 93.6703 49.0187 93.507 48.498 93.507C47.9765 93.507 47.5802 93.6703 47.3089 93.997C47.0385 94.3228 46.9034 94.7474 46.9034 95.2708C46.9034 103.423 49.7615 110.047 55.4779 115.142C61.1952 120.238 67.9979 122.785 75.886 122.785C76.2745 122.785 77.0699 122.758 78.2721 122.704C79.4735 122.649 80.8201 122.403 82.312 121.963C82.7705 121.855 83.0864 121.653 83.2596 121.357C83.432 121.062 83.4849 120.697 83.4184 120.263C83.3729 119.936 83.1927 119.637 82.8777 119.364C82.5635 119.092 82.1562 118.989 81.6557 119.056C80.5602 119.19 79.5102 119.312 78.5057 119.421C77.5012 119.529 76.628 119.583 75.886 119.583C69.019 119.583 63.0034 117.346 57.8391 112.873C52.6749 108.398 50.0927 102.531 50.0927 95.2708C50.0927 94.7474 49.9571 94.3228 49.6859 93.997Z" fill="#04AA6D"/>
<path d="M75.2599 47.317L75.6965 46.4173L75.2599 47.317ZM21.8595 47.4961L22.3069 48.3905L22.307 48.3904L21.8595 47.4961ZM1.00654 66.4983L0.00879055 66.5653L0.00879896 66.5654L1.00654 66.4983ZM1.67329 67.4955L2.15979 66.6218L2.13202 66.6063L2.10331 66.5926L1.67329 67.4955ZM2.8611 67.6746L2.62274 66.7034H2.62273L2.8611 67.6746ZM4.08042 66.742L4.8661 67.3606L4.8787 67.3446L4.89064 67.3281L4.08042 66.742ZM23.5015 50.273L23.9455 51.169L23.5015 50.273ZM48.5978 44.4742L48.6002 43.4742H48.5978V44.4742ZM73.8437 50.2546L74.2792 49.3544L74.2792 49.3543L73.8437 50.2546ZM79.1974 65.8844L79.8808 65.1543L79.8808 65.1543L79.1974 65.8844ZM18.2948 66.1294L17.6059 65.4045L17.6059 65.4046L18.2948 66.1294ZM9.06004 116.047L8.11364 116.37L8.11978 116.388L8.12659 116.406L9.06004 116.047ZM10.0851 117.058L9.85771 118.032L9.85813 118.032L10.0851 117.058ZM11.437 116.926L11.8498 117.837L11.8917 117.818L11.9316 117.795L11.437 116.926ZM12.2337 116.191L11.3892 115.655L11.3885 115.656L12.2337 116.191ZM12.2179 114.936L13.1588 114.597L13.1562 114.59L12.2179 114.936ZM9.29104 103.961L8.30133 104.104L8.30133 104.104L9.29104 103.961ZM20.3436 68.465L21.0225 69.1993L21.0225 69.1992L20.3436 68.465ZM76.8205 68.4018L76.1447 69.1389L76.1447 69.1389L76.8205 68.4018ZM65.4149 105.813L66.0953 105.08L65.4149 105.813ZM57.1907 86.96L57.8768 86.2324L57.8766 86.2323L57.1907 86.96ZM39.9707 86.96L40.6502 87.6937V87.6937L39.9707 86.96ZM44.4175 118.174L45.1665 117.511L44.4175 118.174ZM65.2429 130.875L64.9753 131.839L64.9887 131.842L65.2429 130.875ZM66.369 131.613L65.4684 132.047L65.4684 132.047L66.369 131.613ZM66.4819 132.739L67.4594 132.95L67.4603 132.946L66.4819 132.739ZM64.4987 133.882L64.7869 132.925L64.7601 132.917L64.7329 132.91L64.4987 133.882ZM41.8122 120.235L41.0497 120.882L41.8122 120.235ZM37.6437 84.7061L36.9542 83.9818L36.9541 83.9819L37.6437 84.7061ZM59.5663 84.6586L60.2507 83.9295L60.2507 83.9295L59.5663 84.6586ZM67.8574 103.512L68.5286 102.771L68.5283 102.77L67.8574 103.512ZM67.0555 77.5755L67.7336 76.8405L67.7334 76.8404L67.0555 77.5755ZM30.2556 77.6387L30.9423 78.3657L30.9423 78.3656L30.2556 77.6387ZM26.3496 114.293L27.2536 113.865L27.2536 113.865L26.3496 114.293ZM37.6607 130.053L36.9404 130.747L36.9463 130.753L36.9523 130.759L37.6607 130.053ZM38.2304 131.246L39.2266 131.334L39.2266 131.333L38.2304 131.246ZM37.7552 132.275L37.0221 131.595L37.0067 131.612L36.9921 131.629L37.7552 132.275ZM36.6199 132.847L36.8091 133.829L36.8094 133.829L36.6199 132.847ZM35.2221 132.244L35.9952 131.609L35.9693 131.578L35.941 131.549L35.2221 132.244ZM23.4529 115.568L22.5486 115.995L22.5486 115.995L23.4529 115.568ZM27.8787 75.3848L27.1895 74.6602L27.1895 74.6602L27.8787 75.3848ZM69.4324 75.3374L70.1133 74.605L70.1133 74.6049L69.4324 75.3374ZM65.3952 30.0919L65.6414 29.1227L65.3952 30.0919ZM31.9369 30.0919L31.6925 29.1222L31.6924 29.1222L31.9369 30.0919ZM16.1279 36.3609L15.6419 35.4869L15.6341 35.4913L16.1279 36.3609ZM15.5766 37.3568L16.5756 37.4018L16.5756 37.4017L15.5766 37.3568ZM16.6187 39.0864L17.045 38.1819L17.044 38.1814L16.6187 39.0864ZM17.8853 38.9415L18.2883 39.8567L18.3247 39.8407L18.3598 39.8218L17.8853 38.9415ZM32.7165 33.2271L32.9542 34.1984L32.7165 33.2271ZM64.563 33.3588L64.3134 34.3271L64.563 33.3588ZM79.6095 38.9415L79.166 39.8378L79.1724 39.841L79.1788 39.844L79.6095 38.9415ZM80.9299 38.989L81.409 39.8667L81.4098 39.8663L80.9299 38.989ZM81.8237 38.188L82.6567 38.7413L82.6691 38.7227L82.6806 38.7035L81.8237 38.188ZM82.0206 37.0459L83.0097 36.8989V36.8989L82.0206 37.0459ZM81.1412 36.0659L80.6821 36.9542L80.7183 36.9729L80.7559 36.9886L81.1412 36.0659ZM49.6859 93.997L48.9165 94.6358L48.9173 94.6368L49.6859 93.997ZM47.3089 93.997L46.5395 93.3582L46.5394 93.3584L47.3089 93.997ZM55.4779 115.142L54.8125 115.889L54.8126 115.889L55.4779 115.142ZM78.2721 122.704L78.3174 123.703H78.3174L78.2721 122.704ZM82.312 121.963L82.0809 120.99L82.0551 120.997L82.0296 121.004L82.312 121.963ZM83.2596 121.357L84.122 121.864L84.1231 121.862L83.2596 121.357ZM83.4184 120.263L82.4279 120.401L82.4299 120.414L83.4184 120.263ZM82.8777 119.364L82.2227 120.12L82.2238 120.121L82.8777 119.364ZM81.6557 119.056L81.7775 120.049L81.7879 120.047L81.6557 119.056ZM78.5057 119.421L78.6126 120.415L78.6135 120.415L78.5057 119.421ZM57.8391 112.873L57.1843 113.628L57.1844 113.629L57.8391 112.873ZM69.154 104.556L68.5748 105.371L69.154 104.556ZM77.2872 88.1497L78.2551 87.8983L77.2872 88.1497ZM15.7513 38.2657L14.9015 38.7927L15.7513 38.2657ZM15.9237 38.5028L15.1242 39.1035L15.9237 38.5028ZM73.9628 88.6667L74.9277 88.4041L73.9628 88.6667ZM82.846 75.3695L82.0141 75.9245L82.846 75.3695ZM1.34251 65.0789L2.15732 65.6587L1.34251 65.0789ZM1.18907 65.3445L0.267397 64.9566L1.18907 65.3445ZM85.7771 73.6572L86.6148 73.111L85.7771 73.6572ZM93.2043 61.1751L92.4429 61.8235L93.2043 61.1751ZM90.6496 63.2089L89.8871 63.8559L90.6496 63.2089ZM48.5978 42.2416C57.8781 42.2416 66.6159 44.2335 74.8233 48.2166L75.6965 46.4173C67.2124 42.2999 58.1755 40.2416 48.5978 40.2416V42.2416ZM22.307 48.3904C30.4989 44.2916 39.2581 42.2416 48.5978 42.2416V40.2416C38.9535 40.2416 29.8872 42.3613 21.4121 46.6018L22.307 48.3904ZM2.15732 65.6587C7.45308 58.2156 14.1661 52.4629 22.3069 48.3905L21.4121 46.6018C12.9776 50.8212 6.01257 56.7904 0.527708 64.4992L2.15732 65.6587ZM2.00429 66.4312C1.98611 66.1605 2.0263 65.9331 2.11074 65.7325L0.267397 64.9566C0.0528551 65.4662 -0.0286436 66.008 0.00879055 66.5653L2.00429 66.4312ZM2.10331 66.5926C2.06748 66.5756 2.0482 66.5615 2.03931 66.5541C2.03102 66.5472 2.02868 66.5436 2.02815 66.5428C2.02756 66.5419 2.02384 66.5364 2.01918 66.5217C2.01428 66.5062 2.00741 66.4775 2.00429 66.4311L0.00879896 66.5654C0.0342503 66.9436 0.141448 67.3193 0.365555 67.6544C0.590488 67.9909 0.898058 68.2338 1.24327 68.3983L2.10331 66.5926ZM2.62273 66.7034C2.48906 66.7362 2.35071 66.7281 2.15979 66.6218L1.18679 68.3691C1.77813 68.6984 2.43165 68.8097 3.09947 68.6458L2.62273 66.7034ZM3.29474 66.1233C2.94202 66.5713 2.70935 66.6822 2.62274 66.7034L3.09947 68.6458C3.81436 68.4703 4.39457 67.9594 4.8661 67.3606L3.29474 66.1233ZM23.0575 49.377C15.1093 53.3155 8.51036 58.912 3.27019 66.1558L4.89064 67.3281C9.94223 60.345 16.2907 54.9622 23.9455 51.169L23.0575 49.377ZM48.5978 43.4742C39.5185 43.4742 31.0006 45.441 23.0575 49.377L23.9455 51.169C31.6054 47.3734 39.8184 45.4742 48.5978 45.4742V43.4742ZM74.2792 49.3543C66.2193 45.4557 57.6558 43.4957 48.6002 43.4742L48.5954 45.4742C57.3548 45.4949 65.6219 47.3884 73.4083 51.1548L74.2792 49.3543ZM91.412 62.5619C86.6898 56.9973 80.9757 52.5939 74.2792 49.3544L73.4082 51.1548C79.8592 54.2755 85.349 58.5083 89.8871 63.8559L91.412 62.5619ZM74.8233 48.2166C81.6796 51.5441 87.5502 56.0783 92.4429 61.8235L93.9656 60.5268C88.8917 54.5689 82.7994 49.8644 75.6965 46.4173L74.8233 48.2166ZM78.514 66.6144C81.0467 68.9852 83.1869 71.5152 84.9394 74.2033L86.6148 73.111C84.7682 70.2786 82.522 67.6267 79.8808 65.1543L78.514 66.6144ZM48.5978 54.9509C60.2502 54.9509 70.2041 58.8365 78.5141 66.6145L79.8808 65.1543C71.1912 57.021 60.7453 52.9509 48.5978 52.9509V54.9509ZM18.9837 66.8543C27.3436 58.9098 37.1988 54.9509 48.5978 54.9509V52.9509C36.6798 52.9509 26.333 57.1111 17.6059 65.4045L18.9837 66.8543ZM6.47954 95.3657C6.47954 84.2798 10.6307 74.7931 18.9837 66.8543L17.6059 65.4046C8.87192 73.7055 4.47954 83.7096 4.47954 95.3657H6.47954ZM7.44669 105.905C6.80225 102.478 6.47954 98.965 6.47954 95.3657H4.47954C4.47954 99.0853 4.81309 102.722 5.48114 106.275L7.44669 105.905ZM10.0064 115.724C8.94834 112.624 8.09472 109.351 7.44669 105.905L5.48114 106.275C6.14562 109.808 7.02274 113.174 8.11364 116.37L10.0064 115.724ZM10.3125 116.084C10.254 116.07 10.1268 116.036 9.99349 115.689L8.12659 116.406C8.42726 117.189 8.9835 117.827 9.85771 118.032L10.3125 116.084ZM11.0241 116.015C10.7921 116.12 10.5665 116.143 10.3121 116.084L9.85813 118.032C10.5382 118.19 11.2138 118.125 11.8498 117.837L11.0241 116.015ZM11.3885 115.656C11.3027 115.792 11.1664 115.929 10.9423 116.057L11.9316 117.795C12.3988 117.529 12.7937 117.176 13.0788 116.725L11.3885 115.656ZM11.277 115.274C11.3507 115.479 11.3681 115.606 11.3689 115.67C11.3696 115.726 11.3582 115.704 11.3892 115.655L13.0781 116.727C13.5141 116.039 13.3904 115.24 13.1588 114.597L11.277 115.274ZM8.30133 104.104C8.7948 107.517 9.79146 111.244 11.2796 115.281L13.1562 114.59C11.7044 110.651 10.7498 107.062 10.2808 103.818L8.30133 104.104ZM7.56917 95.3973C7.56917 97.8402 7.81579 100.745 8.30133 104.104L10.2808 103.818C9.8038 100.518 9.56917 97.7143 9.56917 95.3973H7.56917ZM19.6647 67.7307C11.6102 75.1776 7.56917 84.4213 7.56917 95.3973H9.56917C9.56917 84.9785 13.3777 76.2673 21.0225 69.1993L19.6647 67.7307ZM48.5663 56.5788C37.3554 56.5788 27.7035 60.2976 19.6647 67.7308L21.0225 69.1992C28.6812 62.1174 37.8444 58.5788 48.5663 58.5788V56.5788ZM77.4963 67.6647C69.4366 60.2753 59.7754 56.5788 48.5663 56.5788V58.5788C59.2899 58.5788 68.4648 62.0976 76.1447 69.1389L77.4963 67.6647ZM83.6778 74.8145C81.9764 72.2643 79.9142 69.8813 77.4962 67.6646L76.1447 69.1389C78.4533 71.2553 80.4082 73.5175 82.0141 75.9245L83.6778 74.8145ZM68.1687 106.71C67.4495 106.239 66.7583 105.696 66.0953 105.08L64.7344 106.546C65.476 107.235 66.2552 107.847 67.0721 108.383L68.1687 106.71ZM66.0953 105.08C63.2096 102.401 61.7896 99.1817 61.7896 95.3657H59.7896C59.7896 99.7539 61.4531 103.499 64.7344 106.546L66.0953 105.08ZM61.7896 95.3657C61.7896 91.7529 60.4794 88.6864 57.8768 86.2324L56.5047 87.6875C58.7006 89.758 59.7896 92.2954 59.7896 95.3657H61.7896ZM57.8766 86.2323C55.2891 83.7933 52.1787 82.5666 48.5978 82.5666V84.5666C51.6739 84.5666 54.2922 85.6021 56.5048 87.6877L57.8766 86.2323ZM48.5978 82.5666C45.0357 82.5666 41.9178 83.794 39.2913 86.2262L40.6502 87.6937C42.9096 85.6014 45.5431 84.5666 48.5978 84.5666V82.5666ZM39.2913 86.2262C36.6431 88.6785 35.3062 91.7467 35.3062 95.3657H37.3062C37.3062 92.3015 38.4124 89.7659 40.6502 87.6937L39.2913 86.2262ZM35.3062 95.3657C35.3062 104.671 38.0805 112.518 43.6684 118.836L45.1665 117.511C39.9395 111.601 37.3062 104.243 37.3062 95.3657H35.3062ZM43.6684 118.836C49.214 125.106 56.3281 129.437 64.9754 131.839L65.5105 129.911C57.2054 127.605 50.436 123.469 45.1665 117.511L43.6684 118.836ZM64.9887 131.842C65.2128 131.901 65.3456 131.965 65.4175 132.012C65.4836 132.055 65.4803 132.072 65.4684 132.047L67.2696 131.178C66.9184 130.45 66.1951 130.091 65.4971 129.908L64.9887 131.842ZM65.4684 132.047C65.5227 132.16 65.5515 132.306 65.5036 132.532L67.4603 132.946C67.5874 132.345 67.5409 131.74 67.2696 131.178L65.4684 132.047ZM65.5045 132.528C65.4309 132.869 65.321 132.967 65.278 132.997L66.4154 134.642C67.0024 134.236 67.316 133.614 67.4594 132.95L65.5045 132.528ZM65.278 132.997C65.2996 132.982 65.2973 132.996 65.2266 132.999C65.1474 133.003 65.0061 132.991 64.7869 132.925L64.2106 134.84C64.9131 135.051 65.7323 135.114 66.4154 134.642L65.278 132.997ZM64.7329 132.91C55.6193 130.715 48.2471 126.273 42.5746 119.588L41.0497 120.882C47.0147 127.912 54.7669 132.567 64.2646 134.855L64.7329 132.91ZM42.5746 119.588C36.9221 112.927 34.084 104.872 34.084 95.3657H32.084C32.084 105.305 35.0647 113.829 41.0497 120.882L42.5746 119.588ZM34.084 95.3657C34.084 91.4265 35.4925 88.1353 38.3333 85.4302L36.9541 83.9819C33.7153 87.0659 32.084 90.8812 32.084 95.3657H34.084ZM38.3332 85.4303C41.1837 82.7167 44.587 81.3655 48.5978 81.3655V79.3655C44.0826 79.3655 40.1831 80.908 36.9542 83.9818L38.3332 85.4303ZM48.5978 81.3655C52.612 81.3655 56.022 82.7034 58.882 85.3878L60.2507 83.9295C57.012 80.8897 53.1096 79.3655 48.5978 79.3655V81.3655ZM58.882 85.3878C61.7304 88.0613 63.1417 91.3241 63.1417 95.2392H65.1417C65.1417 90.7728 63.5028 86.9818 60.2507 83.9295L58.882 85.3878ZM63.1417 95.2392C63.1417 98.8022 64.5047 101.827 67.1865 104.253L68.5283 102.77C66.2559 100.714 65.1417 98.2241 65.1417 95.2392H63.1417ZM67.1862 104.253C67.6342 104.659 68.097 105.032 68.5748 105.371L69.7331 103.741C69.322 103.449 68.9204 103.125 68.5286 102.771L67.1862 104.253ZM74.9277 88.4041C73.7317 84.0081 71.3221 80.1513 67.7336 76.8405L66.3774 78.3105C69.7133 81.3882 71.9086 84.9256 72.9979 88.9292L74.9277 88.4041ZM67.7334 76.8404C62.3771 71.9003 55.9814 69.4251 48.5978 69.4251V71.4251C55.4872 71.4251 61.3966 73.7168 66.3775 78.3106L67.7334 76.8404ZM48.5978 69.4251C41.2105 69.4251 34.8492 71.9237 29.5689 76.9118L30.9423 78.3656C35.8435 73.7357 41.7103 71.4251 48.5978 71.4251V69.4251ZM29.569 76.9117C24.2772 81.9098 21.6182 88.0819 21.6182 95.3657H23.6182C23.6182 88.6316 26.0508 82.9857 30.9423 78.3657L29.569 76.9117ZM21.6182 95.3657C21.6182 102.835 22.8803 109.297 25.4456 114.72L27.2536 113.865C24.8436 108.771 23.6182 102.615 23.6182 95.3657H21.6182ZM25.4456 114.72C27.9887 120.098 31.8293 125.439 36.9404 130.747L38.381 129.359C33.3841 124.17 29.684 119.005 27.2536 113.865L25.4456 114.72ZM36.9523 130.759C37.2683 131.076 37.2307 131.199 37.2341 131.16L39.2266 131.333C39.2965 130.531 38.8792 129.859 38.3691 129.347L36.9523 130.759ZM37.2342 131.159C37.2221 131.297 37.1692 131.437 37.0221 131.595L38.4884 132.955C38.9082 132.503 39.1721 131.956 39.2266 131.334L37.2342 131.159ZM36.9921 131.629C36.9538 131.674 36.8204 131.79 36.4305 131.865L36.8094 133.829C37.4571 133.704 38.0807 133.438 38.5183 132.922L36.9921 131.629ZM36.4308 131.865C36.3591 131.879 36.2374 131.905 35.9952 131.609L34.449 132.878C35.031 133.587 35.8413 134.015 36.8091 133.829L36.4308 131.865ZM35.941 131.549C30.9326 126.369 27.0762 120.9 24.3572 115.141L22.5486 115.995C25.3719 121.974 29.3616 127.622 34.5032 132.939L35.941 131.549ZM24.3573 115.141C21.6599 109.426 20.2975 102.841 20.2975 95.3657H18.2975C18.2975 103.086 19.7055 109.97 22.5486 115.995L24.3573 115.141ZM20.2975 95.3657C20.2975 87.761 23.0451 81.3624 28.5679 76.1094L27.1895 74.6602C21.2707 80.2899 18.2975 87.2119 18.2975 95.3657H20.2975ZM28.5678 76.1094C34.0976 70.8506 40.7552 68.2241 48.5978 68.2241V66.2241C40.2564 66.2241 33.1013 69.0381 27.1895 74.6602L28.5678 76.1094ZM48.5978 68.2241C56.4207 68.2241 63.1211 70.8359 68.7516 76.0698L70.1133 74.6049C64.1062 69.0211 56.9169 66.2241 48.5978 66.2241V68.2241ZM68.7515 76.0698C72.6026 79.6502 75.113 83.7583 76.3194 88.4012L78.2551 87.8983C76.9448 82.8551 74.2186 78.4217 70.1133 74.605L68.7515 76.0698ZM48.5978 29C54.2239 29 59.7403 29.6871 65.149 31.0611L65.6414 29.1227C60.0705 27.7075 54.3887 27 48.5978 27V29ZM32.1814 31.0615C37.6351 29.6866 43.1066 29 48.5978 29V27C42.938 27 37.3023 27.708 31.6925 29.1222L32.1814 31.0615ZM16.6138 37.2349C21.5467 34.4922 26.7352 32.4348 32.1814 31.0615L31.6924 29.1222C26.0769 30.5382 20.726 32.6601 15.6419 35.4869L16.6138 37.2349ZM16.5756 37.4017C16.5807 37.287 16.6032 37.245 16.6051 37.2417C16.6061 37.2398 16.6057 37.2409 16.6046 37.242C16.6037 37.2429 16.6076 37.2385 16.6216 37.2306L15.6341 35.4913C14.9325 35.8896 14.6109 36.571 14.5776 37.3119L16.5756 37.4017ZM16.6012 37.7386C16.6106 37.7538 16.6 37.744 16.5891 37.6876C16.5781 37.6302 16.5695 37.5379 16.5756 37.4018L14.5776 37.3118C14.5555 37.8027 14.6184 38.3362 14.9015 38.7927L16.6012 37.7386ZM17.044 38.1814C16.9462 38.1354 16.8375 38.0542 16.7232 37.9022L15.1242 39.1035C15.4079 39.4811 15.7626 39.789 16.1934 39.9915L17.044 38.1814ZM17.4823 38.0263C17.2696 38.12 17.1287 38.1542 17.0481 38.1634C16.9719 38.1721 16.9875 38.1547 17.045 38.1819L16.1924 39.991C16.9004 40.3247 17.6739 40.1273 18.2883 39.8567L17.4823 38.0263ZM32.4789 32.2557C27.2331 33.5389 22.2098 35.4746 17.4108 38.0613L18.3598 39.8218C23.0107 37.3149 27.875 35.4409 32.9542 34.1984L32.4789 32.2557ZM48.5978 30.3328C43.0944 30.3328 37.7208 30.9734 32.4789 32.2557L32.9542 34.1984C38.0373 32.955 43.2512 32.3328 48.5978 32.3328V30.3328ZM64.8127 32.3905C59.4917 31.0188 54.0861 30.3328 48.5978 30.3328V32.3328C53.9175 32.3328 59.1554 32.9975 64.3134 34.3271L64.8127 32.3905ZM80.0531 38.0453C75.1989 35.6431 70.1183 33.7582 64.8127 32.3905L64.3134 34.3271C69.4868 35.6608 74.4372 37.4977 79.166 39.8378L80.0531 38.0453ZM80.4508 38.1112C80.4305 38.1223 80.3415 38.1828 80.0403 38.0391L79.1788 39.844C79.8786 40.178 80.6698 40.2702 81.409 39.8667L80.4508 38.1112ZM80.9907 37.6347C80.8722 37.8131 80.7013 37.9742 80.45 38.1116L81.4098 39.8663C81.9163 39.5892 82.3412 39.2163 82.6567 38.7413L80.9907 37.6347ZM81.0315 37.193C81.0678 37.4373 81.0247 37.5763 80.9668 37.6726L82.6806 38.7035C83.0147 38.1481 83.1029 37.5258 83.0097 36.8989L81.0315 37.193ZM80.7559 36.9886C80.9175 37.0561 80.9848 37.1163 81.0079 37.1421C81.0231 37.159 81.0278 37.1683 81.0315 37.193L83.0097 36.8989C82.8787 36.0176 82.2665 35.4521 81.5266 35.1431L80.7559 36.9886ZM65.149 31.0611C70.5652 32.437 75.7425 34.4013 80.6821 36.9542L81.6004 35.1775C76.5247 32.5543 71.2046 30.5359 65.6414 29.1227L65.149 31.0611ZM48.498 94.507C48.795 94.507 48.8778 94.5892 48.9165 94.6358L50.4552 93.3582C49.9514 92.7515 49.2424 92.507 48.498 92.507V94.507ZM48.0783 94.6358C48.1167 94.5896 48.1996 94.507 48.498 94.507V92.507C47.7535 92.507 47.0437 92.7511 46.5395 93.3582L48.0783 94.6358ZM47.9034 95.2708C47.9034 94.9238 47.9897 94.7426 48.0785 94.6356L46.5394 93.3584C46.0874 93.9031 45.9034 94.5711 45.9034 95.2708H47.9034ZM56.1433 114.396C50.6549 109.504 47.9034 103.159 47.9034 95.2708H45.9034C45.9034 103.688 48.8682 110.59 54.8125 115.889L56.1433 114.396ZM75.886 121.785C68.2351 121.785 61.6714 119.323 56.1433 114.396L54.8126 115.889C60.719 121.153 67.7606 123.785 75.886 123.785V121.785ZM78.2269 121.705C77.0203 121.759 76.2479 121.785 75.886 121.785V123.785C76.3011 123.785 77.1194 123.757 78.3174 123.703L78.2269 121.705ZM82.0296 121.004C80.5937 121.427 79.3284 121.655 78.2268 121.705L78.3174 123.703C79.6185 123.644 81.0465 123.378 82.5943 122.923L82.0296 121.004ZM82.3972 120.851C82.3964 120.853 82.3947 120.855 82.3902 120.86C82.3853 120.865 82.3746 120.875 82.354 120.888C82.3113 120.915 82.2278 120.956 82.0809 120.99L82.543 122.936C83.1639 122.789 83.765 122.472 84.122 121.864L82.3972 120.851ZM82.4299 120.414C82.4719 120.688 82.4233 120.807 82.3961 120.853L84.1231 121.862C84.4406 121.318 84.498 120.707 84.4069 120.112L82.4299 120.414ZM82.2238 120.121C82.405 120.278 82.424 120.372 82.428 120.401L84.4089 120.125C84.3218 119.5 83.9803 118.996 83.5315 118.608L82.2238 120.121ZM81.7879 120.047C82.0707 120.01 82.171 120.075 82.2227 120.12L83.5326 118.609C82.9561 118.109 82.2417 117.969 81.5235 118.065L81.7879 120.047ZM78.6135 120.415C79.6231 120.306 80.6777 120.184 81.7775 120.049L81.534 118.064C80.4427 118.197 79.3974 118.318 78.3979 118.427L78.6135 120.415ZM75.886 120.583C76.6738 120.583 77.5844 120.526 78.6126 120.415L78.3988 118.427C77.4181 118.532 76.5821 118.583 75.886 118.583V120.583ZM57.1844 113.629C62.5314 118.26 68.7798 120.583 75.886 120.583V118.583C69.2581 118.583 63.4753 116.432 58.4939 112.117L57.1844 113.629ZM49.0927 95.2708C49.0927 102.8 51.7857 108.951 57.1843 113.628L58.4939 112.117C53.564 107.845 51.0927 102.261 51.0927 95.2708H49.0927ZM48.9173 94.6368C49.0064 94.7438 49.0927 94.9246 49.0927 95.2708H51.0927C51.0927 94.5703 50.9078 93.9018 50.4544 93.3572L48.9173 94.6368ZM71 106.12C71 105.128 70.4733 104.266 69.7331 103.741L68.5748 105.371C68.8573 105.572 69 105.858 69 106.12H71ZM77.9404 89.8322C78.301 89.2693 78.4298 88.5704 78.2551 87.8983L76.3194 88.4012C76.3475 88.5093 76.3304 88.6377 76.2562 88.7535L77.9404 89.8322ZM69 106.12C69 106.411 68.8552 106.622 68.6869 106.726C68.5335 106.82 68.3579 106.834 68.1687 106.71L67.0721 108.383C67.9539 108.961 68.9681 108.902 69.7368 108.428C70.4905 107.963 71 107.11 71 106.12H69ZM14.9015 38.7927C14.9843 38.9263 15.099 39.07 15.1242 39.1035L16.7232 37.9022C16.6311 37.7795 16.6213 37.7711 16.6012 37.7386L14.9015 38.7927ZM76.2562 88.7535C76.1456 88.9262 75.9219 89.0388 75.588 88.9686C75.2458 88.8968 74.9994 88.6675 74.9277 88.4041L72.9979 88.9292C73.3011 90.0436 74.2373 90.7285 75.1767 90.9259C76.1243 91.125 77.2809 90.8619 77.9404 89.8322L76.2562 88.7535ZM82.0141 75.9245C83.0829 77.5264 85.5704 77.6471 86.6435 75.8931L84.9374 74.8494C84.694 75.2473 84.0091 75.3109 83.6778 74.8145L82.0141 75.9245ZM0.527708 64.4992C0.445586 64.6146 0.346393 64.7689 0.267397 64.9566L2.11074 65.7325C2.11051 65.7331 2.11287 65.7274 2.12046 65.7145C2.12816 65.7014 2.13974 65.6834 2.15732 65.6587L0.527708 64.4992ZM84.9394 74.2033C85.0589 74.3865 85.0672 74.6373 84.9374 74.8494L86.6435 75.8931C87.1602 75.0484 87.1719 73.9656 86.6148 73.111L84.9394 74.2033ZM94.1934 63.5524C94.7708 62.6087 94.6979 61.3867 93.9656 60.5268L92.4429 61.8235C92.5995 62.0074 92.6256 62.2828 92.4874 62.5086L94.1934 63.5524ZM89.8871 63.8559C91.0361 65.2099 93.2317 65.1244 94.1934 63.5524L92.4874 62.5086C92.2712 62.862 91.7234 62.9288 91.412 62.5619L89.8871 63.8559Z" fill="#04AA6D" mask="url(#path-3-outside-2_623_4)"/>
<path d="M87.9366 115.294L89.8659 102.197L89.8702 102.168H89.8412H80.0486L97.8657 77.2044H102.073L100.143 92.1763L100.139 92.2045H100.168H111.946L92.1214 115.294H87.9366Z" fill="#04AA6D" stroke="#04AA6D" stroke-width="0.05"/>
</svg>
