<svg width="171" height="34" viewBox="0 0 171 34" fill="none" xmlns="http://www.w3.org/2000/svg">
<path d="M158.793 17.8773H164.953C164.897 16.5053 164.001 15.1613 161.873 15.1613C159.941 15.1613 158.877 16.6173 158.793 17.8773ZM165.317 21.4613L168.425 22.3853C167.725 24.7653 165.541 26.7533 162.153 26.7533C158.373 26.7533 155.041 24.0373 155.041 19.3893C155.041 14.9933 158.289 12.1373 161.817 12.1373C166.073 12.1373 168.621 14.8533 168.621 19.2773C168.621 19.8093 168.565 20.3693 168.565 20.4253H158.709C158.793 22.2453 160.333 23.5613 162.181 23.5613C163.917 23.5613 164.869 22.6933 165.317 21.4613Z" fill="#B1B3CB"/>
<path d="M142.611 22.4973L145.803 21.7973C145.887 22.8893 146.699 23.8973 148.323 23.8973C149.555 23.8973 150.143 23.2533 150.143 22.5253C150.143 21.9093 149.723 21.4053 148.659 21.1813L146.839 20.7613C144.179 20.1733 142.975 18.5773 142.975 16.6453C142.975 14.1813 145.159 12.1373 148.127 12.1373C152.047 12.1373 153.363 14.6293 153.531 16.1133L150.423 16.8133C150.311 16.0013 149.723 14.9653 148.155 14.9653C147.175 14.9653 146.391 15.5533 146.391 16.3373C146.391 17.0093 146.895 17.4293 147.651 17.5693L149.611 17.9893C152.327 18.5493 153.699 20.2013 153.699 22.2173C153.699 24.4573 151.963 26.7533 148.351 26.7533C144.207 26.7533 142.779 24.0653 142.611 22.4973Z" fill="#B1B3CB"/>
<path d="M140.359 26.3333H136.635V12.5573H140.359V26.3333ZM136.188 8.04934C136.188 6.76134 137.223 5.72534 138.483 5.72534C139.771 5.72534 140.78 6.76134 140.78 8.04934C140.78 9.28134 139.771 10.3173 138.483 10.3173C137.223 10.3173 136.188 9.28134 136.188 8.04934Z" fill="#B1B3CB"/>
<path d="M134.576 12.5013V16.2533C134.156 16.1693 133.792 16.1413 133.456 16.1413C131.552 16.1413 129.9 17.0653 129.9 20.0333V26.3333H126.176V12.5573H129.788V14.6013C130.628 12.7813 132.532 12.4453 133.708 12.4453C134.016 12.4453 134.296 12.4733 134.576 12.5013Z" fill="#B1B3CB"/>
<path d="M113.316 31.6534H109.592V12.5574H113.204V14.2374C113.82 13.1734 115.36 12.2494 117.432 12.2494C121.464 12.2494 123.788 15.3294 123.788 19.4174C123.788 23.5894 121.184 26.6694 117.292 26.6694C115.388 26.6694 113.988 25.9134 113.316 24.9894V31.6534ZM120.12 19.4454C120.12 17.0094 118.608 15.5814 116.704 15.5814C114.8 15.5814 113.26 17.0094 113.26 19.4454C113.26 21.8814 114.8 23.3374 116.704 23.3374C118.608 23.3374 120.12 21.9094 120.12 19.4454Z" fill="#B1B3CB"/>
<path d="M107.531 12.5013V16.2533C107.111 16.1693 106.747 16.1413 106.411 16.1413C104.507 16.1413 102.855 17.0653 102.855 20.0333V26.3333H99.1309V12.5573H102.743V14.6013C103.583 12.7813 105.487 12.4453 106.663 12.4453C106.971 12.4453 107.251 12.4733 107.531 12.5013Z" fill="#B1B3CB"/>
<path d="M86.9317 17.8773H93.0917C93.0357 16.5053 92.1397 15.1613 90.0117 15.1613C88.0797 15.1613 87.0157 16.6173 86.9317 17.8773ZM93.4557 21.4613L96.5637 22.3853C95.8637 24.7653 93.6797 26.7533 90.2917 26.7533C86.5117 26.7533 83.1797 24.0373 83.1797 19.3893C83.1797 14.9933 86.4277 12.1373 89.9557 12.1373C94.2117 12.1373 96.7597 14.8533 96.7597 19.2773C96.7597 19.8093 96.7037 20.3693 96.7037 20.4253H86.8477C86.9317 22.2453 88.4717 23.5613 90.3197 23.5613C92.0557 23.5613 93.0077 22.6933 93.4557 21.4613Z" fill="#B1B3CB"/>
<path d="M78.9771 8.44128V12.5573H81.7491V15.8613H78.9771V21.6293C78.9771 22.8333 79.5371 23.2253 80.6011 23.2253C81.0491 23.2253 81.5531 23.1693 81.7491 23.1133V26.1933C81.4131 26.3333 80.7411 26.5293 79.6491 26.5293C76.9611 26.5293 75.2811 24.9333 75.2811 22.2733V15.8613H72.7891V12.5573H73.4891C74.9451 12.5573 75.6171 11.6053 75.6171 10.3733V8.44128H78.9771Z" fill="#B1B3CB"/>
<path d="M62.3158 18.4094V26.3334H58.5918V12.5574H62.2038V14.2654C63.0438 12.8374 64.6958 12.1934 66.1798 12.1934C69.5958 12.1934 71.1638 14.6294 71.1638 17.6534V26.3334H67.4398V18.2974C67.4398 16.7574 66.6838 15.5534 64.8918 15.5534C63.2678 15.5534 62.3158 16.8134 62.3158 18.4094Z" fill="#B1B3CB"/>
<path d="M46.3926 17.8773H52.5526C52.4966 16.5053 51.6006 15.1613 49.4726 15.1613C47.5406 15.1613 46.4766 16.6173 46.3926 17.8773ZM52.9166 21.4613L56.0246 22.3853C55.3246 24.7653 53.1406 26.7533 49.7526 26.7533C45.9726 26.7533 42.6406 24.0373 42.6406 19.3893C42.6406 14.9933 45.8886 12.1373 49.4166 12.1373C53.6726 12.1373 56.2206 14.8533 56.2206 19.2773C56.2206 19.8093 56.1646 20.3693 56.1646 20.4253H46.3086C46.3926 22.2453 47.9326 23.5613 49.7806 23.5613C51.5166 23.5613 52.4686 22.6933 52.9166 21.4613Z" fill="#B1B3CB"/>
<g clip-path="url(#clip0_4453_61275)">
<path fill-rule="evenodd" clip-rule="evenodd" d="M1.36226 23.015C1.36226 23.7809 2.13805 24.303 2.84762 24.0146L12.329 20.1603C12.7357 19.995 13.0017 19.5998 13.0017 19.1607L13.0017 14.8085C13.0017 14.3694 13.2677 13.9742 13.6744 13.8089L23.1906 9.94051C23.5973 9.77518 23.8633 9.37994 23.8633 8.94092L23.8633 3.8381C23.8633 3.24217 23.3802 2.75908 22.7843 2.75908L13.3028 2.75908C12.7069 2.75908 12.2238 3.24217 12.2238 3.8381L12.2238 11.8999C12.2238 12.4958 11.7407 12.9789 11.1448 12.9789L2.44128 12.9789C1.84535 12.9789 1.36226 13.462 1.36226 14.0579L1.36226 23.015Z" fill="#B1B3CB"/>
<path fill-rule="evenodd" clip-rule="evenodd" d="M32.0967 10.1435C32.0967 9.37751 31.3209 8.85543 30.6114 9.14387L21.1299 12.9981C20.7232 13.1634 20.4573 13.5587 20.4573 13.9977V18.35C20.4573 18.789 20.1913 19.1842 19.7846 19.3496L10.2684 23.2179C9.86169 23.3833 9.5957 23.7785 9.5957 24.2175V29.3203C9.5957 29.9163 10.0788 30.3994 10.6747 30.3994H20.1562C20.7521 30.3994 21.2352 29.9163 21.2352 29.3203V21.2586C21.2352 20.6626 21.7183 20.1795 22.3142 20.1795H31.0177C31.6136 20.1795 32.0967 19.6964 32.0967 19.1005V10.1435Z" fill="#B1B3CB"/>
</g>
<defs>
<clipPath id="clip0_4453_61275">
<rect width="31.8889" height="31.8889" fill="white" transform="translate(0.783203 1.50012)"/>
</clipPath>
</defs>
</svg>
