<svg width="86" height="86" viewBox="0 0 86 86" fill="none" xmlns="http://www.w3.org/2000/svg">
<rect width="86" height="86" fill="#DEF3FF"/>
<path fill-rule="evenodd" clip-rule="evenodd" d="M31.7684 16.1936H54.2348C62.5153 16.1936 67.126 20.9651 67.126 29.1411V56.832C67.126 65.142 62.5153 69.8063 54.2348 69.8063H31.7684C23.6192 69.8063 18.8745 65.142 18.8745 56.832V29.1411C18.8745 20.9651 23.6192 16.1936 31.7684 16.1936ZM32.4924 28.6857V28.6589H40.5049C41.6602 28.6589 42.5984 29.5971 42.5984 30.7471C42.5984 31.9292 41.6602 32.8675 40.5049 32.8675H32.4924C31.3371 32.8675 30.4015 31.9292 30.4015 30.7766C30.4015 29.6239 31.3371 28.6857 32.4924 28.6857ZM32.4924 44.9839H53.5086C54.6613 44.9839 55.5995 44.0457 55.5995 42.893C55.5995 41.7404 54.6613 40.7994 53.5086 40.7994H32.4924C31.3371 40.7994 30.4015 41.7404 30.4015 42.893C30.4015 44.0457 31.3371 44.9839 32.4924 44.9839ZM32.4922 57.2341H53.5084C54.578 57.1268 55.3849 56.2127 55.3849 55.1432C55.3849 54.0441 54.578 53.1327 53.5084 53.0255H32.4922C31.688 52.945 30.9107 53.3203 30.4818 54.0173C30.0529 54.6875 30.0529 55.5721 30.4818 56.269C30.9107 56.9392 31.688 57.3413 32.4922 57.2341Z" fill="#46BCFF"/>
<rect x="26.771" y="23.1738" width="32.2862" height="38.1564" fill="#46BCFF"/>
<path d="M30.7429 56.2679C30.1475 56.2679 29.7001 56.1182 29.2528 55.9686C27.613 55.0709 27.4649 53.7244 27.7626 52.6771C28.3581 50.8817 31.6376 48.6375 35.9585 46.6925C37.896 43.1018 39.3861 39.3615 40.2808 36.2196C38.7907 33.3769 38.1114 30.6838 38.1114 28.7388C38.1114 27.6915 38.3433 26.7939 38.7907 26.0458C39.3861 25.2977 40.2808 24.8489 41.4733 24.8489C42.8138 24.8489 43.8581 25.5969 44.3055 26.9435C45.0505 28.7388 44.6032 32.0304 43.5604 35.7707C45.0505 38.3142 46.8384 40.708 48.7759 42.5034C51.6081 41.9049 54.1411 41.6057 55.7809 41.9049C58.6101 42.3537 59.0574 44.2987 59.0574 45.0468C59.0574 48.1887 55.7794 48.1887 54.5869 48.1887C52.3517 48.1887 50.1165 47.291 48.179 45.6453C44.6017 46.5429 41.0259 47.7399 38.1937 49.0864C36.7036 51.6298 35.2134 53.7244 33.8714 54.9213C32.5308 55.9686 31.488 56.2679 30.7429 56.2679ZM42.3665 39.5111C41.771 41.3064 40.8763 43.2514 40.1312 45.0468C41.9191 44.4483 43.7085 43.8499 45.4964 43.401C44.304 42.2041 43.2612 40.8576 42.3665 39.5111Z" fill="#DEF3FF"/>
</svg>
