<svg width="21" height="23" viewBox="0 0 21 23" fill="none" xmlns="http://www.w3.org/2000/svg">
<path d="M5.8168 21.0594L2.12586 18.1757C2.02225 18.0949 1.9356 17.9944 1.87086 17.88C1.80612 17.7657 1.76455 17.6397 1.74853 17.5092C1.73252 17.3788 1.74237 17.2465 1.77752 17.1199C1.81268 16.9932 1.87245 16.8748 1.95341 16.7713L4.76831 13.1684L10.0352 17.2842L7.22026 20.8871C7.05698 21.096 6.8174 21.2315 6.55421 21.2639C6.29102 21.2962 6.02578 21.2226 5.8168 21.0594V21.0594Z" stroke="#4457FF" stroke-width="1.6" stroke-linecap="round" stroke-linejoin="round"/>
<path d="M4.76593 13.1707L10.0318 17.2866L15.7741 14.0003C16.1228 13.8529 16.4282 13.6189 16.6613 13.3205C16.8944 13.0222 17.0475 12.6693 17.1062 12.2953L18.5809 1.70762C18.5961 1.60949 18.5849 1.50907 18.5484 1.41673C18.5118 1.32439 18.4513 1.24347 18.3731 1.18233C18.2948 1.12119 18.2016 1.08204 18.1032 1.06893C18.0048 1.05581 17.9046 1.06921 17.8131 1.10773L7.89609 5.09502C7.54747 5.24264 7.24222 5.47666 7.00914 5.77498C6.77606 6.07331 6.62285 6.42611 6.56395 6.80008L4.76593 13.1707Z" stroke="#4457FF" stroke-width="1.6" stroke-linecap="round" stroke-linejoin="round"/>
<path d="M18.3743 1.18178L11.839 9.54659" stroke="#4457FF" stroke-width="1.6" stroke-linecap="round" stroke-linejoin="round"/>
</svg>
