<svg width="52" height="52" viewBox="0 0 52 52" fill="none" xmlns="http://www.w3.org/2000/svg">
<rect width="52" height="52" fill="#596AFF"/>
<path d="M35.7055 14.3396H16.2928C15.5573 14.3396 14.8519 14.6318 14.3318 15.1519C13.8117 15.6719 13.5195 16.3773 13.5195 17.1128V36.5256C13.5195 37.2611 13.8117 37.9665 14.3318 38.4866C14.8519 39.0066 15.5573 39.2988 16.2928 39.2988H35.7055C36.441 39.2988 37.1464 39.0066 37.6665 38.4866C38.1866 37.9665 38.4788 37.2611 38.4788 36.5256V17.1128C38.4788 16.3773 38.1866 15.6719 37.6665 15.1519C37.1464 14.6318 36.441 14.3396 35.7055 14.3396Z" fill="white" stroke="white" stroke-width="2.07994" stroke-linecap="round" stroke-linejoin="round"/>
<path d="M19.0645 19.8862H32.9307Z" fill="white"/>
<path d="M19.0645 19.8862H32.9307" stroke="#4457FF" stroke-width="2.07994" stroke-linecap="round" stroke-linejoin="round"/>
<path d="M19.0645 26.8193H32.9307Z" fill="white"/>
<path d="M19.0645 26.8193H32.9307" stroke="#4457FF" stroke-width="2.07994" stroke-linecap="round" stroke-linejoin="round"/>
<path d="M19.0645 33.7523H27.3842Z" fill="white"/>
<path d="M19.0645 33.7523H27.3842" stroke="#4457FF" stroke-width="2.07994" stroke-linecap="round" stroke-linejoin="round"/>
</svg>
