<svg width="185" height="180" viewBox="0 0 185 180" fill="none" xmlns="http://www.w3.org/2000/svg">
<circle cx="90" cy="90" r="90" fill="#F3F5FF"/>
<path d="M176.155 0H157.858C153.048 0 149.148 3.89955 149.148 8.70991V25.8932C149.148 30.7036 153.048 34.6031 157.858 34.6031H176.155C180.965 34.6031 184.865 30.7036 184.865 25.8932V8.70991C184.865 3.89955 180.965 0 176.155 0Z" fill="#FFC9D6"/>
<path d="M24.5024 117.285H9.37645C5.39963 117.285 2.17578 120.509 2.17578 124.485V138.691C2.17578 142.668 5.39963 145.892 9.37645 145.892H24.5024C28.4793 145.892 31.7031 142.668 31.7031 138.691V124.485C31.7031 120.509 28.4793 117.285 24.5024 117.285Z" fill="#FFC9D6"/>
<path d="M179.422 106.457H167.948C164.942 106.457 162.506 108.893 162.506 111.899V122.671C162.506 125.676 164.942 128.113 167.948 128.113H179.422C182.427 128.113 184.864 125.676 184.864 122.671V111.899C184.864 108.893 182.427 106.457 179.422 106.457Z" fill="#CEC2FF"/>
<path d="M148.629 164.419H141.055C139.071 164.419 137.463 166.028 137.463 168.011V175.122C137.463 177.106 139.071 178.714 141.055 178.714H148.629C150.613 178.714 152.221 177.106 152.221 175.122V168.011C152.221 166.028 150.613 164.419 148.629 164.419Z" fill="#FFF1D7"/>
<path d="M39.4386 17.3015H24.1773C20.1799 17.3015 16.9395 20.5421 16.9395 24.5395V38.8668C16.9395 42.8642 20.1799 46.1047 24.1773 46.1047H39.4386C43.436 46.1047 46.6765 42.8642 46.6765 38.8668V24.5395C46.6765 20.5421 43.436 17.3015 39.4386 17.3015Z" fill="#FFC9D6"/>
<path d="M91.2873 30.9624C76.9174 30.9624 65.1602 42.7196 65.1602 57.0895V67.5404H75.611V57.0895C75.611 48.4676 82.6653 41.4133 91.2873 41.4133C99.9092 41.4133 106.964 48.4676 106.964 57.0895V67.5404H117.414V57.0895C117.414 42.7196 105.657 30.9624 91.2873 30.9624Z" fill="#B1B3CB"/>
<path d="M122.64 135.471H59.9352C54.1873 135.471 49.4844 130.768 49.4844 125.02V77.9913C49.4844 72.2433 54.1873 67.5404 59.9352 67.5404H122.64C128.388 67.5404 133.091 72.2433 133.091 77.9913V125.02C133.091 130.768 128.388 135.471 122.64 135.471Z" fill="#596AFF"/>
<path d="M91.2835 93.6675C89.2046 93.6675 87.211 94.4933 85.741 95.9632C84.2711 97.4332 83.4453 99.4268 83.4453 101.506C83.4453 103.584 84.2711 105.578 85.741 107.048C87.211 108.518 89.2046 109.344 91.2835 109.344C93.3623 109.344 95.3559 108.518 96.8259 107.048C98.2958 105.578 99.1216 103.584 99.1216 101.506C99.1216 99.4268 98.2958 97.4332 96.8259 95.9632C95.3559 94.4933 93.3623 93.6675 91.2835 93.6675Z" fill="white"/>
<path d="M139.401 112.19H119.575C114.362 112.19 110.137 116.551 110.137 121.931V141.15C110.137 146.53 114.362 150.892 119.575 150.892H139.401C144.613 150.892 148.839 146.53 148.839 141.15V121.931C148.839 116.551 144.613 112.19 139.401 112.19Z" fill="#FF5F85"/>
<path d="M127.516 123.258C129.013 122.902 130.579 122.96 132.046 123.425C133.513 123.891 134.826 124.746 135.844 125.9C136.102 126.191 136.465 126.368 136.853 126.391C137.241 126.415 137.623 126.283 137.914 126.026C138.205 125.768 138.382 125.405 138.406 125.017C138.43 124.629 138.298 124.247 138.04 123.956C136.671 122.404 134.905 121.253 132.933 120.627C130.96 120.001 128.854 119.922 126.84 120.4C124.796 120.913 122.923 121.954 121.407 123.417C119.891 124.881 118.785 126.716 118.201 128.741C118.181 128.808 118.139 128.866 118.08 128.904C118.022 128.942 117.952 128.958 117.883 128.949L116.671 128.797C116.563 128.783 116.454 128.8 116.356 128.845C116.258 128.891 116.174 128.963 116.115 129.054C116.054 129.144 116.02 129.25 116.016 129.359C116.012 129.468 116.039 129.576 116.093 129.671L118.997 134.764C119.042 134.843 119.106 134.911 119.181 134.961C119.257 135.012 119.344 135.044 119.435 135.055C119.459 135.057 119.483 135.057 119.507 135.055C119.586 135.055 119.664 135.039 119.736 135.009C119.808 134.978 119.874 134.933 119.928 134.877L124.007 130.662C124.083 130.584 124.136 130.485 124.159 130.379C124.182 130.272 124.175 130.161 124.138 130.058C124.102 129.955 124.037 129.864 123.952 129.796C123.866 129.728 123.764 129.685 123.655 129.672L121.452 129.4C121.409 129.394 121.368 129.378 121.331 129.354C121.295 129.33 121.264 129.298 121.242 129.26C121.219 129.223 121.206 129.181 121.201 129.138C121.197 129.094 121.203 129.05 121.218 129.009C121.713 127.606 122.546 126.347 123.645 125.343C124.744 124.34 126.073 123.624 127.516 123.258V123.258Z" fill="white"/>
<path d="M142.865 134.008C142.925 133.917 142.958 133.811 142.961 133.702C142.964 133.593 142.937 133.485 142.882 133.391L139.95 128.312C139.904 128.234 139.84 128.167 139.764 128.117C139.687 128.067 139.6 128.035 139.51 128.025C139.419 128.013 139.327 128.023 139.241 128.054C139.155 128.085 139.078 128.135 139.016 128.202L134.962 132.442C134.886 132.52 134.835 132.618 134.812 132.725C134.789 132.831 134.796 132.942 134.833 133.044C134.869 133.146 134.934 133.237 135.019 133.305C135.103 133.373 135.206 133.416 135.314 133.429L137.481 133.689C137.525 133.694 137.567 133.709 137.605 133.732C137.642 133.756 137.673 133.788 137.696 133.826C137.719 133.863 137.733 133.906 137.738 133.949C137.743 133.993 137.738 134.038 137.723 134.079C137.229 135.482 136.395 136.742 135.296 137.744C134.197 138.747 132.867 139.463 131.425 139.827C129.928 140.182 128.362 140.124 126.895 139.658C125.428 139.193 124.115 138.338 123.096 137.184C122.97 137.035 122.816 136.912 122.641 136.824C122.467 136.735 122.277 136.682 122.082 136.668C121.888 136.654 121.692 136.679 121.507 136.741C121.322 136.804 121.151 136.903 121.005 137.032C120.858 137.162 120.739 137.319 120.655 137.495C120.57 137.671 120.521 137.862 120.512 138.057C120.502 138.253 120.531 138.448 120.598 138.631C120.665 138.815 120.768 138.983 120.9 139.127C122.27 140.678 124.036 141.828 126.009 142.454C127.982 143.081 130.088 143.159 132.102 142.681C134.148 142.169 136.024 141.127 137.541 139.661C139.058 138.195 140.163 136.357 140.746 134.329C140.765 134.262 140.808 134.205 140.866 134.166C140.924 134.128 140.994 134.111 141.063 134.119L142.304 134.268C142.327 134.27 142.351 134.27 142.374 134.268C142.471 134.268 142.567 134.245 142.652 134.199C142.738 134.154 142.811 134.088 142.865 134.008Z" fill="white"/>
</svg>
