<svg width="86" height="86" viewBox="0 0 86 86" fill="none" xmlns="http://www.w3.org/2000/svg">
<rect width="86" height="86" fill="#FFF1D7"/>
<path fill-rule="evenodd" clip-rule="evenodd" d="M25.2834 20.4766H60.8427C63.4984 20.4766 65.6495 22.6924 65.6495 25.4281V28.8872C65.6495 30.2143 65.1309 31.4887 64.21 32.4182L49.5175 47.28C49.264 47.5387 48.9198 47.6824 48.564 47.68L36.2621 47.6417C35.8877 47.6417 35.5319 47.4812 35.2761 47.2009L21.7742 32.3511C20.9393 31.4336 20.4766 30.2215 20.4766 28.9639V25.4305C20.4766 22.6948 22.6277 20.4766 25.2834 20.4766ZM36.9197 51.7003L47.8845 51.7338C48.5682 51.7362 49.1217 52.3088 49.1217 53.0107V59.1791C49.1217 59.8834 48.7217 60.5206 48.0984 60.8152L38.1453 65.4889C37.9127 65.5967 37.6662 65.6494 37.4197 65.6494C37.0918 65.6494 36.7639 65.5536 36.4779 65.3643C35.9779 65.0337 35.6756 64.4636 35.6756 63.8528V52.9771C35.6756 52.2704 36.2337 51.6979 36.9197 51.7003Z" fill="#FFC147"/>
</svg>
