<svg width="22" height="22" viewBox="0 0 22 22" fill="none" xmlns="http://www.w3.org/2000/svg">
<path d="M11.1204 14.3355C12.9614 14.3355 14.4538 12.8431 14.4538 11.0022C14.4538 9.16122 12.9614 7.66884 11.1204 7.66884C9.27949 7.66884 7.78711 9.16122 7.78711 11.0022C7.78711 12.8431 9.27949 14.3355 11.1204 14.3355Z" stroke="#4457FF" stroke-width="1.6" stroke-linecap="round" stroke-linejoin="round"/>
<path d="M18.6566 9.22222L19.9322 8.48667C20.1874 8.33932 20.3736 8.09664 20.4499 7.812C20.5261 7.52736 20.4862 7.22409 20.3389 6.96889L19.2277 5.04222C19.1548 4.91557 19.0576 4.80456 18.9416 4.71554C18.8257 4.62653 18.6933 4.56126 18.5521 4.52349C18.4109 4.48571 18.2637 4.47616 18.1188 4.4954C17.9739 4.51463 17.8342 4.56226 17.7077 4.63556L16.4344 5.37333C15.5609 4.5375 14.5026 3.91931 13.3455 3.56889V2.11111C13.3455 1.81643 13.2285 1.53381 13.0201 1.32544C12.8117 1.11706 12.5291 1 12.2344 1H10.0122C9.71751 1 9.43489 1.11706 9.22652 1.32544C9.01814 1.53381 8.90108 1.81643 8.90108 2.11111V3.56889C7.74252 3.91674 6.68107 4.53002 5.80108 5.36L4.53886 4.62889C4.4124 4.55559 4.27273 4.50796 4.12783 4.48873C3.98294 4.4695 3.83567 4.47904 3.69447 4.51682C3.55328 4.5546 3.42092 4.61986 3.30499 4.70888C3.18905 4.79789 3.09182 4.9089 3.01886 5.03556L1.90775 6.96222C1.83489 7.08872 1.78766 7.22833 1.76878 7.37308C1.7499 7.51783 1.75972 7.66488 1.7977 7.80584C1.83567 7.94679 1.90104 8.07888 1.99009 8.19455C2.07913 8.31023 2.19009 8.40723 2.31664 8.48L3.57664 9.20667C3.29539 10.3827 3.29539 11.6084 3.57664 12.7844L2.30552 13.5178C2.05033 13.6651 1.86412 13.9078 1.78786 14.1924C1.7116 14.4771 1.75152 14.7804 1.89886 15.0356L3.00997 16.9622C3.08293 17.0889 3.18016 17.1999 3.2961 17.2889C3.41203 17.3779 3.54439 17.4432 3.68559 17.481C3.82678 17.5187 3.97405 17.5283 4.11894 17.5091C4.26384 17.4898 4.40352 17.4422 4.52997 17.3689L5.79886 16.6333C6.67634 17.4713 7.73924 18.0903 8.90108 18.44V19.8889C8.90108 20.1836 9.01814 20.4662 9.22652 20.6746C9.43489 20.8829 9.71751 21 10.0122 21H12.2344C12.5291 21 12.8117 20.8829 13.0201 20.6746C13.2285 20.4662 13.3455 20.1836 13.3455 19.8889V18.4333C14.5041 18.0859 15.5651 17.4717 16.4433 16.64L17.7077 17.3711C17.8342 17.4444 17.9739 17.492 18.1188 17.5113C18.2637 17.5305 18.4109 17.521 18.5521 17.4832C18.6933 17.4454 18.8257 17.3801 18.9416 17.2911C19.0576 17.2021 19.1548 17.0911 19.2277 16.9644L20.3389 15.0378C20.4862 14.7826 20.5261 14.4793 20.4499 14.1947C20.3736 13.91 20.1874 13.6673 19.9322 13.52L18.6789 12.7911C18.9511 11.6162 18.9434 10.3937 18.6566 9.22222Z" stroke="#4457FF" stroke-width="1.6" stroke-linecap="round" stroke-linejoin="round"/>
</svg>
