<svg width="18" height="20" viewBox="0 0 18 20" fill="none" xmlns="http://www.w3.org/2000/svg">
<path d="M1 19V17.875C1 16.8408 1.20369 15.8168 1.59945 14.8614C1.9952 13.9059 2.57527 13.0378 3.30653 12.3065C4.0378 11.5753 4.90593 10.9952 5.86137 10.5994C6.81681 10.2037 7.84084 10 8.875 10C9.90916 10 10.9332 10.2037 11.8886 10.5994C12.8441 10.9952 13.7122 11.5753 14.4435 12.3065C15.1747 13.0378 15.7548 13.9059 16.1506 14.8614C16.5463 15.8168 16.75 16.8408 16.75 17.875V19" stroke="#4457FF" stroke-width="1.6" stroke-linecap="round" stroke-linejoin="round"/>
<path d="M8.875 10C10.0685 10 11.2131 9.52589 12.057 8.68198C12.9009 7.83807 13.375 6.69347 13.375 5.5C13.375 4.30653 12.9009 3.16193 12.057 2.31802C11.2131 1.47411 10.0685 1 8.875 1C7.68153 1 6.53693 1.47411 5.69302 2.31802C4.84911 3.16193 4.375 4.30653 4.375 5.5C4.375 6.69347 4.84911 7.83807 5.69302 8.68198C6.53693 9.52589 7.68153 10 8.875 10Z" stroke="#4457FF" stroke-width="1.6" stroke-linecap="round" stroke-linejoin="round"/>
</svg>
