<svg width="86" height="86" viewBox="0 0 86 86" fill="none" xmlns="http://www.w3.org/2000/svg">
<rect width="86" height="86" fill="#FFE5E9"/>
<path fill-rule="evenodd" clip-rule="evenodd" d="M31.3308 15.063H54.7976C63.4468 15.063 68.2628 20.047 68.2628 28.587V57.511C68.2628 66.191 63.4468 71.063 54.7976 71.063H31.3308C22.8188 71.063 17.8628 66.191 17.8628 57.511V28.587C17.8628 20.047 22.8188 15.063 31.3308 15.063ZM32.0865 28.111V28.083H40.4557C41.6625 28.083 42.6425 29.063 42.6425 30.2642C42.6425 31.499 41.6625 32.479 40.4557 32.479H32.0865C30.8797 32.479 29.9025 31.499 29.9025 30.295C29.9025 29.091 30.8797 28.111 32.0865 28.111ZM32.0865 45.1352H54.0385C55.2425 45.1352 56.2225 44.1552 56.2225 42.9512C56.2225 41.7472 55.2425 40.7644 54.0385 40.7644H32.0865C30.8797 40.7644 29.9025 41.7472 29.9025 42.9512C29.9025 44.1552 30.8797 45.1352 32.0865 45.1352ZM32.0867 57.9309H54.0387C55.1559 57.8189 55.9987 56.8641 55.9987 55.7468C55.9987 54.5989 55.1559 53.6469 54.0387 53.5349H32.0867C31.2467 53.4509 30.4347 53.8428 29.9867 54.5709C29.5387 55.2709 29.5387 56.1949 29.9867 56.9229C30.4347 57.6229 31.2467 58.0429 32.0867 57.9309Z" fill="#FF5F85"/>
</svg>
