<svg width="86" height="86" viewBox="0 0 86 86" fill="none" xmlns="http://www.w3.org/2000/svg">
<rect width="86" height="86" fill="#FFE5E9"/>
<path fill-rule="evenodd" clip-rule="evenodd" d="M65.5491 47.2914C66.5063 47.7999 67.2447 48.6027 67.7644 49.4055C68.7763 51.0648 68.6942 53.0986 67.7097 54.8917L65.7952 58.1031C64.7833 59.8158 62.8962 60.8862 60.9544 60.8862C59.9972 60.8862 58.9306 60.6186 58.0554 60.0834C57.3443 59.6285 56.5239 59.4679 55.6487 59.4679C52.9411 59.4679 50.6712 61.6891 50.5891 64.3385C50.5891 67.4161 48.073 69.8246 44.9278 69.8246H41.2083C38.0358 69.8246 35.5197 67.4161 35.5197 64.3385C35.465 61.6891 33.195 59.4679 30.4875 59.4679C29.5849 59.4679 28.7645 59.6285 28.0807 60.0834C27.2056 60.6186 26.1116 60.8862 25.1817 60.8862C23.2126 60.8862 21.3255 59.8158 20.3136 58.1031L18.4265 54.8917C17.4146 53.1522 17.3599 51.0648 18.3718 49.4055C18.8094 48.6027 19.6299 47.7999 20.5597 47.2914C21.3255 46.9167 21.8178 46.3012 22.2827 45.5786C23.6502 43.2772 22.8297 40.2531 20.505 38.8883C17.7975 37.3629 16.9223 33.9641 18.4812 31.3147L20.3136 28.1569C21.8998 25.5075 25.2911 24.5708 28.026 26.123C30.4054 27.4076 33.4959 26.5512 34.8907 24.2765C35.3283 23.5271 35.5744 22.7243 35.5197 21.9214C35.465 20.8777 35.7659 19.8876 36.2855 19.0847C37.2974 17.4255 39.1298 16.355 41.1263 16.3015H44.9825C47.0064 16.3015 48.8388 17.4255 49.8507 19.0847C50.343 19.8876 50.6712 20.8777 50.5891 21.9214C50.5344 22.7243 50.7805 23.5271 51.2181 24.2765C52.6129 26.5512 55.7034 27.4076 58.1101 26.123C60.8177 24.5708 64.2363 25.5075 65.7952 28.1569L67.6276 31.3147C69.2139 33.9641 68.3387 37.3629 65.6038 38.8883C63.2791 40.2531 62.4586 43.2772 63.8534 45.5786C64.291 46.3012 64.7833 46.9167 65.5491 47.2914ZM35.3277 43.09C35.3277 47.2916 38.801 50.6368 43.0948 50.6368C47.3887 50.6368 50.78 47.2916 50.78 43.09C50.78 38.8885 47.3887 35.5165 43.0948 35.5165C38.801 35.5165 35.3277 38.8885 35.3277 43.09Z" fill="#FF5F85"/>
</svg>
