<svg width="102" height="102" viewBox="0 0 102 102" fill="none" xmlns="http://www.w3.org/2000/svg">
<rect width="102" height="102" fill="white"/>
<path fill-rule="evenodd" clip-rule="evenodd" d="M75.8861 55.7591C76.9413 56.3196 77.7553 57.2046 78.3281 58.0896C79.4436 59.9186 79.3531 62.1606 78.2678 64.1371L76.1575 67.6771C75.042 69.5651 72.9618 70.7451 70.8213 70.7451C69.7661 70.7451 68.5904 70.4501 67.6257 69.8601C66.8418 69.3586 65.9374 69.1816 64.9727 69.1816C61.988 69.1816 59.4858 71.6301 59.3953 74.5506C59.3953 77.9431 56.6217 80.5981 53.1547 80.5981H49.0546C45.5575 80.5981 42.7839 77.9431 42.7839 74.5506C42.7236 71.6301 40.2214 69.1816 37.2367 69.1816C36.2419 69.1816 35.3374 69.3586 34.5837 69.8601C33.619 70.4501 32.4131 70.7451 31.3881 70.7451C29.2174 70.7451 27.1372 69.5651 26.0218 67.6771L23.9416 64.1371C22.8261 62.2196 22.7658 59.9186 23.8813 58.0896C24.3636 57.2046 25.2681 56.3196 26.2931 55.7591C27.1372 55.3461 27.6799 54.6676 28.1924 53.8711C29.6998 51.3341 28.7954 48.0006 26.2328 46.4961C23.2482 44.8146 22.2835 41.0681 24.0019 38.1476L26.0218 34.6666C27.7703 31.7461 31.5087 30.7136 34.5234 32.4246C37.1463 33.8406 40.553 32.8966 42.0905 30.3891C42.5729 29.5631 42.8442 28.6781 42.7839 27.7931C42.7236 26.6426 43.0552 25.5511 43.6281 24.6661C44.7435 22.8371 46.7634 21.6571 48.9642 21.5981H53.215C55.446 21.5981 57.4659 22.8371 58.5813 24.6661C59.124 25.5511 59.4858 26.6426 59.3953 27.7931C59.335 28.6781 59.6064 29.5631 60.0887 30.3891C61.6263 32.8966 65.033 33.8406 67.686 32.4246C70.6706 30.7136 74.439 31.7461 76.1575 34.6666L78.1774 38.1476C79.9259 41.0681 78.9612 44.8146 75.9464 46.4961C73.3839 48.0006 72.4794 51.3341 74.017 53.8711C74.4993 54.6676 75.042 55.3461 75.8861 55.7591ZM42.5731 51.1279C42.5731 55.7594 46.4018 59.4469 51.135 59.4469C55.8682 59.4469 59.6065 55.7594 59.6065 51.1279C59.6065 46.4964 55.8682 42.7794 51.135 42.7794C46.4018 42.7794 42.5731 46.4964 42.5731 51.1279Z" fill="#FFC147"/>
</svg>
