<svg width="86" height="86" viewBox="0 0 86 86" fill="none" xmlns="http://www.w3.org/2000/svg">
<rect width="86" height="86" fill="#E1E4FF"/>
<path d="M34.0631 49.063H19.063V64.0631" stroke="#4457FF" stroke-width="6.00005" stroke-linecap="round" stroke-linejoin="round"/>
<path d="M64.7314 51.995C63.1426 56.638 60.0659 60.6269 55.9786 63.3428C51.8913 66.0587 47.0219 67.3497 42.126 67.0155C37.23 66.6814 32.5812 64.7408 28.9008 61.4947C25.2204 58.2487 22.7142 53.8788 21.771 49.063" stroke="#4457FF" stroke-width="6.00005" stroke-linecap="round" stroke-linejoin="round"/>
<path d="M52.0635 37.0629H67.0636V22.0627" stroke="#4457FF" stroke-width="6.00005" stroke-linecap="round" stroke-linejoin="round"/>
<path d="M21.395 34.1311C22.9838 29.4881 26.0605 25.4992 30.1478 22.7833C34.2351 20.0674 39.1045 18.7764 44.0004 19.1106C48.8963 19.4447 53.5451 21.3854 57.2255 24.6314C60.9059 27.8774 63.4122 32.2473 64.3554 37.0631" stroke="#4457FF" stroke-width="6.00005" stroke-linecap="round" stroke-linejoin="round"/>
</svg>
