<svg width="74" height="74" viewBox="0 0 74 74" fill="none" xmlns="http://www.w3.org/2000/svg">
<rect width="74" height="74" fill="#FFE5E9"/>
<path d="M26.4613 26.6005C25.6751 27.0548 25.0265 27.7135 24.5845 28.5067C24.1424 29.2999 23.9234 30.198 23.9506 31.1056L24.1908 39.6998C24.1958 39.8623 24.24 40.0211 24.3198 40.1627C24.3995 40.3042 24.5123 40.4244 24.6487 40.5129L37.7641 49.0301C37.9003 49.1187 38.056 49.1729 38.2178 49.1881C38.3795 49.2034 38.5426 49.1792 38.693 49.1177L46.6554 45.8503C47.495 45.5047 48.2253 44.9382 48.769 44.211C49.3126 43.4838 49.6492 42.623 49.7431 41.7199L52.3315 17.1724C52.3495 16.9992 52.3528 16.8248 52.3414 16.6511C52.3343 16.5458 52.2942 16.4454 52.2269 16.3641C52.1595 16.2829 52.0683 16.2249 51.9661 16.1983C51.864 16.1718 51.7561 16.178 51.6577 16.2162C51.5593 16.2544 51.4754 16.3226 51.4179 16.4112L41.4139 31.8159C41.3173 31.9641 41.2614 32.1351 41.252 32.3118C41.2426 32.4884 41.2799 32.6644 41.3602 32.822C41.7623 33.6112 41.8927 34.5109 41.7313 35.3817C41.5699 36.2525 41.1257 37.0458 40.4675 37.6384C39.8094 38.231 38.974 38.5899 38.0911 38.6594C37.2082 38.7289 36.327 38.5051 35.5843 38.0227C34.8415 37.5404 34.2786 36.8264 33.983 35.9915C33.6874 35.1567 33.6755 34.2476 33.9491 33.4053C34.2228 32.563 34.7668 31.8345 35.4967 31.3329C36.2266 30.8313 37.1016 30.5845 37.986 30.6308C38.1627 30.6401 38.3386 30.6026 38.4962 30.5221C38.6537 30.4417 38.7872 30.3211 38.8833 30.1725L48.8873 14.7677C48.9448 14.6792 48.9729 14.5749 48.9678 14.4694C48.9627 14.364 48.9245 14.2629 48.8587 14.1803C48.7929 14.0978 48.7028 14.0381 48.6012 14.0096C48.4996 13.9811 48.3915 13.9853 48.2924 14.0217C48.1291 14.0819 47.9711 14.1559 47.8203 14.2427L26.4613 26.6005Z" fill="#FF5F85"/>
<path d="M24.2083 42.6271C24.0202 42.5049 23.7965 42.4492 23.573 42.4688C23.3495 42.4884 23.139 42.5821 22.9749 42.7351L16.9054 48.3878C16.7936 48.492 16.7071 48.6203 16.6523 48.7629C16.5975 48.9056 16.576 49.0588 16.5893 49.211C16.6026 49.3632 16.6503 49.5104 16.729 49.6413C16.8077 49.7723 16.9151 49.8836 17.0432 49.9669L32.227 59.8273C32.3552 59.9105 32.5006 59.9634 32.6522 59.982C32.8039 60.0006 32.9578 59.9844 33.1022 59.9346C33.2466 59.8848 33.3779 59.8028 33.4859 59.6948C33.5939 59.5867 33.6759 59.4555 33.7256 59.311L36.4209 51.4671C36.494 51.2549 36.494 51.0245 36.421 50.8123C36.3479 50.6002 36.2061 50.4186 36.0179 50.2963L24.2083 42.6271Z" fill="#FF5F85"/>
</svg>
