<svg width="181" height="180" viewBox="0 0 181 180" fill="none" xmlns="http://www.w3.org/2000/svg">
<circle cx="91" cy="90" r="90" fill="#F3F5FF"/>
<path d="M90.0021 40.3943C76.6355 40.3943 65.6992 51.3306 65.6992 64.6972V74.4183H75.4204V64.6972C75.4204 56.6772 81.9821 50.1154 90.0021 50.1154C98.022 50.1154 104.584 56.6772 104.584 64.6972V74.4183H114.305V64.6972C114.305 51.3306 103.369 40.3943 90.0021 40.3943Z" fill="#B1B3CB"/>
<path d="M119.165 137.606H60.8383C55.4917 137.606 51.1172 133.231 51.1172 127.885V84.1395C51.1172 78.7929 55.4917 74.4183 60.8383 74.4183H119.165C124.512 74.4183 128.886 78.7929 128.886 84.1395V127.885C128.886 133.231 124.512 137.606 119.165 137.606Z" fill="#596AFF"/>
<path d="M89.9979 98.7212C88.0642 98.7212 86.2098 99.4893 84.8425 100.857C83.4752 102.224 82.707 104.078 82.707 106.012C82.707 107.946 83.4752 109.8 84.8425 111.167C86.2098 112.535 88.0642 113.303 89.9979 113.303C91.9316 113.303 93.786 112.535 95.1533 111.167C96.5206 109.8 97.2888 107.946 97.2888 106.012C97.2888 104.078 96.5206 102.224 95.1533 100.857C93.786 99.4893 91.9316 98.7212 89.9979 98.7212Z" fill="white"/>
<path d="M161.159 10.4197H142.862C138.052 10.4197 134.152 14.3192 134.152 19.1296V36.3129C134.152 41.1232 138.052 45.0228 142.862 45.0228H161.159C165.969 45.0228 169.869 41.1232 169.869 36.3129V19.1296C169.869 14.3192 165.969 10.4197 161.159 10.4197Z" fill="#FFC9D6"/>
<path d="M22.3267 113.303H7.20067C3.22385 113.303 0 116.527 0 120.504V134.709C0 138.686 3.22385 141.91 7.20067 141.91H22.3267C26.3035 141.91 29.5273 138.686 29.5273 134.709V120.504C29.5273 116.527 26.3035 113.303 22.3267 113.303Z" fill="#FFC9D6"/>
<path d="M159.389 90.5808H147.915C144.909 90.5808 142.473 93.0172 142.473 96.0227V106.795C142.473 109.8 144.909 112.237 147.915 112.237H159.389C162.394 112.237 164.831 109.8 164.831 106.795V96.0227C164.831 93.0172 162.394 90.5808 159.389 90.5808Z" fill="#CEC2FF"/>
<path d="M108.455 155.055H100.881C98.8973 155.055 97.2891 156.664 97.2891 158.647V165.758C97.2891 167.742 98.8973 169.35 100.881 169.35H108.455C110.439 169.35 112.047 167.742 112.047 165.758V158.647C112.047 156.664 110.439 155.055 108.455 155.055Z" fill="#FFF1D7"/>
<path d="M46.2335 30.6212H30.9723C26.9749 30.6212 23.7344 33.8618 23.7344 37.8592V52.1865C23.7344 56.1839 26.9749 59.4244 30.9723 59.4244H46.2335C50.2309 59.4244 53.4714 56.1839 53.4714 52.1865V37.8592C53.4714 33.8618 50.2309 30.6212 46.2335 30.6212Z" fill="#FFF1D7"/>
</svg>
