<svg width="180" height="201" viewBox="0 0 180 201" fill="none" xmlns="http://www.w3.org/2000/svg">
<circle cx="90" cy="100.452" r="90" fill="#F3F5FF"/>
<path d="M55.1421 200.905L73.4385 200.905C78.2489 200.905 82.1484 197.005 82.1484 192.195L82.1484 175.012C82.1484 170.201 78.2489 166.302 73.4385 166.302L55.1421 166.302C50.3318 166.302 46.4322 170.201 46.4322 175.012L46.4322 192.195C46.4322 197.005 50.3318 200.905 55.1421 200.905Z" fill="#FFF1D7"/>
<path d="M160.353 81.2108L172.595 81.2108C175.813 81.2108 178.422 78.6018 178.422 75.3835L178.422 63.887C178.422 60.6687 175.813 58.0597 172.595 58.0597L160.353 58.0597C157.135 58.0597 154.526 60.6686 154.526 63.887L154.526 75.3835C154.526 78.6018 157.135 81.2108 160.353 81.2108Z" fill="#FFF1D7"/>
<path d="M104.757 37.6539L124.667 37.6539C129.901 37.6539 134.145 33.4106 134.145 28.1761L134.145 9.47786C134.145 4.2434 129.901 4.54054e-05 124.667 4.49478e-05L104.757 4.32072e-05C99.5228 4.27496e-05 95.2794 4.2434 95.2794 9.47785L95.2794 28.1761C95.2794 33.4106 99.5228 37.6539 104.757 37.6539Z" fill="#CEC2FF"/>
<path d="M128.482 133.741H53.6108C49.1169 133.741 45.4727 130.096 45.4727 125.603V76.7734C45.4727 72.2795 49.1169 68.6353 53.6108 68.6353H128.482C132.976 68.6353 136.62 72.2795 136.62 76.7734V125.603C136.62 130.096 132.976 133.741 128.482 133.741Z" fill="#7684FF"/>
<path d="M91.0488 89.7946L45.6133 126.97C46.266 130.809 49.5863 133.741 53.6131 133.741H128.484C132.511 133.741 135.832 130.809 136.484 126.97L91.0488 89.7946Z" fill="#596AFF"/>
<path d="M45.6133 75.4062L87.5249 109.699C89.5741 111.375 92.5218 111.375 94.5726 109.699L136.484 75.4062C135.832 71.5666 132.511 68.6353 128.484 68.6353H53.6131C49.5863 68.6353 46.266 71.5666 45.6133 75.4062Z" fill="#B3BBFF"/>
<path d="M122.837 143.319L140.644 143.319C145.309 143.319 149.09 139.538 149.09 134.874L149.09 118.156C149.09 113.492 145.309 109.711 140.644 109.711L122.837 109.711C118.173 109.711 114.392 113.492 114.392 118.156L114.392 134.874C114.392 139.538 118.173 143.319 122.837 143.319Z" fill="#FF5F85"/>
<path d="M124.738 127.516L128.74 131.517L138.743 121.514" stroke="white" stroke-width="3.001" stroke-linecap="round" stroke-linejoin="round"/>
<path d="M35.7365 51.9482L43.3103 51.9482C45.2941 51.9482 46.9023 50.34 46.9023 48.3562L46.9023 41.2459C46.9023 39.2621 45.2941 37.6539 43.3103 37.6539L35.7365 37.6539C33.7527 37.6539 32.1445 39.2621 32.1445 41.2459L32.1445 48.3562C32.1445 50.34 33.7527 51.9482 35.7365 51.9482Z" fill="#FFC9D6"/>
<path d="M7.31789 132.496L19.4203 132.496C22.5903 132.496 25.1602 129.926 25.1602 126.756L25.1602 115.394C25.1602 112.224 22.5903 109.654 19.4203 109.654L7.31789 109.654C4.14788 109.654 1.57813 112.224 1.57813 115.394L1.57813 126.756C1.57813 129.926 4.14788 132.496 7.31789 132.496Z" fill="#CEC2FF"/>
</svg>
