<svg width="52" height="52" viewBox="0 0 52 52" fill="none" xmlns="http://www.w3.org/2000/svg">
<rect width="52" height="52" fill="#FFC147"/>
<path d="M25.9818 27.4462H25.924C22.4387 27.4761 19.1075 28.8869 16.661 31.3694C14.2144 33.8518 12.8523 37.2033 12.8733 40.6886C12.8733 41.0368 13.0116 41.3706 13.2578 41.6168C13.5039 41.863 13.8378 42.0013 14.186 42.0013H37.8143C38.1625 42.0013 38.4964 41.863 38.7425 41.6168C38.9887 41.3706 39.127 41.0368 39.127 40.6886C39.1163 37.184 37.7195 33.8259 35.2415 31.3475C34.0348 30.1144 32.5945 29.1342 31.0045 28.4643C29.4146 27.7945 27.7071 27.4483 25.9818 27.4462V27.4462Z" fill="white"/>
<path d="M26.0355 24.7923C27.9973 24.7875 29.8768 24.0037 31.2606 22.6131C32.6443 21.2226 33.4191 19.3393 33.4143 17.3776C33.4095 15.4158 32.6257 13.5363 31.2352 12.1526C29.8446 10.7688 27.9613 9.99404 25.9996 9.9988H25.9658C24.0041 10.0033 22.1244 10.7869 20.7405 12.1772C19.3565 13.5675 18.5815 15.4507 18.586 17.4124C18.5904 19.3742 19.374 21.2538 20.7644 22.6378C22.1547 24.0218 24.0379 24.7968 25.9996 24.7923H26.0355Z" fill="white"/>
</svg>
