<svg width="52" height="52" viewBox="0 0 52 52" fill="none" xmlns="http://www.w3.org/2000/svg">
<rect width="52" height="52" fill="#FF5F85"/>
<path fill-rule="evenodd" clip-rule="evenodd" d="M33.5222 10.2562L33.5239 11.5347C38.2219 11.9029 41.3252 15.1041 41.3303 20.0134L41.3488 34.3833C41.3555 39.7358 37.9929 43.0291 32.6028 43.0377L19.4368 43.0547C14.0804 43.0615 10.6757 39.6898 10.6689 34.322L10.6504 20.1208C10.6437 15.1792 13.6376 11.9864 18.3355 11.5551L18.3338 10.2767C18.3322 9.52665 18.8878 8.96242 19.6287 8.96242C20.3696 8.96072 20.9253 9.52324 20.927 10.2733L20.9287 11.4665L30.9308 11.4529L30.9291 10.2596C30.9274 9.5096 31.4831 8.94708 32.224 8.94538C32.948 8.94367 33.5205 9.5062 33.5222 10.2562ZM13.2461 20.6476L38.7397 20.6135V20.0169C38.6673 16.352 36.8285 14.4292 33.5282 14.1428L33.5299 15.4554C33.5299 16.1884 32.959 16.7696 32.235 16.7696C31.4941 16.7713 30.9367 16.1918 30.9367 15.4588L30.935 14.078L20.9329 14.0917L20.9346 15.4707C20.9346 16.2054 20.3806 16.785 19.6397 16.785C18.8988 16.7867 18.3415 16.2088 18.3415 15.4741L18.3398 14.1616C15.0563 14.4906 13.2394 16.4202 13.2445 20.1175L13.2461 20.6476ZM31.526 28.3949V28.4137C31.5428 29.1978 32.1827 29.7927 32.9589 29.7757C33.7167 29.7569 34.3212 29.1075 34.3043 28.3233C34.269 27.5733 33.6611 26.9613 32.9051 26.963C32.1305 26.9801 31.5243 27.6108 31.526 28.3949ZM32.9161 36.0487C32.1415 36.0316 31.5168 35.3856 31.5151 34.6015C31.4983 33.8174 32.1197 33.1679 32.8942 33.1491H32.9111C33.7025 33.1491 34.344 33.7952 34.344 34.5964C34.3457 35.3975 33.7058 36.047 32.9161 36.0487ZM24.5885 28.4222C24.6222 29.2063 25.2637 29.8183 26.0383 29.7842C26.796 29.7484 27.4005 29.1006 27.3668 28.3165C27.3483 27.5494 26.7253 26.9528 25.9676 26.9545C25.193 26.9886 24.5868 27.6381 24.5885 28.4222ZM26.045 35.972C25.2704 36.0061 24.6305 35.3941 24.5952 34.61C24.5952 33.8259 25.1997 33.1781 25.9743 33.1423C26.732 33.1406 27.3567 33.7372 27.3735 34.5026C27.4089 35.2884 26.8027 35.9362 26.045 35.972ZM17.651 28.4819C17.6847 29.266 18.3262 29.8797 19.1008 29.8439C19.8585 29.8098 20.463 29.1604 20.4277 28.3762C20.4108 27.6092 19.7878 27.0125 19.0284 27.0142C18.2538 27.0483 17.6493 27.6978 17.651 28.4819ZM19.1072 35.9805C18.3326 36.0163 17.6927 35.4026 17.6574 34.6185C17.6557 33.8344 18.2619 33.1849 19.0365 33.1508C19.7942 33.1491 20.4189 33.7458 20.4357 34.5128C20.4711 35.297 19.8666 35.9464 19.1072 35.9805Z" fill="white"/>
</svg>
