<svg width="58" height="58" viewBox="0 0 58 58" fill="none" xmlns="http://www.w3.org/2000/svg">
<rect width="57.9961" height="57.9961" fill="#FFE5E9"/>
<path fill-rule="evenodd" clip-rule="evenodd" d="M38.6815 11.3523C41.3107 11.3523 43.8399 12.3914 45.7006 14.256C47.5632 16.1166 48.6043 18.6262 48.6043 21.2535V36.7425C48.6043 42.2127 44.1537 46.6437 38.6815 46.6437H19.3124C13.8403 46.6437 9.3916 42.2127 9.3916 36.7425V21.2535C9.3916 15.7833 13.8207 11.3523 19.3124 11.3523H38.6815ZM41.8006 24.1748L41.9575 24.018C42.4261 23.4494 42.4261 22.6259 41.9359 22.0574C41.6634 21.7652 41.2889 21.5868 40.8988 21.5476C40.487 21.526 40.0949 21.6652 39.7988 21.9397L30.9583 28.998C29.8212 29.9411 28.1919 29.9411 27.0371 28.998L18.2142 21.9397C17.6045 21.4888 16.7614 21.5476 16.2536 22.077C15.7242 22.6063 15.6654 23.4494 16.1144 24.0376L16.3712 24.2925L25.2921 31.2527C26.3901 32.1154 27.7213 32.586 29.1153 32.586C30.5054 32.586 31.8602 32.1154 32.9562 31.2527L41.8006 24.1748Z" fill="#FF5F85"/>
</svg>
