<svg width="86" height="86" viewBox="0 0 86 86" fill="none" xmlns="http://www.w3.org/2000/svg">
<rect width="86" height="86" fill="#FFF1D7"/>
<path fill-rule="evenodd" clip-rule="evenodd" d="M43.9646 16.0234C44.4057 15.6275 44.9891 15.42 45.5863 15.4466C58.2102 15.8245 68.7606 24.9888 70.6728 37.2372C70.6849 37.3103 70.6849 37.3849 70.6728 37.458C70.7139 38.0376 70.5181 38.6093 70.1285 39.0468C69.7389 39.4843 69.1877 39.7515 68.5968 39.7892L47.3871 41.188C46.6857 41.2501 45.9901 41.0193 45.4711 40.5522C44.9522 40.0851 44.658 39.425 44.6609 38.7341L43.2352 17.9005V17.557C43.2612 16.971 43.5236 16.4193 43.9646 16.0234ZM42.5097 46.6355L60.8931 45.4577L61.0181 45.5068C61.8075 45.5197 62.5594 45.8398 63.1082 46.3966C63.657 46.9535 63.9578 47.7015 63.9445 48.476C63.2201 59.0321 55.4808 67.8521 44.9487 70.1243C34.4166 72.3966 23.6199 67.5757 18.4486 58.2915C16.9281 55.6176 15.9672 52.6725 15.6223 49.6293C15.4886 48.7275 15.4301 47.8166 15.4473 46.9055C15.4821 35.6806 23.4738 25.992 34.6561 23.618C36.0097 23.3646 37.367 24.0405 37.9576 25.2621C38.1046 25.4838 38.2223 25.7229 38.3077 25.9738C38.5174 29.2095 38.7348 32.4146 38.9513 35.6062C39.1223 38.1267 39.2927 40.6389 39.4583 43.151C39.4497 43.7428 39.5427 44.3318 39.7334 44.8933C40.1822 45.9981 41.2992 46.699 42.5097 46.6355Z" fill="#FFC147"/>
</svg>
