<svg width="181" height="191" viewBox="0 0 181 191" fill="none" xmlns="http://www.w3.org/2000/svg">
<ellipse cx="88.8373" cy="90" rx="88.8373" ry="90" fill="#F3F5FF"/>
<path d="M122.747 63.8424C120.879 59.4425 117.81 55.6576 113.891 52.9211C109.971 50.1847 105.361 48.6073 100.586 48.3695C95.8122 48.1318 91.0676 49.2433 86.8958 51.5768C82.724 53.9104 79.2937 57.3716 76.9977 61.5642C74.7017 65.7567 73.6327 70.5111 73.9133 75.283C74.1939 80.0548 75.8126 84.6512 78.5841 88.5458C81.3557 92.4404 85.168 95.4757 89.5845 97.3043C94.001 99.1329 98.8432 99.6807 103.557 98.8851V98.8851L106.319 105.393L114.83 107.174L109.955 113.952L113.435 122.105L121.937 123.882L117.072 130.664L120.054 137.679L125.279 138.782L122.323 142.916L124.054 147.001L131.37 150.181L138.233 140.042L117.632 91.5295C121.116 87.9305 123.459 83.3833 124.369 78.458C125.279 73.5327 124.715 68.4484 122.747 63.8424V63.8424ZM92.0392 56.6714C93.3694 56.1056 94.8375 55.9471 96.2577 56.2159C97.678 56.4847 98.9866 57.1688 100.018 58.1815C101.049 59.1943 101.757 60.4902 102.052 61.9053C102.347 63.3204 102.215 64.7912 101.674 66.1314C101.132 67.4717 100.206 68.6213 99.0106 69.4347C97.8157 70.2482 96.4064 70.6889 94.961 70.7012C93.5156 70.7135 92.099 70.2967 90.8905 69.5037C89.6819 68.7106 88.7358 67.577 88.1717 66.2461C87.7962 65.3635 87.5983 64.4156 87.5895 63.4566C87.5807 62.4975 87.761 61.5461 88.1202 60.6568C88.4794 59.7675 89.0105 58.9578 89.6829 58.2739C90.3554 57.5901 91.1561 57.0455 92.0392 56.6714V56.6714Z" fill="#4B5BEC"/>
<path d="M110.668 83.4301C112.985 79.2492 114.077 74.5002 113.821 69.727C113.564 64.9538 111.969 60.3494 109.217 56.4409C106.465 52.5324 102.668 49.478 98.2605 47.6272C93.8532 45.7765 89.0138 45.2043 84.2965 45.9762C79.5791 46.7481 75.1745 48.8329 71.587 51.9918C67.9994 55.1508 65.374 59.2562 64.0114 63.8379C62.6487 68.4197 62.6039 73.2925 63.882 77.8986C65.1602 82.5046 67.7096 86.6576 71.2384 89.882V89.882L67.8109 96.0654L71.6472 103.869L63.3052 104.2L59.023 111.962L62.8561 119.756L54.5174 120.097L50.8253 126.766L53.173 131.563L48.0955 131.778L45.9427 135.657L47.9405 143.38L60.1551 142.547L85.7008 96.4453C90.6814 96.9745 95.7074 96.0217 100.149 93.7064C104.59 91.3911 108.249 87.8163 110.668 83.4301V83.4301ZM97.4125 54.8168C98.6773 55.5167 99.706 56.576 100.369 57.8606C101.031 59.1453 101.298 60.5977 101.135 62.0339C100.972 63.4702 100.386 64.8258 99.4526 65.9293C98.5189 67.0328 97.2789 67.8345 95.8894 68.233C94.5 68.6316 93.0235 68.609 91.6469 68.1683C90.2703 67.7275 89.0553 66.8883 88.1557 65.7568C87.2561 64.6254 86.7124 63.2525 86.5933 61.8119C86.4742 60.3713 86.785 58.9278 87.4865 57.664C87.9507 56.8247 88.5759 56.0852 89.3262 55.4878C90.0765 54.8904 90.9373 54.4467 91.8592 54.1823C92.7811 53.9179 93.7461 53.8378 94.699 53.9467C95.6519 54.0555 96.574 54.3512 97.4125 54.8168V54.8168Z" fill="#D69D2F"/>
<path d="M125.025 62.724C123.157 58.3241 120.087 54.5392 116.168 51.8027C112.249 49.0663 107.638 47.4889 102.864 47.2511C98.0895 47.0134 93.3449 48.1249 89.1731 50.4584C85.0014 52.792 81.571 56.2532 79.275 60.4457C76.979 64.6383 75.9101 69.3927 76.1907 74.1646C76.4712 78.9364 78.09 83.5328 80.8615 87.4274C83.633 91.322 87.4453 94.3573 91.8618 96.1859C96.2783 98.0145 101.121 98.5623 105.834 97.7667V97.7667L108.596 104.275L117.107 106.056L112.233 112.833L115.713 120.986L124.214 122.764L119.349 129.545L122.332 136.561L127.557 137.664L124.6 141.797L126.332 145.882L133.647 149.062L140.511 138.924L119.91 90.4111C123.393 86.8121 125.737 82.2649 126.647 77.3396C127.557 72.4143 126.992 67.33 125.025 62.724V62.724ZM94.3166 55.553C95.6467 54.9872 97.1148 54.8287 98.5351 55.0975C99.9553 55.3663 101.264 56.0504 102.295 57.0631C103.327 58.0758 104.035 59.3718 104.329 60.7869C104.624 62.202 104.492 63.6728 103.951 65.013C103.41 66.3533 102.483 67.5029 101.288 68.3163C100.093 69.1298 98.6838 69.5705 97.2383 69.5828C95.7929 69.595 94.3763 69.1783 93.1678 68.3852C91.9593 67.5922 91.0131 66.4585 90.4491 65.1277C90.0735 64.2451 89.8757 63.2972 89.8669 62.3382C89.858 61.3791 90.0384 60.4277 90.3976 59.5384C90.7568 58.6491 91.2878 57.8394 91.9603 57.1555C92.6327 56.4717 93.4334 55.9271 94.3166 55.553V55.553Z" fill="#596AFF"/>
<path d="M113.925 84.4569C116.242 80.2759 117.335 75.5269 117.079 70.7538C116.822 65.9806 115.226 61.3761 112.474 57.4676C109.723 53.5592 105.926 50.5047 101.518 48.654C97.111 46.8032 92.2716 46.231 87.5543 47.0029C82.8369 47.7749 78.4323 49.8596 74.8448 53.0186C71.2573 56.1775 68.6319 60.2829 67.2692 64.8646C65.9065 69.4464 65.8617 74.3193 67.1398 78.9253C68.418 83.5313 70.9674 87.6843 74.4962 90.9087V90.9087L71.0687 97.0922L74.905 104.896L66.563 105.227L62.2808 112.989L66.1139 120.782L57.7752 121.124L54.0831 127.793L56.4309 132.589L51.3533 132.805L49.2005 136.684L51.1984 144.407L63.4129 143.573L88.9586 97.4721C93.9392 98.0013 98.9652 97.0485 103.407 94.7332C107.848 92.4179 111.507 88.8431 113.925 84.4569V84.4569ZM100.67 55.8435C101.935 56.5434 102.964 57.6027 103.626 58.8874C104.289 60.1721 104.556 61.6244 104.393 63.0607C104.23 64.4969 103.644 65.8526 102.71 66.956C101.777 68.0595 100.537 68.8612 99.1473 69.2598C97.7578 69.6583 96.2813 69.6358 94.9047 69.195C93.5281 68.7542 92.3131 67.915 91.4135 66.7835C90.514 65.6521 89.9702 64.2792 89.8511 62.8386C89.732 61.3981 90.0428 59.9545 90.7443 58.6907C91.2086 57.8514 91.8337 57.1119 92.584 56.5145C93.3343 55.9171 94.1951 55.4735 95.117 55.209C96.0389 54.9446 97.0039 54.8645 97.9568 54.9734C98.9097 55.0823 99.8318 55.378 100.67 55.8435V55.8435Z" fill="#FFC147"/>
<path d="M76.5686 48.5575C75.6716 44.9112 75.6962 40.973 76.8461 37.4419C78.2664 33.0809 81.1358 29.337 84.9777 26.832C88.8197 24.3271 93.403 23.2118 97.9663 23.6715C102.53 24.1313 106.798 26.1383 110.064 29.3592C113.329 32.5801 115.394 36.8211 115.916 41.3778C116.437 45.9344 115.385 50.5325 112.932 54.4082C110.48 58.284 106.776 61.2041 102.434 62.6837C98.0931 64.1632 94.1579 64.3579 89.8491 62.7864C89.8491 62.7864 89.4269 60.4313 91.0044 58.2872C94.322 59.4971 97.6006 59.4476 100.943 58.3084C104.286 57.1692 107.138 54.9208 109.026 51.9366C110.914 48.9525 111.725 45.4122 111.323 41.9037C110.921 38.3953 109.331 35.1299 106.817 32.6499C104.303 30.17 101.017 28.6246 97.503 28.2707C93.9894 27.9167 90.4605 28.7754 87.5023 30.7041C84.5442 32.6328 82.3349 35.5155 81.2413 38.8732C80.3759 41.5308 80.166 44.2076 80.7356 46.831C79.8204 47.1802 78.5744 47.5141 76.5686 48.5575Z" fill="#B1B3CB"/>
<path d="M77.689 190.453L95.9854 190.453C100.796 190.453 104.695 186.553 104.695 181.743L104.695 164.559C104.695 159.749 100.796 155.849 95.9854 155.849L77.689 155.849C72.8787 155.849 68.9791 159.749 68.9791 164.559L68.9791 181.743C68.9791 186.553 72.8787 190.453 77.689 190.453Z" fill="#FFC9D6"/>
<path d="M48.744 38.7269L60.9851 38.7269C64.2035 38.7269 66.8125 36.1179 66.8125 32.8996L66.8125 21.4031C66.8125 18.1848 64.2035 15.5758 60.9851 15.5758L48.744 15.5758C45.5256 15.5758 42.9166 18.1848 42.9166 21.4031L42.9166 32.8996C42.9166 36.1179 45.5256 38.7269 48.744 38.7269Z" fill="#FFC9D6"/>
<path d="M151.54 70.6639L171.45 70.6639C176.684 70.6639 180.928 66.4206 180.928 61.1861L180.928 42.4879C180.928 37.2534 176.684 33.0101 171.45 33.0101L151.54 33.0101C146.306 33.0101 142.063 37.2534 142.063 42.4879L142.063 61.1861C142.063 66.4206 146.306 70.6639 151.54 70.6639Z" fill="#D0D6FA"/>
<path d="M145.654 129.19L153.228 129.19C155.212 129.19 156.82 127.582 156.82 125.598L156.82 118.488C156.82 116.504 155.212 114.896 153.228 114.896L145.654 114.896C143.671 114.896 142.063 116.504 142.063 118.488L142.063 125.598C142.063 127.582 143.671 129.19 145.654 129.19Z" fill="#CEC2FF"/>
<path d="M16.228 103.705L28.3305 103.705C31.5005 103.705 34.0703 101.135 34.0703 97.9653L34.0703 86.6035C34.0703 83.4335 31.5005 80.8637 28.3305 80.8637L16.228 80.8637C13.058 80.8637 10.4883 83.4335 10.4883 86.6035L10.4883 97.9653C10.4883 101.135 13.058 103.705 16.228 103.705Z" fill="#CEC2FF"/>
</svg>
