<svg width="21" height="20" viewBox="0 0 21 20" fill="none" xmlns="http://www.w3.org/2000/svg">
<path d="M17.75 1H3.75C3.21957 1 2.71086 1.21071 2.33579 1.58579C1.96071 1.96086 1.75 2.46957 1.75 3V17C1.75 17.5304 1.96071 18.0391 2.33579 18.4142C2.71086 18.7893 3.21957 19 3.75 19H17.75C18.2804 19 18.7891 18.7893 19.1642 18.4142C19.5393 18.0391 19.75 17.5304 19.75 17V3C19.75 2.46957 19.5393 1.96086 19.1642 1.58579C18.7891 1.21071 18.2804 1 17.75 1Z" stroke="#4457FF" stroke-width="1.6" stroke-linecap="round" stroke-linejoin="round"/>
<path d="M6.18164 5.39178H15.3165" stroke="#4457FF" stroke-width="1.6" stroke-linecap="round" stroke-linejoin="round"/>
<path d="M6.18164 9.27545H15.3165" stroke="#4457FF" stroke-width="1.6" stroke-linecap="round" stroke-linejoin="round"/>
<path d="M6.18164 13.0037H11.6626" stroke="#4457FF" stroke-width="1.6" stroke-linecap="round" stroke-linejoin="round"/>
</svg>
