<svg width="30" height="29" viewBox="0 0 30 29" fill="none" xmlns="http://www.w3.org/2000/svg">
<g clip-path="url(#clip0)">
<path d="M28.9033 14.7713C28.9033 13.5832 28.8073 12.7162 28.5994 11.8171H15.084V17.1796H23.0172C22.8574 18.5123 21.9937 20.5193 20.0743 21.8679L20.0474 22.0474L24.3207 25.3706L24.6168 25.4002C27.3358 22.8795 28.9033 19.1706 28.9033 14.7713" fill="#4C8BF3"/>
<path d="M15.0843 28.9004C18.971 28.9004 22.2338 27.6159 24.6171 25.4003L20.0746 21.8679C18.859 22.7189 17.2276 23.3129 15.0843 23.3129C11.2776 23.3129 8.04674 20.7922 6.89501 17.3081L6.7262 17.3225L2.28272 20.7745L2.22461 20.9367C4.59179 25.6571 9.45417 28.9004 15.0843 28.9004Z" fill="#34A853"/>
<path d="M6.8914 17.3081C6.5875 16.409 6.41163 15.4456 6.41163 14.4502C6.41163 13.4547 6.5875 12.4914 6.87541 11.5922L6.86736 11.4008L2.3682 7.89331L2.22099 7.9636C1.24536 9.92242 0.685547 12.1221 0.685547 14.4502C0.685547 16.7783 1.24536 18.9778 2.22099 20.9367L6.8914 17.3081" fill="#FFD584"/>
<path d="M15.0843 5.58737C17.7874 5.58737 19.6107 6.75944 20.6504 7.7389L24.713 3.75705C22.2179 1.42897 18.9709 0 15.0843 0C9.45416 0 4.59179 3.24324 2.22461 7.9636L6.87902 11.5923C8.04673 8.10816 11.2776 5.58737 15.0843 5.58737" fill="#EA4335"/>
</g>
<defs>
<clipPath id="clip0">
<rect width="29.1254" height="29" fill="white" transform="translate(0.345703)"/>
</clipPath>
</defs>
</svg>
