<svg width="102" height="102" viewBox="0 0 102 102" fill="none" xmlns="http://www.w3.org/2000/svg">
<rect width="102" height="102" fill="white"/>
<path fill-rule="evenodd" clip-rule="evenodd" d="M21.7344 47.1928C21.7344 33.1347 33.0095 21.7383 46.918 21.7383C53.5971 21.7383 60.0027 24.4201 64.7255 29.1938C69.4483 33.9674 72.1016 40.4419 72.1016 47.1928C72.1016 61.251 60.8265 72.6474 46.918 72.6474C33.0095 72.6474 21.7344 61.251 21.7344 47.1928ZM71.6938 67.6988L79.1942 73.7531H79.3244C80.8419 75.2869 80.8419 77.7736 79.3244 79.3074C77.807 80.8411 75.3468 80.8411 73.8294 79.3074L67.6051 72.1738C67.0167 71.5811 66.6859 70.7759 66.6859 69.9363C66.6859 69.0966 67.0167 68.2915 67.6051 67.6988C68.7399 66.5717 70.559 66.5717 71.6938 67.6988Z" fill="#FF5F85"/>
</svg>
