<svg width="74" height="74" viewBox="0 0 74 74" fill="none" xmlns="http://www.w3.org/2000/svg">
<rect width="74" height="74" fill="#FFF1D7"/>
<path fill-rule="evenodd" clip-rule="evenodd" d="M37.7131 15.6496C38.0613 15.337 38.522 15.1732 38.9935 15.1942C48.9614 15.4926 57.2921 22.7287 58.8019 32.4001C58.8115 32.4579 58.8115 32.5167 58.8019 32.5745C58.8344 33.0321 58.6797 33.4836 58.3721 33.829C58.0645 34.1744 57.6293 34.3854 57.1627 34.4152L40.4154 35.5196C39.8616 35.5688 39.3124 35.3865 38.9026 35.0177C38.4928 34.6488 38.2605 34.1276 38.2628 33.582L37.1371 17.1318V16.8605C37.1576 16.3979 37.3648 15.9622 37.7131 15.6496ZM36.5642 39.821L51.0799 38.891L51.1786 38.9297C51.8019 38.9399 52.3956 39.1927 52.8289 39.6324C53.2623 40.0721 53.4998 40.6627 53.4892 41.2742C52.9173 49.6094 46.8063 56.5737 38.4901 58.3679C30.174 60.162 21.6488 56.3554 17.5656 49.0246C16.3649 46.9132 15.6062 44.5878 15.3339 42.1849C15.2283 41.4729 15.1821 40.7536 15.1957 40.0341C15.2232 31.171 21.5335 23.5208 30.363 21.6463C31.4319 21.4462 32.5036 21.9799 32.9699 22.9445C33.086 23.1195 33.1789 23.3083 33.2464 23.5064C33.4119 26.0612 33.5836 28.5919 33.7545 31.1119C33.8895 33.1023 34.0241 35.0859 34.1548 37.0696C34.1481 37.5369 34.2215 38.0019 34.3721 38.4453C34.7265 39.3177 35.6084 39.8711 36.5642 39.821Z" fill="#FFC147"/>
</svg>
