<svg width="24" height="23" viewBox="0 0 24 23" fill="none" xmlns="http://www.w3.org/2000/svg">
<path d="M10.1304 3.84082C8.32456 3.84082 6.5593 4.37631 5.05782 5.37957C3.55633 6.38282 2.38607 7.80879 1.69501 9.47715C1.00396 11.1455 0.823144 12.9813 1.17544 14.7524C1.52774 16.5236 2.39732 18.1504 3.67423 19.4273C4.95114 20.7043 6.57801 21.5738 8.34913 21.9261C10.1203 22.2784 11.9561 22.0976 13.6244 21.4066C15.2928 20.7155 16.7188 19.5452 17.722 18.0438C18.7253 16.5423 19.2608 14.777 19.2608 12.9712H10.5869C10.4658 12.9712 10.3497 12.9231 10.2641 12.8375C10.1785 12.7519 10.1304 12.6358 10.1304 12.5147V3.84082Z" stroke="#4457FF" stroke-width="1.6" stroke-linecap="round" stroke-linejoin="round"/>
<path d="M13.2422 9.67386C13.2422 9.79493 13.2903 9.91105 13.3759 9.99667C13.4615 10.0823 13.5776 10.1304 13.6987 10.1304H22.3726C22.3726 7.70885 21.4106 5.3865 19.6983 3.67423C17.9861 1.96195 15.6637 1 13.2422 1V9.67386Z" stroke="#4457FF" stroke-width="1.6" stroke-linecap="round" stroke-linejoin="round"/>
</svg>
