<svg width="212" height="460" viewBox="0 0 212 460" fill="none" xmlns="http://www.w3.org/2000/svg">
<rect x="0.436213" y="0.436213" width="211.128" height="459.128" fill="#FDFDFF" stroke="#FAFAFF" stroke-width="0.872427"/>
<rect x="11.1309" y="13.6252" width="189.74" height="432.75" rx="18.1377" fill="#F5F6FF"/>
<rect x="21.8223" y="264.819" width="168.362" height="115.779" rx="14.8313" fill="white"/>
<rect x="139.373" y="310.591" width="37.7093" height="4.36573" rx="2.18287" fill="#EFF0F7"/>
<ellipse cx="129.363" cy="312.774" rx="5.65559" ry="5.67012" fill="#FF5F85"/>
<rect x="139.373" y="327.087" width="21.5773" height="4.36573" rx="2.18287" fill="#EFF0F7"/>
<ellipse cx="129.363" cy="329.27" rx="5.65559" ry="5.67012" fill="#596AFF"/>
<path d="M60.6872 315.249C62.2437 315.249 63.4742 315.621 64.3789 316.366C65.2835 317.098 65.7358 318.109 65.7358 319.4C65.7358 320.876 65.2835 322.04 64.3789 322.892C63.4742 323.73 62.2437 324.149 60.6872 324.149C59.1308 324.149 57.8803 323.803 56.9357 323.111C56.0045 322.419 55.499 321.468 55.4192 320.258L57.8936 319.958C58.0133 320.504 58.3193 320.936 58.8115 321.255C59.317 321.561 59.9423 321.714 60.6872 321.714C61.4987 321.714 62.1373 321.508 62.6029 321.096C63.0685 320.683 63.3013 320.118 63.3013 319.4C63.3013 318.801 63.0685 318.329 62.6029 317.983C62.1373 317.637 61.4987 317.464 60.6872 317.464H57.9335V317.424L56.0378 317.464L56.9757 309.961H65.2369V312.435H59.1507L58.7915 315.249H60.6872ZM76.0242 316.646C77.1949 317.311 77.7802 318.382 77.7802 319.859C77.7802 321.202 77.3146 322.26 76.3834 323.031C75.4654 323.803 74.2016 324.189 72.592 324.189C70.969 324.189 69.6919 323.803 68.7606 323.031C67.8427 322.26 67.3838 321.202 67.3838 319.859C67.3838 318.382 67.9758 317.311 69.1597 316.646C68.1886 316.047 67.703 315.103 67.703 313.812C67.703 312.535 68.1354 311.531 69.0001 310.799C69.8781 310.067 71.0754 309.702 72.592 309.702C74.0952 309.702 75.2792 310.067 76.1439 310.799C77.0219 311.531 77.4609 312.535 77.4609 313.812C77.4609 315.103 76.982 316.047 76.0242 316.646ZM72.592 312.036C71.8603 312.036 71.2816 312.196 70.8559 312.515C70.4435 312.834 70.2373 313.267 70.2373 313.812C70.2373 314.358 70.4435 314.79 70.8559 315.109C71.2816 315.415 71.8603 315.568 72.592 315.568C73.3236 315.568 73.8957 315.415 74.3081 315.109C74.7205 314.79 74.9267 314.358 74.9267 313.812C74.9267 313.267 74.7205 312.834 74.3081 312.515C73.8957 312.196 73.3236 312.036 72.592 312.036ZM72.592 321.794C73.4168 321.794 74.0753 321.608 74.5675 321.235C75.073 320.863 75.3258 320.351 75.3258 319.699C75.3258 319.06 75.0797 318.568 74.5874 318.222C74.0952 317.876 73.4301 317.703 72.592 317.703C71.7539 317.703 71.082 317.876 70.5765 318.222C70.0843 318.568 69.8382 319.06 69.8382 319.699C69.8382 320.351 70.091 320.863 70.5965 321.235C71.102 321.608 71.7672 321.794 72.592 321.794ZM82.4613 317.045C81.7961 317.045 81.2041 316.905 80.6853 316.626C80.1798 316.333 79.7874 315.934 79.508 315.429C79.2286 314.923 79.0889 314.364 79.0889 313.752C79.0889 313.127 79.2286 312.562 79.508 312.056C79.7874 311.551 80.1798 311.152 80.6853 310.859C81.2041 310.566 81.7961 310.42 82.4613 310.42C83.1265 310.42 83.7118 310.566 84.2173 310.859C84.7361 311.152 85.1352 311.551 85.4146 312.056C85.7073 312.562 85.8536 313.127 85.8536 313.752C85.8536 314.364 85.7139 314.923 85.4346 315.429C85.1552 315.934 84.7561 316.333 84.2373 316.626C83.7184 316.905 83.1265 317.045 82.4613 317.045ZM82.6409 323.929H81.1642L89.665 310.62H91.1616L82.6409 323.929ZM82.4613 315.528C82.9269 315.528 83.3127 315.369 83.6187 315.049C83.9246 314.717 84.0776 314.285 84.0776 313.752C84.0776 313.194 83.9246 312.755 83.6187 312.435C83.3127 312.103 82.9269 311.937 82.4613 311.937C81.9957 311.937 81.6099 312.103 81.3039 312.435C81.0113 312.755 80.8649 313.194 80.8649 313.752C80.8649 314.285 81.0113 314.717 81.3039 315.049C81.6099 315.369 81.9957 315.528 82.4613 315.528ZM89.7647 324.169C89.0996 324.169 88.5076 324.029 87.9888 323.75C87.4832 323.457 87.0908 323.058 86.8114 322.552C86.5321 322.047 86.3924 321.488 86.3924 320.876C86.3924 320.251 86.5321 319.686 86.8114 319.18C87.0908 318.675 87.4832 318.275 87.9888 317.983C88.5076 317.69 89.0996 317.544 89.7647 317.544C90.4299 317.544 91.0152 317.69 91.5208 317.983C92.0263 318.275 92.4187 318.675 92.6981 319.18C92.9908 319.686 93.1371 320.251 93.1371 320.876C93.1371 321.488 92.9974 322.047 92.718 322.552C92.4387 323.058 92.0396 323.457 91.5208 323.75C91.0152 324.029 90.4299 324.169 89.7647 324.169ZM89.7647 322.652C90.2303 322.652 90.6161 322.493 90.9221 322.173C91.2281 321.841 91.3811 321.408 91.3811 320.876C91.3811 320.318 91.2281 319.879 90.9221 319.559C90.6161 319.227 90.2303 319.06 89.7647 319.06C89.2858 319.06 88.8934 319.227 88.5874 319.559C88.2947 319.879 88.1484 320.318 88.1484 320.876C88.1484 321.408 88.2947 321.841 88.5874 322.173C88.8934 322.493 89.2858 322.652 89.7647 322.652Z" fill="#0B0A33"/>
<rect x="61.375" y="330.719" width="25.5018" height="5.39528" rx="2.69764" fill="#D9DBE9"/>
<path d="M103.091 342.3C98.8943 348.318 93.0122 352.952 86.1897 355.617C79.3672 358.282 71.91 358.859 64.7607 357.275C57.6114 355.691 51.0902 352.017 46.0221 346.717C40.954 341.416 37.5668 334.727 36.2898 327.495" stroke="#EFF0F7" stroke-width="5.23456"/>
<path d="M49.4954 349.914C43.3969 344.979 39.0165 338.23 36.9863 330.638C34.956 323.047 35.3809 315.005 38.1996 307.67C41.0183 300.336 46.0849 294.089 52.6689 289.828C59.2528 285.566 67.0149 283.51 74.8379 283.953C82.6609 284.396 90.1427 287.317 96.2061 292.295C102.27 297.274 106.602 304.054 108.579 311.66C110.555 319.266 110.073 327.305 107.203 334.619C104.332 341.932 99.2217 348.143 92.6077 352.358" stroke="#FF5F85" stroke-width="5.23456" stroke-linecap="round"/>
<path d="M49.5612 349.968C42.5405 344.312 37.8149 336.285 36.2708 327.386C34.7268 318.488 36.4706 309.331 41.1749 301.629C45.8791 293.928 53.2205 288.211 61.8237 285.547C70.4267 282.883 79.7032 283.454 87.9171 287.152" stroke="#596AFF" stroke-width="5.23456" stroke-linecap="round"/>
<rect x="51.8066" y="47.8074" width="108.392" height="10.5738" rx="5.2869" fill="#D9DBE9"/>
<path fill-rule="evenodd" clip-rule="evenodd" d="M48.5712 13.6408C48.5711 13.6408 48.5712 13.6408 48.5712 13.6408ZM164.983 13.6408C164.166 13.7318 163.757 14.2356 163.757 15.5153C163.757 26.2626 155.564 29.4354 151.467 29.6784H63.4577C50.6499 29.6784 50.8084 19.4581 50.8512 16.6985L50.8512 16.6981C50.8533 16.5629 50.8551 16.4457 50.8551 16.3485C50.8551 14.2688 50.232 13.6427 48.5712 13.6408H164.983ZM164.983 13.6408C165.176 13.6193 165.393 13.6209 165.632 13.6408L164.983 13.6408Z" fill="#FDFDFF"/>
<rect x="21.8223" y="69.9717" width="168.362" height="185.565" rx="17.5449" fill="white"/>
<rect x="79.7598" y="130.59" width="94.4575" height="6.15545" rx="3.07773" fill="#EFF0F7"/>
<rect x="79.7598" y="130.59" width="75.8506" height="6.15545" rx="3.07773" fill="#596AFF"/>
<rect x="79.7598" y="118.895" width="57.7811" height="6.15545" rx="3.07773" fill="#D9DBE9"/>
<g filter="url(#filter0_d)">
<ellipse cx="55.0881" cy="127.82" rx="17.3049" ry="17.3494" fill="#FF0000" fill-opacity="0.01"/>
</g>
<ellipse cx="55.0881" cy="127.82" rx="17.3049" ry="17.3494" fill="white"/>
<path d="M55.0143 116.025C55.0143 116.025 61.9262 115.713 65.5894 122.677H54.4266C54.4266 122.677 52.3183 122.608 50.5212 125.172C50.0029 126.246 49.45 127.355 50.072 129.537C49.1735 128.013 45.3027 121.257 45.3027 121.257C45.3027 121.257 48.0333 116.302 55.0143 116.025Z" fill="#EA4335"/>
<path d="M65.2284 133.707C65.2284 133.707 62.041 139.863 54.1934 139.561C55.1615 137.881 59.7761 129.869 59.7761 129.869C59.7761 129.869 60.8902 128.074 59.5747 125.231C58.9059 124.244 58.2249 123.21 56.0284 122.658C57.7949 122.64 65.566 122.659 65.566 122.659C65.566 122.659 68.4802 127.507 65.2284 133.707Z" fill="#FFC147"/>
<path d="M44.8467 133.753C44.8467 133.753 41.1226 127.907 45.3083 121.245C46.2756 122.926 50.8878 130.939 50.8878 130.939C50.8878 130.939 51.8814 132.804 54.9948 133.083C56.1816 132.996 57.4161 132.922 58.9909 131.291C58.1226 132.833 54.2204 139.571 54.2204 139.571C54.2204 139.571 48.5754 139.677 44.8467 133.753Z" fill="#17A05D"/>
<path d="M54.1934 139.618L55.7636 133.049C55.7636 133.049 57.4901 132.914 58.9367 131.322C58.0386 132.906 54.1934 139.618 54.1934 139.618V139.618Z" fill="#17A05D"/>
<path d="M49.7539 127.894C49.7539 124.998 52.0952 122.65 54.9839 122.65C57.8723 122.65 60.2139 124.998 60.2139 127.894C60.2139 130.79 57.8725 133.137 54.9839 133.137C52.0952 133.137 49.7539 130.79 49.7539 127.894V127.894Z" fill="white"/>
<path d="M50.6289 127.894C50.6289 125.483 52.5785 123.528 54.9836 123.528C57.3883 123.528 59.3381 125.483 59.3381 127.894C59.3381 130.305 57.3883 132.26 54.9836 132.26C52.5785 132.26 50.6289 130.305 50.6289 127.894V127.894Z" fill="#4C8BF4"/>
<path d="M65.567 122.659L59.1014 124.559C59.1014 124.559 58.1264 123.125 56.0293 122.658C57.8464 122.652 65.567 122.659 65.567 122.659Z" fill="#FFC147"/>
<path d="M49.9461 129.302C49.0374 127.724 45.3027 121.256 45.3027 121.256L50.0923 126.007C50.0923 126.007 49.6001 127.022 49.7868 128.471L49.9461 129.302V129.302Z" fill="#EA4335"/>
<rect x="79.7598" y="175.138" width="94.4575" height="6.15545" rx="3.07773" fill="#EFF0F7"/>
<rect x="80.1484" y="175.138" width="49.35" height="6.15545" rx="3.07773" fill="#596AFF"/>
<rect x="79.7598" y="163.442" width="35.811" height="6.15545" rx="3.07773" fill="#D9DBE9"/>
<g filter="url(#filter1_d)">
<ellipse cx="55.0881" cy="172.368" rx="17.3049" ry="17.3494" fill="#FF0000" fill-opacity="0.01"/>
</g>
<ellipse cx="55.0881" cy="172.368" rx="17.3049" ry="17.3494" fill="white"/>
<path d="M66.855 172.368C66.855 175.497 65.6153 178.498 63.4085 180.71C61.2016 182.923 58.2086 184.165 55.0877 184.165C51.9668 184.165 48.9737 182.923 46.7669 180.71C44.5601 178.498 43.3203 175.497 43.3203 172.368C43.3203 169.239 44.5601 166.238 46.7669 164.026C48.9737 161.813 51.9668 160.57 55.0877 160.57C58.2086 160.57 61.2016 161.813 63.4085 164.026C65.6153 166.238 66.855 169.239 66.855 172.368Z" fill="url(#paint0_radial)"/>
<path d="M55.0882 161.185C54.9932 161.185 54.9167 161.262 54.9167 161.357V163.341C54.9167 163.436 54.9932 163.513 55.0882 163.513C55.1833 163.513 55.2598 163.436 55.2598 163.341V161.357C55.2598 161.262 55.1833 161.185 55.0882 161.185ZM53.9659 161.256C53.9545 161.255 53.9428 161.255 53.931 161.256C53.8364 161.266 53.7683 161.35 53.7782 161.445L53.8646 162.275C53.8745 162.37 53.9585 162.438 54.0531 162.428C54.1476 162.419 54.2158 162.334 54.2059 162.24L54.1195 161.41C54.1109 161.327 54.0454 161.264 53.9658 161.256H53.9659ZM56.2184 161.257C56.1389 161.265 56.0734 161.327 56.0647 161.41L55.9777 162.24C55.9677 162.335 56.0359 162.419 56.1304 162.429C56.2249 162.439 56.309 162.371 56.3189 162.276L56.406 161.446C56.4159 161.351 56.3478 161.267 56.2532 161.257C56.2414 161.256 56.2298 161.256 56.2184 161.257V161.257ZM52.8129 161.424C52.8015 161.424 52.7899 161.425 52.7783 161.427C52.6853 161.447 52.6263 161.538 52.6459 161.631L53.0558 163.572C53.0755 163.666 53.1662 163.725 53.2592 163.705C53.3522 163.685 53.4112 163.594 53.3915 163.501L52.9817 161.56C52.9644 161.479 52.8928 161.423 52.8129 161.424L52.8129 161.424ZM57.3713 161.425C57.2914 161.425 57.2198 161.48 57.2025 161.562L56.7913 163.502C56.7715 163.596 56.8305 163.687 56.9234 163.706C57.0164 163.726 57.1072 163.667 57.1269 163.574L57.5381 161.633C57.5579 161.54 57.4989 161.449 57.406 161.429C57.3944 161.427 57.3827 161.426 57.3713 161.426L57.3713 161.425ZM51.7126 161.735C51.6904 161.733 51.6674 161.735 51.6448 161.743C51.5544 161.772 51.5053 161.869 51.5347 161.959L51.7919 162.753C51.8213 162.844 51.9177 162.893 52.0081 162.864C52.0985 162.834 52.1476 162.738 52.1182 162.647L51.861 161.853C51.839 161.785 51.7792 161.741 51.7126 161.735V161.735ZM58.4654 161.735C58.3988 161.741 58.3391 161.786 58.317 161.854L58.0596 162.647C58.0303 162.738 58.0794 162.835 58.1697 162.864C58.2601 162.893 58.3566 162.844 58.386 162.754L58.6433 161.96C58.6727 161.869 58.6236 161.773 58.5332 161.743C58.5107 161.736 58.4876 161.733 58.4654 161.735V161.735ZM50.6245 162.134C50.6022 162.134 50.5797 162.139 50.558 162.149C50.4711 162.188 50.4323 162.289 50.4709 162.376L51.2746 164.189C51.3132 164.276 51.4142 164.315 51.5011 164.276C51.5879 164.238 51.6268 164.136 51.5882 164.049L50.7844 162.236C50.7554 162.171 50.6914 162.133 50.6245 162.134V162.134ZM59.5658 162.14C59.4989 162.139 59.4348 162.177 59.4058 162.242L58.5996 164.054C58.5609 164.141 58.5996 164.242 58.6864 164.281C58.7732 164.32 58.8742 164.281 58.9129 164.194L59.7191 162.382C59.7579 162.295 59.7192 162.194 59.6324 162.155C59.6107 162.146 59.5881 162.141 59.5658 162.14V162.14ZM49.6145 162.67C49.5816 162.667 49.5477 162.675 49.5168 162.693C49.4345 162.74 49.4065 162.845 49.454 162.928L49.8702 163.65C49.9177 163.733 50.0223 163.761 50.1046 163.713C50.1869 163.666 50.2149 163.561 50.1674 163.478L49.7512 162.756C49.7214 162.704 49.6694 162.674 49.6145 162.67V162.67ZM60.5619 162.67C60.507 162.673 60.4551 162.704 60.4254 162.756L60.0091 163.478C59.9616 163.561 59.9897 163.666 60.072 163.713C60.1543 163.761 60.2588 163.733 60.3063 163.65L60.7225 162.928C60.77 162.845 60.742 162.74 60.6597 162.693C60.6289 162.675 60.5949 162.667 60.5619 162.67V162.67ZM48.6338 163.283C48.6008 163.284 48.5678 163.295 48.5389 163.316C48.462 163.372 48.445 163.479 48.5008 163.556L49.6628 165.162C49.7186 165.239 49.8255 165.256 49.9024 165.2C49.9794 165.144 49.9964 165.037 49.9406 164.96L48.7785 163.354C48.7436 163.306 48.6888 163.281 48.6338 163.283V163.283ZM61.5549 163.292C61.4999 163.29 61.4451 163.314 61.4102 163.363L60.246 164.967C60.19 165.044 60.2069 165.151 60.2838 165.207C60.3607 165.263 60.4676 165.246 60.5235 165.169L61.6876 163.565C61.7435 163.488 61.7266 163.381 61.6498 163.325C61.621 163.304 61.5879 163.293 61.5549 163.292V163.292ZM47.7572 164.02C47.7134 164.018 47.6687 164.032 47.6334 164.064C47.5628 164.128 47.5571 164.236 47.6207 164.307L48.1777 164.927C48.2412 164.998 48.3493 165.004 48.4199 164.94C48.4906 164.876 48.4963 164.768 48.4326 164.697L47.8758 164.077C47.844 164.042 47.801 164.022 47.7572 164.02V164.02ZM62.4205 164.021C62.3767 164.024 62.3338 164.043 62.302 164.078L61.745 164.698C61.6814 164.769 61.687 164.878 61.7577 164.941C61.8283 165.005 61.9364 164.999 62 164.929L62.557 164.308C62.6206 164.238 62.6149 164.129 62.5443 164.065C62.5089 164.034 62.4643 164.019 62.4205 164.021L62.4205 164.021ZM46.917 164.829C46.8732 164.832 46.8303 164.851 46.7985 164.886C46.735 164.957 46.7406 165.065 46.8113 165.129L48.282 166.456C48.3527 166.52 48.4607 166.514 48.5243 166.444C48.5879 166.373 48.5823 166.264 48.5116 166.201L47.0408 164.873C47.0054 164.841 46.9608 164.827 46.917 164.829L46.917 164.829ZM63.2648 164.835C63.221 164.833 63.1762 164.847 63.1409 164.879L61.6693 166.205C61.5986 166.269 61.5928 166.377 61.6563 166.448C61.7198 166.519 61.828 166.525 61.8986 166.461L63.3704 165.135C63.441 165.071 63.4468 164.963 63.3832 164.892C63.3514 164.857 63.3085 164.837 63.2648 164.835H63.2648ZM46.2183 165.73C46.1633 165.728 46.1085 165.753 46.0736 165.801C46.0177 165.878 46.0347 165.985 46.1116 166.041L46.785 166.532C46.8619 166.588 46.9687 166.571 47.0246 166.494C47.0805 166.417 47.0636 166.309 46.9867 166.253L46.3133 165.763C46.2844 165.742 46.2513 165.731 46.2183 165.73L46.2183 165.73ZM63.9628 165.736C63.9298 165.737 63.8967 165.748 63.8679 165.769L63.1941 166.259C63.1172 166.315 63.1002 166.422 63.156 166.499C63.2118 166.577 63.3187 166.594 63.3956 166.538L64.0694 166.047C64.1463 165.992 64.1633 165.884 64.1075 165.807C64.0726 165.759 64.0178 165.734 63.9628 165.736V165.736ZM45.5654 166.691C45.5105 166.694 45.4586 166.725 45.4289 166.776C45.3813 166.859 45.4093 166.964 45.4917 167.011L47.2054 168.003C47.2877 168.051 47.3923 168.023 47.4398 167.94C47.4873 167.858 47.4593 167.753 47.377 167.706L45.6632 166.713C45.6324 166.696 45.5983 166.688 45.5654 166.691V166.691ZM64.611 166.691C64.5781 166.688 64.5441 166.696 64.5132 166.714L62.7995 167.706C62.7172 167.753 62.6892 167.858 62.7367 167.94C62.7842 168.023 62.8887 168.051 62.971 168.003L64.6849 167.011C64.7672 166.964 64.7952 166.859 64.7477 166.776C64.7179 166.725 64.6659 166.695 64.611 166.691V166.691ZM45.0717 167.715C45.0049 167.713 44.9408 167.752 44.9117 167.817C44.873 167.904 44.9117 168.005 44.9985 168.044L45.7588 168.384C45.8456 168.423 45.9467 168.384 45.9854 168.297C46.0241 168.21 45.9853 168.109 45.8985 168.07L45.1383 167.73C45.1166 167.72 45.094 167.715 45.0717 167.715V167.715ZM65.108 167.722C65.0857 167.722 65.0631 167.727 65.0414 167.737L64.281 168.076C64.1941 168.115 64.1553 168.216 64.194 168.303C64.2326 168.39 64.3337 168.429 64.4205 168.391L65.181 168.051C65.2678 168.012 65.3066 167.911 65.2679 167.824C65.2389 167.759 65.1749 167.721 65.108 167.722V167.722ZM44.6318 168.785C44.5651 168.791 44.5054 168.835 44.4833 168.903C44.4539 168.994 44.5029 169.091 44.5933 169.12L46.4748 169.735C46.5652 169.764 46.6617 169.715 46.6911 169.625C46.7205 169.534 46.6715 169.437 46.5812 169.408L44.6996 168.793C44.677 168.786 44.654 168.783 44.6318 168.785V168.785ZM65.5472 168.792C65.525 168.79 65.5021 168.793 65.4794 168.8L63.5975 169.414C63.5071 169.443 63.458 169.54 63.4873 169.63C63.5167 169.721 63.6132 169.77 63.7036 169.741L65.5855 169.128C65.6759 169.098 65.725 169.001 65.6957 168.911C65.6736 168.843 65.6138 168.798 65.5472 168.792V168.792ZM44.3577 169.909C44.2777 169.908 44.2061 169.963 44.1888 170.045C44.169 170.138 44.228 170.229 44.3209 170.249L45.1352 170.423C45.2282 170.442 45.3189 170.383 45.3387 170.29C45.3584 170.197 45.2995 170.106 45.2065 170.086L44.3923 169.913C44.3807 169.91 44.3691 169.909 44.3577 169.909V169.909ZM65.8192 169.91C65.8077 169.91 65.7962 169.912 65.7846 169.914L64.9703 170.087C64.8774 170.107 64.8184 170.198 64.8382 170.291C64.8579 170.385 64.9487 170.444 65.0416 170.424L65.8558 170.25C65.9488 170.231 66.0078 170.14 65.9881 170.046C65.9708 169.965 65.8991 169.909 65.8192 169.91L65.8192 169.91ZM44.1502 171.039C44.0706 171.046 44.0051 171.109 43.9964 171.192C43.9864 171.287 44.0544 171.371 44.1489 171.381L46.1169 171.59C46.2114 171.6 46.2956 171.531 46.3056 171.437C46.3155 171.342 46.2475 171.258 46.153 171.248L44.185 171.039C44.1732 171.038 44.1616 171.038 44.1502 171.039V171.039ZM66.0281 171.054C66.0167 171.052 66.005 171.052 65.9932 171.054L64.025 171.26C63.9305 171.27 63.8624 171.354 63.8722 171.449C63.8821 171.543 63.9661 171.612 64.0607 171.602L66.0288 171.396C66.1234 171.386 66.1915 171.302 66.1817 171.207C66.173 171.124 66.1077 171.061 66.0281 171.054L66.0281 171.054ZM44.1169 172.196C44.0218 172.196 43.9453 172.272 43.9453 172.368C43.9453 172.463 44.0218 172.54 44.1169 172.54H44.9493C45.0443 172.54 45.1209 172.463 45.1209 172.368C45.1209 172.272 45.0443 172.196 44.9493 172.196H44.1169ZM65.2272 172.196C65.1321 172.196 65.0556 172.272 65.0556 172.368C65.0556 172.463 65.1321 172.54 65.2272 172.54H66.0596C66.1546 172.54 66.2312 172.463 66.2312 172.368C66.2312 172.272 66.1546 172.196 66.0596 172.196H65.2272ZM46.1507 173.133C46.1393 173.132 46.1277 173.132 46.1158 173.134L44.1476 173.339C44.0531 173.349 43.9849 173.434 43.9948 173.528C44.0046 173.623 44.0887 173.691 44.1832 173.682L46.1515 173.476C46.246 173.466 46.3141 173.382 46.3043 173.287C46.2957 173.204 46.2302 173.141 46.1507 173.133H46.1507ZM64.0248 173.146C63.9452 173.153 63.8797 173.216 63.871 173.299C63.861 173.393 63.929 173.478 64.0235 173.488L65.9915 173.696C66.086 173.706 66.1701 173.638 66.1801 173.543C66.1901 173.449 66.122 173.364 66.0275 173.354L64.0596 173.146C64.0478 173.144 64.0361 173.144 64.0247 173.146L64.0248 173.146ZM45.1696 174.308C45.1582 174.308 45.1465 174.309 45.1349 174.311L44.3206 174.485C44.2277 174.504 44.1687 174.595 44.1885 174.689C44.2082 174.782 44.299 174.841 44.392 174.821L45.2062 174.648C45.2992 174.628 45.3581 174.537 45.3384 174.444C45.3211 174.362 45.2495 174.307 45.1696 174.307L45.1696 174.308ZM65.0067 174.309C64.9267 174.308 64.8551 174.364 64.8379 174.445C64.8181 174.539 64.877 174.63 64.9699 174.649L65.7842 174.823C65.8772 174.843 65.9679 174.784 65.9877 174.691C66.0075 174.597 65.9485 174.506 65.8555 174.486L65.0413 174.313C65.0297 174.311 65.0181 174.309 65.0067 174.309L65.0067 174.309ZM46.5407 174.987C46.5185 174.985 46.4956 174.987 46.473 174.995L44.591 175.608C44.5006 175.637 44.4515 175.734 44.4809 175.825C44.5103 175.915 44.6067 175.965 44.6971 175.935L46.579 175.322C46.6694 175.292 46.7186 175.196 46.6892 175.105C46.6671 175.037 46.6074 174.992 46.5407 174.987V174.987ZM63.6339 174.993C63.5673 174.998 63.5075 175.043 63.4854 175.111C63.456 175.202 63.505 175.298 63.5954 175.328L65.4769 175.942C65.5673 175.972 65.6638 175.923 65.6932 175.832C65.7227 175.742 65.6737 175.645 65.5833 175.615L63.7017 175.001C63.6791 174.993 63.6561 174.991 63.6339 174.993V174.993ZM45.8226 176.33C45.8003 176.33 45.7777 176.335 45.756 176.345L44.9955 176.684C44.9087 176.723 44.8699 176.824 44.9086 176.911C44.9472 176.999 45.0482 177.037 45.1351 176.999L45.8956 176.659C45.9824 176.62 46.0212 176.519 45.9825 176.432C45.9535 176.367 45.8894 176.329 45.8226 176.33V176.33ZM64.3512 176.337C64.2843 176.335 64.2202 176.373 64.1911 176.439C64.1524 176.526 64.1911 176.627 64.2779 176.666L65.0381 177.006C65.1249 177.045 65.226 177.006 65.2647 176.919C65.3034 176.832 65.2647 176.73 65.1779 176.692L64.4177 176.352C64.396 176.342 64.3734 176.337 64.3512 176.337V176.337ZM47.3032 176.709C47.2703 176.707 47.2363 176.714 47.2054 176.732L45.4917 177.724C45.4093 177.772 45.3813 177.877 45.4289 177.959C45.4764 178.042 45.5809 178.07 45.6632 178.022L47.377 177.03C47.4593 176.982 47.4873 176.878 47.4398 176.795C47.4101 176.743 47.3581 176.713 47.3032 176.709V176.709ZM62.8733 176.709C62.8184 176.713 62.7664 176.743 62.7367 176.795C62.6892 176.878 62.7172 176.982 62.7995 177.03L64.5132 178.022C64.5956 178.07 64.7001 178.042 64.7477 177.959C64.7952 177.876 64.7672 177.772 64.6849 177.724L62.971 176.732C62.9402 176.714 62.9062 176.707 62.8733 176.709V176.709ZM46.8758 178.165C46.8428 178.166 46.8097 178.177 46.7809 178.198L46.1071 178.688C46.0302 178.744 46.0132 178.851 46.069 178.928C46.1248 179.005 46.2317 179.022 46.3086 178.966L46.9824 178.476C47.0593 178.42 47.0763 178.313 47.0205 178.236C46.9856 178.188 46.9308 178.163 46.8758 178.165V178.165ZM63.2966 178.171C63.2416 178.169 63.1868 178.194 63.1519 178.242C63.096 178.319 63.1129 178.426 63.1898 178.482L63.8633 178.973C63.9402 179.029 64.047 179.012 64.1029 178.935C64.1588 178.857 64.1419 178.75 64.065 178.694L63.3915 178.204C63.3627 178.183 63.3296 178.172 63.2966 178.171L63.2966 178.171ZM48.4017 178.23C48.3579 178.228 48.3132 178.242 48.2779 178.274L46.8062 179.601C46.7355 179.664 46.7297 179.773 46.7933 179.843C46.8568 179.914 46.9649 179.92 47.0356 179.856L48.5073 178.53C48.578 178.466 48.5837 178.358 48.5202 178.287C48.4884 178.252 48.4455 178.233 48.4017 178.23ZM61.7707 178.235C61.7269 178.237 61.6839 178.256 61.6521 178.292C61.5886 178.363 61.5942 178.471 61.6649 178.535L63.1356 179.862C63.2063 179.926 63.3144 179.92 63.378 179.849C63.4416 179.779 63.4359 179.67 63.3653 179.606L61.8944 178.279C61.8591 178.247 61.8145 178.233 61.7707 178.235V178.235ZM49.7979 179.495C49.7429 179.493 49.688 179.518 49.653 179.566L48.4889 181.17C48.433 181.247 48.4498 181.354 48.5267 181.41C48.6035 181.467 48.7104 181.45 48.7663 181.373L49.9305 179.768C49.9864 179.691 49.9696 179.584 49.8927 179.528C49.8639 179.507 49.8309 179.496 49.7979 179.495ZM60.369 179.502C60.336 179.503 60.303 179.514 60.2741 179.535C60.1972 179.591 60.1802 179.698 60.2359 179.775L61.3979 181.381C61.4537 181.458 61.5606 181.475 61.6375 181.419C61.7145 181.363 61.7315 181.256 61.6757 181.179L60.5137 179.573C60.4788 179.525 60.424 179.5 60.369 179.502V179.502ZM48.2951 179.75C48.2513 179.752 48.2083 179.771 48.1765 179.807L47.6196 180.427C47.556 180.498 47.5616 180.606 47.6322 180.67C47.7029 180.734 47.8109 180.728 47.8745 180.657L48.4315 180.037C48.4951 179.966 48.4894 179.858 48.4188 179.794C48.3835 179.762 48.3389 179.748 48.2951 179.75L48.2951 179.75ZM61.8804 179.751C61.8366 179.748 61.792 179.763 61.7566 179.795C61.686 179.859 61.6803 179.967 61.7439 180.038L62.3008 180.658C62.3644 180.729 62.4724 180.735 62.543 180.671C62.6137 180.607 62.6194 180.499 62.5558 180.428L61.9989 179.808C61.9671 179.772 61.9241 179.753 61.8803 179.751L61.8804 179.751ZM51.4235 180.439C51.3567 180.437 51.2926 180.476 51.2636 180.541L50.4573 182.353C50.4186 182.44 50.4573 182.541 50.5441 182.58C50.6309 182.619 50.732 182.58 50.7707 182.493L51.577 180.681C51.6157 180.594 51.577 180.493 51.4902 180.454C51.4685 180.444 51.4458 180.439 51.4235 180.439ZM58.742 180.444C58.7198 180.444 58.6971 180.449 58.6754 180.459C58.5886 180.497 58.5497 180.599 58.5883 180.686L59.3921 182.499C59.4307 182.586 59.5317 182.625 59.6186 182.586C59.7054 182.547 59.7443 182.446 59.7057 182.359L58.9019 180.546C58.873 180.481 58.8089 180.443 58.742 180.444V180.444ZM50.0068 180.999C49.9519 181.003 49.8999 181.033 49.8702 181.085L49.454 181.808C49.4065 181.89 49.4345 181.995 49.5168 182.042C49.5991 182.09 49.7036 182.062 49.7512 181.98L50.1674 181.257C50.2149 181.174 50.1869 181.069 50.1046 181.022C50.0737 181.004 50.0397 180.997 50.0068 180.999V180.999ZM60.1697 180.999C60.1368 180.997 60.1028 181.004 60.072 181.022C59.9897 181.069 59.9616 181.174 60.0092 181.257L60.4254 181.98C60.4729 182.062 60.5774 182.09 60.6597 182.042C60.742 181.995 60.77 181.89 60.7225 181.808L60.3063 181.085C60.2766 181.033 60.2246 181.003 60.1697 180.999V180.999ZM53.2184 181.025C53.1385 181.024 53.0669 181.08 53.0496 181.161L52.6384 183.102C52.6186 183.195 52.6776 183.286 52.7706 183.306C52.8635 183.326 52.9543 183.267 52.974 183.173L53.3853 181.233C53.405 181.139 53.3461 181.049 53.2531 181.029C53.2415 181.026 53.2299 181.025 53.2185 181.025L53.2184 181.025ZM56.9519 181.026C56.9405 181.026 56.929 181.027 56.9174 181.03C56.8244 181.05 56.7654 181.14 56.785 181.234L57.1949 183.175C57.2146 183.268 57.3053 183.327 57.3983 183.307C57.4913 183.288 57.5503 183.197 57.5306 183.103L57.1207 181.163C57.1035 181.081 57.0319 181.025 56.952 181.026L56.9519 181.026ZM55.0882 181.222C54.9932 181.222 54.9167 181.299 54.9167 181.394V183.378C54.9167 183.473 54.9932 183.55 55.0882 183.55C55.1833 183.55 55.2598 183.473 55.2598 183.378V181.394C55.2598 181.299 55.1833 181.222 55.0882 181.222ZM51.939 181.863C51.8723 181.869 51.8125 181.913 51.7905 181.981L51.5332 182.775C51.5038 182.866 51.5529 182.962 51.6433 182.992C51.7337 183.021 51.8301 182.972 51.8595 182.881L52.1168 182.088C52.1462 181.997 52.0971 181.9 52.0067 181.871C51.9841 181.864 51.9612 181.861 51.939 181.863V181.863ZM58.2362 181.863C58.214 181.861 58.191 181.864 58.1684 181.871C58.078 181.901 58.0289 181.997 58.0582 182.088L58.3155 182.882C58.3449 182.972 58.4413 183.022 58.5317 182.992C58.6221 182.963 58.6712 182.866 58.6419 182.775L58.3846 181.982C58.3625 181.914 58.3028 181.869 58.2362 181.863V181.863ZM54.0113 182.305C53.9318 182.313 53.8662 182.376 53.8575 182.459L53.7705 183.289C53.7606 183.383 53.8287 183.468 53.9232 183.478C54.0177 183.488 54.1019 183.419 54.1118 183.325L54.1988 182.495C54.2087 182.4 54.1406 182.316 54.0461 182.306C54.0343 182.304 54.0227 182.304 54.0113 182.305L54.0113 182.305ZM56.1583 182.306C56.1469 182.305 56.1352 182.305 56.1234 182.306C56.0288 182.316 55.9607 182.401 55.9705 182.495L56.057 183.325C56.0669 183.42 56.1509 183.489 56.2455 183.479C56.34 183.469 56.4082 183.384 56.3983 183.29L56.3119 182.46C56.3032 182.377 56.2378 182.314 56.1582 182.306L56.1583 182.306Z" fill="#F4F2F3"/>
<g opacity="0.409" filter="url(#filter2_f)">
<path d="M63.13 165.488L53.7434 170.955L47.8086 180.323L56.4908 173.875L63.13 165.488Z" fill="black"/>
</g>
<path d="M56.4327 173.78L53.7422 170.956L63.2863 164.519L56.4327 173.78Z" fill="#FF5F85"/>
<path d="M56.4331 173.78L53.7426 170.956L46.8889 180.217L56.4331 173.78Z" fill="#F1F1F1"/>
<path opacity="0.243" d="M46.8867 180.219L56.4309 173.782L63.2846 164.52L46.8867 180.219Z" fill="black"/>
<rect x="80.1445" y="219.685" width="94.075" height="6.15545" rx="3.07773" fill="#EFF0F7"/>
<rect x="80.1484" y="219.685" width="19.7052" height="6.15545" rx="3.07773" fill="#596AFF"/>
<rect x="80.1484" y="207.99" width="61.1665" height="6.15545" rx="3.07773" fill="#D9DBE9"/>
<g filter="url(#filter3_d)">
<ellipse cx="55.4749" cy="216.915" rx="17.3049" ry="17.3494" fill="#FF0000" fill-opacity="0.01"/>
</g>
<ellipse cx="55.0881" cy="216.915" rx="17.3049" ry="17.3494" fill="white"/>
<path d="M66.6703 212.842C66.1385 211.568 65.0748 210.198 64.2364 209.768C64.8334 210.926 65.2481 212.169 65.4658 213.453V213.475C64.0987 210.047 61.7743 208.667 59.8754 205.656C59.7753 205.506 59.6814 205.352 59.5876 205.192C59.5344 205.098 59.4937 205.016 59.4531 204.941C59.374 204.788 59.3131 204.626 59.2716 204.458C59.2718 204.451 59.2693 204.444 59.2648 204.438C59.2602 204.432 59.2538 204.428 59.2466 204.427C59.2365 204.423 59.2254 204.423 59.2153 204.427V204.433C59.2153 204.439 59.2059 204.433 59.2059 204.433V204.427C56.1651 206.214 55.1296 209.527 55.0358 211.179C53.8189 211.264 52.6556 211.714 51.6978 212.472C51.5979 212.387 51.4934 212.307 51.3849 212.233C51.1081 211.261 51.0973 210.232 51.3536 209.254C50.2337 209.797 49.2386 210.569 48.4317 211.518C47.9468 210.91 47.9812 208.896 48.0094 208.476C47.8667 208.532 47.7303 208.604 47.6027 208.689C47.1771 208.993 46.7793 209.334 46.4139 209.708C46.0012 210.131 45.6245 210.587 45.2877 211.073C44.5082 212.181 43.9554 213.432 43.6609 214.755L43.639 214.84C43.6171 214.943 43.5326 215.48 43.5201 215.592V215.624C43.415 216.177 43.3502 216.736 43.3262 217.299V217.361C43.3311 220.403 44.4734 223.333 46.5276 225.572C48.5818 227.811 51.3986 229.196 54.4218 229.455C57.4451 229.713 60.4552 228.826 62.8578 226.968C65.2603 225.11 66.8808 222.416 67.3992 219.419C67.4211 219.262 67.4367 219.105 67.4555 218.948C67.7066 216.879 67.4378 214.78 66.6734 212.842H66.6703ZM52.6957 222.355C52.752 222.386 52.8052 222.417 52.8615 222.439L52.8709 222.446C52.8146 222.416 52.7572 222.385 52.6989 222.351L52.6957 222.355ZM65.469 213.472V213.463V213.475V213.472Z" fill="url(#paint1_linear)"/>
<path d="M66.6703 212.842C66.1385 211.568 65.0748 210.198 64.2364 209.768C64.8334 210.925 65.2481 212.168 65.4658 213.453V213.478C66.4011 216.159 66.2666 219.099 65.0904 221.683C63.7014 224.672 60.3353 227.736 55.0702 227.586C49.3828 227.429 44.3711 223.195 43.4325 217.65C43.2636 216.771 43.4325 216.332 43.5201 215.62C43.4037 216.171 43.3387 216.732 43.3262 217.295V217.358C43.3311 220.4 44.4734 223.33 46.5276 225.569C48.5818 227.807 51.3986 229.193 54.4218 229.451C57.4451 229.71 60.4552 228.822 62.8578 226.964C65.2603 225.106 66.8808 222.413 67.3992 219.416C67.4211 219.259 67.4367 219.102 67.4555 218.945C67.7066 216.876 67.4378 214.777 66.6734 212.838L66.6703 212.842Z" fill="url(#paint2_radial)"/>
<path d="M66.6703 212.842C66.1385 211.568 65.0748 210.198 64.2364 209.768C64.8334 210.925 65.2481 212.168 65.4658 213.453V213.478C66.4011 216.159 66.2666 219.099 65.0904 221.683C63.7014 224.672 60.3353 227.736 55.0702 227.586C49.3828 227.429 44.3711 223.195 43.4325 217.65C43.2636 216.771 43.4325 216.332 43.5201 215.62C43.4037 216.171 43.3387 216.732 43.3262 217.295V217.358C43.3311 220.4 44.4734 223.33 46.5276 225.569C48.5818 227.807 51.3986 229.193 54.4218 229.451C57.4451 229.71 60.4552 228.822 62.8578 226.964C65.2603 225.106 66.8808 222.413 67.3992 219.416C67.4211 219.259 67.4367 219.102 67.4555 218.945C67.7066 216.876 67.4378 214.777 66.6734 212.838L66.6703 212.842Z" fill="url(#paint3_radial)"/>
<path d="M60.7765 214.268C60.8078 214.287 60.8266 214.306 60.8516 214.325C60.5472 213.783 60.168 213.287 59.7254 212.851C55.9588 209.074 58.74 204.658 59.2092 204.436V204.426C56.1684 206.214 55.1329 209.526 55.0391 211.179C55.1798 211.17 55.3206 211.16 55.4645 211.16C56.5445 211.162 57.6048 211.45 58.5378 211.995C59.4708 212.541 60.2432 213.324 60.7765 214.265V214.268Z" fill="url(#paint4_radial)"/>
<path d="M55.4712 215.027C55.4493 215.325 54.3856 216.37 54.0102 216.37C50.5627 216.37 50.0059 218.459 50.0059 218.459C50.156 220.221 51.3824 221.67 52.859 222.442L53.0654 222.536C53.1843 222.588 53.3032 222.637 53.4221 222.683C53.9294 222.864 54.4609 222.968 54.9988 222.991C61.0429 223.273 62.2129 215.746 57.8519 213.56C58.8806 213.427 59.9218 213.682 60.7738 214.275C60.2404 213.333 59.4681 212.55 58.5351 212.005C57.6021 211.459 56.5418 211.171 55.4618 211.17C55.3179 211.17 55.1802 211.176 55.0363 211.185C53.8194 211.27 52.6562 211.72 51.6983 212.477C51.886 212.634 52.0925 212.841 52.5336 213.277C53.3564 214.093 55.4649 214.93 55.4743 215.034L55.4712 215.027Z" fill="url(#paint5_radial)"/>
<path d="M55.4712 215.027C55.4493 215.325 54.3856 216.37 54.0102 216.37C50.5627 216.37 50.0059 218.459 50.0059 218.459C50.156 220.221 51.3824 221.67 52.859 222.442L53.0654 222.536C53.1843 222.588 53.3032 222.637 53.4221 222.683C53.9294 222.864 54.4609 222.968 54.9988 222.991C61.0429 223.273 62.2129 215.746 57.8519 213.56C58.8806 213.427 59.9218 213.682 60.7738 214.275C60.2404 213.333 59.4681 212.55 58.5351 212.005C57.6021 211.459 56.5418 211.171 55.4618 211.17C55.3179 211.17 55.1802 211.176 55.0363 211.185C53.8194 211.27 52.6562 211.72 51.6983 212.477C51.886 212.634 52.0925 212.841 52.5336 213.277C53.3564 214.093 55.4649 214.93 55.4743 215.034L55.4712 215.027Z" fill="url(#paint6_radial)"/>
<path d="M51.1404 212.067C51.2343 212.129 51.3188 212.183 51.3907 212.233C51.1139 211.26 51.103 210.231 51.3594 209.253C50.2395 209.797 49.2444 210.568 48.4375 211.518C48.5001 211.518 50.252 211.486 51.1404 212.063V212.067Z" fill="url(#paint7_radial)"/>
<path d="M43.4374 217.65C44.3759 223.192 49.3814 227.426 55.075 227.586C60.3401 227.737 63.7032 224.669 65.0922 221.683C66.2684 219.099 66.4029 216.159 65.4676 213.478V213.466V213.453L65.4738 213.475C65.8993 216.292 64.4728 219.017 62.2391 220.861L62.2297 220.877C57.8812 224.431 53.7204 223.022 52.8758 222.445C52.8132 222.418 52.7538 222.389 52.6975 222.358C50.1635 221.144 49.1123 218.826 49.3376 216.837C48.7356 216.847 48.1439 216.68 47.6341 216.359C47.1244 216.038 46.7185 215.575 46.4657 215.028C47.1317 214.619 47.8911 214.388 48.6715 214.356C49.4518 214.325 50.2272 214.495 50.9237 214.849C52.3586 215.501 53.9909 215.565 55.4723 215.028C55.4661 214.927 53.3576 214.087 52.5317 213.271C52.0937 212.838 51.8872 212.631 51.6995 212.475C51.5996 212.39 51.4952 212.31 51.3867 212.236C51.3147 212.186 51.2365 212.133 51.1364 212.07C50.2542 211.493 48.496 211.524 48.4366 211.524H48.4303C47.9517 210.916 47.983 208.902 48.0111 208.482C47.8684 208.538 47.7321 208.61 47.6044 208.695C47.1787 209 46.7809 209.342 46.4156 209.718C45.9999 210.139 45.62 210.594 45.28 211.079C44.5006 212.187 43.9477 213.438 43.6533 214.761C43.647 214.786 43.2153 216.674 43.428 217.653L43.4374 217.65Z" fill="url(#paint8_radial)"/>
<path d="M59.727 212.851C60.1697 213.287 60.5488 213.783 60.8533 214.325C60.9158 214.378 60.9784 214.429 61.0347 214.476C63.7877 217.016 62.3486 220.607 62.2391 220.865C64.4697 219.02 65.8994 216.295 65.4708 213.478C64.0943 210.05 61.773 208.67 59.8709 205.659C59.7771 205.509 59.6832 205.355 59.5894 205.195C59.5362 205.101 59.4955 205.019 59.4549 204.944C59.3745 204.79 59.3125 204.627 59.2703 204.458C59.2704 204.451 59.268 204.443 59.2634 204.438C59.2589 204.432 59.2524 204.428 59.2453 204.426C59.2352 204.423 59.2241 204.423 59.214 204.426V204.433C59.214 204.439 59.2046 204.433 59.2046 204.433C58.7353 204.659 55.9511 209.075 59.7239 212.851H59.727Z" fill="url(#paint9_radial)"/>
<path d="M61.0335 214.476C60.9803 214.425 60.9177 214.375 60.852 214.325L60.777 214.269C59.9237 213.676 58.8812 213.422 57.8519 213.557C62.2129 215.746 61.0429 223.28 54.9988 222.991C54.4621 222.969 53.9317 222.866 53.4252 222.687C53.3063 222.645 53.1875 222.597 53.0686 222.543C52.9998 222.511 52.9341 222.48 52.8652 222.448H52.8746C53.7193 223.026 57.8801 224.437 62.2348 220.88L62.241 220.868C62.3505 220.617 63.7896 217.019 61.0397 214.482L61.0335 214.476Z" fill="url(#paint10_radial)"/>
<path d="M50.0074 218.459C50.0074 218.459 50.5705 216.37 54.0117 216.37C54.3871 216.37 55.4508 215.325 55.4758 215.021C53.9929 215.562 52.358 215.499 50.9209 214.846C50.2244 214.491 49.449 214.322 48.6687 214.353C47.8883 214.384 47.1289 214.615 46.4629 215.024C46.7166 215.573 47.1237 216.035 47.6346 216.356C48.1455 216.676 48.7383 216.842 49.341 216.831C49.1126 218.819 50.1607 221.137 52.6978 222.351C52.7541 222.382 52.8073 222.408 52.8636 222.436C51.3839 221.667 50.1607 220.218 50.0074 218.452V218.459Z" fill="url(#paint11_radial)"/>
<path d="M66.6707 212.842C66.1388 211.569 65.0752 210.198 64.2368 209.768C64.8338 210.926 65.2485 212.169 65.4662 213.454V213.476C64.0991 210.047 61.7747 208.667 59.8758 205.656C59.7757 205.506 59.6818 205.352 59.588 205.192C59.5348 205.098 59.4941 205.017 59.4535 204.941C59.3744 204.788 59.3135 204.626 59.272 204.458C59.2722 204.451 59.2697 204.444 59.2652 204.438C59.2606 204.432 59.2542 204.428 59.247 204.427C59.2369 204.423 59.2258 204.423 59.2157 204.427V204.433C59.2157 204.44 59.2063 204.433 59.2063 204.433V204.427C56.1655 206.215 55.13 209.527 55.0362 211.18C55.1769 211.17 55.3177 211.161 55.4616 211.161C56.5416 211.162 57.6019 211.451 58.5349 211.996C59.4679 212.541 60.2403 213.324 60.7736 214.266C59.9208 213.675 58.8796 213.423 57.8517 213.557C62.2127 215.746 61.0427 223.28 54.9986 222.992C54.4609 222.97 53.9294 222.867 53.4219 222.687C53.303 222.645 53.1842 222.597 53.0653 222.543L52.8588 222.449H52.8682C52.8119 222.422 52.7545 222.392 52.6961 222.361C52.7524 222.392 52.8056 222.424 52.8619 222.446C51.3822 221.677 50.159 220.228 50.0057 218.463C50.0057 218.463 50.5688 216.377 54.0101 216.377C54.3855 216.377 55.4491 215.332 55.4741 215.028C55.4679 214.934 53.3593 214.087 52.5334 213.278C52.0955 212.839 51.8859 212.635 51.7013 212.478C51.6014 212.393 51.4969 212.314 51.3885 212.24C51.1116 211.267 51.1008 210.238 51.3572 209.26C50.2372 209.804 49.2422 210.575 48.4352 211.525C47.9503 210.916 47.9848 208.903 48.0129 208.482C47.8702 208.539 47.7339 208.61 47.6062 208.696C47.1807 209 46.7828 209.341 46.4174 209.715C46.0048 210.138 45.628 210.594 45.2912 211.079C44.5118 212.187 43.9589 213.438 43.6644 214.762L43.6394 214.84C43.6175 214.943 43.5143 215.489 43.4986 215.605C43.4053 216.166 43.3458 216.731 43.3203 217.299V217.362C43.3252 220.404 44.4675 223.333 46.5217 225.572C48.5759 227.811 51.3927 229.197 54.416 229.455C57.4393 229.713 60.4493 228.826 62.8519 226.968C65.2545 225.11 66.8749 222.416 67.3933 219.419C67.4152 219.262 67.4309 219.105 67.4496 218.949C67.7008 216.88 67.4319 214.78 66.6675 212.842H66.6707ZM65.4662 213.469V213.479V213.469Z" fill="url(#paint12_linear)"/>
<rect x="38.2031" y="92.9961" width="49.7602" height="7.38654" rx="3.69327" fill="#D9DBE9"/>
<rect x="21.8223" y="394.72" width="168.362" height="38.4184" rx="19.2092" fill="#4457FF"/>
<path opacity="0.4" d="M148.331 413.929L143.134 419.139M137.504 413.929H148.331H137.504ZM148.331 413.929L143.134 408.718L148.331 413.929Z" stroke="white" stroke-width="3.48971" stroke-linecap="round" stroke-linejoin="round"/>
<rect x="63.668" y="410.851" width="67.6517" height="6.15545" rx="3.07773" fill="white" fill-opacity="0.4"/>
<defs>
<filter id="filter0_d" x="28.769" y="104.23" width="52.6384" height="52.7273" filterUnits="userSpaceOnUse" color-interpolation-filters="sRGB">
<feFlood flood-opacity="0" result="BackgroundImageFix"/>
<feColorMatrix in="SourceAlpha" type="matrix" values="0 0 0 0 0 0 0 0 0 0 0 0 0 0 0 0 0 0 127 0" result="hardAlpha"/>
<feOffset dy="2.77361"/>
<feGaussianBlur stdDeviation="4.50712"/>
<feColorMatrix type="matrix" values="0 0 0 0 0.0423448 0 0 0 0 0.0391396 0 0 0 0 0.199398 0 0 0 0.07 0"/>
<feBlend mode="normal" in2="BackgroundImageFix" result="effect1_dropShadow"/>
<feBlend mode="normal" in="SourceGraphic" in2="effect1_dropShadow" result="shape"/>
</filter>
<filter id="filter1_d" x="28.769" y="148.778" width="52.6384" height="52.7273" filterUnits="userSpaceOnUse" color-interpolation-filters="sRGB">
<feFlood flood-opacity="0" result="BackgroundImageFix"/>
<feColorMatrix in="SourceAlpha" type="matrix" values="0 0 0 0 0 0 0 0 0 0 0 0 0 0 0 0 0 0 127 0" result="hardAlpha"/>
<feOffset dy="2.77361"/>
<feGaussianBlur stdDeviation="4.50712"/>
<feColorMatrix type="matrix" values="0 0 0 0 0.0423448 0 0 0 0 0.0391396 0 0 0 0 0.199398 0 0 0 0.07 0"/>
<feBlend mode="normal" in2="BackgroundImageFix" result="effect1_dropShadow"/>
<feBlend mode="normal" in="SourceGraphic" in2="effect1_dropShadow" result="shape"/>
</filter>
<filter id="filter2_f" x="47.5329" y="165.212" width="15.8729" height="15.3862" filterUnits="userSpaceOnUse" color-interpolation-filters="sRGB">
<feFlood flood-opacity="0" result="BackgroundImageFix"/>
<feBlend mode="normal" in="SourceGraphic" in2="BackgroundImageFix" result="shape"/>
<feGaussianBlur stdDeviation="0.137867" result="effect1_foregroundBlur"/>
</filter>
<filter id="filter3_d" x="29.1557" y="193.325" width="52.6384" height="52.7273" filterUnits="userSpaceOnUse" color-interpolation-filters="sRGB">
<feFlood flood-opacity="0" result="BackgroundImageFix"/>
<feColorMatrix in="SourceAlpha" type="matrix" values="0 0 0 0 0 0 0 0 0 0 0 0 0 0 0 0 0 0 127 0" result="hardAlpha"/>
<feOffset dy="2.77361"/>
<feGaussianBlur stdDeviation="4.50712"/>
<feColorMatrix type="matrix" values="0 0 0 0 0.0423448 0 0 0 0 0.0391396 0 0 0 0 0.199398 0 0 0 0.07 0"/>
<feBlend mode="normal" in2="BackgroundImageFix" result="effect1_dropShadow"/>
<feBlend mode="normal" in="SourceGraphic" in2="effect1_dropShadow" result="shape"/>
</filter>
<radialGradient id="paint0_radial" cx="0" cy="0" r="1" gradientUnits="userSpaceOnUse" gradientTransform="translate(55.1412 170.648) scale(12.7679 12.8007)">
<stop stop-color="#06C2E7"/>
<stop offset="0.25" stop-color="#0DB8EC"/>
<stop offset="0.5" stop-color="#12AEF1"/>
<stop offset="0.75" stop-color="#1F86F9"/>
<stop offset="1" stop-color="#107DDD"/>
</radialGradient>
<linearGradient id="paint1_linear" x1="65.0763" y1="208.31" x2="44.2767" y2="227.049" gradientUnits="userSpaceOnUse">
<stop offset="0.048" stop-color="#FFF44F"/>
<stop offset="0.111" stop-color="#FFE847"/>
<stop offset="0.225" stop-color="#FFC830"/>
<stop offset="0.368" stop-color="#FF980E"/>
<stop offset="0.401" stop-color="#FF8B16"/>
<stop offset="0.462" stop-color="#FF672A"/>
<stop offset="0.534" stop-color="#FF3647"/>
<stop offset="0.705" stop-color="#E31587"/>
</linearGradient>
<radialGradient id="paint2_radial" cx="0" cy="0" r="1" gradientUnits="userSpaceOnUse" gradientTransform="translate(64.5408 207.211) scale(25.2765 25.3415)">
<stop offset="0.129" stop-color="#FFBD4F"/>
<stop offset="0.186" stop-color="#FFAC31"/>
<stop offset="0.247" stop-color="#FF9D17"/>
<stop offset="0.283" stop-color="#FF980E"/>
<stop offset="0.403" stop-color="#FF563B"/>
<stop offset="0.467" stop-color="#FF3750"/>
<stop offset="0.71" stop-color="#F5156C"/>
<stop offset="0.782" stop-color="#EB0878"/>
<stop offset="0.86" stop-color="#E50080"/>
</radialGradient>
<radialGradient id="paint3_radial" cx="0" cy="0" r="1" gradientUnits="userSpaceOnUse" gradientTransform="translate(55.3045 217.572) scale(25.2765 25.3415)">
<stop offset="0.3" stop-color="#960E18"/>
<stop offset="0.351" stop-color="#B11927" stop-opacity="0.74"/>
<stop offset="0.435" stop-color="#DB293D" stop-opacity="0.343"/>
<stop offset="0.497" stop-color="#F5334B" stop-opacity="0.094"/>
<stop offset="0.53" stop-color="#FF3750" stop-opacity="0"/>
</radialGradient>
<radialGradient id="paint4_radial" cx="0" cy="0" r="1" gradientUnits="userSpaceOnUse" gradientTransform="translate(58.352 201.46) scale(18.3118 18.3588)">
<stop offset="0.132" stop-color="#FFF44F"/>
<stop offset="0.252" stop-color="#FFDC3E"/>
<stop offset="0.506" stop-color="#FF9D12"/>
<stop offset="0.526" stop-color="#FF980E"/>
</radialGradient>
<radialGradient id="paint5_radial" cx="0" cy="0" r="1" gradientUnits="userSpaceOnUse" gradientTransform="translate(52.5061 224.191) scale(12.0353 12.0662)">
<stop offset="0.353" stop-color="#3A8EE6"/>
<stop offset="0.472" stop-color="#5C79F0"/>
<stop offset="0.669" stop-color="#9059FF"/>
<stop offset="1" stop-color="#C139E6"/>
</radialGradient>
<radialGradient id="paint6_radial" cx="0" cy="0" r="1" gradientUnits="userSpaceOnUse" gradientTransform="translate(56.6832 215.494) rotate(-13.6252) scale(6.38193 7.48872)">
<stop offset="0.206" stop-color="#9059FF" stop-opacity="0"/>
<stop offset="0.278" stop-color="#8C4FF3" stop-opacity="0.064"/>
<stop offset="0.747" stop-color="#7716A8" stop-opacity="0.45"/>
<stop offset="0.975" stop-color="#6E008B" stop-opacity="0.6"/>
</radialGradient>
<radialGradient id="paint7_radial" cx="0" cy="0" r="1" gradientUnits="userSpaceOnUse" gradientTransform="translate(54.9881 206.174) scale(8.65816 8.6804)">
<stop stop-color="#FFE226"/>
<stop offset="0.121" stop-color="#FFDB27"/>
<stop offset="0.295" stop-color="#FFC82A"/>
<stop offset="0.502" stop-color="#FFA930"/>
<stop offset="0.732" stop-color="#FF7E37"/>
<stop offset="0.792" stop-color="#FF7139"/>
</radialGradient>
<radialGradient id="paint8_radial" cx="0" cy="0" r="1" gradientUnits="userSpaceOnUse" gradientTransform="translate(61.7927 200.669) scale(36.9404 37.0354)">
<stop offset="0.113" stop-color="#FFF44F"/>
<stop offset="0.456" stop-color="#FF980E"/>
<stop offset="0.622" stop-color="#FF5634"/>
<stop offset="0.716" stop-color="#FF3647"/>
<stop offset="0.904" stop-color="#E31587"/>
</radialGradient>
<radialGradient id="paint9_radial" cx="0" cy="0" r="1" gradientUnits="userSpaceOnUse" gradientTransform="translate(58.6761 202.728) rotate(83.9913) scale(27.1433 17.7693)">
<stop stop-color="#FFF44F"/>
<stop offset="0.06" stop-color="#FFE847"/>
<stop offset="0.168" stop-color="#FFC830"/>
<stop offset="0.304" stop-color="#FF980E"/>
<stop offset="0.356" stop-color="#FF8B16"/>
<stop offset="0.455" stop-color="#FF672A"/>
<stop offset="0.57" stop-color="#FF3647"/>
<stop offset="0.737" stop-color="#E31587"/>
</radialGradient>
<radialGradient id="paint10_radial" cx="0" cy="0" r="1" gradientUnits="userSpaceOnUse" gradientTransform="translate(54.782 209.39) scale(23.0626 23.1218)">
<stop offset="0.137" stop-color="#FFF44F"/>
<stop offset="0.48" stop-color="#FF980E"/>
<stop offset="0.592" stop-color="#FF5634"/>
<stop offset="0.655" stop-color="#FF3647"/>
<stop offset="0.904" stop-color="#E31587"/>
</radialGradient>
<radialGradient id="paint11_radial" cx="0" cy="0" r="1" gradientUnits="userSpaceOnUse" gradientTransform="translate(60.8714 210.743) scale(25.2418 25.3066)">
<stop offset="0.094" stop-color="#FFF44F"/>
<stop offset="0.231" stop-color="#FFE141"/>
<stop offset="0.509" stop-color="#FFAF1E"/>
<stop offset="0.626" stop-color="#FF980E"/>
</radialGradient>
<linearGradient id="paint12_linear" x1="64.8282" y1="208.21" x2="47.1071" y2="224.748" gradientUnits="userSpaceOnUse">
<stop offset="0.167" stop-color="#FFF44F" stop-opacity="0.8"/>
<stop offset="0.266" stop-color="#FFF44F" stop-opacity="0.634"/>
<stop offset="0.489" stop-color="#FFF44F" stop-opacity="0.217"/>
<stop offset="0.6" stop-color="#FFF44F" stop-opacity="0"/>
</linearGradient>
</defs>
</svg>
