<svg width="244" height="474" viewBox="0 0 244 474" fill="none" xmlns="http://www.w3.org/2000/svg">
<path d="M82.8954 466.01V451.454L56.7956 451.266L56.5742 473.28L58.1916 473.399C65.3934 473.859 94.8302 474.54 99.6654 473.042C105.045 471.373 82.8954 466.01 82.8954 466.01Z" fill="#596AFF"/>
<path d="M147.167 466.01V451.454L121.067 451.266L120.846 473.059L122.463 473.178C129.665 473.638 159.119 474.54 163.937 473.042C169.317 471.373 147.167 466.01 147.167 466.01Z" fill="#596AFF"/>
<path d="M243.326 33.7363C242.645 33.0383 240.96 33.3788 240.96 33.3788C241.129 32.3985 241.129 31.3966 240.96 30.4164C240.653 29.463 238.508 29.6502 238.508 29.6502C238.409 28.8474 238.409 28.0354 238.508 27.2326C238.525 27.0547 238.487 26.8758 238.399 26.7204C238.31 26.565 238.176 26.4406 238.015 26.3643C237 25.9505 235.909 25.7533 234.814 25.7855C233.503 24.8491 238.815 17.409 240.79 15.0254C242.765 12.6419 242.407 10.7861 240.653 10.7861C239.445 10.7861 233.247 17.9368 231.341 20.3374C229.434 22.7379 224.377 29.4119 224.207 24.0829C224.037 18.754 221.892 14.736 220.547 14.055C219.202 13.374 217.771 14.9743 218.504 16.4556C219.147 18.1384 219.548 19.9039 219.695 21.6994C219.88 23.1296 219.817 24.5811 219.508 25.9898C218.944 28.6109 218.175 31.1839 217.21 33.6852H217.073C217.073 33.6852 179.924 69.3193 177.234 71.8561C174.833 74.1375 126.55 69.1491 116.862 68.1275C113.57 67.6458 110.246 67.4182 106.919 67.4465C102.714 67.6338 101.965 68.2297 97.7766 68.2808C87.1995 68.3982 76.647 69.326 66.2116 71.0559C61.4865 71.8592 57.0727 73.9449 53.4519 77.0853C49.8311 80.2258 47.1423 84.3003 45.679 88.8644C35.9235 119.34 13.8246 191.476 9.92576 231.997C6.97962 237.339 4.31991 242.835 1.9579 248.46C-0.783181 255.917 -0.119193 256.173 0.800177 256.343C3.28588 256.803 6.11209 243.421 7.16766 246.655C8.22323 249.89 1.80468 262.608 4.40956 262.983C7.81463 263.46 10.5217 249.363 10.8451 248.239C11.1686 247.115 12.8541 247.473 12.5477 248.528C12.0539 250.027 7.26982 265.911 10.6068 266.422C12.4455 266.694 12.6498 263.34 12.6498 263.34C12.6498 263.34 16.0549 248.137 17.6042 248.443C19.1535 248.75 17.5021 257.722 16.7189 260.718C15.9357 263.715 17.0253 265.23 18.6257 264.498C19.7153 263.987 22.3202 254.879 23.0353 251.916C23.7504 248.954 25.538 240.748 27.9386 245.498C30.3392 250.248 33.9826 253.006 35.4808 253.074C35.8185 253.035 36.1367 252.896 36.3946 252.675C36.6525 252.453 36.8382 252.16 36.928 251.832C37.0177 251.504 37.0073 251.157 36.8981 250.836C36.7888 250.514 36.5858 250.232 36.3151 250.027C35.0264 248.768 33.9204 247.335 33.0292 245.77C32.235 244.551 31.6589 243.203 31.3267 241.786C30.6406 238.962 30.2413 236.076 30.1349 233.171L29.8625 231.469C33.6762 212.588 44.6575 157.17 60.5081 121.774L67.0118 135.156L69.838 145.065L52.5062 187.85L126.43 186.879L115.398 144.418L128.797 100.152C143.285 100.476 180.486 101.021 186.683 98.2114C194.481 94.8063 234.814 43.8664 234.814 43.8664C237.443 41.8235 239.961 39.6411 242.356 37.3287C242.356 37.3287 244.808 35.2686 243.326 33.7363Z" fill="#FCD0CA"/>
<path d="M49.2546 156.234C51.3998 148.913 62.4152 112.717 62.4152 112.717C62.4152 112.717 67.8293 142.222 66.3992 145.78C65.0837 148.826 63.5295 151.764 61.7512 154.565C49.2546 173.583 50.8891 183.1 50.8891 183.1L126.397 180.801C126.567 170.246 120.318 145.695 119.025 141.779C117.731 137.863 122.038 125.043 122.038 125.043C122.038 125.043 130.551 116.377 130.244 111.917C130.083 107.91 129.587 103.923 128.763 99.9989L174.732 101.701L173.284 70.5451L107.26 63.9392C104.962 70.4259 84.1736 67.2421 84.1736 67.2421C61.7342 67.9912 60.3381 72.1114 51.0082 79.3642C41.6783 86.617 26.2363 148.862 26.2363 148.862L49.2546 156.234Z" fill="#596AFF"/>
<path d="M93.8976 148.862C92.589 149.096 91.2563 149.164 89.9307 149.066C87.462 149.066 84.0739 148.896 80.3454 148.521C76.6168 148.147 73.2458 147.619 70.8452 147.142C69.5216 146.972 68.2237 146.64 66.9805 146.155C68.3116 146.155 69.6397 146.281 70.9474 146.529C73.365 146.836 76.719 147.261 80.4305 147.636C84.142 148.011 87.513 148.266 89.9477 148.436C91.2748 148.453 92.5973 148.595 93.8976 148.862V148.862Z" fill="#4457FF"/>
<path d="M99.0674 142.443C97.7584 143.084 96.3742 143.559 94.9472 143.856C88.1547 145.641 81.1468 146.472 74.1252 146.325C72.6722 146.372 71.2192 146.235 69.8008 145.916C71.2348 145.735 72.6802 145.661 74.1252 145.695C76.7982 145.61 80.4757 145.423 84.5277 144.946C88.5797 144.469 92.1891 143.788 94.7429 143.243C96.1614 142.865 97.6073 142.597 99.0674 142.443V142.443Z" fill="#4457FF"/>
<path d="M124.471 113.807C124.437 115.105 124.26 116.395 123.943 117.654C123.501 120.021 122.82 123.256 121.952 126.797C121.083 130.338 120.249 133.607 119.5 135.82C119.199 137.087 118.753 138.315 118.172 139.481C118.267 138.187 118.507 136.908 118.887 135.667C119.534 133.011 120.266 129.947 121.083 126.593C121.9 123.239 122.684 120.174 123.331 117.518C123.561 116.24 123.944 114.994 124.471 113.807V113.807Z" fill="#4457FF"/>
<path d="M50.0548 151.892C46.1161 151.284 42.2289 150.379 38.4265 149.185C34.5411 148.277 30.7284 147.082 27.0195 145.61C30.9564 146.228 34.8428 147.133 38.6479 148.317C42.5341 149.222 46.3471 150.417 50.0548 151.892V151.892Z" fill="#4457FF"/>
<path d="M129.579 99.6244C128.937 99.735 128.281 99.735 127.638 99.6244C125.86 99.442 124.114 99.0241 122.446 98.3816C119.66 97.335 117.125 95.7174 115.002 93.6327C112.879 91.548 111.216 89.0423 110.119 86.2766C108.907 83.2341 108.389 79.9593 108.604 76.6913C108.68 73.9957 109.486 71.3713 110.936 69.098C111.957 67.5665 113.48 66.4402 115.244 65.9142C115.715 65.7842 116.202 65.7212 116.691 65.7269C117.032 65.7269 117.202 65.7269 117.202 65.7269C117.202 65.7269 116.487 65.7269 115.346 66.1866C113.728 66.7843 112.356 67.9047 111.447 69.3704C109.132 73.0138 108.485 79.6707 110.954 85.885C112.102 88.815 113.901 91.4462 116.214 93.5804C118.11 95.3268 120.293 96.7322 122.667 97.7346C124.895 98.6152 127.213 99.2489 129.579 99.6244V99.6244Z" fill="#4457FF"/>
<path d="M169.269 101.089C168.843 95.8676 168.706 90.6272 168.86 85.3912C168.727 80.1596 168.886 74.9246 169.337 69.7108C169.763 74.926 169.899 80.1608 169.745 85.3912C169.888 90.6284 169.729 95.8696 169.269 101.089V101.089Z" fill="#4457FF"/>
<path d="M106.818 65.8461C107.006 62.0495 107.397 57.7591 107.397 57.7591C107.397 57.7591 116.795 56.7206 117.357 47.0161C117.919 37.3116 117.357 14.9233 117.357 14.9233L100.332 6.2063L81.4336 21.0694L84.3449 69.5917L101.677 70.6984C103.002 70.735 104.287 70.2448 105.251 69.3352C106.215 68.4256 106.778 67.1708 106.818 65.8461V65.8461Z" fill="#FCD0CA"/>
<path d="M108.504 39.3376C108.504 39.3376 108.504 39.5249 108.351 39.7462C108.224 39.9067 108.06 40.034 107.873 40.1171C107.687 40.2002 107.482 40.2365 107.278 40.2229C106.189 40.2229 105.133 38.963 104.759 37.4988C104.58 36.7891 104.58 36.0464 104.759 35.3366C104.793 35.0268 104.905 34.7307 105.084 34.475C105.262 34.2193 105.501 34.0122 105.78 33.8725C106.009 33.7779 106.266 33.7779 106.495 33.8725C106.665 33.9567 106.802 34.0943 106.887 34.264C107.006 34.5535 106.887 34.7408 106.887 34.7237C106.887 34.7067 106.887 34.5535 106.716 34.3832C106.627 34.2613 106.497 34.1765 106.349 34.1451C106.201 34.1136 106.047 34.1378 105.916 34.213C105.707 34.3392 105.534 34.5163 105.412 34.7276C105.29 34.939 105.223 35.1777 105.218 35.4217C105.075 36.055 105.075 36.7123 105.218 37.3456C105.559 38.6736 106.478 39.7462 107.295 39.8484C107.455 39.87 107.618 39.8585 107.773 39.8146C107.928 39.7707 108.073 39.6952 108.198 39.593C108.402 39.4568 108.47 39.3206 108.504 39.3376Z" fill="#F9A799"/>
<path d="M123.196 9.67941C121.885 5.21877 117.135 3.00547 112.81 1.77964C106.221 -0.0931452 99.1047 -0.910367 92.6692 1.45616C86.2336 3.82268 78.5041 7.97687 78.5041 15.0764C74.7074 14.77 72.5281 18.0899 71.0299 22.2101C70.072 24.7202 69.4981 27.3605 69.3274 30.0418V30.0418C68.8507 39.3376 66.2458 52.1747 60.2188 58.9849C56.8137 62.7815 52.0977 65.4034 50.1568 70.1365C48.4543 74.2396 49.3396 79.1088 47.7562 83.263C46.3431 86.9235 43.2275 89.5284 40.9461 92.7121C38.6218 96.3238 37.254 100.467 36.971 104.753C36.6881 109.038 37.4994 113.326 39.3287 117.212C41.1711 120.998 43.7651 124.369 46.9526 127.121C50.1402 129.872 53.8545 131.946 57.8693 133.215C65.8219 135.635 74.3024 135.718 82.3007 133.454C88.3035 132.018 93.903 129.242 98.6791 125.333C103.566 121.342 106.922 115.784 108.179 109.601C109.388 102.655 107.447 95.5894 106 88.6771C101.471 66.8336 102.765 65.6929 108.486 45.4157C108.622 45.0581 108.69 44.6836 108.792 44.326C108.894 43.9685 108.945 43.7982 109.014 43.5258C109.176 42.7243 109.262 41.909 109.269 41.0912C108.433 41.4019 107.526 41.4677 106.655 41.2807C105.783 41.0937 104.983 40.6617 104.349 40.0356C103.713 39.3681 103.269 38.5408 103.065 37.6415C102.861 36.7423 102.905 35.8046 103.191 34.928C103.593 33.9693 104.191 33.1057 104.948 32.393C105.704 31.6803 106.602 31.1345 107.583 30.7909C109.473 30.0077 111.499 29.5991 113.355 28.7308C117.288 26.858 120.012 22.9762 121.868 18.9072C123.393 16.087 123.864 12.8154 123.196 9.67941V9.67941Z" fill="#0B0A33"/>
<path d="M50.8866 183.1L126.394 180.801L159.253 309.07L153.209 456.204H113.284L118.171 312.203L88.9723 222.905L93.467 461.907L53.1169 462.503L48.8775 237.853C48.6903 231.605 46.6472 217.525 47.4134 211.328L50.8866 183.1Z" fill="#3E395F"/>
<path d="M99.0171 224.727C97.7812 224.805 96.5404 224.73 95.3226 224.505C93.0412 224.233 89.9256 223.756 86.5035 223.075C83.0814 222.394 80.0168 221.611 77.8035 220.981C76.6204 220.721 75.4759 220.309 74.3984 219.755C74.3984 219.5 79.9487 220.828 86.7588 222.207C93.569 223.586 99.0511 224.471 99.0171 224.727Z" fill="#7A7D9C"/>
<path d="M152.804 448.134C152.804 448.372 143.763 448.576 132.611 448.576C121.46 448.576 112.402 448.372 112.402 448.134C112.402 447.895 121.443 447.691 132.611 447.691C143.78 447.691 152.804 447.878 152.804 448.134Z" fill="#7A7D9C"/>
<path d="M93.1098 455.693C93.1098 455.948 84.3247 456.135 73.4966 456.135C62.6685 456.135 53.9004 455.948 53.9004 455.693C53.9004 455.437 62.6855 455.25 73.4966 455.25C84.3077 455.25 93.1098 455.454 93.1098 455.693Z" fill="#7A7D9C"/>
<path d="M87.9035 455.08C87.6652 455.08 86.6096 402.863 85.537 338.456C84.4644 274.049 83.8345 221.798 84.0558 221.798C84.2772 221.798 85.3668 273.998 86.4223 338.439C87.4779 402.88 88.1589 455.08 87.9035 455.08Z" fill="#7A7D9C"/>
<path d="M147.44 448.134C147.422 447.901 147.422 447.668 147.44 447.435V445.392C147.44 443.554 147.577 440.915 147.679 437.561C147.917 430.751 148.258 420.859 148.683 408.737C149.603 384.357 150.896 350.748 152.31 313.65C152.31 313.293 152.31 312.952 152.31 312.646V312.765C143.371 277.012 135.284 244.561 129.41 221.083L122.6 193.315C121.817 190.063 121.221 187.526 120.796 185.756C120.591 184.921 120.455 184.274 120.336 183.781C120.27 183.559 120.23 183.331 120.217 183.1C120.305 183.314 120.374 183.537 120.421 183.764C120.557 184.24 120.728 184.887 120.966 185.705C121.426 187.407 122.09 189.995 122.941 193.23C124.643 199.802 127.044 209.268 130.04 220.93C135.965 244.391 144.137 276.756 153.195 312.561V312.68C153.195 312.986 153.195 313.344 153.195 313.684C151.68 350.782 150.301 384.374 149.296 408.754C148.768 420.893 148.326 430.717 148.019 437.561C147.849 440.966 147.713 443.554 147.628 445.392C147.628 446.261 147.525 446.942 147.508 447.435C147.511 447.67 147.488 447.904 147.44 448.134V448.134Z" fill="#7A7D9C"/>
<path d="M134.415 309.649C131.548 310.592 128.593 311.248 125.596 311.607C121.919 312.237 118.786 312.68 117.373 312.748V312.407C117.833 312.544 118.071 312.629 118.071 312.697C118.071 312.765 117.781 312.697 117.305 312.697H116.283L117.305 312.39C118.633 311.999 121.765 311.352 125.443 310.688C128.392 310.048 131.398 309.7 134.415 309.649Z" fill="#7A7D9C"/>
<path d="M133.719 314.535C131.064 314.657 128.402 314.538 125.768 314.178C123.109 314.124 120.46 313.833 117.852 313.31C123.172 312.876 128.528 313.289 133.719 314.535V314.535Z" fill="#7A7D9C"/>
<path opacity="0.2" d="M50.5664 185.807C51.4607 186.955 52.587 187.902 53.8719 188.585C55.1569 189.269 56.5715 189.674 58.0235 189.774C61.0645 190.134 64.1406 190.077 67.1661 189.603C86.6602 187.441 107.312 185.449 126.397 180.801C101.694 182.18 75.5937 181.721 50.8899 183.1L50.6345 185.211" fill="black"/>
</svg>
