<svg width="258" height="543" viewBox="0 0 258 543" fill="none" xmlns="http://www.w3.org/2000/svg">
<path d="M144.638 533.13V516.384L114.648 516.19L114.389 541.235L116.253 541.365C124.537 541.9 158.401 542.986 163.912 541.219C170.121 539.306 144.638 533.13 144.638 533.13Z" fill="#4457FF"/>
<path d="M231.719 33.7121L231.994 28.6382C232.488 25.8295 232.7 22.9784 232.627 20.1276C232.623 18.7113 232.37 17.3067 231.881 15.9776C231.344 14.2932 230.581 12.6899 229.611 11.2117C229.369 10.9677 229.211 10.6531 229.159 10.3132C229.107 9.97326 229.165 9.62571 229.324 9.32076C229.483 9.01581 229.734 8.76924 230.042 8.61669C230.351 8.46414 230.699 8.4135 231.038 8.4721C232.464 8.84494 235.382 12.233 236.712 17.2907C238.041 22.3484 241.445 14.8591 242.726 12.1519C244.006 9.44475 248.416 1.25835 249.551 0.998984C251.172 0.609928 251.966 2.34447 250.604 5.01923C249.243 7.69399 245.741 15.9939 247.232 16.6099C248.29 16.3289 249.396 16.2792 250.475 16.464C250.645 16.5015 250.799 16.5898 250.918 16.7172C251.037 16.8446 251.114 17.005 251.139 17.1772C251.203 17.9712 251.361 18.7548 251.609 19.5116C251.609 19.5116 253.619 18.8631 254.122 19.7223C254.494 20.6148 254.719 21.562 254.787 22.5267C254.787 22.5267 256.31 21.8621 257.121 22.3808C258.855 23.5156 256.975 25.8986 256.975 25.8986C252.841 31.8492 248.331 37.5291 243.472 42.9035L231.686 33.4203" fill="#FCD0CA"/>
<path d="M87.5227 33.3718L87.3281 98.0361L115 99.3167L115.794 83.5924C115.794 83.5924 125.65 85.5539 128.195 76.3948C129.816 70.559 129.411 25.3799 129.411 25.3799L87.5227 33.3718Z" fill="#FCD0CA"/>
<path d="M127.97 15.394C119.524 18.1174 117.498 19.0414 113.705 19.3332C109.912 19.625 84.2338 19.6574 81.8833 34.1335C81.5669 33.4529 81.3224 32.7412 81.1538 32.0099C80.9642 30.5909 80.8614 29.1617 80.8458 27.7303C80.4388 28.3935 80.1828 29.1381 80.0959 29.9114C80.0091 30.6846 80.0935 31.4675 80.3433 32.2044C80.4082 32.5198 80.5004 32.829 80.6189 33.1284C80.4405 32.9663 80.2784 32.788 80.0839 32.6259C79.1519 31.8012 78.0426 31.2021 76.8418 30.8751C75.9178 30.6482 75.318 30.6968 75.2207 30.8751C76.7303 31.5262 78.1607 32.3475 79.4841 33.3229C80.3435 34.069 81.0818 34.944 81.6726 35.9167C81.6726 35.9167 81.6726 36.0463 81.6726 36.1112C81.6726 36.176 76.1447 33.6796 77.6037 43.6978C79.0626 53.716 85.5955 62.2266 86.4061 78.6318C86.4061 78.6318 109.312 81.3552 113.397 72.5528L116.817 62.4535C116.817 62.4535 111.306 61.5457 111.954 57.1202C112.846 50.9764 117.531 50.8305 121.032 53.5539L125.052 42.79C125.052 42.79 135.233 36.1112 135.816 31.8478C136.4 27.5844 136.335 12.6544 127.97 15.394Z" fill="#0B0A33"/>
<path d="M10.787 520.615L6.73438 538.707L34.7302 542.176L35.7352 524.247L10.787 520.615Z" fill="#4457FF"/>
<path d="M52.3155 236.264L0.441406 527.538L44.8262 530.05C44.8262 530.05 91.9668 278.98 98.8887 278.363C101.79 278.088 102.958 528.008 105.276 527.538C107.594 527.067 153.243 528.348 153.243 528.348C153.243 528.348 147.067 232.568 147.18 232.568L52.3155 236.264Z" fill="#3E395F"/>
<path d="M117.887 272.236C117.887 272.463 110.236 274.295 100.704 276.321C91.1718 278.347 83.3907 279.806 83.342 279.563C83.2934 279.32 90.9935 277.504 100.525 275.478C110.057 273.452 117.838 272.009 117.887 272.236Z" fill="#7A7D9C"/>
<path d="M48.1162 512.948C48.1162 513.191 38.0818 513.061 25.7131 512.688C13.3444 512.316 3.32617 511.797 3.32617 511.57C3.32617 511.343 13.3606 511.456 25.7293 511.829C38.098 512.202 48.1162 512.688 48.1162 512.948Z" fill="#7A7D9C"/>
<path d="M152.952 512.98C152.952 513.207 142.107 513.077 128.766 512.672C115.424 512.267 104.596 511.764 104.596 511.537C104.596 511.311 115.424 511.44 128.782 511.829C142.14 512.218 152.952 512.688 152.952 512.98Z" fill="#7A7D9C"/>
<path d="M74.4754 280.309C74.7024 280.309 63.7278 332.312 49.9487 396.345C36.1697 460.377 24.8222 512.267 24.5953 512.218C24.3683 512.17 35.3429 460.231 49.122 396.166C62.901 332.102 74.2323 280.26 74.4754 280.309Z" fill="#7A7D9C"/>
<path d="M128.959 512.251C128.94 512.051 128.94 511.851 128.959 511.651C128.959 511.213 128.959 510.63 128.861 509.884C128.861 508.263 128.699 506.01 128.57 503.092C128.326 497.207 128.051 488.664 127.743 478.111C127.127 457.037 126.511 427.858 126.365 395.664C126.219 363.469 126.527 334.306 126.948 313.2C127.143 302.647 127.354 294.12 127.548 288.22C127.646 285.302 127.71 283.032 127.775 281.427C127.775 280.682 127.775 280.098 127.775 279.66C127.753 279.461 127.753 279.26 127.775 279.061C127.801 279.26 127.801 279.461 127.775 279.66V281.427C127.775 283.048 127.775 285.302 127.775 288.22C127.694 294.169 127.581 302.696 127.435 313.216C127.175 334.29 126.948 363.469 127.111 395.664C127.273 427.858 127.775 457.005 128.229 478.111C128.472 488.616 128.667 497.143 128.813 503.092C128.813 505.994 128.91 508.279 128.942 509.884C128.942 510.63 128.942 511.213 128.942 511.651C128.973 511.849 128.979 512.051 128.959 512.251Z" fill="#7A7D9C"/>
<path d="M227.065 32.2532C227.065 32.2532 192.699 84.1273 189.781 86.9966C186.863 89.8658 133.043 95.572 133.043 95.572C116.508 91.8436 63.0781 93.0756 52.9951 100.435C44.2576 105.298 33.6558 116.646 28.1928 143.442C18.8717 189.286 9.55054 206.177 28.1928 212.581C35.646 215.122 43.3279 216.935 51.1309 217.995L50.6121 238.745L147.228 232.73L142.364 181.213C141.781 166.737 141.505 151.661 141.149 138.303C147.195 136.018 203.381 114.749 207.24 114.198C211.098 113.647 248.107 45.5783 248.107 45.5783C249.209 37.4892 227.065 32.2532 227.065 32.2532Z" fill="#596AFF"/>
<path d="M53.7902 126.064C54.0171 126.064 53.4984 151.32 52.6392 182.445C51.78 213.569 50.8723 238.809 50.6291 238.809C50.3859 238.809 50.9209 213.553 51.7963 182.429C52.6716 151.304 53.5632 126.064 53.7902 126.064Z" fill="#2D21B3"/>
<path d="M194.63 98.6683C193.341 96.9654 192.384 95.0351 191.809 92.9783C190.981 91.0409 190.309 89.0407 189.799 86.9966C191.079 88.7027 192.03 90.6323 192.603 92.6865C193.42 94.6297 194.097 96.6287 194.63 98.6683V98.6683Z" fill="#2D21B3"/>
<path d="M198.488 94.2588C196.848 93.3355 195.306 92.2493 193.884 91.0167C192.269 89.9871 190.88 88.6417 189.799 87.0613C191.433 87.9936 192.974 89.0792 194.403 90.3034C196.008 91.3445 197.395 92.6879 198.488 94.2588V94.2588Z" fill="#2D21B3"/>
<path d="M246.175 49.712C245.033 49.1653 243.947 48.5083 242.933 47.7506C240.955 46.5023 238.216 44.8164 235.071 43.1305C231.926 41.4446 229.008 40.0991 226.868 39.1589C225.673 38.731 224.522 38.1881 223.432 37.5378C224.692 37.7455 225.922 38.1047 227.095 38.6078C232.863 40.7586 238.316 43.6756 243.306 47.2804C244.36 47.9675 245.324 48.7844 246.175 49.712V49.712Z" fill="#2D21B3"/>
<path d="M52.6391 182.688C50.6259 182.809 48.6065 182.606 46.6573 182.088C44.6505 181.812 42.7143 181.157 40.9512 180.159C42.9416 180.351 44.9109 180.72 46.8356 181.262C48.8182 181.514 50.7653 181.993 52.6391 182.688V182.688Z" fill="#2D21B3"/>
<path d="M147.246 232.795C147.246 233.038 125.638 234.562 98.9711 236.216C72.3045 237.869 50.6471 239.036 50.6309 238.809C50.6147 238.582 72.2397 237.042 98.9224 235.373C125.605 233.703 147.23 232.568 147.246 232.795Z" fill="#0B0A33"/>
<path d="M115.455 93.5944C110.775 94.0578 106.07 94.2365 101.368 94.1293C96.6707 94.3052 91.9667 94.2024 87.2812 93.8213C91.9618 93.3579 96.6661 93.1793 101.368 93.2864C106.066 93.1105 110.77 93.2133 115.455 93.5944V93.5944Z" fill="#2D21B3"/>
</svg>
