<svg width="435" height="399" viewBox="0 0 435 399" fill="none" xmlns="http://www.w3.org/2000/svg">
<path d="M109.207 62.353H71.5293C60.4836 62.353 51.5293 71.3073 51.5293 82.353V329.304" stroke="#D9DBE9" stroke-width="2" stroke-linecap="round" stroke-dasharray="8 8"/>
<path d="M51.5293 330.278V333.225C51.5293 344.271 60.4836 353.225 71.5293 353.225H138.978" stroke="#D9DBE9" stroke-width="2" stroke-linecap="round" stroke-dasharray="8 8"/>
<g filter="url(#filter0_d)">
<rect x="110.602" y="14.1382" width="302.157" height="354.893" rx="20.4593" fill="#FF0000" fill-opacity="0.01"/>
</g>
<rect x="100.654" y="4.5" width="320.353" height="372.46" rx="19.2042" fill="white" stroke="#EFF0F7"/>
<path d="M130.03 34.1181V36.2551H126.704V46.1819H124.464V36.2551H121.155V34.1181H130.03ZM136.508 37.3925L136.353 39.4089C136.284 39.3859 136.164 39.3745 135.991 39.3745C135.279 39.3745 134.687 39.5813 134.216 39.9949C133.757 40.4085 133.527 40.9715 133.527 41.6838V46.1819H131.39V37.5649H133.527V39.0125C133.722 38.553 134.055 38.1681 134.526 37.8579C134.998 37.5477 135.566 37.3925 136.233 37.3925H136.508ZM144.154 37.5649H146.291V46.1819H144.154V45.3374C143.752 45.6821 143.309 45.9521 142.827 46.1474C142.356 46.3312 141.856 46.4232 141.328 46.4232C140.454 46.4232 139.69 46.2278 139.035 45.8372C138.381 45.4466 137.875 44.9066 137.519 44.2172C137.174 43.5279 137.002 42.7523 137.002 41.8906C137.002 41.0289 137.174 40.2534 137.519 39.564C137.875 38.8747 138.381 38.3347 139.035 37.944C139.69 37.5419 140.454 37.3408 141.328 37.3408C141.856 37.3408 142.356 37.4385 142.827 37.6338C143.309 37.8177 143.752 38.0819 144.154 38.4266V37.5649ZM141.603 44.3723C142.074 44.3723 142.499 44.2689 142.879 44.0621C143.269 43.8438 143.574 43.5451 143.792 43.1659C144.022 42.7868 144.137 42.3559 144.137 41.8734C144.137 41.1496 143.89 40.5579 143.396 40.0983C142.913 39.6387 142.316 39.4089 141.603 39.4089C140.879 39.4089 140.282 39.6445 139.811 40.1155C139.351 40.5751 139.122 41.1668 139.122 41.8906C139.122 42.6144 139.351 43.2119 139.811 43.683C140.282 44.1425 140.879 44.3723 141.603 44.3723ZM155.807 44.5102C155.381 45.0961 154.847 45.5615 154.204 45.9061C153.56 46.2508 152.865 46.4232 152.118 46.4232C151.303 46.4232 150.544 46.2221 149.844 45.82C149.154 45.4064 148.603 44.8549 148.189 44.1655C147.787 43.4647 147.586 42.7064 147.586 41.8906C147.586 41.0749 147.787 40.3223 148.189 39.633C148.603 38.9321 149.154 38.3806 149.844 37.9785C150.544 37.5649 151.303 37.3581 152.118 37.3581C152.854 37.3581 153.543 37.5304 154.187 37.8751C154.83 38.2083 155.364 38.6621 155.789 39.2366L154.031 40.4257C153.491 39.7938 152.854 39.4779 152.118 39.4779C151.682 39.4779 151.28 39.587 150.912 39.8053C150.544 40.0236 150.251 40.3166 150.033 40.6842C149.815 41.0519 149.706 41.454 149.706 41.8906C149.706 42.3272 149.815 42.7293 150.033 43.097C150.251 43.4647 150.544 43.7576 150.912 43.9759C151.28 44.1827 151.682 44.2861 152.118 44.2861C152.854 44.2861 153.491 43.9702 154.031 43.3383L155.807 44.5102ZM165.552 46.1819H162.88L160.468 42.9591L159.21 44.3378V46.1819H157.073V34.1181H159.21V41.2013L162.45 37.5649H165.431L161.915 41.3908L165.552 46.1819ZM167.769 36.1345C167.367 36.1345 167.051 36.0253 166.821 35.807C166.591 35.5887 166.476 35.29 166.476 34.9109C166.476 34.5202 166.591 34.2158 166.821 33.9975C167.051 33.7792 167.367 33.67 167.769 33.67C168.171 33.67 168.487 33.7792 168.717 33.9975C168.946 34.2158 169.061 34.5202 169.061 34.9109C169.061 35.2785 168.941 35.5772 168.699 35.807C168.47 36.0253 168.159 36.1345 167.769 36.1345ZM166.683 46.1819V37.5649H168.82V46.1819H166.683ZM175.335 37.3408C175.84 37.3408 176.352 37.45 176.869 37.6683C177.397 37.8751 177.845 38.2542 178.213 38.8057C178.592 39.3572 178.782 40.0983 178.782 41.0289V46.1819H176.645V41.0289C176.645 40.3855 176.461 39.9259 176.093 39.6502C175.737 39.363 175.318 39.2194 174.835 39.2194C174.352 39.2194 173.939 39.3917 173.594 39.7364C173.261 40.0696 173.094 40.6096 173.094 41.3564V46.1819H170.957V37.5649H173.094V38.2887C173.405 38.0015 173.749 37.7717 174.128 37.5994C174.508 37.427 174.91 37.3408 175.335 37.3408ZM187.256 37.5649H189.393V45.751C189.393 46.5668 189.186 47.2849 188.773 47.9053C188.371 48.5257 187.808 49.0025 187.084 49.3357C186.36 49.6804 185.55 49.8527 184.654 49.8527C183.654 49.8527 182.747 49.6574 181.931 49.2668C181.115 48.8876 180.541 48.3878 180.207 47.7674L182.034 46.7161C182.207 47.0493 182.528 47.3251 182.999 47.5434C183.47 47.7732 184.039 47.888 184.706 47.888C185.441 47.888 186.05 47.687 186.532 47.2849C187.015 46.8942 187.256 46.3829 187.256 45.751V45.3547C186.866 45.6993 186.429 45.9636 185.946 46.1474C185.464 46.3312 184.964 46.4232 184.447 46.4232C183.574 46.4232 182.81 46.2278 182.155 45.8372C181.5 45.4466 180.994 44.9066 180.638 44.2172C180.294 43.5279 180.121 42.7523 180.121 41.8906C180.121 41.0289 180.294 40.2534 180.638 39.564C180.994 38.8747 181.5 38.3347 182.155 37.944C182.81 37.5419 183.574 37.3408 184.447 37.3408C184.964 37.3408 185.458 37.4385 185.929 37.6338C186.412 37.8177 186.854 38.0762 187.256 38.4094V37.5649ZM184.723 44.3723C185.194 44.3723 185.619 44.2689 185.998 44.0621C186.389 43.8438 186.693 43.5451 186.911 43.1659C187.141 42.7868 187.256 42.3559 187.256 41.8734C187.256 41.1496 187.009 40.5579 186.515 40.0983C186.033 39.6387 185.435 39.4089 184.723 39.4089C183.999 39.4089 183.401 39.6445 182.93 40.1155C182.471 40.5751 182.241 41.1668 182.241 41.8906C182.241 42.6144 182.471 43.2119 182.93 43.683C183.401 44.1425 183.999 44.3723 184.723 44.3723ZM201.153 37.3408C202.026 37.3408 202.79 37.5419 203.445 37.944C204.1 38.3347 204.6 38.8747 204.945 39.564C205.301 40.2534 205.479 41.0289 205.479 41.8906C205.479 42.7523 205.301 43.5279 204.945 44.2172C204.6 44.9066 204.1 45.4466 203.445 45.8372C202.79 46.2278 202.026 46.4232 201.153 46.4232C200.59 46.4232 200.05 46.314 199.533 46.0957C199.016 45.8774 198.556 45.573 198.154 45.1823V46.1819H196.017V34.1181H198.154V38.5817C198.556 38.1911 199.016 37.8866 199.533 37.6683C200.062 37.45 200.602 37.3408 201.153 37.3408ZM200.877 44.3723C201.601 44.3723 202.193 44.1425 202.652 43.683C203.123 43.2119 203.359 42.6144 203.359 41.8906C203.359 41.1668 203.123 40.5751 202.652 40.1155C202.193 39.6445 201.601 39.4089 200.877 39.4089C200.165 39.4089 199.562 39.6387 199.068 40.0983C198.585 40.5579 198.344 41.1496 198.344 41.8734C198.344 42.3559 198.453 42.7868 198.671 43.1659C198.901 43.5451 199.206 43.8438 199.585 44.0621C199.975 44.2689 200.406 44.3723 200.877 44.3723ZM212.443 37.5649H214.684L211.668 46.1991C211.22 47.3825 210.599 48.2672 209.807 48.8532C209.025 49.4506 208.1 49.7091 207.032 49.6287V47.5606C207.101 47.5721 207.204 47.5778 207.342 47.5778C208.261 47.5778 208.979 47.0206 209.496 45.9061L205.705 37.5649H207.997L210.53 43.0453L212.443 37.5649ZM225.266 37.3408C226.139 37.3408 226.903 37.5362 227.558 37.9268C228.225 38.3174 228.73 38.8574 229.075 39.5468C229.431 40.2362 229.609 41.0117 229.609 41.8734C229.609 42.7351 229.431 43.5106 229.075 44.2C228.73 44.8893 228.225 45.4351 227.558 45.8372C226.903 46.2278 226.139 46.4232 225.266 46.4232C224.749 46.4232 224.249 46.3312 223.767 46.1474C223.296 45.9521 222.859 45.6821 222.457 45.3374V49.6287H220.32V37.5649H222.457V38.4094C222.848 38.0647 223.284 37.8004 223.767 37.6166C224.249 37.4328 224.749 37.3408 225.266 37.3408ZM225.008 44.3551C225.72 44.3551 226.306 44.1253 226.765 43.6657C227.237 43.1947 227.472 42.5972 227.472 41.8734C227.472 41.1496 227.237 40.5579 226.765 40.0983C226.306 39.6272 225.72 39.3917 225.008 39.3917C224.537 39.3917 224.106 39.5008 223.715 39.7191C223.324 39.9259 223.014 40.2189 222.784 40.5981C222.566 40.9772 222.457 41.4081 222.457 41.8906C222.457 42.6144 222.698 43.2061 223.181 43.6657C223.675 44.1253 224.284 44.3551 225.008 44.3551ZM233.195 43.7519C233.195 43.9357 233.241 44.0678 233.332 44.1483C233.424 44.2287 233.568 44.2689 233.763 44.2689C233.913 44.2689 234.091 44.2517 234.298 44.2172V46.1819C233.872 46.2508 233.476 46.2853 233.108 46.2853C232.442 46.2853 231.931 46.1129 231.575 45.7683C231.23 45.4121 231.058 44.7859 231.058 43.8898V34.1181H233.195V43.7519ZM242.341 37.5649H244.478V46.1819H242.341V45.3374C241.938 45.6821 241.496 45.9521 241.014 46.1474C240.542 46.3312 240.043 46.4232 239.514 46.4232C238.641 46.4232 237.877 46.2278 237.222 45.8372C236.567 45.4466 236.062 44.9066 235.705 44.2172C235.361 43.5279 235.188 42.7523 235.188 41.8906C235.188 41.0289 235.361 40.2534 235.705 39.564C236.062 38.8747 236.567 38.3347 237.222 37.944C237.877 37.5419 238.641 37.3408 239.514 37.3408C240.043 37.3408 240.542 37.4385 241.014 37.6338C241.496 37.8177 241.938 38.0819 242.341 38.4266V37.5649ZM239.79 44.3723C240.261 44.3723 240.686 44.2689 241.065 44.0621C241.456 43.8438 241.76 43.5451 241.979 43.1659C242.208 42.7868 242.323 42.3559 242.323 41.8734C242.323 41.1496 242.076 40.5579 241.582 40.0983C241.1 39.6387 240.502 39.4089 239.79 39.4089C239.066 39.4089 238.469 39.6445 237.998 40.1155C237.538 40.5751 237.308 41.1668 237.308 41.8906C237.308 42.6144 237.538 43.2119 237.998 43.683C238.469 44.1425 239.066 44.3723 239.79 44.3723ZM249.422 43.2349C249.422 43.6255 249.514 43.8955 249.697 44.0449C249.881 44.1942 250.174 44.2689 250.576 44.2689C250.818 44.2689 251.082 44.2517 251.369 44.2172V46.1819C250.829 46.2393 250.381 46.2681 250.025 46.2681C249.106 46.2681 248.416 46.0612 247.957 45.6476C247.509 45.2225 247.285 44.4642 247.285 43.3727V39.4779H245.665V37.5649H247.285V35.4451L249.422 34.7213V37.5649H251.335V39.4779H249.422V43.2349ZM258.031 35.9277C257.744 35.8932 257.485 35.876 257.256 35.876C256.853 35.876 256.56 35.9506 256.377 36.1C256.193 36.2494 256.101 36.5251 256.101 36.9272V37.5649H258.014V39.4779H256.101V46.1819H253.964V39.4779H252.533V37.5649H253.964V36.7894C253.964 35.6979 254.188 34.9453 254.636 34.5317C255.084 34.1066 255.762 33.894 256.67 33.894C257.026 33.894 257.48 33.9228 258.031 33.9802V35.9277ZM262.995 46.4232C262.179 46.4232 261.421 46.2221 260.72 45.82C260.031 45.4064 259.479 44.8549 259.066 44.1655C258.663 43.4647 258.462 42.7064 258.462 41.8906C258.462 41.0749 258.663 40.3223 259.066 39.633C259.479 38.9321 260.031 38.3806 260.72 37.9785C261.421 37.5649 262.179 37.3581 262.995 37.3581C263.811 37.3581 264.563 37.5649 265.253 37.9785C265.953 38.3806 266.505 38.9321 266.907 39.633C267.321 40.3223 267.527 41.0749 267.527 41.8906C267.527 42.7064 267.321 43.4647 266.907 44.1655C266.505 44.8549 265.953 45.4064 265.253 45.82C264.563 46.2221 263.811 46.4232 262.995 46.4232ZM262.978 44.2861C263.414 44.2861 263.816 44.1827 264.184 43.9759C264.552 43.7576 264.845 43.4647 265.063 43.097C265.281 42.7293 265.39 42.3272 265.39 41.8906C265.39 41.454 265.281 41.0519 265.063 40.6842C264.845 40.3166 264.552 40.0236 264.184 39.8053C263.816 39.587 263.414 39.4779 262.978 39.4779C262.541 39.4779 262.139 39.587 261.771 39.8053C261.404 40.0236 261.111 40.3166 260.892 40.6842C260.686 41.0519 260.582 41.454 260.582 41.8906C260.582 42.3272 260.686 42.7293 260.892 43.097C261.111 43.4647 261.404 43.7576 261.771 43.9759C262.139 44.1827 262.541 44.2861 262.978 44.2861ZM274.01 37.3925L273.855 39.4089C273.786 39.3859 273.665 39.3745 273.493 39.3745C272.781 39.3745 272.189 39.5813 271.718 39.9949C271.258 40.4085 271.029 40.9715 271.029 41.6838V46.1819H268.892V37.5649H271.029V39.0125C271.224 38.553 271.557 38.1681 272.028 37.8579C272.499 37.5477 273.068 37.3925 273.734 37.3925H274.01ZM285.382 37.3408C285.888 37.3408 286.399 37.45 286.916 37.6683C287.433 37.8751 287.876 38.2542 288.243 38.8057C288.622 39.3572 288.812 40.0983 288.812 41.0289V46.1819H286.692V41.0289C286.692 40.3855 286.508 39.9259 286.141 39.6502C285.785 39.363 285.365 39.2194 284.883 39.2194C284.469 39.2194 284.107 39.3457 283.797 39.5985C283.487 39.8398 283.286 40.2304 283.194 40.7704V41.0289V46.1819H281.074V41.0289C281.074 40.3855 280.89 39.9259 280.522 39.6502C280.166 39.363 279.741 39.2194 279.247 39.2194C278.857 39.2194 278.5 39.34 278.179 39.5813C277.868 39.8225 277.667 40.2074 277.575 40.7359V46.1819H275.438V37.5649H277.575V38.237C277.863 37.9613 278.19 37.743 278.558 37.5821C278.937 37.4213 279.339 37.3408 279.764 37.3408C280.293 37.3408 280.827 37.4557 281.367 37.6855C281.907 37.9153 282.338 38.3002 282.659 38.8402C282.958 38.4151 283.349 38.0589 283.831 37.7717C284.314 37.4845 284.831 37.3408 285.382 37.3408Z" fill="#0B0A33"/>
<path d="M122.781 150.799L157.595 169.695C161.858 172.009 167.054 171.757 171.073 169.042L199.259 150.003C202.307 147.945 206.084 147.273 209.654 148.156L228.503 152.813C232.362 153.767 236.446 152.902 239.588 150.466L267.312 128.965C271.81 125.477 278.053 125.32 282.72 128.577L310.982 148.304C316.011 151.814 322.811 151.332 327.294 147.145L339.882 135.392C343.052 132.431 347.49 131.247 351.714 132.235L357.343 133.551C361.697 134.569 366.269 133.278 369.447 130.133L396.398 103.46" stroke="#1877F2" stroke-width="3" stroke-linecap="round"/>
<path d="M157.602 170.152L121.379 151.027V202.46C121.379 205.222 123.617 207.46 126.379 207.46H392.802C395.564 207.46 397.802 205.222 397.802 202.46V103.46L369.46 130.484C366.282 133.514 361.79 134.735 357.516 133.731L351.762 132.379C347.524 131.384 343.07 132.576 339.895 135.553L327.329 147.341C322.839 151.552 316.012 152.037 310.971 148.503L282.749 128.714C278.071 125.435 271.802 125.592 267.295 129.103L239.595 150.684C236.447 153.137 232.346 154.008 228.473 153.046L209.664 148.377C206.08 147.487 202.287 148.163 199.232 150.237L170.971 169.413C166.994 172.112 161.853 172.396 157.602 170.152Z" fill="url(#paint0_linear)"/>
<rect x="147.879" y="95.4633" width="112.549" height="10" rx="5" fill="#D9DBE9"/>
<circle cx="128.879" cy="100.463" r="8" fill="#1877F2"/>
<path d="M124.238 314.246L159.971 278.514C162.846 275.639 166.899 274.275 170.927 274.827L200.508 278.878C202.825 279.195 205.185 278.881 207.338 277.97L225.782 270.165C231.034 267.943 237.121 269.402 240.793 273.764L266.951 304.834C271.396 310.114 279.193 311 284.709 306.852L317.684 282.055C318.956 281.098 320.393 280.383 321.923 279.946L335.204 276.147C340.209 274.716 345.585 276.408 348.868 280.449L352.858 285.36C358.485 292.285 369.256 291.613 373.978 284.043L396.4 248.095" stroke="#1DA1F2" stroke-width="3" stroke-linecap="round"/>
<path d="M160.208 279.077L121.379 312.091V347.095C121.379 349.856 123.617 352.095 126.379 352.095H392.802C395.564 352.095 397.802 349.856 397.802 347.095V248.095L374.343 285.021C369.499 292.647 358.546 293.128 353.051 285.957L349.797 281.709C346.837 277.847 341.969 275.961 337.179 276.821L322.816 279.401C320.719 279.778 318.747 280.664 317.073 281.981L284.715 307.454C279.223 311.778 271.296 310.985 266.769 305.66L240.647 274.933C237.037 270.687 231.123 269.214 225.944 271.271L207.072 278.767C205.077 279.56 202.917 279.846 200.785 279.6L170.117 276.066C166.54 275.654 162.951 276.744 160.208 279.077Z" fill="url(#paint1_linear)"/>
<rect x="147.879" y="232.095" width="109.724" height="10" rx="5" fill="#D9DBE9"/>
<circle cx="128.879" cy="237.095" r="8" fill="#1877F2"/>
<g filter="url(#filter1_d)">
<rect x="14.5996" y="102.672" width="171.819" height="57.8383" rx="14.7752" fill="#FF0000" fill-opacity="0.01"/>
</g>
<rect x="6.5" y="98.2607" width="187.309" height="66.6614" rx="11.28" fill="white" stroke="#EFF0F7"/>
<rect x="18.4707" y="108.815" width="45.5528" height="45.5528" rx="13.2227" fill="#1877F2"/>
<path d="M43.4608 145.047H38.1959V131.782H34.6094V127.463H38.1958V124.39C38.1958 120.748 39.7821 118.136 45.0327 118.136C46.1432 118.136 47.8867 118.363 47.8867 118.363V122.373H46.0555C44.1896 122.373 43.4611 122.947 43.4611 124.532V127.463H47.8168L47.429 131.782H43.461L43.4608 145.047Z" fill="white"/>
<rect x="74.123" y="138.618" width="93.5119" height="8.56964" rx="4.28482" fill="#EFF0F7"/>
<path d="M81.3629 118.653V120.485H77.1076V122.967H81.2004V124.799H77.1076V128.996H75.1721V118.653H81.3629ZM88.3924 121.608H90.2245V128.996H88.3924V128.272C88.0476 128.567 87.6684 128.799 87.2547 128.966C86.8509 129.124 86.4224 129.202 85.9693 129.202C85.2207 129.202 84.5656 129.035 84.0042 128.7C83.4427 128.365 83.0093 127.902 82.704 127.311C82.4085 126.72 82.2607 126.055 82.2607 125.317C82.2607 124.578 82.4085 123.913 82.704 123.322C83.0093 122.731 83.4427 122.268 84.0042 121.933C84.5656 121.588 85.2207 121.416 85.9693 121.416C86.4224 121.416 86.8509 121.5 87.2547 121.667C87.6684 121.825 88.0476 122.051 88.3924 122.347V121.608ZM86.2057 127.444C86.6095 127.444 86.974 127.356 87.299 127.178C87.6339 126.991 87.895 126.735 88.0821 126.41C88.2791 126.085 88.3776 125.716 88.3776 125.302C88.3776 124.681 88.1658 124.174 87.7423 123.78C87.3286 123.386 86.8164 123.189 86.2057 123.189C85.5851 123.189 85.0729 123.391 84.6691 123.795C84.275 124.189 84.078 124.696 84.078 125.317C84.078 125.937 84.275 126.449 84.6691 126.853C85.0729 127.247 85.5851 127.444 86.2057 127.444ZM98.3825 127.562C98.018 128.065 97.56 128.464 97.0084 128.759C96.4568 129.055 95.8609 129.202 95.2206 129.202C94.5212 129.202 93.8711 129.03 93.2703 128.685C92.6793 128.331 92.2065 127.858 91.8519 127.267C91.5071 126.666 91.3347 126.016 91.3347 125.317C91.3347 124.617 91.5071 123.972 91.8519 123.381C92.2065 122.78 92.6793 122.307 93.2703 121.963C93.8711 121.608 94.5212 121.431 95.2206 121.431C95.851 121.431 96.442 121.578 96.9936 121.874C97.5452 122.16 98.0033 122.549 98.3677 123.041L96.8606 124.061C96.3977 123.519 95.851 123.248 95.2206 123.248C94.8463 123.248 94.5015 123.342 94.1863 123.529C93.8711 123.716 93.62 123.967 93.4328 124.282C93.2457 124.598 93.1521 124.942 93.1521 125.317C93.1521 125.691 93.2457 126.036 93.4328 126.351C93.62 126.666 93.8711 126.917 94.1863 127.104C94.5015 127.282 94.8463 127.37 95.2206 127.37C95.851 127.37 96.3977 127.099 96.8606 126.558L98.3825 127.562ZM102.853 121.416C103.563 121.416 104.198 121.593 104.759 121.948C105.331 122.293 105.774 122.76 106.089 123.351C106.404 123.942 106.562 124.598 106.562 125.317C106.562 125.553 106.542 125.77 106.503 125.967H100.8C100.947 126.489 101.209 126.898 101.583 127.193C101.957 127.479 102.435 127.622 103.016 127.622C103.371 127.622 103.71 127.543 104.035 127.385C104.37 127.228 104.622 127.026 104.789 126.779L106.193 127.607C105.848 128.119 105.4 128.513 104.848 128.789C104.306 129.055 103.681 129.188 102.972 129.188C102.184 129.188 101.484 129.02 100.874 128.685C100.263 128.35 99.7901 127.887 99.4552 127.296C99.1301 126.705 98.9676 126.041 98.9676 125.302C98.9676 124.573 99.1301 123.913 99.4552 123.322C99.7901 122.731 100.253 122.268 100.844 121.933C101.435 121.588 102.105 121.416 102.853 121.416ZM104.848 124.534C104.769 124.061 104.548 123.691 104.183 123.425C103.829 123.15 103.38 123.012 102.839 123.012C102.464 123.012 102.12 123.081 101.804 123.219C101.499 123.356 101.253 123.544 101.066 123.78C100.879 124.016 100.78 124.268 100.77 124.534H104.848ZM112.124 121.416C112.873 121.416 113.528 121.588 114.089 121.933C114.651 122.268 115.079 122.731 115.375 123.322C115.68 123.913 115.833 124.578 115.833 125.317C115.833 126.055 115.68 126.72 115.375 127.311C115.079 127.902 114.651 128.365 114.089 128.7C113.528 129.035 112.873 129.202 112.124 129.202C111.642 129.202 111.179 129.109 110.735 128.922C110.292 128.735 109.898 128.474 109.553 128.139V128.996H107.721V118.653H109.553V122.48C109.898 122.145 110.292 121.884 110.735 121.697C111.188 121.51 111.651 121.416 112.124 121.416ZM111.888 127.444C112.508 127.444 113.016 127.247 113.41 126.853C113.813 126.449 114.015 125.937 114.015 125.317C114.015 124.696 113.813 124.189 113.41 123.795C113.016 123.391 112.508 123.189 111.888 123.189C111.277 123.189 110.76 123.386 110.336 123.78C109.923 124.174 109.716 124.681 109.716 125.302C109.716 125.716 109.809 126.085 109.997 126.41C110.194 126.735 110.455 126.991 110.78 127.178C111.115 127.356 111.484 127.444 111.888 127.444ZM120.601 129.202C119.902 129.202 119.252 129.03 118.651 128.685C118.06 128.331 117.587 127.858 117.232 127.267C116.888 126.666 116.715 126.016 116.715 125.317C116.715 124.617 116.888 123.972 117.232 123.381C117.587 122.78 118.06 122.307 118.651 121.963C119.252 121.608 119.902 121.431 120.601 121.431C121.3 121.431 121.946 121.608 122.537 121.963C123.137 122.307 123.61 122.78 123.955 123.381C124.31 123.972 124.487 124.617 124.487 125.317C124.487 126.016 124.31 126.666 123.955 127.267C123.61 127.858 123.137 128.331 122.537 128.685C121.946 129.03 121.3 129.202 120.601 129.202ZM120.586 127.37C120.961 127.37 121.305 127.282 121.62 127.104C121.936 126.917 122.187 126.666 122.374 126.351C122.561 126.036 122.655 125.691 122.655 125.317C122.655 124.942 122.561 124.598 122.374 124.282C122.187 123.967 121.936 123.716 121.62 123.529C121.305 123.342 120.961 123.248 120.586 123.248C120.212 123.248 119.867 123.342 119.552 123.529C119.237 123.716 118.986 123.967 118.798 124.282C118.621 124.598 118.532 124.942 118.532 125.317C118.532 125.691 118.621 126.036 118.798 126.351C118.986 126.666 119.237 126.917 119.552 127.104C119.867 127.282 120.212 127.37 120.586 127.37ZM129.128 129.202C128.429 129.202 127.779 129.03 127.178 128.685C126.587 128.331 126.114 127.858 125.76 127.267C125.415 126.666 125.243 126.016 125.243 125.317C125.243 124.617 125.415 123.972 125.76 123.381C126.114 122.78 126.587 122.307 127.178 121.963C127.779 121.608 128.429 121.431 129.128 121.431C129.828 121.431 130.473 121.608 131.064 121.963C131.665 122.307 132.138 122.78 132.482 123.381C132.837 123.972 133.014 124.617 133.014 125.317C133.014 126.016 132.837 126.666 132.482 127.267C132.138 127.858 131.665 128.331 131.064 128.685C130.473 129.03 129.828 129.202 129.128 129.202ZM129.114 127.37C129.488 127.37 129.833 127.282 130.148 127.104C130.463 126.917 130.714 126.666 130.901 126.351C131.089 126.036 131.182 125.691 131.182 125.317C131.182 124.942 131.089 124.598 130.901 124.282C130.714 123.967 130.463 123.716 130.148 123.529C129.833 123.342 129.488 123.248 129.114 123.248C128.739 123.248 128.395 123.342 128.079 123.529C127.764 123.716 127.513 123.967 127.326 124.282C127.149 124.598 127.06 124.942 127.06 125.317C127.06 125.691 127.149 126.036 127.326 126.351C127.513 126.666 127.764 126.917 128.079 127.104C128.395 127.282 128.739 127.37 129.114 127.37ZM141.453 128.996H139.163L137.094 126.233L136.016 127.415V128.996H134.184V118.653H136.016V124.726L138.794 121.608H141.35L138.336 124.888L141.453 128.996Z" fill="#0B0A33"/>
<g filter="url(#filter2_d)">
<rect x="14.5996" y="186.333" width="171.819" height="57.8383" rx="14.7752" fill="#FF0000" fill-opacity="0.01"/>
</g>
<rect x="6.5" y="181.922" width="187.309" height="66.6614" rx="11.28" fill="white" stroke="#EFF0F7"/>
<rect x="18.4707" y="192.476" width="45.5528" height="45.5528" rx="13.2227" fill="#1DA1F2"/>
<path d="M36.0298 226.76C46.6448 226.76 52.4498 217.906 52.4498 210.229C52.4498 209.978 52.4447 209.727 52.4335 209.478C53.563 208.655 54.5378 207.637 55.3122 206.47C54.2781 206.932 53.1654 207.244 51.9981 207.384C53.1896 206.665 54.1043 205.527 54.5359 204.171C53.403 204.847 52.1636 205.324 50.8713 205.581C49.8181 204.452 48.3189 203.745 46.6587 203.745C43.4717 203.745 40.8873 206.347 40.8873 209.555C40.8873 210.011 40.938 210.454 41.037 210.879C36.2406 210.636 31.9875 208.324 29.141 204.809C28.6284 205.696 28.3587 206.703 28.3596 207.729C28.3596 209.745 29.3784 211.524 30.9278 212.565C30.0113 212.537 29.115 212.288 28.3141 211.839C28.3133 211.863 28.3133 211.887 28.3133 211.913C28.3133 214.727 30.3025 217.076 32.9432 217.608C32.4472 217.744 31.9354 217.813 31.4214 217.813C31.0502 217.813 30.6884 217.776 30.3368 217.708C31.0715 220.016 33.202 221.696 35.7279 221.743C33.7527 223.302 31.2645 224.23 28.5602 224.23C28.1001 224.231 27.6405 224.204 27.1836 224.15C29.7377 225.798 32.7704 226.759 36.03 226.759" fill="white"/>
<rect x="74.123" y="222.279" width="63.4555" height="8.56964" rx="4.28482" fill="#EFF0F7"/>
<path d="M81.9687 203.314V205.146H79.1171V213.657H77.1963V205.146H74.3594V203.314H81.9687ZM89.9671 210.746L91.3412 206.269H93.262L90.8684 213.657H89.051L87.6622 209.269L86.2733 213.657H84.4855L82.151 206.269H84.057L85.3868 210.716L86.687 206.269H88.6373L89.9671 210.746ZM95.3778 205.043C95.0331 205.043 94.7622 204.949 94.5652 204.762C94.3682 204.575 94.2697 204.319 94.2697 203.994C94.2697 203.659 94.3682 203.398 94.5652 203.211C94.7622 203.024 95.0331 202.93 95.3778 202.93C95.7226 202.93 95.9935 203.024 96.1905 203.211C96.3875 203.398 96.486 203.659 96.486 203.994C96.486 204.309 96.3825 204.565 96.1757 204.762C95.9787 204.949 95.7127 205.043 95.3778 205.043ZM94.447 213.657V206.269H96.2791V213.657H94.447ZM100.754 211.13C100.754 211.465 100.833 211.697 100.991 211.825C101.148 211.953 101.399 212.017 101.744 212.017C101.951 212.017 102.178 212.002 102.424 211.972V213.657C101.961 213.706 101.577 213.731 101.271 213.731C100.483 213.731 99.8924 213.553 99.4984 213.199C99.1142 212.834 98.9221 212.184 98.9221 211.248V207.909H97.5333V206.269H98.9221V204.452L100.754 203.831V206.269H102.394V207.909H100.754V211.13ZM106.656 211.13C106.656 211.465 106.734 211.697 106.892 211.825C107.05 211.953 107.301 212.017 107.646 212.017C107.852 212.017 108.079 212.002 108.325 211.972V213.657C107.862 213.706 107.478 213.731 107.173 213.731C106.385 213.731 105.794 213.553 105.4 213.199C105.016 212.834 104.824 212.184 104.824 211.248V207.909H103.435V206.269H104.824V204.452L106.656 203.831V206.269H108.296V207.909H106.656V211.13ZM112.968 206.077C113.677 206.077 114.313 206.254 114.874 206.609C115.445 206.954 115.889 207.422 116.204 208.013C116.519 208.604 116.677 209.259 116.677 209.978C116.677 210.214 116.657 210.431 116.618 210.628H110.914C111.062 211.15 111.323 211.559 111.697 211.854C112.072 212.14 112.549 212.283 113.131 212.283C113.485 212.283 113.825 212.204 114.15 212.046C114.485 211.889 114.736 211.687 114.904 211.44L116.307 212.268C115.963 212.78 115.514 213.174 114.963 213.45C114.421 213.716 113.796 213.849 113.086 213.849C112.298 213.849 111.599 213.681 110.988 213.346C110.378 213.012 109.905 212.549 109.57 211.958C109.245 211.367 109.082 210.702 109.082 209.963C109.082 209.234 109.245 208.574 109.57 207.983C109.905 207.392 110.368 206.929 110.959 206.594C111.55 206.249 112.22 206.077 112.968 206.077ZM114.963 209.195C114.884 208.722 114.662 208.352 114.298 208.086C113.943 207.811 113.495 207.673 112.953 207.673C112.579 207.673 112.234 207.742 111.919 207.88C111.614 208.018 111.367 208.205 111.18 208.441C110.993 208.678 110.895 208.929 110.885 209.195H114.963ZM122.224 206.121L122.091 207.85C122.032 207.83 121.929 207.821 121.781 207.821C121.17 207.821 120.663 207.998 120.259 208.352C119.865 208.707 119.668 209.19 119.668 209.8V213.657H117.836V206.269H119.668V207.51C119.835 207.116 120.121 206.786 120.525 206.52C120.929 206.254 121.416 206.121 121.988 206.121H122.224Z" fill="#0B0A33"/>
<g filter="url(#filter3_d)">
<rect x="14.5996" y="269.995" width="171.819" height="57.8383" rx="14.7752" fill="#FF0000" fill-opacity="0.01"/>
</g>
<rect x="6.5" y="265.583" width="187.309" height="66.6614" rx="11.28" fill="white" stroke="#EFF0F7"/>
<rect x="18.4707" y="276.138" width="45.5528" height="45.5528" rx="13.2227" fill="#FF0000"/>
<path d="M41.9196 309.607L35.6876 309.491C33.6698 309.45 31.647 309.531 29.6688 309.111C26.6595 308.484 26.4463 305.408 26.2232 302.828C25.9158 299.2 26.0348 295.507 26.6149 291.91C26.9424 289.892 28.2311 288.687 30.2241 288.556C36.9519 288.081 43.7244 288.137 50.4372 288.359C51.1462 288.379 51.86 288.49 52.5591 288.617C56.0099 289.234 56.094 292.72 56.3177 295.654C56.5408 298.619 56.4466 301.599 56.0202 304.543C55.6781 306.981 55.0237 309.026 52.2616 309.223C48.8009 309.481 45.4197 309.689 41.9493 309.623C41.9494 309.607 41.9295 309.607 41.9196 309.607ZM38.2558 303.435C40.8637 301.907 43.4218 300.404 46.0148 298.887C43.4021 297.359 40.8488 295.856 38.2558 294.338V303.435Z" fill="white"/>
<rect x="74.123" y="304.957" width="93.5119" height="8.56964" rx="4.28482" fill="#EFF0F7"/>
<path d="M78.8807 291.377L81.3777 286.959H83.5644L79.841 293.608V297.302H77.9055V293.578L74.1821 286.959H76.3689L78.8807 291.377ZM86.5921 297.508C85.8928 297.508 85.2427 297.336 84.6418 296.991C84.0508 296.637 83.578 296.164 83.2234 295.573C82.8786 294.972 82.7063 294.322 82.7063 293.622C82.7063 292.923 82.8786 292.278 83.2234 291.687C83.578 291.086 84.0508 290.613 84.6418 290.269C85.2427 289.914 85.8928 289.737 86.5921 289.737C87.2915 289.737 87.9367 289.914 88.5277 290.269C89.1285 290.613 89.6013 291.086 89.9461 291.687C90.3007 292.278 90.478 292.923 90.478 293.622C90.478 294.322 90.3007 294.972 89.9461 295.573C89.6013 296.164 89.1285 296.637 88.5277 296.991C87.9367 297.336 87.2915 297.508 86.5921 297.508ZM86.5774 295.676C86.9517 295.676 87.2964 295.588 87.6116 295.41C87.9268 295.223 88.178 294.972 88.3652 294.657C88.5523 294.342 88.6459 293.997 88.6459 293.622C88.6459 293.248 88.5523 292.903 88.3652 292.588C88.178 292.273 87.9268 292.022 87.6116 291.835C87.2964 291.648 86.9517 291.554 86.5774 291.554C86.2031 291.554 85.8583 291.648 85.5431 291.835C85.2279 292.022 84.9767 292.273 84.7896 292.588C84.6123 292.903 84.5236 293.248 84.5236 293.622C84.5236 293.997 84.6123 294.342 84.7896 294.657C84.9767 294.972 85.2279 295.223 85.5431 295.41C85.8583 295.588 86.2031 295.676 86.5774 295.676ZM96.3016 289.914H98.1337V297.302H96.3016V296.681C96.0357 296.927 95.7402 297.124 95.4151 297.272C95.09 297.42 94.7453 297.494 94.3808 297.494C93.9474 297.494 93.5042 297.405 93.0511 297.228C92.6078 297.04 92.2237 296.711 91.8986 296.238C91.5834 295.765 91.4258 295.13 91.4258 294.332V289.914H93.2579V294.332C93.2579 294.883 93.4106 295.282 93.716 295.528C94.0312 295.765 94.3956 295.883 94.8093 295.883C95.223 295.883 95.5727 295.74 95.8584 295.455C96.1539 295.159 96.3016 294.691 96.3016 294.051V289.914ZM102.226 294.775C102.226 295.11 102.305 295.341 102.462 295.469C102.62 295.597 102.871 295.661 103.216 295.661C103.423 295.661 103.649 295.647 103.896 295.617V297.302C103.433 297.351 103.048 297.375 102.743 297.375C101.955 297.375 101.364 297.198 100.97 296.843C100.586 296.479 100.394 295.829 100.394 294.893V291.554H99.005V289.914H100.394V288.097L102.226 287.476V289.914H103.866V291.554H102.226V294.775ZM109.937 289.914H111.769V297.302H109.937V296.681C109.671 296.927 109.375 297.124 109.05 297.272C108.725 297.42 108.381 297.494 108.016 297.494C107.583 297.494 107.139 297.405 106.686 297.228C106.243 297.04 105.859 296.711 105.534 296.238C105.219 295.765 105.061 295.13 105.061 294.332V289.914H106.893V294.332C106.893 294.883 107.046 295.282 107.351 295.528C107.666 295.765 108.031 295.883 108.445 295.883C108.858 295.883 109.208 295.74 109.494 295.455C109.789 295.159 109.937 294.691 109.937 294.051V289.914ZM118.069 289.722C118.818 289.722 119.473 289.894 120.034 290.239C120.595 290.574 121.024 291.037 121.319 291.628C121.625 292.219 121.777 292.884 121.777 293.622C121.777 294.361 121.625 295.026 121.319 295.617C121.024 296.208 120.595 296.671 120.034 297.006C119.473 297.341 118.818 297.508 118.069 297.508C117.586 297.508 117.123 297.415 116.68 297.228C116.237 297.04 115.843 296.779 115.498 296.445V297.302H113.666V286.959H115.498V290.786C115.843 290.451 116.237 290.19 116.68 290.003C117.133 289.815 117.596 289.722 118.069 289.722ZM117.832 295.75C118.453 295.75 118.96 295.553 119.354 295.159C119.758 294.755 119.96 294.243 119.96 293.622C119.96 293.002 119.758 292.495 119.354 292.101C118.96 291.697 118.453 291.495 117.832 291.495C117.222 291.495 116.705 291.692 116.281 292.086C115.867 292.48 115.661 292.987 115.661 293.608C115.661 294.021 115.754 294.391 115.941 294.716C116.138 295.041 116.399 295.297 116.724 295.484C117.059 295.661 117.429 295.75 117.832 295.75ZM126.546 289.722C127.255 289.722 127.89 289.899 128.452 290.254C129.023 290.599 129.466 291.066 129.781 291.657C130.097 292.248 130.254 292.903 130.254 293.622C130.254 293.859 130.235 294.076 130.195 294.273H124.492C124.64 294.795 124.901 295.203 125.275 295.499C125.649 295.785 126.127 295.927 126.708 295.927C127.063 295.927 127.403 295.849 127.728 295.691C128.063 295.533 128.314 295.331 128.481 295.085L129.885 295.913C129.54 296.425 129.092 296.819 128.54 297.095C127.999 297.361 127.373 297.494 126.664 297.494C125.876 297.494 125.177 297.326 124.566 296.991C123.955 296.656 123.482 296.193 123.147 295.602C122.822 295.011 122.66 294.346 122.66 293.608C122.66 292.879 122.822 292.219 123.147 291.628C123.482 291.037 123.945 290.574 124.536 290.239C125.127 289.894 125.797 289.722 126.546 289.722ZM128.54 292.839C128.462 292.367 128.24 291.997 127.875 291.731C127.521 291.455 127.073 291.318 126.531 291.318C126.157 291.318 125.812 291.387 125.497 291.524C125.191 291.662 124.945 291.849 124.758 292.086C124.571 292.322 124.472 292.573 124.462 292.839H128.54Z" fill="#0B0A33"/>
<defs>
<filter id="filter0_d" x="88.8316" y="0.322332" width="345.697" height="398.433" filterUnits="userSpaceOnUse" color-interpolation-filters="sRGB">
<feFlood flood-opacity="0" result="BackgroundImageFix"/>
<feColorMatrix in="SourceAlpha" type="matrix" values="0 0 0 0 0 0 0 0 0 0 0 0 0 0 0 0 0 0 127 0" result="hardAlpha"/>
<feOffset dy="7.95415"/>
<feGaussianBlur stdDeviation="10.885"/>
<feColorMatrix type="matrix" values="0 0 0 0 0.0862745 0 0 0 0 0.0980392 0 0 0 0 0.439216 0 0 0 0.05 0"/>
<feBlend mode="normal" in2="BackgroundImageFix" result="effect1_dropShadow"/>
<feBlend mode="normal" in="SourceGraphic" in2="effect1_dropShadow" result="shape"/>
</filter>
<filter id="filter1_d" x="0.40961" y="93.8324" width="200.199" height="86.2183" filterUnits="userSpaceOnUse" color-interpolation-filters="sRGB">
<feFlood flood-opacity="0" result="BackgroundImageFix"/>
<feColorMatrix in="SourceAlpha" type="matrix" values="0 0 0 0 0 0 0 0 0 0 0 0 0 0 0 0 0 0 127 0" result="hardAlpha"/>
<feOffset dy="5.35"/>
<feGaussianBlur stdDeviation="7.095"/>
<feColorMatrix type="matrix" values="0 0 0 0 0.0862745 0 0 0 0 0.0980392 0 0 0 0 0.439216 0 0 0 0.07 0"/>
<feBlend mode="normal" in2="BackgroundImageFix" result="effect1_dropShadow"/>
<feBlend mode="normal" in="SourceGraphic" in2="effect1_dropShadow" result="shape"/>
</filter>
<filter id="filter2_d" x="0.40961" y="177.493" width="200.199" height="86.2183" filterUnits="userSpaceOnUse" color-interpolation-filters="sRGB">
<feFlood flood-opacity="0" result="BackgroundImageFix"/>
<feColorMatrix in="SourceAlpha" type="matrix" values="0 0 0 0 0 0 0 0 0 0 0 0 0 0 0 0 0 0 127 0" result="hardAlpha"/>
<feOffset dy="5.35"/>
<feGaussianBlur stdDeviation="7.095"/>
<feColorMatrix type="matrix" values="0 0 0 0 0.0862745 0 0 0 0 0.0980392 0 0 0 0 0.439216 0 0 0 0.07 0"/>
<feBlend mode="normal" in2="BackgroundImageFix" result="effect1_dropShadow"/>
<feBlend mode="normal" in="SourceGraphic" in2="effect1_dropShadow" result="shape"/>
</filter>
<filter id="filter3_d" x="0.40961" y="261.155" width="200.199" height="86.2183" filterUnits="userSpaceOnUse" color-interpolation-filters="sRGB">
<feFlood flood-opacity="0" result="BackgroundImageFix"/>
<feColorMatrix in="SourceAlpha" type="matrix" values="0 0 0 0 0 0 0 0 0 0 0 0 0 0 0 0 0 0 127 0" result="hardAlpha"/>
<feOffset dy="5.35"/>
<feGaussianBlur stdDeviation="7.095"/>
<feColorMatrix type="matrix" values="0 0 0 0 0.0862745 0 0 0 0 0.0980392 0 0 0 0 0.439216 0 0 0 0.07 0"/>
<feBlend mode="normal" in2="BackgroundImageFix" result="effect1_dropShadow"/>
<feBlend mode="normal" in="SourceGraphic" in2="effect1_dropShadow" result="shape"/>
</filter>
<linearGradient id="paint0_linear" x1="259.591" y1="103.46" x2="259.591" y2="207.46" gradientUnits="userSpaceOnUse">
<stop stop-color="#2D88FF" stop-opacity="0.5"/>
<stop offset="1" stop-color="#2D88FF" stop-opacity="0"/>
</linearGradient>
<linearGradient id="paint1_linear" x1="259.591" y1="248.095" x2="259.591" y2="352.095" gradientUnits="userSpaceOnUse">
<stop stop-color="#1DA1F2" stop-opacity="0.5"/>
<stop offset="1" stop-color="#1DA1F2" stop-opacity="0"/>
</linearGradient>
</defs>
</svg>
