<svg width="510" height="775" viewBox="0 0 510 775" fill="none" xmlns="http://www.w3.org/2000/svg">
<path d="M297.08 51.3462H33.5323C22.2681 51.3462 13.1367 61.0451 13.1367 73.0094V281.889C13.1367 293.854 22.2681 303.553 33.5323 303.553H297.08C308.344 303.553 317.475 293.854 317.475 281.889V73.0094C317.475 61.0451 308.344 51.3462 297.08 51.3462Z" fill="white"/>
<path d="M13.1367 99.3408L317.475 99.3408" stroke="#D9DBE9" stroke-width="1.20531" stroke-miterlimit="10"/>
<path d="M37.4985 81.6587C40.6086 81.6587 43.1299 79.1375 43.1299 76.0273C43.1299 72.9172 40.6086 70.396 37.4985 70.396C34.3884 70.396 31.8672 72.9172 31.8672 76.0273C31.8672 79.1375 34.3884 81.6587 37.4985 81.6587Z" fill="#FF5F85"/>
<path d="M54.6685 81.6587C57.7786 81.6587 60.2998 79.1375 60.2998 76.0273C60.2998 72.9172 57.7786 70.396 54.6685 70.396C51.5583 70.396 49.0371 72.9172 49.0371 76.0273C49.0371 79.1375 51.5583 81.6587 54.6685 81.6587Z" fill="#FFC147"/>
<path d="M71.8482 81.6587C74.9583 81.6587 77.4795 79.1375 77.4795 76.0273C77.4795 72.9172 74.9583 70.396 71.8482 70.396C68.738 70.396 66.2168 72.9172 66.2168 76.0273C66.2168 79.1375 68.738 81.6587 71.8482 81.6587Z" fill="#66DD63"/>
<rect x="94.8457" y="264.587" width="80.3848" height="8.46318" rx="4.23159" fill="#FFC147"/>
<rect y="396.498" width="80.3848" height="9.16057" rx="4.58029" fill="#8364FF"/>
<rect x="309.355" y="763.026" width="158.481" height="10.9927" rx="5.49634" fill="#596AFF"/>
<path d="M399.069 601.6C398.888 601.353 398.739 601.084 398.626 600.799L397.503 598.433C396.532 596.373 395.221 593.325 393.655 589.597C390.488 582.106 386.453 571.618 382.163 559.973C377.872 548.327 373.923 537.84 370.926 530.263C369.462 526.586 368.253 523.572 367.351 521.325L366.397 518.89C366.265 518.61 366.174 518.311 366.125 518.005C366.307 518.251 366.455 518.52 366.568 518.805L367.691 521.172C368.645 523.232 369.973 526.279 371.539 530.008C374.706 537.499 378.741 547.987 383.031 559.632C387.322 571.277 391.271 581.765 394.268 589.341C395.732 593.019 396.941 596.032 397.826 598.28C398.218 599.25 398.541 599.982 398.797 600.714C398.929 600.995 399.02 601.293 399.069 601.6V601.6Z" fill="#0B0A33"/>
<path d="M456.105 160.574L446.849 163.707L442.877 152.249C435.58 131.121 412.322 119.901 390.952 127.035C369.582 134.168 358.204 157.34 365.502 178.468L369.474 189.926L360.182 193.076C356.638 194.378 353.761 196.923 352.147 200.182C350.534 203.442 350.309 207.165 351.518 210.578L377.274 285.132C377.809 286.821 378.696 288.392 379.884 289.75C381.072 291.108 382.537 292.226 384.19 293.038C385.843 293.849 387.651 294.338 389.508 294.474C391.364 294.611 393.23 294.392 394.996 293.832L490.92 261.331C494.51 260.031 497.428 257.463 499.061 254.167C500.693 250.871 500.913 247.104 499.673 243.658L473.899 169.104C473.351 167.419 472.449 165.857 471.249 164.509C470.049 163.161 468.575 162.057 466.914 161.261C465.254 160.464 463.441 159.993 461.584 159.876C459.726 159.758 457.863 159.995 456.105 160.574V160.574ZM382.99 172.492C381.022 166.999 381.375 160.997 383.975 155.744C386.575 150.492 391.22 146.396 396.937 144.315C399.76 143.4 402.748 143.033 405.724 143.237C408.7 143.44 411.602 144.208 414.258 145.497C416.913 146.786 419.267 148.568 421.18 150.737C423.092 152.906 424.524 155.418 425.389 158.123L429.343 169.581L386.944 183.95L382.99 172.492ZM436.91 238.653L443.488 257.687C443.609 258.069 443.57 258.48 443.379 258.835C443.188 259.19 442.861 259.462 442.464 259.594L433.243 262.71C432.876 262.806 432.484 262.764 432.149 262.593C431.814 262.421 431.562 262.134 431.446 261.79L424.814 242.841C421.157 242.652 417.648 241.41 414.757 239.28C411.866 237.15 409.731 234.234 408.638 230.923C407.075 226.546 407.36 221.765 409.433 217.583C411.507 213.4 415.209 210.14 419.763 208.484C422.012 207.756 424.392 207.465 426.763 207.627C429.133 207.789 431.444 208.401 433.559 209.428C435.674 210.454 437.549 211.873 439.073 213.601C440.597 215.328 441.737 217.328 442.428 219.482C443.584 222.846 443.68 226.456 442.703 229.87C441.726 233.284 439.719 236.354 436.928 238.704L436.91 238.653Z" fill="#FFC147"/>
<path d="M360.907 701.368L190.841 700.585C181.019 700.531 171.621 696.581 164.71 689.603C157.799 682.625 153.94 673.189 153.981 663.368L155.785 237.035C155.806 232.17 156.784 227.356 158.666 222.868C160.548 218.381 163.295 214.309 166.752 210.884C170.208 207.459 174.306 204.749 178.81 202.909C183.314 201.068 188.137 200.134 193.003 200.158L363.052 200.942C372.873 200.991 382.273 204.937 389.188 211.912C396.102 218.887 399.965 228.321 399.929 238.142L398.124 664.457C398.104 669.325 397.126 674.14 395.245 678.629C393.363 683.119 390.616 687.193 387.16 690.621C383.704 694.048 379.607 696.761 375.103 698.606C370.598 700.45 365.774 701.388 360.907 701.368Z" fill="#3E395F"/>
<rect x="227.742" y="242.214" width="98.8009" height="98.8009" fill="#C4C4C4"/>
<path d="M362.799 215.601C362.799 215.601 361.487 215.601 329.838 215.601C298.189 215.601 271.2 215.601 233.56 215.158H221.965L193.107 215.022C186.243 214.981 179.643 217.661 174.751 222.477C169.859 227.292 167.075 233.849 167.007 240.713L165.305 656.847C165.289 660.252 165.944 663.627 167.233 666.779C168.522 669.931 170.419 672.798 172.815 675.217C175.212 677.636 178.062 679.559 181.202 680.876C184.342 682.194 187.71 682.88 191.115 682.896L360.824 683.679C364.232 683.695 367.609 683.039 370.763 681.749C373.917 680.46 376.786 678.562 379.206 676.164C381.627 673.765 383.551 670.914 384.869 667.772C386.188 664.63 386.874 661.259 386.89 657.851L388.593 241.717C388.633 234.834 385.939 228.217 381.103 223.319C376.266 218.422 369.682 215.646 362.799 215.601Z" fill="white"/>
<rect x="215.855" y="209.701" width="122.711" height="25.3323" fill="#3E395F"/>
<mask id="mask0" style="mask-type:alpha" maskUnits="userSpaceOnUse" x="166" y="214" width="223" height="87">
<path fill-rule="evenodd" clip-rule="evenodd" d="M167.197 300.255C167.204 281.815 167.208 263.375 167.209 244.935C167.209 241.437 167.257 237.938 167.319 234.44C167.437 227.8 171.918 218.879 181.91 215.875C184.003 215.246 186.258 214.909 188.444 214.88C197.307 214.766 206.172 214.823 215.036 214.823C215.618 214.823 216.207 214.822 216.781 214.906C218.305 215.131 219.001 215.821 219.275 217.379C219.517 218.755 219.629 220.16 219.942 221.519C221.123 226.647 224.788 230.096 230.005 230.922C231.84 231.213 233.716 231.383 235.573 231.385C263.565 231.413 291.556 231.411 319.548 231.388C321.174 231.387 322.813 231.244 324.423 231.011C330.574 230.12 334.465 226.192 335.378 220.03C335.515 219.109 335.526 218.165 335.711 217.255C336.017 215.753 336.785 215.068 338.334 214.886C339.141 214.791 339.964 214.819 340.78 214.818C348.945 214.816 357.109 214.788 365.273 214.845C367.244 214.859 369.245 214.993 371.177 215.362C380.636 217.168 387.46 225.105 387.915 234.722C387.987 236.235 387.976 237.753 387.976 239.269C387.976 259.598 387.977 279.927 387.977 300.255C329.817 300.255 265.273 300.255 167.197 300.255Z" fill="white" stroke="white" stroke-width="0.782618"/>
</mask>
<g mask="url(#mask0)">
<rect x="160.498" y="210.564" width="233.028" height="96.3966" fill="white"/>
</g>
<path d="M210.988 606.115C210.988 595.237 219.806 586.419 230.684 586.419H323.205C334.083 586.419 342.901 595.237 342.901 606.115V606.115C342.901 616.992 334.083 625.81 323.205 625.81H230.684C219.806 625.81 210.988 616.992 210.988 606.115V606.115Z" fill="#4457FF"/>
<g filter="url(#filter0_d)">
<rect x="189.701" y="351.612" width="174.579" height="34.3136" rx="17.1568" fill="white"/>
<rect x="190.159" y="352.07" width="173.663" height="33.3975" rx="16.6987" stroke="#EFF0F7" stroke-width="0.916057"/>
</g>
<rect x="189.701" y="336.047" width="48.3333" height="8.46318" rx="4.23159" fill="#B1B3CB"/>
<rect x="241.471" y="296.024" width="80.3848" height="8.46318" rx="4.23159" fill="#7A7D9C"/>
<rect x="203.561" y="364.537" width="82.4451" height="8.46318" rx="4.23159" fill="#EFF0F7"/>
<g filter="url(#filter1_d)">
<rect x="189.701" y="425.862" width="174.579" height="34.3136" rx="17.1568" fill="white"/>
<rect x="190.159" y="426.32" width="173.663" height="33.3975" rx="16.6987" stroke="#EFF0F7" stroke-width="0.916057"/>
</g>
<rect x="189.701" y="410.296" width="48.3333" height="8.46318" rx="4.23159" fill="#B1B3CB"/>
<rect x="203.561" y="438.787" width="82.4451" height="8.46318" rx="4.23159" fill="#EFF0F7"/>
<g filter="url(#filter2_d)">
<rect x="187.203" y="500.111" width="174.579" height="34.3136" rx="17.1568" fill="white"/>
<rect x="187.661" y="500.569" width="173.663" height="33.3975" rx="16.6987" stroke="#EFF0F7" stroke-width="0.916057"/>
</g>
<rect x="189.703" y="484.545" width="48.3333" height="8.46318" rx="4.23159" fill="#B1B3CB"/>
<rect x="203.561" y="514.035" width="6.46542" height="6.46542" rx="3.23271" fill="#D9DBE9"/>
<rect x="213.453" y="514.035" width="6.46542" height="6.46542" rx="3.23271" fill="#D9DBE9"/>
<rect x="223.344" y="514.035" width="6.46542" height="6.46542" rx="3.23271" fill="#D9DBE9"/>
<rect x="233.232" y="514.035" width="6.46542" height="6.46542" rx="3.23271" fill="#D9DBE9"/>
<rect x="243.127" y="514.035" width="6.46542" height="6.46542" rx="3.23271" fill="#D9DBE9"/>
<rect x="253.016" y="514.035" width="6.46542" height="6.46542" rx="3.23271" fill="#D9DBE9"/>
<rect x="262.902" y="514.035" width="6.46542" height="6.46542" rx="3.23271" fill="#D9DBE9"/>
<rect x="272.795" y="514.035" width="6.46542" height="6.46542" rx="3.23271" fill="#D9DBE9"/>
<rect x="282.686" y="514.035" width="6.46542" height="6.46542" rx="3.23271" fill="#D9DBE9"/>
<path d="M285.229 277.76C286.412 277.239 287.415 276.382 288.115 275.295C288.814 274.209 289.178 272.94 289.162 271.648C289.206 270.808 289.079 269.968 288.788 269.179C288.496 268.389 288.048 267.668 287.469 267.057C286.89 266.447 286.193 265.961 285.42 265.629C284.647 265.297 283.814 265.126 282.973 265.126C282.132 265.126 281.3 265.297 280.527 265.629C279.754 265.961 279.057 266.447 278.478 267.057C277.899 267.668 277.45 268.389 277.159 269.179C276.868 269.968 276.741 270.808 276.785 271.648C276.759 272.953 277.12 274.237 277.823 275.337C278.526 276.437 279.539 277.304 280.734 277.828C271.2 279.258 271.626 289.61 271.626 289.61L294.167 289.712C294.167 289.712 294.695 279.173 285.229 277.76Z" fill="#8364FF"/>
<path d="M176.028 164.968L134.959 164.968C123.913 164.968 114.959 173.922 114.959 184.968V226.035C114.959 237.081 123.913 246.035 134.959 246.035H176.028C187.073 246.035 196.028 237.081 196.028 226.035V184.968C196.028 173.922 187.073 164.968 176.028 164.968Z" fill="#596AFF"/>
<path d="M135.297 207.672L147.417 220.692L175.698 190.311" stroke="white" stroke-width="7.05" stroke-linecap="round" stroke-linejoin="round"/>
<path d="M462.203 480.214H375.421C364.375 480.214 355.42 489.169 355.421 500.215L355.423 586.997C355.423 598.043 364.378 606.997 375.423 606.997H462.203C473.248 606.997 482.203 598.042 482.203 586.997V500.214C482.203 489.169 473.248 480.214 462.203 480.214Z" fill="#FF5F85"/>
<path fill-rule="evenodd" clip-rule="evenodd" d="M412.406 549.016C422.264 549.016 430.166 540.866 430.166 530.699C430.166 520.532 422.264 512.383 412.406 512.383C402.548 512.383 394.646 520.532 394.646 530.699C394.646 540.866 402.548 549.016 412.406 549.016ZM412.405 554.883C397.926 554.883 385.564 557.24 385.564 566.657C385.564 576.07 397.851 578.512 412.405 578.512C426.88 578.512 439.245 576.155 439.245 566.738C439.245 557.321 426.959 554.883 412.405 554.883ZM449.617 538.209H453.923C455.695 538.209 457.14 539.701 457.14 541.531C457.14 543.361 455.695 544.853 453.923 544.853H449.617V549.143C449.617 550.972 448.176 552.464 446.4 552.464C444.628 552.464 443.183 550.972 443.183 549.143V544.853H438.885C437.109 544.853 435.668 543.361 435.668 541.531C435.668 539.701 437.109 538.209 438.885 538.209H443.183V533.923C443.183 532.094 444.628 530.602 446.4 530.602C448.176 530.602 449.617 532.094 449.617 533.923V538.209Z" fill="white"/>
<path d="M498.681 348.393H475.272C469.118 348.393 464.129 353.382 464.129 359.537V381.521C464.129 387.675 469.118 392.665 475.272 392.665H498.681C504.835 392.665 509.824 387.675 509.824 381.521V359.537C509.824 353.382 504.835 348.393 498.681 348.393Z" fill="#8364FF"/>
<path d="M306.988 0H292.776C289.039 0 286.01 3.02916 286.01 6.76582V20.1137C286.01 23.8504 289.039 26.8795 292.776 26.8795H306.988C310.725 26.8795 313.754 23.8504 313.754 20.1137V6.76582C313.754 3.02916 310.725 0 306.988 0Z" fill="#FFC147"/>
<path d="M271.869 732.496H252.82C247.812 732.496 243.752 736.556 243.752 741.564V759.455C243.752 764.463 247.812 768.523 252.82 768.523H271.869C276.878 768.523 280.938 764.463 280.938 759.455V741.564C280.938 736.556 276.878 732.496 271.869 732.496Z" fill="#FF5F85"/>
<defs>
<filter id="filter0_d" x="182.373" y="346.116" width="189.236" height="48.9705" filterUnits="userSpaceOnUse" color-interpolation-filters="sRGB">
<feFlood flood-opacity="0" result="BackgroundImageFix"/>
<feColorMatrix in="SourceAlpha" type="matrix" values="0 0 0 0 0 0 0 0 0 0 0 0 0 0 0 0 0 0 127 0" result="hardAlpha"/>
<feOffset dy="1.83211"/>
<feGaussianBlur stdDeviation="3.66423"/>
<feColorMatrix type="matrix" values="0 0 0 0 0.104626 0 0 0 0 0.0970791 0 0 0 0 0.47443 0 0 0 0.05 0"/>
<feBlend mode="normal" in2="BackgroundImageFix" result="effect1_dropShadow"/>
<feBlend mode="normal" in="SourceGraphic" in2="effect1_dropShadow" result="shape"/>
</filter>
<filter id="filter1_d" x="182.373" y="420.365" width="189.236" height="48.9705" filterUnits="userSpaceOnUse" color-interpolation-filters="sRGB">
<feFlood flood-opacity="0" result="BackgroundImageFix"/>
<feColorMatrix in="SourceAlpha" type="matrix" values="0 0 0 0 0 0 0 0 0 0 0 0 0 0 0 0 0 0 127 0" result="hardAlpha"/>
<feOffset dy="1.83211"/>
<feGaussianBlur stdDeviation="3.66423"/>
<feColorMatrix type="matrix" values="0 0 0 0 0.104626 0 0 0 0 0.0970791 0 0 0 0 0.47443 0 0 0 0.05 0"/>
<feBlend mode="normal" in2="BackgroundImageFix" result="effect1_dropShadow"/>
<feBlend mode="normal" in="SourceGraphic" in2="effect1_dropShadow" result="shape"/>
</filter>
<filter id="filter2_d" x="179.875" y="494.615" width="189.236" height="48.9705" filterUnits="userSpaceOnUse" color-interpolation-filters="sRGB">
<feFlood flood-opacity="0" result="BackgroundImageFix"/>
<feColorMatrix in="SourceAlpha" type="matrix" values="0 0 0 0 0 0 0 0 0 0 0 0 0 0 0 0 0 0 127 0" result="hardAlpha"/>
<feOffset dy="1.83211"/>
<feGaussianBlur stdDeviation="3.66423"/>
<feColorMatrix type="matrix" values="0 0 0 0 0.104626 0 0 0 0 0.0970791 0 0 0 0 0.47443 0 0 0 0.05 0"/>
<feBlend mode="normal" in2="BackgroundImageFix" result="effect1_dropShadow"/>
<feBlend mode="normal" in="SourceGraphic" in2="effect1_dropShadow" result="shape"/>
</filter>
</defs>
</svg>
