<svg width="274" height="315" viewBox="0 0 274 315" fill="none" xmlns="http://www.w3.org/2000/svg">
<rect width="274" height="315" fill="white"/>
<rect x="94.2949" y="104.664" width="153.725" height="10.0102" rx="5.00508" fill="#EFF0F7"/>
<rect x="94.2949" y="104.664" width="123.443" height="10.0102" rx="5.00508" fill="#596AFF"/>
<rect x="94.2949" y="85.645" width="94.0359" height="10.0102" rx="5.00508" fill="#D9DBE9"/>
<g filter="url(#filter0_d)">
<ellipse cx="54.1414" cy="100.16" rx="28.1629" ry="28.214" fill="#FF0000" fill-opacity="0.01"/>
</g>
<ellipse cx="54.1414" cy="100.16" rx="28.1629" ry="28.214" fill="white"/>
<path d="M54.0199 80.9778C54.0199 80.9778 65.2687 80.4705 71.2304 91.7961H53.0634C53.0634 91.7961 49.6323 91.683 46.7076 95.8532C45.8641 97.6001 44.9644 99.4032 45.9766 102.952C44.5144 100.474 38.2148 89.486 38.2148 89.486C38.2148 89.486 42.6587 81.4284 54.0199 80.9778Z" fill="#EA4335"/>
<path d="M70.6445 109.733C70.6445 109.733 65.4571 119.745 52.6855 119.253C54.2611 116.521 61.7712 103.492 61.7712 103.492C61.7712 103.492 63.5844 100.572 61.4434 95.9497C60.355 94.3442 59.2467 92.6617 55.6719 91.7647C58.5469 91.7361 71.194 91.7665 71.194 91.7665C71.194 91.7665 75.9366 99.6511 70.6445 109.733Z" fill="#FFC147"/>
<path d="M37.4764 109.809C37.4764 109.809 31.4155 100.301 38.2276 89.4675C39.8017 92.2007 47.3078 105.231 47.3078 105.231C47.3078 105.231 48.9249 108.264 53.9918 108.718C55.9233 108.577 57.9323 108.457 60.4952 105.804C59.0822 108.312 52.7315 119.27 52.7315 119.27C52.7315 119.27 43.5446 119.442 37.4764 109.809Z" fill="#17A05D"/>
<path d="M52.6855 119.345L55.241 108.662C55.241 108.662 58.0508 108.443 60.4051 105.854C58.9436 108.43 52.6855 119.345 52.6855 119.345V119.345Z" fill="#17A05D"/>
<path d="M45.4609 100.279C45.4609 95.5702 49.2713 91.7524 53.9725 91.7524C58.6733 91.7524 62.484 95.5701 62.484 100.279C62.484 104.989 58.6735 108.807 53.9725 108.807C49.2713 108.807 45.4609 104.989 45.4609 100.279V100.279Z" fill="white"/>
<path d="M46.8867 100.279C46.8867 96.3583 50.0595 93.1797 53.9738 93.1797C57.8873 93.1797 61.0604 96.3583 61.0604 100.279C61.0604 104.2 57.8873 107.379 53.9738 107.379C50.0595 107.379 46.8867 104.2 46.8867 100.279V100.279Z" fill="#4C8BF4"/>
<path d="M71.196 91.7661L60.6735 94.8569C60.6735 94.8569 59.0868 92.5241 55.6738 91.7643C58.6311 91.7542 71.196 91.7661 71.196 91.7661Z" fill="#FFC147"/>
<path d="M45.7716 102.569C44.2928 100.003 38.2148 89.4856 38.2148 89.4856L46.0097 97.2105C46.0097 97.2105 45.2087 98.8612 45.5124 101.219L45.7716 102.569V102.569Z" fill="#EA4335"/>
<rect x="94.2949" y="177.109" width="153.725" height="10.0102" rx="5.00508" fill="#EFF0F7"/>
<rect x="94.9238" y="177.109" width="80.3146" height="10.0102" rx="5.00508" fill="#596AFF"/>
<rect x="94.2949" y="158.089" width="58.2805" height="10.0102" rx="5.00508" fill="#D9DBE9"/>
<g filter="url(#filter1_d)">
<ellipse cx="54.1414" cy="172.604" rx="28.1629" ry="28.214" fill="#FF0000" fill-opacity="0.01"/>
</g>
<ellipse cx="54.1414" cy="172.604" rx="28.1629" ry="28.214" fill="white"/>
<path d="M73.2937 172.604C73.2937 177.693 71.2761 182.572 67.6846 186.17C64.0931 189.768 59.2221 191.79 54.143 191.79C49.0639 191.79 44.1928 189.768 40.6013 186.17C37.0099 182.572 34.9922 177.693 34.9922 172.604C34.9922 167.516 37.0099 162.636 40.6013 159.038C44.1928 155.44 49.0639 153.419 54.143 153.419C59.2221 153.419 64.0931 155.44 67.6846 159.038C71.2761 162.636 73.2937 167.516 73.2937 172.604Z" fill="url(#paint0_radial)"/>
<path d="M54.1443 154.418C53.9896 154.418 53.8651 154.543 53.8651 154.698V157.924C53.8651 158.079 53.9896 158.204 54.1443 158.204C54.299 158.204 54.4235 158.079 54.4235 157.924V154.698C54.4235 154.543 54.299 154.418 54.1443 154.418ZM52.3177 154.534C52.2992 154.532 52.2802 154.532 52.2609 154.534C52.1071 154.55 51.9961 154.687 52.0122 154.841L52.1529 156.191C52.169 156.345 52.3058 156.457 52.4596 156.44C52.6135 156.424 52.7244 156.287 52.7084 156.133L52.5677 154.783C52.5537 154.649 52.4471 154.547 52.3177 154.534H52.3177ZM55.9837 154.535C55.8542 154.548 55.7477 154.65 55.7335 154.785L55.5918 156.134C55.5756 156.288 55.6865 156.426 55.8404 156.442C55.9942 156.458 56.131 156.347 56.1472 156.193L56.2889 154.843C56.3051 154.689 56.1941 154.552 56.0403 154.536C56.0211 154.534 56.0022 154.534 55.9837 154.535V154.535ZM50.4413 154.807C50.4228 154.807 50.4039 154.809 50.3849 154.813C50.2336 154.845 50.1376 154.993 50.1696 155.144L50.8366 158.301C50.8686 158.452 51.0163 158.548 51.1676 158.516C51.3189 158.484 51.415 158.336 51.383 158.185L50.716 155.028C50.6879 154.896 50.5714 154.805 50.4413 154.806L50.4413 154.807ZM57.8599 154.809C57.7298 154.808 57.6133 154.898 57.5852 155.031L56.9159 158.187C56.8837 158.339 56.9797 158.486 57.131 158.519C57.2823 158.551 57.43 158.455 57.4621 158.303L58.1314 155.147C58.1636 154.996 58.0676 154.848 57.9163 154.815C57.8974 154.811 57.8785 154.809 57.8599 154.809L57.8599 154.809ZM48.6506 155.312C48.6145 155.309 48.5771 155.313 48.5404 155.325C48.3932 155.373 48.3133 155.53 48.3611 155.678L48.7797 156.968C48.8275 157.116 48.9845 157.196 49.1316 157.148C49.2787 157.1 49.3586 156.943 49.3108 156.796L48.8921 155.505C48.8563 155.394 48.7591 155.322 48.6506 155.312V155.312ZM59.6405 155.313C59.532 155.322 59.4348 155.395 59.399 155.505L58.9801 156.796C58.9323 156.944 59.0122 157.101 59.1593 157.149C59.3064 157.197 59.4634 157.116 59.5112 156.969L59.93 155.678C59.9779 155.531 59.898 155.374 59.7509 155.326C59.7141 155.314 59.6766 155.31 59.6405 155.313V155.313ZM46.8798 155.962C46.8435 155.962 46.8068 155.97 46.7715 155.986C46.6302 156.049 46.5669 156.214 46.6298 156.355L47.9379 159.303C48.0007 159.445 48.165 159.508 48.3063 159.445C48.4476 159.382 48.511 159.218 48.4482 159.076L47.14 156.128C47.0929 156.022 46.9886 155.959 46.8798 155.962V155.962ZM61.4313 155.971C61.3225 155.969 61.2182 156.031 61.1709 156.137L59.8588 159.084C59.7958 159.225 59.8588 159.39 60.0001 159.453C60.1413 159.517 60.3058 159.453 60.3688 159.312L61.6809 156.365C61.7439 156.224 61.6809 156.059 61.5396 155.996C61.5043 155.98 61.4676 155.972 61.4313 155.971V155.971ZM45.2361 156.833C45.1826 156.829 45.1273 156.841 45.0771 156.87C44.9431 156.947 44.8976 157.118 44.9749 157.252L45.6523 158.427C45.7296 158.562 45.8997 158.607 46.0337 158.53C46.1676 158.452 46.2132 158.282 46.1358 158.148L45.4585 156.972C45.4101 156.888 45.3255 156.839 45.2361 156.833V156.833ZM63.0524 156.833C62.9631 156.839 62.8786 156.888 62.8302 156.972L62.1527 158.148C62.0754 158.282 62.1211 158.452 62.2551 158.53C62.389 158.607 62.5591 158.562 62.6364 158.427L63.3138 157.252C63.3912 157.118 63.3456 156.947 63.2116 156.87C63.1614 156.841 63.106 156.829 63.0524 156.833V156.833ZM43.6401 157.83C43.5863 157.832 43.5325 157.849 43.4856 157.884C43.3604 157.975 43.3327 158.149 43.4236 158.274L45.3146 160.886C45.4055 161.011 45.5795 161.039 45.7047 160.948C45.8299 160.857 45.8576 160.683 45.7667 160.557L43.8755 157.946C43.8188 157.867 43.7296 157.827 43.6401 157.83V157.83ZM64.6685 157.844C64.579 157.841 64.4898 157.881 64.4329 157.96L62.5382 160.569C62.4472 160.694 62.4747 160.868 62.5998 160.959C62.7249 161.051 62.8989 161.023 62.9899 160.898L64.8844 158.289C64.9754 158.163 64.9479 157.989 64.8229 157.898C64.776 157.864 64.7222 157.846 64.6685 157.844V157.844ZM42.2134 159.029C42.1422 159.025 42.0694 159.049 42.0119 159.1C41.897 159.204 41.8877 159.38 41.9913 159.495L42.8977 160.504C43.0012 160.619 43.177 160.629 43.292 160.525C43.4069 160.421 43.4162 160.245 43.3127 160.13L42.4064 159.121C42.3546 159.064 42.2847 159.032 42.2134 159.029V159.029ZM66.0772 159.031C66.0059 159.035 65.936 159.066 65.8843 159.123L64.9778 160.132C64.8743 160.247 64.8835 160.423 64.9985 160.527C65.1134 160.631 65.2893 160.621 65.3928 160.506L66.2993 159.498C66.4028 159.382 66.3935 159.206 66.2786 159.103C66.2211 159.051 66.1485 159.027 66.0773 159.031L66.0772 159.031ZM40.8461 160.345C40.7748 160.349 40.705 160.379 40.6533 160.437C40.5498 160.552 40.559 160.728 40.674 160.832L43.0675 162.991C43.1825 163.094 43.3583 163.085 43.4618 162.97C43.5653 162.855 43.5562 162.679 43.4412 162.575L41.0475 160.416C40.99 160.364 40.9173 160.341 40.846 160.345L40.8461 160.345ZM67.4512 160.354C67.3799 160.35 67.3071 160.374 67.2496 160.426L64.8546 162.583C64.7395 162.686 64.7301 162.862 64.8335 162.978C64.9369 163.093 65.1129 163.102 65.2279 162.999L67.623 160.842C67.7381 160.738 67.7474 160.562 67.644 160.447C67.5923 160.389 67.5224 160.358 67.4512 160.354H67.4512ZM39.709 161.809C39.6195 161.806 39.5302 161.846 39.4734 161.925C39.3825 162.05 39.4101 162.224 39.5352 162.315L40.6312 163.113C40.7564 163.204 40.9302 163.177 41.0212 163.051C41.1121 162.926 41.0846 162.752 40.9595 162.661L39.8635 161.863C39.8166 161.829 39.7627 161.811 39.709 161.809L39.709 161.809ZM68.5872 161.82C68.5335 161.822 68.4797 161.839 68.4327 161.873L67.3362 162.67C67.211 162.761 67.1833 162.935 67.2741 163.061C67.365 163.186 67.5389 163.214 67.6641 163.123L68.7607 162.326C68.8859 162.235 68.9135 162.061 68.8227 161.935C68.7659 161.857 68.6767 161.816 68.5872 161.82V161.82ZM38.6464 163.372C38.557 163.378 38.4725 163.427 38.4242 163.511C38.3468 163.645 38.3924 163.816 38.5264 163.893L41.3154 165.507C41.4494 165.584 41.6195 165.538 41.6968 165.404C41.7742 165.27 41.7286 165.1 41.5946 165.022L38.8056 163.409C38.7554 163.38 38.7 163.368 38.6464 163.372V163.372ZM69.6422 163.372C69.5886 163.368 69.5332 163.38 69.483 163.409L66.694 165.022C66.56 165.1 66.5144 165.27 66.5918 165.404C66.6691 165.538 66.8392 165.584 66.9731 165.507L69.7624 163.893C69.8963 163.816 69.9419 163.645 69.8645 163.511C69.8162 163.427 69.7315 163.378 69.6422 163.372V163.372ZM37.843 165.037C37.7342 165.034 37.6298 165.097 37.5826 165.203C37.5196 165.345 37.5825 165.509 37.7238 165.572L38.9611 166.125C39.1024 166.188 39.2669 166.125 39.3299 165.984C39.3929 165.842 39.3298 165.678 39.1885 165.614L37.9513 165.062C37.916 165.046 37.8792 165.038 37.843 165.037V165.037ZM70.451 165.049C70.4147 165.049 70.3779 165.057 70.3426 165.073L69.105 165.625C68.9637 165.688 68.9005 165.853 68.9634 165.994C69.0263 166.136 69.1908 166.199 69.3321 166.136L70.5697 165.584C70.711 165.521 70.7741 165.356 70.7112 165.215C70.664 165.109 70.5598 165.046 70.451 165.049V165.049ZM37.127 166.778C37.0185 166.787 36.9213 166.859 36.8853 166.97C36.8375 167.117 36.9172 167.275 37.0643 167.323L40.1264 168.322C40.2735 168.37 40.4305 168.29 40.4784 168.143C40.5263 167.996 40.4466 167.838 40.2995 167.79L37.2373 166.791C37.2006 166.779 37.1631 166.775 37.127 166.778V166.778ZM71.1657 166.79C71.1296 166.786 71.0923 166.79 71.0555 166.803L67.9926 167.8C67.8455 167.848 67.7656 168.005 67.8134 168.153C67.8613 168.3 68.0182 168.38 68.1653 168.332L71.228 167.335C71.3751 167.287 71.4552 167.13 71.4073 166.982C71.3715 166.872 71.2742 166.799 71.1657 166.79V166.79ZM36.6809 168.605C36.5508 168.604 36.4341 168.694 36.406 168.827C36.3738 168.978 36.4698 169.126 36.6211 169.158L37.9463 169.441C38.0976 169.473 38.2452 169.377 38.2774 169.225C38.3096 169.073 38.2136 168.926 38.0623 168.893L36.7372 168.611C36.7183 168.607 36.6994 168.605 36.6809 168.605V168.605ZM71.6083 168.608C71.5898 168.608 71.571 168.61 71.5521 168.614L70.2269 168.896C70.0756 168.928 69.9797 169.076 70.0118 169.227C70.044 169.379 70.1916 169.475 70.3429 169.443L71.668 169.161C71.8193 169.129 71.9154 168.981 71.8832 168.829C71.8551 168.696 71.7384 168.606 71.6084 168.607L71.6083 168.608ZM36.3432 170.443C36.2137 170.455 36.1071 170.557 36.0929 170.692C36.0767 170.846 36.1873 170.983 36.3411 170.999L39.5439 171.339C39.6977 171.355 39.8347 171.244 39.8509 171.09C39.8672 170.936 39.7564 170.799 39.6026 170.782L36.3998 170.443C36.3806 170.441 36.3617 170.441 36.3432 170.443V170.443ZM71.9484 170.467C71.9299 170.465 71.9109 170.465 71.8916 170.467L68.6885 170.802C68.5347 170.818 68.4237 170.955 68.4398 171.109C68.4558 171.263 68.5926 171.375 68.7465 171.358L71.9496 171.024C72.1034 171.007 72.2143 170.87 72.1983 170.716C72.1842 170.581 72.0779 170.48 71.9484 170.467L71.9484 170.467ZM36.289 172.324C36.1343 172.324 36.0098 172.449 36.0098 172.604C36.0098 172.759 36.1343 172.884 36.289 172.884H37.6437C37.7984 172.884 37.923 172.759 37.923 172.604C37.923 172.449 37.7984 172.324 37.6437 172.324H36.289ZM70.6449 172.324C70.4902 172.324 70.3657 172.449 70.3657 172.604C70.3657 172.759 70.4902 172.884 70.6449 172.884H71.9996C72.1543 172.884 72.2788 172.759 72.2788 172.604C72.2788 172.449 72.1543 172.324 71.9996 172.324H70.6449ZM39.5989 173.849C39.5804 173.847 39.5614 173.847 39.5422 173.849L36.339 174.184C36.1851 174.2 36.0742 174.337 36.0903 174.491C36.1063 174.645 36.2431 174.757 36.3969 174.741L39.6002 174.406C39.754 174.39 39.8649 174.253 39.8489 174.098C39.8348 173.964 39.7283 173.862 39.5988 173.849H39.5989ZM68.688 173.869C68.5586 173.881 68.452 173.983 68.4378 174.118C68.4215 174.272 68.5322 174.409 68.686 174.425L71.8888 174.765C72.0426 174.781 72.1795 174.67 72.1958 174.516C72.212 174.362 72.1013 174.225 71.9474 174.208L68.7448 173.869C68.7256 173.867 68.7065 173.867 68.688 173.869L68.688 173.869ZM38.0022 175.758C37.9836 175.759 37.9647 175.76 37.9458 175.764L36.6206 176.046C36.4693 176.079 36.3734 176.227 36.4055 176.378C36.4377 176.53 36.5853 176.626 36.7367 176.594L38.0618 176.312C38.2132 176.28 38.3091 176.132 38.2769 175.98C38.2488 175.847 38.1323 175.757 38.0022 175.758L38.0022 175.758ZM70.286 175.761C70.156 175.76 70.0394 175.85 70.0113 175.983C69.9791 176.134 70.075 176.282 70.2263 176.315L71.5515 176.597C71.7028 176.629 71.8505 176.533 71.8826 176.381C71.9148 176.23 71.8188 176.082 71.6675 176.049L70.3424 175.767C70.3235 175.763 70.3046 175.761 70.2861 175.761L70.286 175.761ZM40.2337 176.863C40.1975 176.86 40.1602 176.863 40.1234 176.876L37.0606 177.873C36.9134 177.921 36.8335 178.078 36.8814 178.226C36.9292 178.373 37.0861 178.453 37.2332 178.405L40.296 177.408C40.4431 177.36 40.5231 177.203 40.4753 177.055C40.4394 176.945 40.3421 176.872 40.2337 176.863V176.863ZM68.0519 176.873C67.9435 176.882 67.8462 176.954 67.8103 177.065C67.7624 177.212 67.8421 177.37 67.9892 177.418L71.0514 178.417C71.1985 178.465 71.3555 178.385 71.4034 178.238C71.4513 178.091 71.3715 177.933 71.2244 177.885L68.1623 176.886C68.1255 176.874 68.0881 176.87 68.0519 176.873V176.873ZM39.0649 179.047C39.0286 179.048 38.9919 179.056 38.9566 179.072L37.7189 179.624C37.5775 179.687 37.5145 179.851 37.5774 179.993C37.6403 180.135 37.8047 180.198 37.946 180.135L39.1837 179.583C39.325 179.52 39.3881 179.355 39.3252 179.214C39.278 179.107 39.1737 179.045 39.0649 179.047V179.047ZM69.2192 179.058C69.1104 179.055 69.0061 179.118 68.9588 179.224C68.8958 179.365 68.9588 179.53 69.1001 179.593L70.3373 180.146C70.4785 180.209 70.643 180.146 70.706 180.005C70.769 179.863 70.706 179.698 70.5648 179.635L69.3276 179.082C69.2923 179.067 69.2555 179.059 69.2192 179.058V179.058ZM41.4746 179.664C41.421 179.66 41.3657 179.672 41.3154 179.701L38.5264 181.315C38.3924 181.392 38.3468 181.562 38.4242 181.697C38.5015 181.831 38.6716 181.876 38.8056 181.799L41.5946 180.186C41.7286 180.108 41.7742 179.938 41.6968 179.804C41.6485 179.72 41.564 179.67 41.4746 179.664V179.664ZM66.8141 179.664C66.7247 179.67 66.6401 179.72 66.5918 179.804C66.5144 179.938 66.56 180.108 66.694 180.186L69.483 181.799C69.617 181.876 69.7872 181.831 69.8645 181.697C69.9419 181.562 69.8963 181.392 69.7624 181.314L66.9731 179.701C66.9229 179.672 66.8677 179.66 66.8141 179.664V179.664ZM40.7789 182.032C40.7252 182.034 40.6714 182.051 40.6245 182.085L39.528 182.882C39.4028 182.973 39.3751 183.147 39.4659 183.273C39.5567 183.398 39.7307 183.426 39.8559 183.335L40.9524 182.538C41.0777 182.447 41.1054 182.273 41.0145 182.147C40.9578 182.069 40.8685 182.028 40.7789 182.032V182.032ZM67.503 182.041C67.4135 182.038 67.3243 182.078 67.2674 182.156C67.1765 182.282 67.2041 182.456 67.3292 182.547L68.4252 183.345C68.5504 183.436 68.7243 183.408 68.8152 183.283C68.9061 183.158 68.8786 182.983 68.7535 182.892L67.6575 182.095C67.6106 182.06 67.5567 182.043 67.503 182.041L67.503 182.041ZM43.2623 182.138C43.191 182.134 43.1183 182.157 43.0608 182.209L40.6657 184.366C40.5506 184.47 40.5413 184.646 40.6447 184.761C40.7481 184.876 40.924 184.886 41.039 184.782L43.4341 182.625C43.5492 182.522 43.5585 182.345 43.4551 182.23C43.4034 182.173 43.3336 182.141 43.2623 182.138ZM65.0197 182.145C64.9484 182.149 64.8785 182.18 64.8267 182.238C64.7232 182.353 64.7325 182.529 64.8474 182.633L67.241 184.791C67.356 184.895 67.5319 184.886 67.6354 184.771C67.7389 184.656 67.7297 184.479 67.6147 184.376L65.221 182.217C65.1635 182.165 65.0909 182.142 65.0197 182.145V182.145ZM45.5345 184.194C45.445 184.191 45.3557 184.231 45.2988 184.31L43.4043 186.919C43.3133 187.044 43.3406 187.218 43.4657 187.309C43.5908 187.401 43.7647 187.373 43.8557 187.248L45.7503 184.639C45.8413 184.513 45.8139 184.339 45.6889 184.248C45.642 184.214 45.5882 184.196 45.5345 184.194ZM62.7385 184.206C62.6848 184.208 62.631 184.225 62.584 184.26C62.4588 184.351 62.4311 184.525 62.5219 184.65L64.413 187.262C64.5038 187.387 64.6778 187.415 64.803 187.324C64.9282 187.233 64.9559 187.059 64.8651 186.933L62.974 184.322C62.9172 184.243 62.828 184.203 62.7385 184.206V184.206ZM43.0888 184.609C43.0175 184.613 42.9476 184.644 42.8958 184.702L41.9894 185.71C41.8859 185.825 41.8951 186.002 42.01 186.105C42.125 186.209 42.3008 186.2 42.4043 186.084L43.3109 185.076C43.4144 184.961 43.4051 184.784 43.2902 184.681C43.2327 184.629 43.1601 184.605 43.0888 184.609L43.0888 184.609ZM65.1981 184.61C65.1269 184.606 65.0543 184.63 64.9968 184.682C64.8818 184.786 64.8726 184.962 64.976 185.077L65.8823 186.086C65.9858 186.201 66.1616 186.21 66.2766 186.107C66.3916 186.003 66.4008 185.827 66.2973 185.712L65.391 184.703C65.3393 184.645 65.2694 184.614 65.1981 184.61L65.1981 184.61ZM48.1802 185.729C48.0714 185.727 47.9672 185.789 47.9199 185.895L46.6077 188.842C46.5447 188.983 46.6077 189.148 46.749 189.211C46.8902 189.274 47.0547 189.211 47.1177 189.07L48.4299 186.123C48.4929 185.982 48.4299 185.817 48.2886 185.754C48.2533 185.738 48.2165 185.73 48.1802 185.729ZM60.0907 185.737C60.0544 185.738 60.0176 185.746 59.9822 185.762C59.841 185.825 59.7777 185.989 59.8405 186.131L61.1486 189.079C61.2114 189.221 61.3758 189.284 61.5172 189.221C61.6585 189.158 61.7218 188.994 61.6589 188.852L60.3508 185.904C60.3037 185.797 60.1995 185.735 60.0907 185.737V185.737ZM45.8745 186.64C45.7851 186.646 45.7006 186.696 45.6523 186.78L44.9749 187.955C44.8976 188.089 44.9431 188.26 45.0771 188.337C45.211 188.415 45.3811 188.369 45.4585 188.235L46.1358 187.059C46.2132 186.925 46.1676 186.755 46.0337 186.677C45.9834 186.648 45.9281 186.637 45.8745 186.64V186.64ZM62.4141 186.64C62.3605 186.636 62.3053 186.648 62.2551 186.677C62.1211 186.755 62.0755 186.925 62.1529 187.059L62.8302 188.235C62.9076 188.369 63.0777 188.415 63.2116 188.337C63.3456 188.26 63.3912 188.089 63.3138 187.955L62.6364 186.78C62.5881 186.696 62.5035 186.647 62.4141 186.64V186.64ZM51.1013 186.682C50.9712 186.681 50.8547 186.771 50.8266 186.904L50.1573 190.06C50.1251 190.212 50.2211 190.36 50.3724 190.392C50.5237 190.424 50.6714 190.328 50.7035 190.176L51.3728 187.02C51.405 186.869 51.309 186.721 51.1577 186.689C51.1388 186.685 51.1199 186.683 51.1013 186.683L51.1013 186.682ZM57.1774 186.684C57.1588 186.685 57.14 186.686 57.1211 186.69C56.9698 186.723 56.8737 186.87 56.9058 187.022L57.5728 190.178C57.6048 190.33 57.7525 190.426 57.9038 190.394C58.0551 190.362 58.1512 190.214 58.1191 190.063L57.452 186.906C57.424 186.774 57.3075 186.683 57.1774 186.684L57.1774 186.684ZM54.1443 187.003C53.9896 187.003 53.8651 187.128 53.8651 187.282V190.509C53.8651 190.664 53.9896 190.789 54.1443 190.789C54.299 190.789 54.4235 190.664 54.4235 190.509V187.282C54.4235 187.128 54.299 187.003 54.1443 187.003ZM49.019 188.045C48.9106 188.055 48.8133 188.127 48.7774 188.238L48.3587 189.529C48.3108 189.676 48.3908 189.833 48.5379 189.881C48.685 189.929 48.8419 189.849 48.8897 189.701L49.3085 188.411C49.3563 188.263 49.2764 188.106 49.1293 188.058C49.0925 188.046 49.0552 188.042 49.019 188.045V188.045ZM59.2674 188.046C59.2312 188.043 59.1939 188.047 59.1572 188.059C59.01 188.107 58.93 188.264 58.9778 188.411L59.3965 189.702C59.4443 189.85 59.6012 189.93 59.7483 189.882C59.8955 189.834 59.9755 189.677 59.9277 189.529L59.5089 188.238C59.473 188.128 59.3758 188.055 59.2674 188.046V188.046ZM52.3917 188.765C52.2622 188.777 52.1555 188.879 52.1414 189.014L51.9998 190.364C51.9836 190.518 52.0944 190.655 52.2483 190.671C52.4021 190.687 52.539 190.576 52.5552 190.422L52.6968 189.073C52.713 188.919 52.6022 188.781 52.4483 188.765C52.4291 188.763 52.4102 188.763 52.3917 188.765L52.3917 188.765ZM55.8857 188.766C55.8672 188.764 55.8482 188.764 55.8289 188.766C55.6751 188.783 55.5641 188.92 55.5802 189.074L55.7209 190.424C55.737 190.578 55.8738 190.689 56.0276 190.673C56.1815 190.657 56.2924 190.52 56.2764 190.365L56.1357 189.016C56.1217 188.881 56.0151 188.779 55.8857 188.766L55.8857 188.766Z" fill="#F4F2F3"/>
<g opacity="0.409" filter="url(#filter2_f)">
<path d="M67.2297 161.415L51.9536 170.307L42.2949 185.54L56.4248 175.055L67.2297 161.415Z" fill="black"/>
</g>
<path d="M56.3309 174.901L51.9523 170.307L67.4849 159.839L56.3309 174.901Z" fill="#FF5F85"/>
<path d="M56.3298 174.901L51.9512 170.307L40.7972 185.369L56.3298 174.901Z" fill="#F1F1F1"/>
<path opacity="0.243" d="M40.7969 185.37L56.3295 174.903L67.4835 159.841L40.7969 185.37Z" fill="black"/>
<rect x="94.918" y="249.553" width="153.102" height="10.0102" rx="5.00508" fill="#EFF0F7"/>
<rect x="94.9238" y="249.553" width="32.0693" height="10.0102" rx="5.00508" fill="#596AFF"/>
<rect x="94.9238" y="230.534" width="99.5453" height="10.0102" rx="5.00508" fill="#D9DBE9"/>
<g filter="url(#filter3_d)">
<ellipse cx="54.7703" cy="245.049" rx="28.1629" ry="28.214" fill="#FF0000" fill-opacity="0.01"/>
</g>
<ellipse cx="54.1414" cy="245.049" rx="28.1629" ry="28.214" fill="white"/>
<path d="M72.9953 238.424C72.1297 236.354 70.3987 234.125 69.0342 233.426C70.0058 235.308 70.6807 237.33 71.0351 239.419V239.455C68.8102 233.88 65.0274 231.636 61.9369 226.739C61.774 226.494 61.6213 226.244 61.4685 225.984C61.382 225.831 61.3158 225.699 61.2496 225.576C61.1209 225.327 61.0218 225.063 60.9543 224.791C60.9546 224.779 60.9506 224.767 60.9432 224.758C60.9357 224.748 60.9253 224.742 60.9136 224.74C60.8972 224.733 60.8791 224.733 60.8627 224.74V224.75C60.8627 224.76 60.8474 224.75 60.8474 224.75V224.74C55.8986 227.647 54.2134 233.033 54.0607 235.721C52.0802 235.859 50.1871 236.591 48.6283 237.823C48.4657 237.684 48.2957 237.555 48.1191 237.435C47.6686 235.854 47.651 234.18 48.0682 232.589C46.2455 233.474 44.6262 234.728 43.3129 236.272C42.5238 235.283 42.5798 232.008 42.6256 231.325C42.3933 231.416 42.1715 231.533 41.9637 231.671C41.2712 232.165 40.6237 232.72 40.029 233.329C39.3574 234.016 38.7443 234.758 38.1962 235.548C36.9277 237.349 36.0279 239.384 35.5487 241.536L35.513 241.674C35.4774 241.842 35.3399 242.714 35.3196 242.898V242.949C35.1485 243.848 35.043 244.758 35.0039 245.672V245.774C35.0119 250.721 36.8709 255.486 40.214 259.127C43.5571 262.768 48.1413 265.021 53.0616 265.441C57.9818 265.861 62.8805 264.418 66.7906 261.396C70.7006 258.375 73.3378 253.995 74.1815 249.12C74.2172 248.865 74.2426 248.61 74.2732 248.355C74.6819 244.99 74.2443 241.577 73.0003 238.424H72.9953ZM50.2524 253.894C50.344 253.945 50.4306 253.996 50.5222 254.032L50.5375 254.042C50.4458 253.995 50.3525 253.944 50.2575 253.889L50.2524 253.894ZM71.0402 239.45V239.434V239.455V239.45Z" fill="url(#paint1_linear)"/>
<path d="M72.9953 238.424C72.1297 236.353 70.3987 234.124 69.0342 233.425C70.0058 235.308 70.6807 237.329 71.0351 239.419V239.459C72.5573 243.819 72.3383 248.6 70.4241 252.802C68.1636 257.663 62.6854 262.646 54.1167 262.402C44.8607 262.147 36.7044 255.261 35.177 246.243C34.9021 244.815 35.177 244.101 35.3196 242.943C35.13 243.839 35.0244 244.751 35.0039 245.667V245.769C35.0119 250.716 36.8709 255.48 40.214 259.121C43.5571 262.762 48.1413 265.015 53.0616 265.435C57.9818 265.855 62.8805 264.412 66.7906 261.391C70.7006 258.369 73.3378 253.989 74.1815 249.115C74.2172 248.86 74.2426 248.605 74.2732 248.35C74.6819 244.985 74.2443 241.571 73.0003 238.419L72.9953 238.424Z" fill="url(#paint2_radial)"/>
<path d="M72.9953 238.424C72.1297 236.353 70.3987 234.124 69.0342 233.425C70.0058 235.308 70.6807 237.329 71.0351 239.419V239.459C72.5573 243.819 72.3383 248.6 70.4241 252.802C68.1636 257.663 62.6854 262.646 54.1167 262.402C44.8607 262.147 36.7044 255.261 35.177 246.243C34.9021 244.815 35.177 244.101 35.3196 242.943C35.13 243.839 35.0244 244.751 35.0039 245.667V245.769C35.0119 250.716 36.8709 255.48 40.214 259.121C43.5571 262.762 48.1413 265.015 53.0616 265.435C57.9818 265.855 62.8805 264.412 66.7906 261.391C70.7006 258.369 73.3378 253.989 74.1815 249.115C74.2172 248.86 74.2426 248.605 74.2732 248.35C74.6819 244.985 74.2443 241.571 73.0003 238.419L72.9953 238.424Z" fill="url(#paint3_radial)"/>
<path d="M63.4 240.744C63.4509 240.775 63.4814 240.806 63.5222 240.836C63.0267 239.955 62.4097 239.148 61.6893 238.439C55.5593 232.298 60.0855 225.116 60.8492 224.754V224.739C55.9005 227.646 54.2152 233.032 54.0625 235.72C54.2916 235.705 54.5207 235.69 54.7549 235.69C56.5125 235.692 58.2382 236.161 59.7565 237.048C61.2749 237.935 62.5319 239.208 63.4 240.739V240.744Z" fill="url(#paint4_radial)"/>
<path d="M54.7695 241.979C54.7339 242.463 53.0028 244.162 52.3919 244.162C46.7813 244.162 45.875 247.559 45.875 247.559C46.1194 250.425 48.1152 252.782 50.5183 254.036L50.8543 254.189C51.0478 254.274 51.2412 254.354 51.4347 254.429C52.2603 254.723 53.1253 254.892 54.0007 254.929C63.8371 255.388 65.7413 243.147 58.644 239.592C60.3182 239.376 62.0128 239.79 63.3993 240.755C62.5313 239.224 61.2742 237.95 59.7559 237.063C58.2375 236.176 56.5118 235.708 54.7542 235.705C54.52 235.705 54.296 235.715 54.0618 235.731C52.0814 235.868 50.1883 236.601 48.6294 237.832C48.9349 238.087 49.2709 238.424 49.9888 239.133C51.3278 240.459 54.7593 241.821 54.7746 241.989L54.7695 241.979Z" fill="url(#paint5_radial)"/>
<path d="M54.7695 241.979C54.7339 242.463 53.0028 244.162 52.3919 244.162C46.7813 244.162 45.875 247.559 45.875 247.559C46.1194 250.425 48.1152 252.782 50.5183 254.036L50.8543 254.189C51.0478 254.274 51.2412 254.354 51.4347 254.429C52.2603 254.723 53.1253 254.892 54.0007 254.929C63.8371 255.388 65.7413 243.147 58.644 239.592C60.3182 239.376 62.0128 239.79 63.3993 240.755C62.5313 239.224 61.2742 237.95 59.7559 237.063C58.2375 236.176 56.5118 235.708 54.7542 235.705C54.52 235.705 54.296 235.715 54.0618 235.731C52.0814 235.868 50.1883 236.601 48.6294 237.832C48.9349 238.087 49.2709 238.424 49.9888 239.133C51.3278 240.459 54.7593 241.821 54.7746 241.989L54.7695 241.979Z" fill="url(#paint6_radial)"/>
<path d="M47.7133 237.164C47.8661 237.266 48.0035 237.353 48.1206 237.434C47.6701 235.853 47.6525 234.179 48.0697 232.589C46.247 233.473 44.6277 234.727 43.3145 236.271C43.4163 236.271 46.2674 236.22 47.7133 237.159V237.164Z" fill="url(#paint7_radial)"/>
<path d="M35.1794 246.243C36.7068 255.256 44.8529 262.142 54.1191 262.402C62.6878 262.647 68.1609 257.658 70.4215 252.802C72.3357 248.6 72.5546 243.82 71.0324 239.459V239.439V239.419L71.0426 239.454C71.735 244.035 69.4134 248.467 65.7782 251.466L65.7629 251.492C58.686 257.271 51.9146 254.98 50.5399 254.042C50.4381 253.998 50.3414 253.95 50.2497 253.899C46.1258 251.925 44.4151 248.156 44.7817 244.922C43.802 244.937 42.839 244.667 42.0094 244.144C41.1799 243.622 40.5193 242.87 40.1078 241.979C41.1918 241.314 42.4276 240.938 43.6976 240.887C44.9676 240.836 46.2295 241.112 47.363 241.688C49.6982 242.749 52.3548 242.853 54.7657 241.979C54.7555 241.816 51.324 240.449 49.9799 239.123C49.2671 238.419 48.9311 238.082 48.6256 237.827C48.463 237.689 48.293 237.559 48.1165 237.44C47.9994 237.358 47.8721 237.271 47.7092 237.169C46.2734 236.231 43.4121 236.282 43.3154 236.282H43.3052C42.5262 235.292 42.5771 232.018 42.6229 231.334C42.3907 231.426 42.1688 231.542 41.9611 231.681C41.2683 232.177 40.6208 232.733 40.0264 233.344C39.3497 234.029 38.7315 234.769 38.1782 235.557C36.9097 237.359 36.0099 239.394 35.5307 241.546C35.5206 241.586 34.818 244.657 35.1642 246.248L35.1794 246.243Z" fill="url(#paint8_radial)"/>
<path d="M61.6938 238.439C62.4142 239.148 63.0312 239.955 63.5267 240.837C63.6285 240.923 63.7303 241.005 63.822 241.081C68.3023 245.213 65.9603 251.053 65.7821 251.471C69.4122 248.472 71.7389 244.04 71.0414 239.459C68.8013 233.885 65.0235 231.64 61.928 226.744C61.7752 226.499 61.6225 226.249 61.4698 225.989C61.3832 225.836 61.317 225.703 61.2508 225.581C61.12 225.33 61.0192 225.065 60.9505 224.79C60.9507 224.778 60.9468 224.767 60.9393 224.757C60.9319 224.748 60.9214 224.742 60.9097 224.739C60.8933 224.733 60.8752 224.733 60.8588 224.739V224.749C60.8588 224.76 60.8435 224.749 60.8435 224.749C60.0798 225.117 55.5486 232.298 61.6887 238.439H61.6938Z" fill="url(#paint9_radial)"/>
<path d="M63.8168 241.082C63.7303 241 63.6285 240.918 63.5216 240.837L63.3994 240.745C62.0108 239.781 60.3142 239.368 58.639 239.587C65.7363 243.147 63.8321 255.399 53.9957 254.93C53.1222 254.893 52.259 254.727 51.4348 254.435C51.2413 254.367 51.0478 254.289 50.8544 254.2C50.7424 254.149 50.6354 254.098 50.5234 254.047H50.5387C51.9134 254.986 58.6848 257.281 65.7719 251.497L65.7821 251.476C65.9603 251.068 68.3023 245.218 63.827 241.092L63.8168 241.082Z" fill="url(#paint10_radial)"/>
<path d="M45.872 247.559C45.872 247.559 46.7884 244.162 52.3888 244.162C52.9998 244.162 54.7309 242.463 54.7716 241.969C52.3583 242.847 49.6974 242.745 47.3586 241.683C46.2252 241.107 44.9633 240.831 43.6933 240.882C42.4233 240.933 41.1874 241.309 40.1035 241.974C40.5165 242.865 41.1789 243.617 42.0104 244.139C42.8419 244.66 43.8067 244.929 44.7875 244.912C44.4159 248.145 46.1214 251.915 50.2505 253.889C50.3421 253.94 50.4287 253.98 50.5203 254.026C48.1121 252.777 46.1214 250.42 45.872 247.549V247.559Z" fill="url(#paint11_radial)"/>
<path d="M72.9937 238.424C72.1282 236.354 70.3972 234.125 69.0327 233.426C70.0042 235.308 70.6792 237.33 71.0336 239.419V239.455C68.8087 233.88 65.0258 231.636 61.9354 226.739C61.7725 226.494 61.6197 226.244 61.467 225.984C61.3804 225.831 61.3143 225.699 61.2481 225.576C61.1194 225.327 61.0203 225.063 60.9528 224.791C60.953 224.779 60.9491 224.767 60.9416 224.758C60.9342 224.748 60.9237 224.742 60.912 224.74C60.8957 224.733 60.8775 224.733 60.8611 224.74V224.75C60.8611 224.76 60.8459 224.75 60.8459 224.75V224.74C55.8971 227.647 54.2119 233.033 54.0591 235.721C54.2883 235.706 54.5174 235.691 54.7516 235.691C56.5092 235.693 58.2348 236.162 59.7532 237.049C61.2715 237.935 62.5286 239.209 63.3966 240.74C62.0087 239.779 60.3142 239.368 58.6413 239.587C65.7386 243.148 63.8345 255.399 53.998 254.93C53.1228 254.894 52.2579 254.727 51.432 254.435C51.2386 254.367 51.0451 254.289 50.8516 254.2L50.5156 254.047H50.5309C50.4392 254.003 50.3459 253.956 50.2508 253.905C50.3425 253.956 50.429 254.007 50.5207 254.042C48.1125 252.793 46.1218 250.436 45.8723 247.565C45.8723 247.565 46.7888 244.173 52.3892 244.173C53.0002 244.173 54.7312 242.474 54.7719 241.98C54.7617 241.827 51.3302 240.449 49.9861 239.133C49.2733 238.419 48.9322 238.088 48.6318 237.833C48.4692 237.694 48.2992 237.565 48.1227 237.445C47.6721 235.864 47.6545 234.19 48.0718 232.6C46.2491 233.484 44.6297 234.738 43.3165 236.282C42.5273 235.293 42.5833 232.018 42.6292 231.335C42.3969 231.427 42.175 231.543 41.9673 231.682C41.2747 232.176 40.6273 232.73 40.0326 233.339C39.361 234.026 38.7479 234.769 38.1997 235.558C36.9312 237.359 36.0314 239.394 35.5522 241.546L35.5115 241.674C35.4759 241.842 35.3078 242.729 35.2824 242.918C35.1305 243.829 35.0336 244.749 34.9922 245.672V245.774C35.0002 250.721 36.8592 255.486 40.2023 259.127C43.5454 262.768 48.1296 265.021 53.0498 265.441C57.9701 265.861 62.8688 264.418 66.7788 261.396C70.6889 258.375 73.3261 253.995 74.1698 249.12C74.2055 248.865 74.2309 248.61 74.2615 248.355C74.6702 244.99 74.2326 241.577 72.9886 238.424H72.9937ZM71.0336 239.445V239.46V239.445Z" fill="url(#paint12_linear)"/>
<rect x="26.6602" y="37.4429" width="80.9822" height="12.0122" rx="6.0061" fill="#D9DBE9"/>
<defs>
<filter id="filter0_d" x="11.3221" y="61.7991" width="85.6386" height="85.7409" filterUnits="userSpaceOnUse" color-interpolation-filters="sRGB">
<feFlood flood-opacity="0" result="BackgroundImageFix"/>
<feColorMatrix in="SourceAlpha" type="matrix" values="0 0 0 0 0 0 0 0 0 0 0 0 0 0 0 0 0 0 127 0" result="hardAlpha"/>
<feOffset dy="4.50966"/>
<feGaussianBlur stdDeviation="7.32821"/>
<feColorMatrix type="matrix" values="0 0 0 0 0.0423448 0 0 0 0 0.0391396 0 0 0 0 0.199398 0 0 0 0.07 0"/>
<feBlend mode="normal" in2="BackgroundImageFix" result="effect1_dropShadow"/>
<feBlend mode="normal" in="SourceGraphic" in2="effect1_dropShadow" result="shape"/>
</filter>
<filter id="filter1_d" x="11.3221" y="134.243" width="85.6386" height="85.7409" filterUnits="userSpaceOnUse" color-interpolation-filters="sRGB">
<feFlood flood-opacity="0" result="BackgroundImageFix"/>
<feColorMatrix in="SourceAlpha" type="matrix" values="0 0 0 0 0 0 0 0 0 0 0 0 0 0 0 0 0 0 127 0" result="hardAlpha"/>
<feOffset dy="4.50966"/>
<feGaussianBlur stdDeviation="7.32821"/>
<feColorMatrix type="matrix" values="0 0 0 0 0.0423448 0 0 0 0 0.0391396 0 0 0 0 0.199398 0 0 0 0.07 0"/>
<feBlend mode="normal" in2="BackgroundImageFix" result="effect1_dropShadow"/>
<feBlend mode="normal" in="SourceGraphic" in2="effect1_dropShadow" result="shape"/>
</filter>
<filter id="filter2_f" x="41.8466" y="160.967" width="25.8315" height="25.0213" filterUnits="userSpaceOnUse" color-interpolation-filters="sRGB">
<feFlood flood-opacity="0" result="BackgroundImageFix"/>
<feBlend mode="normal" in="SourceGraphic" in2="BackgroundImageFix" result="shape"/>
<feGaussianBlur stdDeviation="0.22416" result="effect1_foregroundBlur"/>
</filter>
<filter id="filter3_d" x="11.951" y="206.688" width="85.6386" height="85.7409" filterUnits="userSpaceOnUse" color-interpolation-filters="sRGB">
<feFlood flood-opacity="0" result="BackgroundImageFix"/>
<feColorMatrix in="SourceAlpha" type="matrix" values="0 0 0 0 0 0 0 0 0 0 0 0 0 0 0 0 0 0 127 0" result="hardAlpha"/>
<feOffset dy="4.50966"/>
<feGaussianBlur stdDeviation="7.32821"/>
<feColorMatrix type="matrix" values="0 0 0 0 0.0423448 0 0 0 0 0.0391396 0 0 0 0 0.199398 0 0 0 0.07 0"/>
<feBlend mode="normal" in2="BackgroundImageFix" result="effect1_dropShadow"/>
<feBlend mode="normal" in="SourceGraphic" in2="effect1_dropShadow" result="shape"/>
</filter>
<radialGradient id="paint0_radial" cx="0" cy="0" r="1" gradientUnits="userSpaceOnUse" gradientTransform="translate(54.2301 169.807) scale(20.7791 20.8168)">
<stop stop-color="#06C2E7"/>
<stop offset="0.25" stop-color="#0DB8EC"/>
<stop offset="0.5" stop-color="#12AEF1"/>
<stop offset="0.75" stop-color="#1F86F9"/>
<stop offset="1" stop-color="#107DDD"/>
</radialGradient>
<linearGradient id="paint1_linear" x1="70.4012" y1="231.055" x2="36.5737" y2="261.554" gradientUnits="userSpaceOnUse">
<stop offset="0.048" stop-color="#FFF44F"/>
<stop offset="0.111" stop-color="#FFE847"/>
<stop offset="0.225" stop-color="#FFC830"/>
<stop offset="0.368" stop-color="#FF980E"/>
<stop offset="0.401" stop-color="#FF8B16"/>
<stop offset="0.462" stop-color="#FF672A"/>
<stop offset="0.534" stop-color="#FF3647"/>
<stop offset="0.705" stop-color="#E31587"/>
</linearGradient>
<radialGradient id="paint2_radial" cx="0" cy="0" r="1" gradientUnits="userSpaceOnUse" gradientTransform="translate(69.5296 229.268) scale(41.1363 41.211)">
<stop offset="0.129" stop-color="#FFBD4F"/>
<stop offset="0.186" stop-color="#FFAC31"/>
<stop offset="0.247" stop-color="#FF9D17"/>
<stop offset="0.283" stop-color="#FF980E"/>
<stop offset="0.403" stop-color="#FF563B"/>
<stop offset="0.467" stop-color="#FF3750"/>
<stop offset="0.71" stop-color="#F5156C"/>
<stop offset="0.782" stop-color="#EB0878"/>
<stop offset="0.86" stop-color="#E50080"/>
</radialGradient>
<radialGradient id="paint3_radial" cx="0" cy="0" r="1" gradientUnits="userSpaceOnUse" gradientTransform="translate(54.498 246.116) scale(41.1363 41.211)">
<stop offset="0.3" stop-color="#960E18"/>
<stop offset="0.351" stop-color="#B11927" stop-opacity="0.74"/>
<stop offset="0.435" stop-color="#DB293D" stop-opacity="0.343"/>
<stop offset="0.497" stop-color="#F5334B" stop-opacity="0.094"/>
<stop offset="0.53" stop-color="#FF3750" stop-opacity="0"/>
</radialGradient>
<radialGradient id="paint4_radial" cx="0" cy="0" r="1" gradientUnits="userSpaceOnUse" gradientTransform="translate(59.4542 219.915) scale(29.8015 29.8556)">
<stop offset="0.132" stop-color="#FFF44F"/>
<stop offset="0.252" stop-color="#FFDC3E"/>
<stop offset="0.506" stop-color="#FF9D12"/>
<stop offset="0.526" stop-color="#FF980E"/>
</radialGradient>
<radialGradient id="paint5_radial" cx="0" cy="0" r="1" gradientUnits="userSpaceOnUse" gradientTransform="translate(49.944 256.881) scale(19.5868 19.6223)">
<stop offset="0.353" stop-color="#3A8EE6"/>
<stop offset="0.472" stop-color="#5C79F0"/>
<stop offset="0.669" stop-color="#9059FF"/>
<stop offset="1" stop-color="#C139E6"/>
</radialGradient>
<radialGradient id="paint6_radial" cx="0" cy="0" r="1" gradientUnits="userSpaceOnUse" gradientTransform="translate(56.742 242.738) rotate(-13.6153) scale(10.3858 12.1789)">
<stop offset="0.206" stop-color="#9059FF" stop-opacity="0"/>
<stop offset="0.278" stop-color="#8C4FF3" stop-opacity="0.064"/>
<stop offset="0.747" stop-color="#7716A8" stop-opacity="0.45"/>
<stop offset="0.975" stop-color="#6E008B" stop-opacity="0.6"/>
</radialGradient>
<radialGradient id="paint7_radial" cx="0" cy="0" r="1" gradientUnits="userSpaceOnUse" gradientTransform="translate(53.9751 227.582) scale(14.0907 14.1163)">
<stop stop-color="#FFE226"/>
<stop offset="0.121" stop-color="#FFDB27"/>
<stop offset="0.295" stop-color="#FFC82A"/>
<stop offset="0.502" stop-color="#FFA930"/>
<stop offset="0.732" stop-color="#FF7E37"/>
<stop offset="0.792" stop-color="#FF7139"/>
</radialGradient>
<radialGradient id="paint8_radial" cx="0" cy="0" r="1" gradientUnits="userSpaceOnUse" gradientTransform="translate(65.0517 218.628) scale(60.1187 60.2279)">
<stop offset="0.113" stop-color="#FFF44F"/>
<stop offset="0.456" stop-color="#FF980E"/>
<stop offset="0.622" stop-color="#FF5634"/>
<stop offset="0.716" stop-color="#FF3647"/>
<stop offset="0.904" stop-color="#E31587"/>
</radialGradient>
<radialGradient id="paint9_radial" cx="0" cy="0" r="1" gradientUnits="userSpaceOnUse" gradientTransform="translate(59.9834 221.977) rotate(83.9868) scale(44.1416 28.9184)">
<stop stop-color="#FFF44F"/>
<stop offset="0.06" stop-color="#FFE847"/>
<stop offset="0.168" stop-color="#FFC830"/>
<stop offset="0.304" stop-color="#FF980E"/>
<stop offset="0.356" stop-color="#FF8B16"/>
<stop offset="0.455" stop-color="#FF672A"/>
<stop offset="0.57" stop-color="#FF3647"/>
<stop offset="0.737" stop-color="#E31587"/>
</radialGradient>
<radialGradient id="paint10_radial" cx="0" cy="0" r="1" gradientUnits="userSpaceOnUse" gradientTransform="translate(53.6429 232.81) scale(37.5331 37.6013)">
<stop offset="0.137" stop-color="#FFF44F"/>
<stop offset="0.48" stop-color="#FF980E"/>
<stop offset="0.592" stop-color="#FF5634"/>
<stop offset="0.655" stop-color="#FF3647"/>
<stop offset="0.904" stop-color="#E31587"/>
</radialGradient>
<radialGradient id="paint11_radial" cx="0" cy="0" r="1" gradientUnits="userSpaceOnUse" gradientTransform="translate(63.5526 235.011) scale(41.0797 41.1543)">
<stop offset="0.094" stop-color="#FFF44F"/>
<stop offset="0.231" stop-color="#FFE141"/>
<stop offset="0.509" stop-color="#FFAF1E"/>
<stop offset="0.626" stop-color="#FF980E"/>
</radialGradient>
<linearGradient id="paint12_linear" x1="69.9953" y1="230.892" x2="41.1752" y2="257.807" gradientUnits="userSpaceOnUse">
<stop offset="0.167" stop-color="#FFF44F" stop-opacity="0.8"/>
<stop offset="0.266" stop-color="#FFF44F" stop-opacity="0.634"/>
<stop offset="0.489" stop-color="#FFF44F" stop-opacity="0.217"/>
<stop offset="0.6" stop-color="#FFF44F" stop-opacity="0"/>
</linearGradient>
</defs>
</svg>
