<svg width="374" height="254" viewBox="0 0 374 254" fill="none" xmlns="http://www.w3.org/2000/svg">
<rect width="374" height="253.475" fill="#FFF1D7"/>
<mask id="mask0" mask-type="alpha" maskUnits="userSpaceOnUse" x="0" y="0" width="374" height="254">
<rect width="374" height="253.475" fill="#FFF1D7"/>
</mask>
<g mask="url(#mask0)">
<rect x="42.8926" y="35.9658" width="287.216" height="264.81" rx="20" fill="#FFF9EF"/>
<rect x="67.4043" y="84.0513" width="111.312" height="11.1593" rx="5.57964" fill="#FFECC9"/>
<rect x="118.273" y="109.21" width="180.37" height="11.1593" rx="5.57964" fill="#FFECC9"/>
<rect x="87.0254" y="134.37" width="145.144" height="11.1593" rx="5.57964" fill="#FFECC9"/>
<rect x="67.4043" y="159.529" width="86.8137" height="11.1593" rx="5.57964" fill="#FFECC9"/>
<rect x="92.8379" y="184.688" width="111.296" height="11.1593" rx="5.57964" fill="#FFECC9"/>
<rect x="92.8379" y="184.688" width="111.296" height="11.1593" rx="5.57964" fill="#FFECC9"/>
<rect x="67.4043" y="214.599" width="83.2133" height="11.1593" rx="5.57964" fill="#FFECC9"/>
<rect x="159.074" y="214.599" width="142.926" height="11.1593" rx="5.57964" fill="#FFECC9"/>
<rect x="215.125" y="184.688" width="57.4764" height="11.1593" rx="5.57964" fill="#FFECC9"/>
<rect x="190.688" y="84.0513" width="58.0081" height="11.1593" rx="5.57964" fill="#FFECC9"/>
</g>
<circle cx="73.2162" cy="60.2313" r="5.8119" fill="#FFEAC2"/>
<circle cx="92.8373" cy="60.2313" r="5.8119" fill="#FFEAC2"/>
<circle cx="112.462" cy="60.2313" r="5.8119" fill="#FFEAC2"/>
</svg>
