<svg width="374" height="254" viewBox="0 0 374 254" fill="none" xmlns="http://www.w3.org/2000/svg">
<rect width="374" height="253.475" fill="#FFE5E9"/>
<mask id="mask0" style="mask-type:alpha" maskUnits="userSpaceOnUse" x="0" y="0" width="374" height="254">
<rect width="374" height="253.475" fill="#FFE5E9"/>
</mask>
<g mask="url(#mask0)">
<rect x="42.8926" y="24.2441" width="287.216" height="264.81" rx="20" fill="#FFF3F5"/>
<circle cx="72.5404" cy="90.6068" r="7.73963" fill="#FFC9D6"/>
<rect x="90.8008" y="86.6548" width="33.7884" height="7.90389" rx="3.95194" fill="#FFDCE1"/>
<circle cx="72.5404" cy="120.086" r="7.73963" fill="#FFDCE1"/>
<rect x="90.8008" y="116.134" width="47.8946" height="7.90389" rx="3.95194" fill="#FFDCE1"/>
<circle cx="72.5404" cy="149.566" r="7.73963" fill="#FFDCE1"/>
<rect x="90.8008" y="145.614" width="33.7884" height="7.90389" rx="3.95194" fill="#FFDCE1"/>
<rect x="201.512" y="109.552" width="73.1743" height="10.4436" rx="5.22181" fill="#FFDCE1"/>
<rect x="215.039" y="128.451" width="46.1181" height="10.4436" rx="5.22181" fill="#FFDCE1"/>
<path d="M177.925 92.5822C184.156 79.6545 194.59 69.2249 207.521 63.0011C220.452 56.7774 235.113 55.1281 249.103 58.3234C263.094 61.5187 275.585 69.3692 284.531 80.5897C293.478 91.8101 298.35 105.736 298.35 120.086" stroke="#FFC9D6" stroke-width="21.6975" stroke-linecap="round"/>
<path d="M297.493 109.741C299.052 119.798 298.165 130.082 294.908 139.724C291.65 149.366 286.118 158.081 278.778 165.132C271.439 172.183 262.51 177.362 252.745 180.23C242.98 183.099 232.668 183.573 222.682 181.612C212.695 179.651 203.328 175.313 195.373 168.966C187.418 162.618 181.109 154.447 176.981 145.145C172.852 135.842 171.026 125.682 171.656 115.525C172.286 105.367 175.353 95.5104 180.599 86.7894" stroke="#FFDCE1" stroke-width="21.6975" stroke-linecap="round"/>
</g>
</svg>
