<svg width="598" height="476" viewBox="0 0 598 476" fill="none" xmlns="http://www.w3.org/2000/svg">
<path d="M440.491 461.84H433.301C431.417 461.84 429.891 463.367 429.891 465.25V472C429.891 473.883 431.417 475.41 433.301 475.41H440.491C442.374 475.41 443.901 473.883 443.901 472V465.25C443.901 463.367 442.374 461.84 440.491 461.84Z" fill="#FF5F85"/>
<path d="M193.551 473.98H151.211C149.71 473.975 148.271 473.375 147.211 472.313C146.15 471.25 145.553 469.811 145.551 468.31V468.31C145.551 466.804 146.149 465.359 147.214 464.294C148.28 463.228 149.724 462.63 151.231 462.63H193.551C195.057 462.63 196.502 463.228 197.567 464.294C198.632 465.359 199.231 466.804 199.231 468.31C199.231 469.055 199.084 469.794 198.798 470.482C198.513 471.171 198.094 471.796 197.567 472.323C197.039 472.849 196.413 473.267 195.724 473.551C195.035 473.836 194.296 473.981 193.551 473.98Z" fill="#FFC147"/>
<circle opacity="0.8" cx="298.566" cy="216.25" r="216.25" fill="#F3F5FF"/>
<path d="M121.311 197.8H6.89093C5.71602 197.8 4.58924 197.333 3.75845 196.503C2.92767 195.672 2.46094 194.545 2.46094 193.37V193.37C2.46094 192.789 2.57559 192.213 2.79834 191.676C3.02109 191.139 3.34756 190.652 3.75906 190.241C4.17055 189.831 4.65899 189.505 5.1964 189.284C5.73382 189.062 6.30965 188.949 6.89093 188.95H121.311C122.483 188.95 123.607 189.416 124.436 190.245C125.265 191.074 125.731 192.198 125.731 193.37V193.37C125.732 193.951 125.619 194.527 125.397 195.065C125.176 195.602 124.85 196.09 124.44 196.502C124.029 196.913 123.542 197.24 123.005 197.463C122.468 197.685 121.892 197.8 121.311 197.8V197.8Z" fill="#FF5F85"/>
<path d="M332.16 79.57H257.62C256.418 79.57 255.266 79.0928 254.417 78.2432C253.567 77.3937 253.09 76.2415 253.09 75.04V75.04C253.09 74.4456 253.207 73.857 253.435 73.308C253.663 72.7589 253.996 72.2602 254.417 71.8404C254.838 71.4205 255.337 71.0878 255.887 70.8612C256.437 70.6347 257.025 70.5187 257.62 70.52H332.16C332.754 70.5187 333.343 70.6347 333.893 70.8612C334.442 71.0878 334.942 71.4205 335.362 71.8404C335.783 72.2602 336.117 72.7589 336.345 73.308C336.573 73.857 336.69 74.4456 336.69 75.04V75.04C336.69 76.2415 336.213 77.3937 335.363 78.2432C334.513 79.0928 333.361 79.57 332.16 79.57V79.57Z" fill="#FFC147"/>
<path d="M57.8397 231.28H44.6897C41.2324 231.28 38.4297 234.083 38.4297 237.54V249.89C38.4297 253.347 41.2324 256.15 44.6897 256.15H57.8397C61.297 256.15 64.0997 253.347 64.0997 249.89V237.54C64.0997 234.083 61.297 231.28 57.8397 231.28Z" fill="#8364FF"/>
<path d="M567.178 194.378H559.988C558.105 194.378 556.578 195.905 556.578 197.788V204.538C556.578 206.421 558.105 207.948 559.988 207.948H567.178C569.061 207.948 570.588 206.421 570.588 204.538V197.788C570.588 195.905 569.061 194.378 567.178 194.378Z" fill="#8364FF"/>
<path d="M66.1948 401.963C66.671 399.501 64.0962 397.576 61.8697 398.73L36.4467 411.897C34.2538 413.033 34.2957 416.183 36.518 417.261L41.5716 419.71L30.5484 432.875C29.4766 434.155 29.6559 436.064 30.9474 437.122L36.3023 441.508C37.6218 442.589 39.5759 442.354 40.6011 440.99L51.2416 426.84L55.6219 431.533C57.2948 433.326 60.2948 432.463 60.7604 430.056L66.1948 401.963Z" fill="#596AFF"/>
<path d="M465.301 135.43H124.291C120.342 135.43 117.141 138.631 117.141 142.58V426.61C117.141 430.559 120.342 433.76 124.291 433.76H465.301C469.249 433.76 472.451 430.559 472.451 426.61V142.58C472.451 138.631 469.249 135.43 465.301 135.43Z" fill="white"/>
<path d="M117.141 171.33H472.451" stroke="#EFF0F7" stroke-width="1.94" stroke-miterlimit="10"/>
<path d="M465.301 135.43H124.291C120.342 135.43 117.141 138.631 117.141 142.58V426.61C117.141 430.559 120.342 433.76 124.291 433.76H465.301C469.249 433.76 472.451 430.559 472.451 426.61V142.58C472.451 138.631 469.249 135.43 465.301 135.43Z" stroke="#EFF0F7" stroke-width="1.94" stroke-miterlimit="10"/>
<path d="M190.91 292.35H10.35C4.63386 292.35 0 296.984 0 302.7V369.64C0 375.356 4.63386 379.99 10.35 379.99H190.91C196.626 379.99 201.26 375.356 201.26 369.64V302.7C201.26 296.984 196.626 292.35 190.91 292.35Z" fill="#E7EBFF"/>
<path d="M0 323.05H201.26" stroke="#D0D6FA" stroke-width="1.48" stroke-miterlimit="10"/>
<path d="M510.805 93.1539H442.847C437.176 93.1539 432.578 98.5532 432.578 105.214V169.59C432.578 176.251 437.176 181.65 442.847 181.65H510.805C516.477 181.65 521.074 176.251 521.074 169.59V105.214C521.074 98.5532 516.477 93.1539 510.805 93.1539Z" fill="#FF5F85"/>
<path fill-rule="evenodd" clip-rule="evenodd" d="M454.781 134.47C454.781 123.916 463.246 115.359 473.689 115.359C478.703 115.359 483.513 117.373 487.058 120.957C490.604 124.541 492.596 129.402 492.596 134.47C492.596 145.025 484.131 153.581 473.689 153.581C463.246 153.581 454.781 145.025 454.781 134.47ZM492.288 149.866L497.919 154.411H498.017C499.156 155.563 499.156 157.43 498.017 158.581C496.878 159.733 495.031 159.733 493.891 158.581L489.218 153.225C488.777 152.78 488.528 152.176 488.528 151.545C488.528 150.915 488.777 150.311 489.218 149.866C490.07 149.019 491.436 149.019 492.288 149.866Z" fill="white"/>
<path d="M86.2291 85.2101H39.6691C31.8653 85.2101 25.5391 92.1209 25.5391 100.646V143.774C25.5391 152.299 31.8653 159.21 39.6691 159.21H86.2291C94.0328 159.21 100.359 152.299 100.359 143.774V100.646C100.359 92.1209 94.0328 85.2101 86.2291 85.2101Z" fill="#4457FF"/>
<path d="M53.7404 113.027L53.7406 113.014V113.001C53.7406 107.959 57.9073 103.792 62.9495 103.792C67.9917 103.792 72.1584 107.959 72.1584 113.001C72.1584 116.862 69.8292 119.464 67.9842 121.465C67.9083 121.547 67.8325 121.629 67.757 121.711C66.9878 122.542 66.2468 123.343 65.7296 124.193C65.0882 125.247 64.7913 126.346 64.7913 127.735V127.748L64.7915 127.761C64.7949 128.006 64.7498 128.248 64.6588 128.474C64.5678 128.701 64.4327 128.907 64.2613 129.081C64.0899 129.255 63.8857 129.393 63.6605 129.487C63.4353 129.581 63.1936 129.63 62.9495 129.63C62.7054 129.63 62.4637 129.581 62.2385 129.487C62.0133 129.393 61.8091 129.255 61.6377 129.081C61.4663 128.907 61.3312 128.701 61.2402 128.474C61.1492 128.248 61.1041 128.006 61.1075 127.761L61.1077 127.748V127.735C61.1077 123.726 63.4363 120.971 65.282 118.969C65.3776 118.865 65.4729 118.763 65.5673 118.661C66.3275 117.84 67.0363 117.074 67.5293 116.306C68.1676 115.311 68.4748 114.289 68.4748 113.001C68.4748 109.903 66.048 107.476 62.9495 107.476C59.851 107.476 57.4242 109.903 57.4242 113.001V113.014L57.4243 113.027C57.4278 113.271 57.3827 113.514 57.2917 113.74C57.2007 113.967 57.0655 114.173 56.8941 114.347C56.7228 114.52 56.5185 114.658 56.2933 114.753C56.0682 114.847 55.8265 114.895 55.5824 114.895C55.3383 114.895 55.0966 114.847 54.8714 114.753C54.6462 114.658 54.442 114.52 54.2706 114.347C54.0992 114.173 53.9641 113.967 53.8731 113.74C53.782 113.514 53.737 113.271 53.7404 113.027ZM61.6472 137.484C61.9926 137.138 62.461 136.944 62.9495 136.944C63.438 136.944 63.9064 137.138 64.2518 137.484C64.5972 137.829 64.7913 138.298 64.7913 138.786C64.7913 139.275 64.5972 139.743 64.2518 140.088C63.9064 140.434 63.438 140.628 62.9495 140.628C62.461 140.628 61.9926 140.434 61.6472 140.088C61.3018 139.743 61.1077 139.275 61.1077 138.786C61.1077 138.298 61.3018 137.829 61.6472 137.484Z" fill="#3E395F" stroke="white" stroke-width="3.68356"/>
<path d="M584.071 238.34H415.441C408.233 238.34 402.391 244.183 402.391 251.39V377.22C402.391 384.427 408.233 390.27 415.441 390.27H584.071C591.278 390.27 597.121 384.427 597.121 377.22V251.39C597.121 244.183 591.278 238.34 584.071 238.34Z" fill="#E1E4FF"/>
<path d="M402.391 269.07H597.131" stroke="#D0D6FA" stroke-width="1.43" stroke-miterlimit="10"/>
<path d="M313.359 327.68L312.619 317.68L250.069 320.75V330.44C250.069 330.44 235.999 343.82 230.449 432.86H343.039C343.039 432.86 355.389 354.03 313.359 327.68Z" fill="#4457FF"/>
<path d="M250.07 330.4L313.36 327.68" stroke="#3F4ED5" stroke-width="1.55" stroke-miterlimit="10"/>
<path d="M263 371.46L275.97 376.74L282.91 432.83" stroke="#3F4ED5" stroke-width="1.55" stroke-miterlimit="10"/>
<path d="M181.691 308.31L198.971 251.31L236.971 265.55L218.731 320.18C217.099 325.019 213.628 329.022 209.069 331.324C204.511 333.627 199.229 334.043 194.366 332.485C189.502 330.926 185.447 327.517 183.076 322.994C180.704 318.471 180.207 313.197 181.691 308.31V308.31Z" fill="#FCD0CA"/>
<path d="M208.35 220.78C209.127 218.146 210.423 215.694 212.16 213.568C213.897 211.441 216.042 209.683 218.468 208.397C220.894 207.111 223.552 206.322 226.287 206.076C229.022 205.831 231.778 206.135 234.394 206.969C237.01 207.804 239.434 209.153 241.521 210.936C243.609 212.72 245.32 214.902 246.553 217.356C247.785 219.809 248.516 222.485 248.701 225.224C248.886 227.964 248.522 230.713 247.63 233.31L236.98 265.47L198.98 251.23L208.35 220.78Z" fill="#FF7E9D"/>
<path d="M211.042 304.01L167.632 221.7C167.632 221.7 168.632 206.83 143.922 205.94C143.592 205.94 143.252 205.89 142.922 205.89H134.672C133.924 205.875 133.195 206.129 132.618 206.606C132.042 207.084 131.656 207.752 131.532 208.49C131.464 208.894 131.479 209.307 131.577 209.704C131.675 210.101 131.853 210.474 132.1 210.8C132.347 211.126 132.659 211.398 133.015 211.599C133.371 211.8 133.765 211.927 134.172 211.97L142.502 213.15L131.172 216.15L129.052 216.93L113.622 206.74C113.096 206.363 112.444 206.204 111.804 206.298C111.164 206.391 110.584 206.729 110.188 207.24C109.792 207.752 109.609 208.397 109.679 209.041C109.749 209.684 110.065 210.275 110.562 210.69C111.562 211.49 113.052 212.8 114.722 214.25L111.312 212.25C110.756 211.888 110.079 211.762 109.431 211.898C108.782 212.035 108.214 212.424 107.852 212.98C107.49 213.536 107.363 214.212 107.5 214.861C107.637 215.51 108.026 216.078 108.582 216.44L111.582 218.58L110.402 218.12C109.773 217.847 109.071 217.798 108.41 217.98C107.75 218.162 107.172 218.564 106.772 219.12C106.522 219.48 106.355 219.891 106.284 220.324C106.214 220.757 106.241 221.2 106.364 221.621C106.486 222.042 106.702 222.43 106.994 222.757C107.286 223.083 107.647 223.341 108.052 223.51L124.912 230.57C127.822 231.79 130.612 232.57 134.032 231.74L149.032 228.19L182.722 322.31L211.042 304.01Z" fill="#FCD0CA"/>
<path d="M193.219 270.22L201.259 285.45" stroke="#FFADC1" stroke-width="1.5" stroke-miterlimit="10"/>
<path d="M242.138 206.43L225.998 207.64C225.998 207.64 202.638 239.31 250.068 320.72L312.618 317.65L317.328 229.95L309.608 205.06H281.548L242.138 206.43Z" fill="#FF7E9D"/>
<path d="M223.831 260.56C223.831 260.56 219.171 250.77 222.161 229.09" stroke="#FF3D6C" stroke-width="1.55" stroke-miterlimit="10"/>
<path d="M369.011 296.83L343.011 243.19L307.691 263.19L334.261 314.31C336.604 318.876 340.656 322.33 345.534 323.922C350.413 325.513 355.722 325.112 360.307 322.806C364.891 320.5 368.378 316.476 370.008 311.611C371.639 306.745 371.281 301.433 369.011 296.83Z" fill="#FCD0CA"/>
<path d="M329.021 214.57C327.822 212.122 326.149 209.935 324.1 208.138C322.05 206.34 319.664 204.967 317.08 204.097C314.497 203.227 311.766 202.879 309.047 203.071C306.327 203.264 303.673 203.994 301.237 205.219C298.802 206.444 296.633 208.14 294.858 210.208C293.082 212.277 291.734 214.677 290.891 217.27C290.049 219.863 289.73 222.597 289.951 225.314C290.172 228.031 290.93 230.678 292.181 233.1L307.721 263.2L343.041 243.2L329.021 214.57Z" fill="#FF7E9D"/>
<path d="M307.721 263.2L294.891 238.34" stroke="#FF3D6C" stroke-width="1.55" stroke-miterlimit="10"/>
<path d="M423.229 205.06C422.824 204.513 422.247 204.118 421.591 203.937C420.935 203.756 420.237 203.799 419.609 204.06L412.059 207L419.149 201C419.731 200.53 420.117 199.858 420.23 199.118C420.343 198.378 420.175 197.623 419.759 197C419.523 196.675 419.224 196.402 418.881 196.195C418.537 195.988 418.155 195.852 417.758 195.795C417.361 195.738 416.956 195.761 416.568 195.863C416.18 195.966 415.817 196.145 415.499 196.39L408.909 201.7L414.549 194.31C415.006 193.729 415.233 192.999 415.185 192.26C415.137 191.522 414.818 190.827 414.289 190.31C413.994 190.034 413.645 189.822 413.264 189.687C412.884 189.553 412.479 189.498 412.076 189.527C411.673 189.557 411.281 189.669 410.923 189.857C410.566 190.045 410.251 190.305 409.999 190.62L398.899 202.14L387.569 199.14L395.899 197.96C396.302 197.91 396.691 197.779 397.043 197.577C397.395 197.374 397.703 197.103 397.949 196.78C398.195 196.457 398.373 196.088 398.475 195.695C398.576 195.301 398.598 194.892 398.539 194.49C398.412 193.753 398.026 193.086 397.45 192.609C396.874 192.132 396.147 191.877 395.399 191.89H387.139C382.265 191.851 377.547 193.609 373.889 196.83L373.709 196.96C368.649 200.96 370.489 209.14 370.489 209.14L339.379 297.22L370.209 310.9L387.969 216.31H399.319C400.021 216.37 400.727 216.37 401.429 216.31H401.549C402.777 216.2 403.981 215.903 405.119 215.43L421.979 209.43C422.371 209.249 422.719 208.986 422.999 208.658C423.28 208.331 423.487 207.946 423.605 207.531C423.724 207.117 423.752 206.681 423.687 206.255C423.622 205.828 423.466 205.421 423.229 205.06Z" fill="#FCD0CA"/>
<path d="M351.45 260.56L344.73 284.01" stroke="#FFADC1" stroke-width="1.5" stroke-miterlimit="10"/>
<path d="M240.889 133.77C238.939 135.11 225.889 138.5 225.639 140.86C225.639 140.86 229.929 157.63 225.539 160.76C213.659 169.22 209.859 185.81 209.859 185.81C209.859 185.81 241.199 209.31 324.549 184.64C324.549 184.64 325.549 174.64 310.399 167.41C305.993 165.422 302.296 162.14 299.799 158C298.356 155.693 297.444 153.093 297.129 150.39C295.689 142.16 272.989 111.75 240.889 133.77Z" fill="#0B0A33"/>
<path d="M242.12 158.91C242.259 160.884 241.81 162.855 240.83 164.573C239.849 166.292 238.38 167.681 236.61 168.564C234.839 169.448 232.846 169.786 230.883 169.537C228.92 169.287 227.076 168.461 225.583 167.163C224.089 165.864 223.015 164.152 222.495 162.243C221.976 160.333 222.034 158.313 222.664 156.437C223.293 154.561 224.464 152.914 226.03 151.704C227.596 150.494 229.485 149.776 231.46 149.64C234.102 149.459 236.708 150.333 238.706 152.071C240.705 153.809 241.932 156.268 242.12 158.91V158.91Z" fill="#FFADC1"/>
<path d="M246.629 183.38L248.009 205.1C248.479 212.73 251.599 217.93 259.109 217.41C265.519 216.96 273.109 211.83 273.489 205.41L269.669 171.31L246.629 183.38Z" fill="#FCD0CA"/>
<path d="M242.139 206.43L281.549 205.06C281.549 205.06 280.599 224.45 257.149 222.63C240.889 221.37 242.139 206.43 242.139 206.43Z" fill="#FCD0CA"/>
<path d="M247.771 201.27L272.981 176.62L246.441 181.15L247.771 201.27Z" fill="#FFADC1"/>
<path d="M253.239 186.89C240.409 186.89 229.809 176.82 229.419 166.34L228.669 141.6C228.438 135.28 230.673 129.119 234.901 124.416C239.129 119.714 245.02 116.84 251.329 116.4C264.749 115.47 278.739 125.4 279.679 138.86L280.069 158.76C280.369 174.15 268.599 185.82 253.239 186.89Z" fill="#FCD0CA"/>
<path d="M259.271 112.15C256.065 111.981 252.852 112.319 249.751 113.15C242.061 115.15 228.251 120.89 225.891 135.65C225.101 139.55 225.641 140.85 225.641 140.85C225.641 140.85 251.431 141.85 266.641 134.67C268.841 143.95 270.861 149.67 280.041 158.75L288.191 146.5L297.361 154.73C297.451 155.05 297.431 114.18 259.271 112.15Z" fill="#0B0A33"/>
<path d="M293.452 159.01C293.591 160.984 293.142 162.955 292.162 164.673C291.181 166.392 289.712 167.781 287.942 168.664C286.171 169.548 284.178 169.886 282.215 169.637C280.253 169.387 278.408 168.561 276.915 167.262C275.421 165.964 274.347 164.252 273.828 162.343C273.308 160.433 273.366 158.413 273.996 156.537C274.625 154.661 275.796 153.013 277.362 151.804C278.928 150.594 280.817 149.876 282.792 149.74C285.434 149.559 288.04 150.433 290.039 152.171C292.037 153.909 293.264 156.368 293.452 159.01Z" fill="#FCD0CA"/>
<path d="M279.672 162.56C279.672 162.56 279.172 155.33 286.152 155.99" stroke="#F9A799" stroke-width="1.24" stroke-linecap="round" stroke-linejoin="round"/>
<path d="M12.2567 311.011C13.9691 311.011 15.3572 309.623 15.3572 307.91C15.3572 306.198 13.9691 304.81 12.2567 304.81C10.5444 304.81 9.15625 306.198 9.15625 307.91C9.15625 309.623 10.5444 311.011 12.2567 311.011Z" fill="#FF7E9D"/>
<path d="M21.7138 311.011C23.4261 311.011 24.8142 309.623 24.8142 307.91C24.8142 306.198 23.4261 304.81 21.7138 304.81C20.0014 304.81 18.6133 306.198 18.6133 307.91C18.6133 309.623 20.0014 311.011 21.7138 311.011Z" fill="#FFC147"/>
<path d="M31.1708 311.011C32.8831 311.011 34.2713 309.623 34.2713 307.91C34.2713 306.198 32.8831 304.81 31.1708 304.81C29.4584 304.81 28.0703 306.198 28.0703 307.91C28.0703 309.623 29.4584 311.011 31.1708 311.011Z" fill="#66DD63"/>
<path d="M419.312 258C421.361 258 423.022 256.339 423.022 254.29C423.022 252.241 421.361 250.58 419.312 250.58C417.263 250.58 415.602 252.241 415.602 254.29C415.602 256.339 417.263 258 419.312 258Z" fill="#FF7E9D"/>
<path d="M430.628 258C432.677 258 434.338 256.339 434.338 254.29C434.338 252.241 432.677 250.58 430.628 250.58C428.579 250.58 426.918 252.241 426.918 254.29C426.918 256.339 428.579 258 430.628 258Z" fill="#FFC147" stroke="#FFC147" stroke-width="1.43669" stroke-miterlimit="10"/>
<path d="M441.945 258C443.994 258 445.655 256.339 445.655 254.29C445.655 252.241 443.994 250.58 441.945 250.58C439.896 250.58 438.234 252.241 438.234 254.29C438.234 256.339 439.896 258 441.945 258Z" fill="#66DD63"/>
<path d="M137.165 158.75C139.847 158.75 142.022 156.576 142.022 153.893C142.022 151.211 139.847 149.037 137.165 149.037C134.483 149.037 132.309 151.211 132.309 153.893C132.309 156.576 134.483 158.75 137.165 158.75Z" fill="#FF5F85"/>
<path d="M151.978 158.75C154.66 158.75 156.834 156.576 156.834 153.893C156.834 151.211 154.66 149.037 151.978 149.037C149.295 149.037 147.121 151.211 147.121 153.893C147.121 156.576 149.295 158.75 151.978 158.75Z" fill="#FFC147"/>
<path d="M166.79 158.75C169.472 158.75 171.647 156.576 171.647 153.893C171.647 151.211 169.472 149.037 166.79 149.037C164.108 149.037 161.934 151.211 161.934 153.893C161.934 156.576 164.108 158.75 166.79 158.75Z" fill="#66DD63"/>
</svg>
