<svg width="515" height="637" viewBox="0 0 515 637" fill="none" xmlns="http://www.w3.org/2000/svg">
<rect y="437.521" width="105.213" height="7.3427" rx="3.67135" fill="#FFC147"/>
<g filter="url(#filter0_d)">
<rect x="68.9844" y="184.333" width="121.76" height="126.97" rx="15.7029" fill="#FF0000" fill-opacity="0.01"/>
</g>
<rect x="57.8594" y="171.576" width="144.01" height="150.173" rx="15.7029" fill="white"/>
<rect x="71.6035" y="189.909" width="47.8966" height="6.2969" rx="3.14845" fill="#D9DBE9"/>
<path d="M119.048 290.108C114.069 288.561 109.49 285.943 105.631 282.438C101.773 278.932 98.7292 274.624 96.714 269.816C94.6988 265.008 93.7611 259.817 93.9668 254.608C94.1725 249.399 95.5167 244.298 97.9048 239.664" stroke="#FFC147" stroke-width="22.0186" stroke-linecap="round"/>
<path d="M96.2562 243.365C99.2163 235.555 104.821 229.031 112.095 224.927C119.369 220.823 127.852 219.399 136.067 220.904C144.283 222.408 151.71 226.746 157.058 233.162C162.405 239.577 165.333 247.665 165.333 256.017" stroke="#4457FF" stroke-width="22.0186" stroke-linecap="round"/>
<path d="M165.333 256.017C165.333 262.437 163.602 268.738 160.322 274.256C157.042 279.775 152.334 284.307 146.694 287.375C141.055 290.443 134.692 291.933 128.277 291.688C121.862 291.444 115.631 289.474 110.241 285.986" stroke="#FF5F85" stroke-width="22.0186" stroke-linecap="round"/>
<g filter="url(#filter1_d)">
<rect x="185.705" y="424.492" width="169.188" height="128.262" rx="17.3137" fill="#FF0000" fill-opacity="0.01"/>
</g>
<rect x="171.107" y="413.426" width="199.553" height="151.282" rx="17.3137" fill="white"/>
<rect x="189.188" y="433.293" width="52.8099" height="6.94285" rx="3.47143" fill="#D9DBE9"/>
<rect x="211.129" y="536.742" width="52.8099" height="6.94285" rx="3.47143" fill="#D9DBE9"/>
<circle cx="201.871" cy="540.213" r="4.62857" fill="#8364FF"/>
<rect x="291.711" y="536.742" width="52.8099" height="6.94285" rx="3.47143" fill="#D9DBE9"/>
<circle cx="282.453" cy="540.213" r="4.62857" fill="#596AFF"/>
<path d="M232.08 506.74C221.351 506.74 220.31 493.14 210.367 493.14C200.424 493.14 192.194 510.653 189.188 517.07H352.576V444.864C347.094 456.991 340.02 473.557 330.999 473.557C321.563 473.557 319.644 463.155 308.092 463.155C295.372 463.155 295.341 488.674 284.412 488.674C273.483 488.674 272.543 479.464 261.694 479.464C247.302 479.464 245.375 506.74 232.08 506.74Z" fill="url(#paint0_linear)"/>
<path d="M189.189 516.535C192.18 510.165 200.367 492.782 210.257 492.782C220.147 492.782 221.183 506.281 231.855 506.281C245.079 506.281 246.996 479.207 261.312 479.207C272.104 479.207 273.039 488.35 283.91 488.35C294.781 488.35 294.811 463.019 307.464 463.019C318.955 463.019 320.864 473.345 330.25 473.345C339.223 473.345 346.26 456.901 351.713 444.864" stroke="#596AFF" stroke-width="3.03467" stroke-linecap="round" stroke-linejoin="round"/>
<g filter="url(#filter2_d)">
<rect x="241.215" y="127.772" width="203.075" height="232.821" rx="17.0922" fill="#FF0000" fill-opacity="0.01"/>
</g>
<rect x="221.877" y="100.903" width="241.75" height="277.161" rx="17.0922" fill="white"/>
<path d="M221.877 135.996H463.627" stroke="#EFF0F7" stroke-width="1.48204" stroke-miterlimit="10"/>
<path d="M245.746 122.377C247.699 122.377 249.283 120.794 249.283 118.84C249.283 116.887 247.699 115.304 245.746 115.304C243.792 115.304 242.209 116.887 242.209 118.84C242.209 120.794 243.792 122.377 245.746 122.377Z" fill="#FF5F85" stroke="#FF5F85" stroke-width="1.43666" stroke-miterlimit="10"/>
<path d="M260.82 122.377C262.773 122.377 264.357 120.794 264.357 118.84C264.357 116.887 262.773 115.304 260.82 115.304C258.867 115.304 257.283 116.887 257.283 118.84C257.283 120.794 258.867 122.377 260.82 122.377Z" fill="#FFC147" stroke="#FFC147" stroke-width="1.43666" stroke-miterlimit="10"/>
<path d="M275.894 122.377C277.848 122.377 279.431 120.794 279.431 118.84C279.431 116.887 277.848 115.304 275.894 115.304C273.941 115.304 272.357 116.887 272.357 118.84C272.357 120.794 273.941 122.377 275.894 122.377Z" fill="#66DD63" stroke="#66DD63" stroke-width="1.43666" stroke-miterlimit="10"/>
<rect x="259.873" y="281.843" width="7.39031" height="45.6383" rx="3.69516" fill="#FF5F85"/>
<rect x="291.549" y="264.442" width="7.39031" height="38.0261" rx="3.69516" fill="#FF5F85"/>
<rect x="291.549" y="213.525" width="7.39031" height="45.6383" rx="3.69516" fill="#596AFF"/>
<rect x="291.549" y="307.747" width="7.39031" height="19.7344" rx="3.69516" fill="#596AFF"/>
<rect x="354.893" y="267.209" width="7.39031" height="34.7638" rx="3.69516" fill="#FF5F85"/>
<rect x="354.893" y="246.735" width="7.39031" height="15.1956" rx="3.69516" fill="#596AFF"/>
<rect x="354.893" y="307.252" width="7.39031" height="20.2289" rx="3.69516" fill="#8364FF"/>
<rect x="323.221" y="278.882" width="7.39031" height="48.5986" rx="3.69516" fill="#596AFF"/>
<rect x="323.203" y="258.538" width="7.39031" height="15.0655" rx="3.69516" fill="#FF5F85"/>
<rect x="323.203" y="184.333" width="7.39031" height="68.926" rx="3.69516" fill="#8364FF"/>
<rect x="386.564" y="215.731" width="7.39031" height="37.3969" rx="3.69516" fill="#8364FF"/>
<rect x="386.564" y="190.223" width="7.39031" height="20.2289" rx="3.69516" fill="#596AFF"/>
<rect x="386.564" y="258.407" width="7.39031" height="69.0742" rx="3.69516" fill="#596AFF"/>
<rect x="418.234" y="249.462" width="7.39031" height="35.4417" rx="3.69516" fill="#596AFF"/>
<rect x="418.236" y="198.545" width="7.39031" height="45.6383" rx="3.69516" fill="#FF5F85"/>
<rect x="418.234" y="290.182" width="7.39031" height="37.2988" rx="3.69516" fill="#8364FF"/>
<rect x="254.859" y="338.196" width="18.0783" height="5.46042" rx="2.73021" fill="#D9DBE9"/>
<rect x="286.402" y="338.196" width="18.0783" height="5.46042" rx="2.73021" fill="#D9DBE9"/>
<rect x="317.941" y="338.196" width="18.0783" height="5.46042" rx="2.73021" fill="#D9DBE9"/>
<rect x="349.48" y="338.196" width="18.0783" height="5.46042" rx="2.73021" fill="#D9DBE9"/>
<rect x="381.021" y="338.196" width="18.0783" height="5.46042" rx="2.73021" fill="#D9DBE9"/>
<rect x="412.561" y="338.196" width="18.0783" height="5.46042" rx="2.73021" fill="#D9DBE9"/>
<path d="M127.471 152.655C129.841 153.114 131.695 150.635 130.584 148.491L118.751 125.643C117.657 123.532 114.624 123.572 113.587 125.712L111.456 130.108L99.4774 120.078C98.2449 119.046 96.4071 119.219 95.3885 120.462L91.538 125.163C90.4973 126.433 90.7239 128.315 92.0366 129.302L104.912 138.983L100.798 142.823C99.0723 144.434 99.9026 147.322 102.22 147.771L127.471 152.655Z" fill="#FF5F85"/>
<path d="M483.777 48.0854H419.102C408.056 48.0854 399.102 57.0398 399.102 68.0855L399.102 132.76C399.102 143.806 408.056 152.76 419.102 152.76H483.777C494.823 152.76 503.777 143.806 503.777 132.76V68.0855C503.777 57.0398 494.823 48.0854 483.777 48.0854Z" fill="#FFC147"/>
<path d="M476.523 124.213C476.288 126.189 474.639 127.659 472.71 127.659C470.73 127.659 469.08 126.189 468.897 124.213V109.145C468.713 107.671 469.397 106.297 470.642 105.516C471.929 104.735 473.491 104.735 474.726 105.516C475.971 106.297 476.656 107.671 476.523 109.145V124.213Z" fill="white"/>
<path d="M455.386 124.212C455.202 126.187 453.553 127.657 451.573 127.657C449.644 127.657 447.995 126.187 447.761 124.212V77.4018C447.627 75.9777 448.312 74.5491 449.557 73.7727C450.792 72.9918 452.354 72.9918 453.645 73.7727C454.885 74.5491 455.57 75.9777 455.386 77.4018V124.212Z" fill="white"/>
<path d="M433.978 124.213C433.795 126.188 432.145 127.658 430.166 127.658C428.19 127.658 426.536 126.188 426.357 124.213V92.4699C426.22 91.0412 426.904 89.6218 428.149 88.8408C429.385 88.0599 430.951 88.0599 432.191 88.8408C433.427 89.6218 434.121 91.0412 433.978 92.4699V124.213Z" fill="white"/>
<path d="M373.188 513.933H331.963C320.917 513.933 311.963 522.887 311.963 533.933L311.963 575.158C311.963 586.203 320.917 595.158 331.963 595.158H373.188C384.234 595.158 393.188 586.203 393.188 575.158V533.933C393.188 522.887 384.234 513.933 373.188 513.933Z" fill="#FF5F85"/>
<path d="M348.289 539.597C348.407 539.838 348.485 540.095 348.52 540.36L349.166 549.963V549.963L349.487 554.789C349.49 555.285 349.568 555.779 349.718 556.253C350.105 557.172 351.037 557.757 352.05 557.716L367.492 556.706C368.16 556.695 368.806 556.945 369.287 557.401C369.687 557.781 369.946 558.279 370.027 558.814L370.055 559.138C369.416 567.987 362.917 575.367 354.087 577.272C345.257 579.177 336.203 575.153 331.839 567.384C330.581 565.127 329.796 562.646 329.528 560.087C329.417 559.329 329.367 558.564 329.381 557.799C329.367 548.312 336.123 540.111 345.579 538.134C346.717 537.957 347.833 538.559 348.289 539.597Z" fill="white"/>
<path d="M354.592 531.352C365.169 531.621 374.059 539.227 375.77 549.471L375.753 549.546V549.546L375.707 549.656L375.713 549.958C375.689 550.358 375.535 550.742 375.269 551.053C374.991 551.377 374.613 551.597 374.196 551.683L373.942 551.718L356.126 552.872C355.534 552.93 354.944 552.739 354.503 552.346C354.136 552.019 353.901 551.576 353.834 551.1L352.639 533.31C352.618 533.25 352.618 533.185 352.639 533.125C352.655 532.634 352.871 532.171 353.238 531.838C353.605 531.505 354.093 531.33 354.592 531.352Z" fill="white"/>
<path d="M240.003 0H227.933C224.76 0 222.188 2.57242 222.188 5.74566V17.081C222.188 20.2542 224.76 22.8266 227.933 22.8266H240.003C243.176 22.8266 245.748 20.2542 245.748 17.081V5.74566C245.748 2.57242 243.176 0 240.003 0Z" fill="#8364FF"/>
<path d="M437.612 419.782H420.641C416.18 419.782 412.562 423.399 412.562 427.861V443.8C412.562 448.262 416.18 451.879 420.641 451.879H437.612C442.074 451.879 445.691 448.262 445.691 443.8V427.861C445.691 423.399 442.074 419.782 437.612 419.782Z" fill="#FF5F85"/>
<path d="M51.3331 332.211H34.3622C29.9003 332.211 26.2832 335.828 26.2832 340.29V356.229C26.2832 360.691 29.9003 364.308 34.3622 364.308H51.3331C55.795 364.308 59.4121 360.691 59.4121 356.229V340.29C59.4121 335.828 55.795 332.211 51.3331 332.211Z" fill="#8364FF"/>
<rect x="393.189" y="480.967" width="121.204" height="11.014" rx="5.50702" fill="#596AFF"/>
<rect x="68.9102" y="70.155" width="128.841" height="7.3427" rx="3.67135" fill="#FFC147"/>
<defs>
<filter id="filter0_d" x="40.9844" y="158.333" width="177.76" height="182.97" filterUnits="userSpaceOnUse" color-interpolation-filters="sRGB">
<feFlood flood-opacity="0" result="BackgroundImageFix"/>
<feColorMatrix in="SourceAlpha" type="matrix" values="0 0 0 0 0 0 0 0 0 0 0 0 0 0 0 0 0 0 127 0" result="hardAlpha"/>
<feOffset dy="2"/>
<feGaussianBlur stdDeviation="14"/>
<feColorMatrix type="matrix" values="0 0 0 0 0 0 0 0 0 0 0 0 0 0 0 0 0 0 0.1 0"/>
<feBlend mode="normal" in2="BackgroundImageFix" result="effect1_dropShadow"/>
<feBlend mode="normal" in="SourceGraphic" in2="effect1_dropShadow" result="shape"/>
</filter>
<filter id="filter1_d" x="114.705" y="366.492" width="311.188" height="270.262" filterUnits="userSpaceOnUse" color-interpolation-filters="sRGB">
<feFlood flood-opacity="0" result="BackgroundImageFix"/>
<feColorMatrix in="SourceAlpha" type="matrix" values="0 0 0 0 0 0 0 0 0 0 0 0 0 0 0 0 0 0 127 0" result="hardAlpha"/>
<feOffset dy="13"/>
<feGaussianBlur stdDeviation="35.5"/>
<feColorMatrix type="matrix" values="0 0 0 0 0.106615 0 0 0 0 0.121085 0 0 0 0 0.468385 0 0 0 0.09 0"/>
<feBlend mode="normal" in2="BackgroundImageFix" result="effect1_dropShadow"/>
<feBlend mode="normal" in="SourceGraphic" in2="effect1_dropShadow" result="shape"/>
</filter>
<filter id="filter2_d" x="190.215" y="78.9875" width="305.075" height="334.821" filterUnits="userSpaceOnUse" color-interpolation-filters="sRGB">
<feFlood flood-opacity="0" result="BackgroundImageFix"/>
<feColorMatrix in="SourceAlpha" type="matrix" values="0 0 0 0 0 0 0 0 0 0 0 0 0 0 0 0 0 0 127 0" result="hardAlpha"/>
<feOffset dy="2.21503"/>
<feGaussianBlur stdDeviation="25.5"/>
<feColorMatrix type="matrix" values="0 0 0 0 0.0694769 0 0 0 0 0.0656945 0 0 0 0 0.292639 0 0 0 0.1 0"/>
<feBlend mode="normal" in2="BackgroundImageFix" result="effect1_dropShadow"/>
<feBlend mode="normal" in="SourceGraphic" in2="effect1_dropShadow" result="shape"/>
</filter>
<linearGradient id="paint0_linear" x1="247.633" y1="470.01" x2="265.737" y2="536.399" gradientUnits="userSpaceOnUse">
<stop stop-color="#7481F8"/>
<stop offset="0.647758" stop-color="white" stop-opacity="0"/>
</linearGradient>
</defs>
</svg>
