<svg width="174" height="41" viewBox="0 0 174 41" fill="none" xmlns="http://www.w3.org/2000/svg">
<path d="M163.037 12.1487C167.727 12.1487 171.577 16.1737 171.577 21.3887C171.577 26.6037 167.727 30.6287 163.037 30.6287C160.482 30.6287 158.627 29.6837 157.367 28.0737V37.1387H152.852V12.6387H157.367V14.7037C158.627 13.0937 160.482 12.1487 163.037 12.1487ZM162.197 26.3237C164.997 26.3237 167.062 24.3287 167.062 21.3887C167.062 18.4487 164.997 16.4537 162.197 16.4537C159.432 16.4537 157.367 18.4487 157.367 21.3887C157.367 24.3287 159.432 26.3237 162.197 26.3237Z" fill="#0B0A33"/>
<path d="M144.201 12.6388H148.716V30.1388H144.201V28.1788C143.151 29.7538 141.331 30.6288 138.986 30.6288C135.276 30.6288 132.371 28.0388 132.371 23.3838V12.6388H136.886V22.8238C136.886 25.2038 138.321 26.4288 140.351 26.4288C142.556 26.4288 144.201 25.1338 144.201 22.0888V12.6388Z" fill="#0B0A33"/>
<path d="M129.195 16.9788H125.24V24.2588C125.24 26.1488 126.605 26.1838 129.195 26.0438V30.1388C122.86 30.8388 120.725 28.9838 120.725 24.2588V16.9788H117.68V12.6388H120.725V9.10377L125.24 7.73877V12.6388H129.195V16.9788Z" fill="#0B0A33"/>
<path d="M110.745 15.6488C111.655 13.2688 113.86 12.2888 116.065 12.2888V17.3288C113.72 17.0488 110.745 18.0988 110.745 21.7738V30.1388H106.23V12.6388H110.745V15.6488Z" fill="#0B0A33"/>
<path d="M97.6202 12.6387H102.135V30.1387H97.6202V28.0737C96.3602 29.6487 94.4702 30.6287 91.9152 30.6287C87.2602 30.6287 83.4102 26.6037 83.4102 21.3887C83.4102 16.1737 87.2602 12.1487 91.9152 12.1487C94.4702 12.1487 96.3602 13.1287 97.6202 14.7037V12.6387ZM92.7552 26.3237C95.5552 26.3237 97.6202 24.3287 97.6202 21.3887C97.6202 18.4487 95.5552 16.4537 92.7552 16.4537C89.9902 16.4537 87.9252 18.4487 87.9252 21.3887C87.9252 24.3287 89.9902 26.3237 92.7552 26.3237Z" fill="#0B0A33"/>
<path d="M81.6849 16.9788H77.7299V24.2588C77.7299 26.1488 79.0949 26.1838 81.6849 26.0438V30.1388C75.3499 30.8388 73.2149 28.9838 73.2149 24.2588V16.9788H70.1699V12.6388H73.2149V9.10377L77.7299 7.73877V12.6388H81.6849V16.9788Z" fill="#0B0A33"/>
<path d="M60.2534 17.6087C60.2534 20.1987 69.2834 18.5887 69.2834 25.0287C69.2834 28.8087 65.9934 30.6287 62.2484 30.6287C58.7484 30.6287 56.1584 29.1587 54.8984 26.4637L58.8184 24.2587C59.3084 25.6937 60.4984 26.5337 62.2484 26.5337C63.6834 26.5337 64.6634 26.0437 64.6634 25.0287C64.6634 22.4737 55.6334 23.8737 55.6334 17.7137C55.6334 14.1437 58.6784 12.1487 62.2834 12.1487C65.1184 12.1487 67.5684 13.4437 68.9334 15.8587L65.0834 17.9587C64.5584 16.8387 63.5784 16.1737 62.2834 16.1737C61.1634 16.1737 60.2534 16.6637 60.2534 17.6087Z" fill="#0B0A33"/>
<path d="M13.157 23.7187L5.24979 31.7069C4.15113 32.8169 2.35544 32.809 1.26658 31.6894C0.201289 30.5941 0.215079 28.8457 1.29752 27.7674L11.8988 17.2059C13.0468 16.0623 14.9028 16.0604 16.0531 17.2017L21.0686 22.1784L29.4833 13.6537H23.7635C22.2752 13.6537 21.0686 12.4472 21.0686 10.9588C21.0686 9.47046 22.2752 8.26392 23.7635 8.26392H35.942C37.569 8.26392 38.888 9.58289 38.888 11.2099V23.2784C38.888 24.8275 37.6322 26.0833 36.0831 26.0833C34.534 26.0833 33.2782 24.8275 33.2782 23.2784V17.5586L23.5195 27.2733C22.1573 28.6294 19.9612 28.6486 18.5755 27.3166L14.8111 23.6981C14.3467 23.2518 13.6101 23.2609 13.157 23.7187Z" fill="#FF1313"/>
</svg>
