<svg width="422" height="444" viewBox="0 0 422 444" fill="none" xmlns="http://www.w3.org/2000/svg">
<path d="M0 0H421.077V443.677H0V0Z" fill="#FF0000"/>
<path d="M340.295 208.867C348.279 208.867 354.832 215.718 354.832 224.595C354.832 233.471 348.279 240.323 340.295 240.323C335.946 240.323 332.789 238.714 330.644 235.974V251.404H322.959V209.701H330.644V213.216C332.789 210.475 335.946 208.867 340.295 208.867ZM338.866 232.995C343.632 232.995 347.147 229.599 347.147 224.595C347.147 219.59 343.632 216.194 338.866 216.194C334.159 216.194 330.644 219.59 330.644 224.595C330.644 229.599 334.159 232.995 338.866 232.995Z" fill="white"/>
<path d="M308.232 209.701H315.918V239.488H308.232V236.152C306.445 238.833 303.347 240.323 299.355 240.323C293.04 240.323 288.096 235.914 288.096 227.99V209.701H295.781V227.037C295.781 231.088 298.224 233.173 301.679 233.173C305.432 233.173 308.232 230.969 308.232 225.786V209.701Z" fill="white"/>
<path d="M282.69 217.088H275.958V229.48C275.958 232.697 278.282 232.756 282.69 232.518V239.488C271.907 240.68 268.273 237.522 268.273 229.48V217.088H263.09V209.7H268.273V203.683L275.958 201.36V209.7H282.69V217.088Z" fill="white"/>
<path d="M251.287 214.824C252.836 210.773 256.589 209.105 260.342 209.105V217.684C256.351 217.207 251.287 218.995 251.287 225.25V239.489H243.602V209.701H251.287V214.824Z" fill="white"/>
<path d="M228.946 209.701H236.631V239.489H228.946V235.974C226.801 238.655 223.584 240.323 219.235 240.323C211.311 240.323 204.758 233.471 204.758 224.595C204.758 215.718 211.311 208.867 219.235 208.867C223.584 208.867 226.801 210.535 228.946 213.216V209.701ZM220.665 232.995C225.431 232.995 228.946 229.599 228.946 224.595C228.946 219.59 225.431 216.194 220.665 216.194C215.958 216.194 212.443 219.59 212.443 224.595C212.443 229.599 215.958 232.995 220.665 232.995Z" fill="white"/>
<path d="M201.821 217.088H195.089V229.48C195.089 232.697 197.412 232.756 201.821 232.518V239.488C191.038 240.68 187.404 237.522 187.404 229.48V217.088H182.221V209.7H187.404V203.683L195.089 201.36V209.7H201.821V217.088Z" fill="white"/>
<path d="M165.342 218.16C165.342 222.569 180.712 219.829 180.712 230.791C180.712 237.225 175.112 240.323 168.737 240.323C162.78 240.323 158.371 237.82 156.227 233.233L162.899 229.48C163.733 231.922 165.759 233.352 168.737 233.352C171.18 233.352 172.848 232.518 172.848 230.791C172.848 226.442 157.478 228.825 157.478 218.339C157.478 212.263 162.661 208.867 168.797 208.867C173.623 208.867 177.793 211.071 180.116 215.182L173.563 218.756C172.669 216.85 171.001 215.718 168.797 215.718C166.891 215.718 165.342 216.552 165.342 218.16Z" fill="white"/>
<path d="M85.1817 228.518L71.7224 242.115C69.8524 244.004 66.7958 243.991 64.9424 242.085C63.1291 240.221 63.1526 237.245 64.9951 235.409L83.0402 217.432C84.9942 215.485 88.1535 215.482 90.1114 217.425L98.6487 225.896L112.972 211.386H103.236C100.702 211.386 98.6487 209.332 98.6487 206.799C98.6487 204.265 100.702 202.211 103.236 202.211H123.965C126.735 202.211 128.98 204.457 128.98 207.226V227.768C128.98 230.405 126.842 232.543 124.206 232.543C121.569 232.543 119.431 230.405 119.431 227.768V218.032L102.82 234.568C100.502 236.877 96.7636 236.909 94.4049 234.642L87.9973 228.483C87.2069 227.723 85.953 227.739 85.1817 228.518Z" fill="white"/>
</svg>
