<svg width="422" height="444" viewBox="0 0 422 444" fill="none" xmlns="http://www.w3.org/2000/svg">
<path d="M0 0H421.077V443.677H0V0Z" fill="#1DA1F2"/>
<path d="M296.95 239.988C294.658 238.613 292.823 236.778 291.448 234.486C290.072 232.193 289.441 229.671 289.441 226.919C289.441 224.225 290.072 221.703 291.448 219.41C292.823 217.117 294.658 215.283 296.95 213.907C299.243 212.532 301.765 211.844 304.517 211.844C307.211 211.844 309.733 212.532 312.026 213.907C314.319 215.283 316.153 217.117 317.529 219.41C318.904 221.703 319.592 224.225 319.592 226.919C319.592 229.671 318.904 232.193 317.529 234.486C316.153 236.778 314.319 238.613 312.026 239.988C309.733 241.364 307.211 241.995 304.517 241.995C301.765 241.995 299.243 241.364 296.95 239.988ZM308.472 233.855C309.676 233.167 310.65 232.193 311.395 230.932C312.083 229.728 312.484 228.41 312.484 226.919C312.484 225.486 312.083 224.168 311.395 222.907C310.65 221.703 309.676 220.729 308.472 219.983C307.211 219.295 305.893 218.894 304.46 218.894C302.969 218.894 301.651 219.295 300.447 219.983C299.186 220.729 298.212 221.703 297.524 222.907C296.836 224.168 296.492 225.486 296.492 226.919C296.492 228.41 296.836 229.728 297.524 230.932C298.212 232.193 299.186 233.167 300.447 233.855C301.651 234.543 302.969 234.887 304.46 234.887C305.893 234.887 307.211 234.543 308.472 233.855Z" fill="white"/>
<path d="M278.982 206.684C278.18 205.997 277.836 204.965 277.836 203.704C277.836 202.443 278.18 201.411 278.982 200.666C279.728 199.978 280.759 199.577 282.135 199.577C283.453 199.577 284.485 199.978 285.288 200.666C286.033 201.411 286.434 202.443 286.434 203.704C286.434 204.965 286.033 205.939 285.23 206.684C284.428 207.43 283.396 207.774 282.135 207.774C280.759 207.774 279.728 207.43 278.982 206.684ZM278.524 241.192V212.531H285.632V241.192H278.524Z" fill="white"/>
<path d="M264.62 201.067H271.727V241.192H264.62V238.44C263.301 239.587 261.868 240.504 260.263 241.077C258.658 241.707 256.996 241.994 255.276 241.994C252.353 241.994 249.831 241.364 247.653 240.045C245.474 238.784 243.755 236.95 242.608 234.657C241.462 232.364 240.889 229.785 240.889 226.919C240.889 224.053 241.462 221.473 242.608 219.18C243.755 216.887 245.474 215.111 247.653 213.792C249.831 212.474 252.353 211.786 255.276 211.786C256.996 211.786 258.601 212.13 260.206 212.76C261.811 213.391 263.244 214.251 264.62 215.34V201.067ZM260.435 234.141C261.696 233.453 262.728 232.421 263.473 231.16C264.218 229.899 264.62 228.466 264.62 226.861C264.62 224.454 263.76 222.505 262.155 220.957C260.55 219.467 258.544 218.664 256.193 218.664C253.786 218.664 251.78 219.467 250.232 221.015C248.684 222.562 247.939 224.511 247.939 226.919C247.939 229.326 248.684 231.332 250.232 232.88C251.78 234.428 253.786 235.173 256.193 235.173C257.741 235.173 259.174 234.829 260.435 234.141Z" fill="white"/>
<path d="M229.434 212.532H236.541V241.192H229.434V238.785C228.402 239.759 227.255 240.504 225.994 241.078C224.733 241.651 223.357 241.937 221.982 241.937C220.262 241.937 218.543 241.593 216.823 240.906C215.103 240.218 213.613 238.899 212.352 237.065C211.091 235.231 210.518 232.766 210.518 229.671V212.532H217.625V229.671C217.625 231.849 218.199 233.397 219.402 234.314C220.606 235.231 222.039 235.689 223.644 235.689C225.249 235.689 226.567 235.174 227.714 234.027C228.86 232.881 229.434 231.104 229.434 228.582V212.532Z" fill="white"/>
<path d="M201.007 234.083C201.58 234.599 202.555 234.829 203.93 234.829C204.733 234.829 205.593 234.771 206.567 234.657V241.191C204.733 241.421 203.242 241.478 202.096 241.478C199.001 241.478 196.708 240.79 195.217 239.414C193.727 238.039 192.982 235.516 192.982 231.848V218.893H187.594V212.531H192.982V205.48L200.09 203.073V212.531H206.452V218.893H200.09V231.389C200.09 232.708 200.376 233.625 201.007 234.083Z" fill="white"/>
<path d="M170.996 222.391C171.913 222.792 173.346 223.193 175.295 223.594C177.473 224.053 179.365 224.569 180.855 225.142C182.345 225.715 183.606 226.632 184.695 227.893C185.785 229.154 186.358 230.817 186.358 232.88C186.358 234.772 185.785 236.377 184.638 237.753C183.492 239.128 182.001 240.217 180.167 240.905C178.276 241.593 176.212 241.937 174.034 241.937C170.996 241.937 168.416 241.364 166.238 240.217C164.06 239.071 162.512 237.466 161.48 235.288L167.327 232.25C168.359 234.887 170.595 236.205 174.034 236.205C175.524 236.205 176.785 235.918 177.874 235.345C178.906 234.772 179.479 233.969 179.479 232.88C179.479 231.963 178.963 231.333 177.989 230.874C177.014 230.415 175.467 229.957 173.289 229.384C170.996 228.868 169.161 228.352 167.786 227.779C166.353 227.263 165.149 226.46 164.117 225.314C163.085 224.167 162.57 222.677 162.57 220.786C162.57 218.951 163.085 217.404 164.117 216.028C165.149 214.652 166.525 213.62 168.302 212.875C170.021 212.187 171.97 211.786 174.091 211.786C176.556 211.786 178.791 212.302 180.74 213.334C182.689 214.366 184.237 215.856 185.326 217.748L179.537 220.671C178.505 218.55 176.728 217.461 174.091 217.461C172.715 217.461 171.684 217.748 170.881 218.321C170.079 218.894 169.677 219.639 169.677 220.556C169.677 221.359 170.079 221.989 170.996 222.391Z" fill="white"/>
<mask id="mask0_4453_61377" style="mask-type:alpha" maskUnits="userSpaceOnUse" x="80" y="189" width="65" height="65">
<circle cx="112.161" cy="221.318" r="31.845" fill="#D9D9D9"/>
</mask>
<g mask="url(#mask0_4453_61377)">
<rect x="71.8359" y="229.517" width="33.2586" height="33.2586" rx="3.50004" transform="rotate(-15 71.8359 229.517)" fill="white"/>
<rect x="111.752" y="229.517" width="33.2586" height="33.2586" rx="3.50004" transform="rotate(-15 111.752 229.517)" fill="white"/>
<rect x="111.752" y="189.602" width="33.2586" height="33.2586" rx="3.50004" transform="rotate(-15 111.752 189.602)" fill="white"/>
<rect x="71.8359" y="189.602" width="33.2586" height="33.2586" rx="3.50004" transform="rotate(-15 71.8359 189.602)" fill="white"/>
</g>
</svg>
