<svg width="422" height="444" viewBox="0 0 422 444" fill="none" xmlns="http://www.w3.org/2000/svg">
<path d="M0 0H421.077V443.677H0V0Z" fill="#1877F2"/>
<path d="M346.069 245.685C342.88 245.685 340.084 245.008 337.682 243.654C335.279 242.256 333.423 240.312 332.112 237.822C330.802 235.332 330.146 232.405 330.146 229.042C330.146 225.722 330.802 222.817 332.112 220.327C333.423 217.793 335.279 215.827 337.682 214.429C340.084 212.988 342.88 212.267 346.069 212.267C349.302 212.267 352.097 212.988 354.456 214.429C356.859 215.871 358.715 217.859 360.026 220.392C361.336 222.882 361.992 225.743 361.992 228.976C361.992 229.457 361.97 229.937 361.926 230.418C361.926 230.854 361.883 231.226 361.795 231.532H337.158V225.11H355.308L353.998 228.19C353.998 225.481 353.342 223.275 352.032 221.572C350.765 219.868 348.777 219.016 346.069 219.016C343.71 219.016 341.81 219.759 340.368 221.244C338.927 222.686 338.206 224.63 338.206 227.076V230.549C338.206 233.126 338.927 235.157 340.368 236.642C341.854 238.084 343.863 238.805 346.397 238.805C348.625 238.805 350.372 238.346 351.639 237.429C352.906 236.511 353.998 235.376 354.915 234.021L360.878 237.429C359.436 240.093 357.47 242.147 354.981 243.588C352.534 244.986 349.564 245.685 346.069 245.685Z" fill="white"/>
<path d="M316.523 212.988L318.685 221.834V245.03H310.102V212.988H316.523ZM316.916 226.224L315.344 225.503V218.951L315.933 218.23C316.414 217.444 317.135 216.592 318.096 215.674C319.1 214.757 320.236 213.971 321.503 213.315C322.813 212.617 324.168 212.267 325.566 212.267C326.264 212.267 326.898 212.311 327.466 212.398C328.034 212.486 328.47 212.638 328.776 212.857V220.654H326.679C323.84 220.654 321.656 221.113 320.127 222.03C318.598 222.904 317.528 224.302 316.916 226.224Z" fill="white"/>
<path d="M284.497 245.816C282.094 245.816 280.172 245.445 278.73 244.702C277.289 243.959 276.175 242.977 275.389 241.753C274.646 240.487 274.144 239.045 273.881 237.429C273.619 235.812 273.488 234.131 273.488 232.383V212.988H282.072V232.449C282.072 234.415 282.487 235.725 283.317 236.38C284.191 237.036 285.217 237.363 286.397 237.363C287.489 237.363 288.581 237.167 289.673 236.773C290.765 236.38 291.792 235.812 292.753 235.07C293.757 234.283 294.587 233.388 295.243 232.383L296.291 236.905H294.194V212.988H302.778V245.03H296.357L294.587 238.936L297.339 239.001C296.247 240.268 295.002 241.426 293.605 242.474C292.25 243.523 290.787 244.353 289.214 244.964C287.685 245.532 286.113 245.816 284.497 245.816Z" fill="white"/>
<path d="M262.167 245.62C258.891 245.62 256.292 244.768 254.37 243.064C252.491 241.317 251.552 238.543 251.552 234.742V213.381L251.421 212.988L253.19 205.453H260.136V233.366C260.136 234.764 260.464 235.791 261.119 236.446C261.818 237.058 262.691 237.363 263.74 237.363C264.439 237.363 265.072 237.32 265.64 237.232C266.208 237.101 266.71 236.97 267.147 236.839V244.833C266.448 245.095 265.706 245.292 264.919 245.423C264.133 245.554 263.216 245.62 262.167 245.62ZM246.572 220.917V212.988H267.147V220.917H246.572Z" fill="white"/>
<path d="M231.909 212.267C234.093 212.267 235.84 212.638 237.151 213.381C238.505 214.124 239.51 215.128 240.165 216.395C240.864 217.662 241.323 219.104 241.541 220.72C241.76 222.292 241.869 223.931 241.869 225.634V245.03H233.285V225.569C233.285 223.603 232.892 222.292 232.106 221.637C231.363 220.982 230.402 220.654 229.222 220.654C228.13 220.654 227.016 220.873 225.881 221.31C224.745 221.703 223.675 222.292 222.67 223.079C221.709 223.821 220.879 224.673 220.18 225.634L219.066 221.179H221.228V245.03H212.645V212.988H219.066L220.835 219.147L218.083 219.016C219.219 217.706 220.508 216.548 221.949 215.543C223.434 214.539 225.007 213.752 226.667 213.184C228.327 212.573 230.074 212.267 231.909 212.267Z" fill="white"/>
<path d="M191.471 245.685C188.283 245.685 185.487 245.008 183.084 243.654C180.682 242.256 178.825 240.312 177.515 237.822C176.204 235.332 175.549 232.405 175.549 229.042C175.549 225.722 176.204 222.817 177.515 220.327C178.825 217.793 180.682 215.827 183.084 214.429C185.487 212.988 188.283 212.267 191.471 212.267C194.704 212.267 197.5 212.988 199.859 214.429C202.261 215.871 204.118 217.859 205.428 220.392C206.739 222.882 207.394 225.743 207.394 228.976C207.394 229.457 207.372 229.937 207.329 230.418C207.329 230.854 207.285 231.226 207.198 231.532H182.56V225.11H200.711L199.4 228.19C199.4 225.481 198.745 223.275 197.434 221.572C196.167 219.868 194.18 219.016 191.471 219.016C189.113 219.016 187.212 219.759 185.771 221.244C184.329 222.686 183.608 224.63 183.608 227.076V230.549C183.608 233.126 184.329 235.157 185.771 236.642C187.256 238.084 189.265 238.805 191.799 238.805C194.027 238.805 195.774 238.346 197.041 237.429C198.308 236.511 199.4 235.376 200.317 234.021L206.28 237.429C204.839 240.093 202.873 242.147 200.383 243.588C197.937 244.986 194.966 245.685 191.471 245.685Z" fill="white"/>
<path d="M174.236 212.988L162.507 245.03H154.25L141.932 212.988H150.974L159.361 237.494H157.33L165.39 212.988H174.236Z" fill="white"/>
<path fill-rule="evenodd" clip-rule="evenodd" d="M80.2686 194.456C79.1519 194.456 78.2467 195.361 78.2467 196.478V215.686H78.2456C66.5206 215.686 57.0156 225.191 57.0156 236.916C57.0156 248.641 66.5206 258.146 78.2456 258.146H97.4537C98.5704 258.146 99.4756 257.241 99.4756 256.124V236.916H99.4767C111.202 236.916 120.707 227.411 120.707 215.686C120.707 203.961 111.202 194.456 99.4767 194.456H80.2686ZM99.4756 236.916V217.708C99.4756 216.592 98.5704 215.686 97.4537 215.686H78.2467V234.894C78.2467 236.011 79.1519 236.916 80.2686 236.916H99.4756Z" fill="white"/>
<path d="M80.0402 194.456C79.0493 194.456 78.2461 195.259 78.2461 196.25L78.2461 215.686H97.682C98.6729 215.686 99.4761 216.489 99.4761 217.48L99.4761 236.916C111.201 236.916 120.706 227.411 120.706 215.686C120.706 203.961 111.201 194.456 99.4761 194.456H80.0402Z" fill="white"/>
</svg>
