<svg width="119" height="29" viewBox="0 0 119 29" fill="none" xmlns="http://www.w3.org/2000/svg">
<path d="M111.173 21.6857C109.946 21.6857 108.871 21.4253 107.947 20.9045C107.023 20.3669 106.309 19.6192 105.805 18.6616C105.301 17.7039 105.049 16.5782 105.049 15.2846C105.049 14.0077 105.301 12.8904 105.805 11.9328C106.309 10.9583 107.023 10.2023 107.947 9.66465C108.871 9.11022 109.946 8.83301 111.173 8.83301C112.416 8.83301 113.491 9.11022 114.399 9.66465C115.323 10.2191 116.037 10.9835 116.541 11.958C117.045 12.9156 117.297 14.0161 117.297 15.2594C117.297 15.4442 117.288 15.629 117.272 15.8138C117.272 15.9818 117.255 16.1246 117.221 16.2422H107.745V13.7725H114.726L114.222 14.957C114.222 13.9153 113.97 13.0668 113.466 12.4116C112.979 11.7564 112.214 11.4288 111.173 11.4288C110.266 11.4288 109.535 11.7144 108.98 12.2856C108.426 12.84 108.149 13.5877 108.149 14.5285V15.8642C108.149 16.8555 108.426 17.6367 108.98 18.2079C109.551 18.7624 110.324 19.0396 111.299 19.0396C112.156 19.0396 112.828 18.8632 113.315 18.5104C113.802 18.1575 114.222 17.7207 114.575 17.1999L116.868 18.5104C116.314 19.5352 115.558 20.3249 114.6 20.8793C113.659 21.4169 112.517 21.6857 111.173 21.6857Z" fill="#0B0A33"/>
<path d="M99.8096 9.11022L100.641 12.5124V21.4337H97.3398V9.11022H99.8096ZM99.9608 14.2009L99.356 13.9237V11.4036L99.5828 11.1263C99.7676 10.8239 100.045 10.4963 100.414 10.1435C100.801 9.79066 101.238 9.48824 101.725 9.23623C102.229 8.96741 102.75 8.83301 103.287 8.83301C103.556 8.83301 103.8 8.84981 104.018 8.88341C104.237 8.91701 104.405 8.97582 104.522 9.05982V12.0588H103.716C102.624 12.0588 101.784 12.2352 101.196 12.588C100.608 12.924 100.196 13.4617 99.9608 14.2009Z" fill="#0B0A33"/>
<path d="M87.4917 21.7358C86.5676 21.7358 85.8284 21.593 85.2739 21.3073C84.7195 21.0217 84.2911 20.6437 83.9887 20.1733C83.703 19.6861 83.5098 19.1316 83.409 18.51C83.3082 17.8884 83.2578 17.2415 83.2578 16.5695V9.10986H86.5592V16.5947C86.5592 17.3507 86.7188 17.8548 87.038 18.1068C87.374 18.3588 87.7689 18.4848 88.2225 18.4848C88.6425 18.4848 89.0625 18.4092 89.4826 18.258C89.9026 18.1068 90.2974 17.8884 90.667 17.6027C91.0535 17.3003 91.3727 16.9559 91.6247 16.5695L92.0279 18.3084H91.2215V9.10986H94.5228V21.4334H92.0531L91.3727 19.0896L92.4311 19.1148C92.0111 19.6021 91.5323 20.0473 90.9946 20.4505C90.4738 20.8537 89.911 21.1729 89.3062 21.4082C88.7181 21.6266 88.1133 21.7358 87.4917 21.7358Z" fill="#0B0A33"/>
<path d="M78.9042 21.6604C77.6441 21.6604 76.6445 21.3328 75.9052 20.6775C75.1828 20.0055 74.8216 18.9386 74.8216 17.4769V9.26129L74.7712 9.11008L75.4516 6.21191H78.1229V16.9477C78.1229 17.4853 78.2489 17.8802 78.501 18.1322C78.7698 18.3674 79.1058 18.485 79.509 18.485C79.7778 18.485 80.0214 18.4682 80.2399 18.4346C80.4583 18.3842 80.6515 18.3338 80.8195 18.2834V21.358C80.5507 21.4588 80.2651 21.5344 79.9626 21.5848C79.6602 21.6352 79.3074 21.6604 78.9042 21.6604ZM72.9062 12.1594V9.11008H80.8195V12.1594H72.9062Z" fill="#0B0A33"/>
<path d="M67.2666 8.83301C68.1067 8.83301 68.7787 8.97582 69.2828 9.26143C69.8036 9.54705 70.19 9.93347 70.442 10.4207C70.7108 10.9079 70.8872 11.4624 70.9712 12.084C71.0553 12.6888 71.0973 13.3189 71.0973 13.9741V21.4337H67.7959V13.9489C67.7959 13.1929 67.6447 12.6888 67.3422 12.4368C67.0566 12.1848 66.687 12.0588 66.2334 12.0588C65.8134 12.0588 65.3849 12.1428 64.9481 12.3108C64.5113 12.462 64.0997 12.6888 63.7132 12.9912C63.3436 13.2769 63.0244 13.6045 62.7556 13.9741L62.3272 12.2604H63.1588V21.4337H59.8574V9.11022H62.3272L63.0076 11.4792L61.9491 11.4288C62.386 10.9247 62.8816 10.4795 63.436 10.0931C64.0073 9.70666 64.6121 9.40424 65.2505 9.18583C65.889 8.95061 66.561 8.83301 67.2666 8.83301Z" fill="#0B0A33"/>
<path d="M51.7138 21.6857C50.4873 21.6857 49.4121 21.4253 48.488 20.9045C47.564 20.3669 46.8499 19.6192 46.3459 18.6616C45.8419 17.7039 45.5898 16.5782 45.5898 15.2846C45.5898 14.0077 45.8419 12.8904 46.3459 11.9328C46.8499 10.9583 47.564 10.2023 48.488 9.66465C49.4121 9.11022 50.4873 8.83301 51.7138 8.83301C52.9571 8.83301 54.0323 9.11022 54.9396 9.66465C55.8636 10.2191 56.5777 10.9835 57.0817 11.958C57.5857 12.9156 57.8377 14.0161 57.8377 15.2594C57.8377 15.4442 57.8293 15.629 57.8125 15.8138C57.8125 15.9818 57.7957 16.1246 57.7621 16.2422H48.2864V13.7725H55.2672L54.7632 14.957C54.7632 13.9153 54.5111 13.0668 54.0071 12.4116C53.5199 11.7564 52.7554 11.4288 51.7138 11.4288C50.8065 11.4288 50.0757 11.7144 49.5213 12.2856C48.9668 12.84 48.6896 13.5877 48.6896 14.5285V15.8642C48.6896 16.8555 48.9668 17.6367 49.5213 18.2079C50.0925 18.7624 50.8653 19.0396 51.8398 19.0396C52.6966 19.0396 53.3687 18.8632 53.8559 18.5104C54.3431 18.1575 54.7632 17.7207 55.116 17.1999L57.4093 18.5104C56.8549 19.5352 56.0988 20.3249 55.1412 20.8793C54.2003 21.4169 53.0579 21.6857 51.7138 21.6857Z" fill="#0B0A33"/>
<path d="M45.0845 9.10986L40.5734 21.4334H37.398L32.6602 9.10986H36.138L39.3637 18.5352H38.5825L41.6823 9.10986H45.0845Z" fill="#0B0A33"/>
<path fill-rule="evenodd" clip-rule="evenodd" d="M8.94323 1.75195C8.51375 1.75195 8.16559 2.10011 8.16559 2.52959V9.91725H8.1652C3.65568 9.91725 0 13.5729 0 18.0824C0 22.592 3.65569 26.2476 8.1652 26.2476H15.5528C15.9822 26.2476 16.3304 25.8995 16.3304 25.47V18.0823H16.3308C20.8403 18.0823 24.496 14.4267 24.496 9.91715C24.496 5.40764 20.8403 1.75195 16.3308 1.75195H8.94323ZM16.3304 18.0823V10.6949C16.3304 10.2654 15.9822 9.91725 15.5528 9.91725H8.16559V17.3047C8.16559 17.7342 8.51375 18.0823 8.94323 18.0823H16.3304Z" fill="#0B0A33"/>
<path d="M8.85603 1.75195C8.47495 1.75195 8.16602 2.06088 8.16602 2.44197L8.16602 9.91715H15.6412C16.0223 9.91715 16.3312 10.2261 16.3312 10.6072L16.3312 18.0823C20.8407 18.0823 24.4964 14.4267 24.4964 9.91715C24.4964 5.40763 20.8407 1.75195 16.3312 1.75195H8.85603Z" fill="#0B0A33"/>
</svg>
