<svg width="256" height="256" viewBox="0 0 256 256" fill="none" xmlns="http://www.w3.org/2000/svg">
<rect width="256" height="256" rx="80" fill="#F3F5FF"/>
<path d="M47.7832 111.938C47.7832 104.834 55.6128 100.516 61.6209 104.308L118.426 140.153C121.045 141.806 122.633 144.686 122.633 147.783V205.37C122.633 212.49 114.773 216.804 108.767 212.982L51.9618 176.833C49.3593 175.177 47.7832 172.306 47.7832 169.221L47.7832 111.938Z" fill="#FF5F85"/>
<path d="M208.221 111.938C208.221 104.834 200.391 100.516 194.383 104.308L137.578 140.153C134.959 141.806 133.371 144.686 133.371 147.783V205.37C133.371 212.49 141.231 216.804 147.237 212.982L204.042 176.833C206.645 175.177 208.221 172.306 208.221 169.221L208.221 111.938Z" fill="#FFC147"/>
<path d="M189.975 74.5271L134.854 39.5184C131.059 37.1086 126.215 37.1075 122.419 39.5156L67.4114 74.4177C60.1811 79.0052 60.2425 89.5764 67.5255 94.0797L123.3 128.566C127.075 130.9 131.85 130.876 135.601 128.503L189.957 94.1236C197.148 89.5751 197.158 79.0891 189.975 74.5271Z" fill="#4457FF"/>
</svg>
